/* XPM */
static char * AppIcon_xpm[] = {
"32 32 181 2",
"  	c None",
". 	c #00008B",
"+ 	c #5D5DB5",
"@ 	c #4A4AAD",
"# 	c #5B5BB4",
"$ 	c #F6F6FB",
"% 	c #FDFDFE",
"& 	c #C1C1E3",
"* 	c #191996",
"= 	c #5C5CB5",
"- 	c #FFFFFF",
"; 	c #ECECF6",
"> 	c #6060B7",
", 	c #02028C",
"' 	c #4848AC",
") 	c #0B0B90",
"! 	c #FBFBFD",
"~ 	c #A8A8D7",
"{ 	c #2A2A9E",
"] 	c #141494",
"^ 	c #EAEAF6",
"/ 	c #BCBCE0",
"( 	c #2C2C9F",
"_ 	c #F7F7FB",
": 	c #5757B3",
"< 	c #0A0A90",
"[ 	c #121293",
"} 	c #C4C4E4",
"| 	c #F1F1F8",
"1 	c #4646AB",
"2 	c #01018C",
"3 	c #7171BE",
"4 	c #CFCFE9",
"5 	c #171795",
"6 	c #BFBFE2",
"7 	c #3838A4",
"8 	c #26269C",
"9 	c #CCCCE8",
"0 	c #181896",
"a 	c #E4E4F3",
"b 	c #C3C3E4",
"c 	c #1F1F99",
"d 	c #DADAEE",
"e 	c #D3D3EB",
"f 	c #161695",
"g 	c #C7C7E5",
"h 	c #0C0C91",
"i 	c #21219A",
"j 	c #AAAAD8",
"k 	c #5353B1",
"l 	c #A6A6D6",
"m 	c #101092",
"n 	c #22229A",
"o 	c #DDDDF0",
"p 	c #7777C1",
"q 	c #7C7CC4",
"r 	c #E1E1F1",
"s 	c #23239B",
"t 	c #E9E9F5",
"u 	c #0C0C90",
"v 	c #03038C",
"w 	c #4242A9",
"x 	c #C6C6E5",
"y 	c #07078E",
"z 	c #9999D0",
"A 	c #4F4FAF",
"B 	c #171796",
"C 	c #4747AB",
"D 	c #C2C2E3",
"E 	c #EDEDF7",
"F 	c #DEDEF0",
"G 	c #8585C7",
"H 	c #ABABD9",
"I 	c #B2B2DC",
"J 	c #6464B9",
"K 	c #2B2B9E",
"L 	c #D5D5EC",
"M 	c #0B0787",
"N 	c #B47551",
"O 	c #8B7191",
"P 	c #FAFAFD",
"Q 	c #4D4DAE",
"R 	c #9595CF",
"S 	c #9292CD",
"T 	c #151594",
"U 	c #0D0887",
"V 	c #B17252",
"W 	c #DF9143",
"X 	c #6C4668",
"Y 	c #8F85B5",
"Z 	c #F5F5FA",
"` 	c #A1A1D4",
" .	c #7676C1",
"..	c #060489",
"+.	c #B47451",
"@.	c #DD8F44",
"#.	c #221680",
"$.	c #110B86",
"%.	c #B87750",
"&.	c #E89641",
"*.	c #A393B2",
"=.	c #A4A4D6",
"-.	c #3B3BA6",
";.	c #B57551",
">.	c #D98C45",
",.	c #1F1481",
"'.	c #04028A",
").	c #CD8449",
"!.	c #FFA539",
"~.	c #F39D3D",
"{.	c #04038A",
"].	c #A06758",
"^.	c #AB6F54",
"/.	c #070489",
"(.	c #764C65",
"_.	c #080588",
":.	c #905D5D",
"<.	c #875860",
"[.	c #E69541",
"}.	c #754C65",
"|.	c #01018B",
"1.	c #B67651",
"2.	c #E39342",
"3.	c #7C5063",
"4.	c #462E74",
"5.	c #050389",
"6.	c #100A86",
"7.	c #65416B",
"8.	c #88585F",
"9.	c #F9A13B",
"0.	c #64416B",
"a.	c #56386F",
"b.	c #FAA23B",
"c.	c #805362",
"d.	c #03028A",
"e.	c #593A6E",
"f.	c #5F3D6D",
"g.	c #0A0688",
"h.	c #BA784F",
"i.	c #57396F",
"j.	c #D38847",
"k.	c #CA834A",
"l.	c #5A3A6E",
"m.	c #462D74",
"n.	c #6A4469",
"o.	c #150D84",
"p.	c #503471",
"q.	c #9B6459",
"r.	c #F09B3E",
"s.	c #A96D55",
"t.	c #D48947",
"u.	c #F19C3D",
"v.	c #AA6E54",
"w.	c #36237A",
"x.	c #150E84",
"y.	c #D08648",
"z.	c #FDA43A",
"A.	c #F7A03C",
"B.	c #A16857",
"C.	c #1B1182",
"D.	c #140D85",
"E.	c #BF7B4E",
"F.	c #402976",
"G.	c #8A595F",
"H.	c #CF8649",
"I.	c #603E6C",
"J.	c #27197E",
"K.	c #8B5A5E",
"L.	c #F8A13B",
"M.	c #EB983F",
"N.	c #E09143",
"O.	c #A36A56",
"P.	c #3E2877",
"Q.	c #402A76",
"R.	c #FBA23A",
"S.	c #BD7A4E",
"T.	c #3F2977",
"U.	c #110B85",
"V.	c #794E64",
"W.	c #181083",
"X.	c #533670",
". . . . . . . . . . . . . . . . . . . . . . . . . . . . . . . . ",
". . . . . . . . . . . . . . . . . . . . . . . . + @ . . . . . . ",
". . . . . . . . . . . . . . . . . . . . . . . # $ % & * . . . . ",
". . . . . . . . . . . . . . . . . . . . . . = % - ; > , ' ) . . ",
". . . . . . . . . . . . . . . . . . . . . = ! - ~ { . ] ^ / ( . ",
". . . . . . . . . . . . . . . . . . . . = $ _ : < . [ } - - | 1 ",
". . . . . . . . . . . . . . . . . . . = ! _ ' . . 2 3 - - - 4 5 ",
". . . . . . . . . . . . . . . . . . # % 6 7 . . . 8 - - - 9 0 . ",
". . . . . . . . . . . . . . . . . 0 a b [ . . . c d - - e f . . ",
". . . . . . . . . . . . . . . . 5 4 g h . . . i j - - ! k . . . ",
". . . . . . . . . . . . . . . . l 6 m . . . n o - - $ = . . . . ",
". . . . . . . . . . . . . . . p & [ . . ] q r - - ! = . . . . . ",
". . . . . . . . . . . . . . s t u . v w x - - - % = . . . . . . ",
". . . . . . . . . . . . . y z A B C D - - - E a # . . . . . . . ",
". . . . . . . . . . . . . @ F G r - - _ x l H 0 . . . . . . . . ",
". . . . . . . . . . . . v } - - - I J K & L 5 . . . . . . . . . ",
". . . . . . . . . . . M N O 6 P Q . . R S T . . . . . . . . . . ",
". . . . . . . . . . U V W X . Y Z ' `  .. . . . . . . . . . . . ",
". . . . . . . . . ..+.@.#.$.%.&.*.=.-.2 . . . . . . . . . . . . ",
". . . . . . . . . ;.>.,.'.).!.~.{., . . . . . . . . . . . . . . ",
". . . . . . . . . ].^.. /.!.!.(.. . . . . . . . . . . . . . . . ",
". . . . . . _.:.<.[.}.. |.^.!.#.. . . . . . . . . . . . . . . . ",
". . . . . . 1.2.3.4.5.6.7.8.9.0.. . . . . . . . . . . . . . . . ",
". . . . . a.b.c.. d.e.f.g.. h.!.. . . . . . . . . . . . . . . . ",
". . . . i.j.k.l.m.n.o.. p.q.r.s.. . . . . . . . . . . . . . . . ",
". . . ,.t.#.u.v.w.x.3.y.z.A.B.C.. . . . . . . . . . . . . . . . ",
". . D.E.F.G.b.!.!.j.H.^.I.J.. . . . . . . . . . . . . . . . . . ",
". . K.L.M.N.O.P.P.5.. . . . . . . . . . . . . . . . . . . . . . ",
". Q.R.S.T.U.. . . . . . . . . . . . . . . . . . . . . . . . . . ",
"..N V.d.. . . . . . . . . . . . . . . . . . . . . . . . . . . . ",
"W.X.. . . . . . . . . . . . . . . . . . . . . . . . . . . . . . ",
". . . . . . . . . . . . . . . . . . . . . . . . . . . . . . . . "};
