/* XPM */
static char *Bild[]={
"22 22 133 2",
".# c None",
"Qt c #000000",
"#6 c #040404",
"#M c #050505",
"#Q c #0a0a0a",
"#5 c #0b0b0b",
"#O c #121212",
"#X c #154700",
"#B c #171717",
"#1 c #1a4906",
"#P c #1b1b1b",
".b c #1b4260",
"#l c #1e1e1e",
".c c #1e4869",
".e c #1e4a6b",
".d c #1e4b6d",
"#7 c #1e5905",
".f c #204f73",
"#S c #205b07",
".g c #215175",
".o c #235174",
"#Y c #236308",
"#R c #246608",
".j c #255b84",
".y c #275478",
".k c #296491",
"#F c #2a2a2a",
"#N c #2b2b2b",
"#4 c #2b780a",
"#Z c #2b790a",
".p c #2c6894",
".J c #2d5b80",
"ab c #308c09",
"#0 c #31840e",
"#U c #323232",
".h c #325c7c",
".Y c #326088",
".z c #326d9b",
"aa c #328e0b",
".M c #336893",
".q c #3375a7",
"#D c #343434",
"#T c #363636",
".K c #366e9d",
".r c #3677a8",
".s c #367cb1",
"#8 c #36960d",
".i c #37607e",
"#u c #383838",
".1 c #396d99",
".L c #3974a3",
".6 c #3c74a4",
".A c #3c81b7",
"#v c #3d3d3d",
"#a c #3d6b94",
".N c #3d7db0",
"ac c #3d9915",
"#W c #3e3e3e",
".V c #3e6688",
"#2 c #3e7326",
"a. c #3e9a17",
"#g c #424242",
".W c #42749d",
".x c #42759d",
"#f c #4279a9",
".Z c #4380b5",
".7 c #446b8c",
"## c #447aa5",
".B c #447fae",
"#L c #454545",
"#3 c #468a29",
".0 c #4788c0",
"#k c #484848",
".U c #4a7da6",
".E c #4a8abc",
"#H c #4b4b4b",
"#A c #4c4c4c",
"#V c #4d4d4d",
".l c #4d7ca0",
".I c #4d7ea4",
".P c #4d8dc0",
"#G c #4e4e4e",
".t c #4e8bba",
"#e c #4e8fc8",
"a# c #517d3e",
".C c #5390bf",
".O c #5592c3",
".Q c #5792c3",
"#I c #585858",
"#K c #595959",
".D c #5994c2",
"#m c #5c5c5c",
"#o c #5c80a2",
".F c #5c95c2",
"#w c #5d5d5d",
"#s c #5e8ab4",
".8 c #5f5f5f",
"#i c #606060",
"#b c #6198c9",
"#j c #636363",
"#d c #639cce",
"#p c #6594c1",
"#z c #6a6a6a",
".m c #6a90ab",
"#E c #6b6b6b",
"#c c #6ba1d1",
"#9 c #6bb14d",
".2 c #6c9fca",
".5 c #6ea2ce",
"#r c #6fa3d4",
"#q c #70a5d6",
"#J c #727272",
".n c #7697b0",
"#n c #7a7a7a",
"#h c #7f7f7f",
"#x c #818181",
".u c #81adce",
".R c #89b3d5",
"#t c #8c8c8c",
".3 c #8cb6d8",
".G c #92b8d6",
"#C c #94bce2",
"#. c #959595",
".9 c #969696",
".4 c #99bddd",
".v c #afcbe0",
".S c #b4cfe4",
"#y c #b8b8b8",
".X c #bdbdbd",
".w c #c7dae9",
".H c #c8dbea",
".T c #caddec",
".a c #ffffff",
".#.#.#.#.#.#.#.#.#.#.#.#.#.#.#.#.#.#.#.#.#.#",
"QtQtQt.#.#.#.#.#.#QtQtQt.#.#.#.#.#.#QtQtQt.#",
"QtQtQt.aQt.aQt.aQtQtQtQtQt.aQt.aQt.aQtQtQt.#",
"QtQt.a.a.a.a.a.a.a.a.a.a.a.a.a.a.a.a.aQtQt.#",
".#.a.a.b.c.d.e.f.g.g.g.g.g.h.i.h.g.g.a.a.#.#",
".#Qt.a.d.j.k.k.k.k.k.k.k.l.m.n.m.l.k.aQt.#.#",
".#.a.a.o.p.q.q.r.r.q.s.t.u.v.w.v.u.x.a.a.#.#",
".#Qt.a.y.z.A.A.B.C.D.E.F.G.H.a.H.G.I.aQt.#.#",
".#.a.a.J.K.L.a.M.N.O.P.Q.R.S.T.S.R.U.a.a.#.#",
"QtQt.a.V.W.a.X.a.Y.Z.0.1.2.3.4.3.5.6.aQtQt.#",
"QtQt.a.7Qt.8.9#..a##Qt.a#a#b#c#d#e#f.aQtQt.#",
"QtQt.aQt#g#h#i#j#k#l#m#n.a#o#p#q#r#s.aQtQt.#",
".#.a.aQt#t#g#u#vQt#w#x#y#z#A#B#C#D#E.a.a.#.#",
".#Qt.a#F#GQtQt#H#I#J#K#L#M#N#OQt#P#Q.aQt.#.#",
".#.a.a#R#S#T#U#A#V#WQt#PQt#X#Y#Z#0#1.a.a.#.#",
".#Qt.a#2#3#4#Y#5#6#X#7#Y#4#0#8#9a.#Z.aQt.#.#",
".#.a.aa##8#8aa#0#0#4#Z#0ab#8#8ac#8#Z.a.a.#.#",
"QtQt.a.a.a.a.a.a.a.a.a.a.a.a.a.a.a.a.aQtQt.#",
"QtQtQt.aQt.aQt.aQtQtQtQtQt.aQt.aQt.aQtQtQt.#",
"QtQtQt.#.#.#.#.#.#QtQtQt.#.#.#.#.#.#QtQtQt.#",
".#.#.#.#.#.#.#.#.#.#.#.#.#.#.#.#.#.#.#.#.#.#",
".#.#.#.#.#.#.#.#.#.#.#.#.#.#.#.#.#.#.#.#.#.#"};
