/* XPM */
static char * Bild16_xpm[] = {
"16 16 118 2",
"  	c None",
". 	c #6D6D6D",
"+ 	c #6B6B6B",
"@ 	c #606060",
"# 	c #FFFFFF",
"$ 	c #F3F3F3",
"% 	c #868686",
"& 	c #808080",
"* 	c #ADBBC6",
"= 	c #7892A6",
"- 	c #7893A7",
"; 	c #7996AB",
"> 	c #7A97AC",
", 	c #7C98AD",
"' 	c #859EB1",
") 	c #94ABBD",
"! 	c #909090",
"~ 	c #255B84",
"{ 	c #275F8A",
"] 	c #27608B",
"^ 	c #4A7799",
"/ 	c #6388A3",
"( 	c #5380A3",
"_ 	c #7B97AC",
": 	c #3170A0",
"< 	c #3678AA",
"[ 	c #3A7AAB",
"} 	c #3B7EB1",
"| 	c #4C8ABA",
"1 	c #8EB5D3",
"2 	c #C0D6E7",
"3 	c #6A92B2",
"4 	c #7F9AB0",
"5 	c #3774A5",
"6 	c #7BA7CA",
"7 	c #427DAC",
"8 	c #4B8ABC",
"9 	c #5792C1",
"0 	c #98BCD9",
"a 	c #D1E1EE",
"b 	c #7097B7",
"c 	c #87A1B6",
"d 	c #98B3C9",
"e 	c #CFD3D7",
"f 	c #7EA0BC",
"g 	c #427EB0",
"h 	c #467FAE",
"i 	c #7FACD1",
"j 	c #A3C4DF",
"k 	c #80ADD3",
"l 	c #6793B7",
"m 	c #8EA6BA",
"n 	c #737B81",
"o 	c #A0A0A0",
"p 	c #BCBFC3",
"q 	c #5E6A74",
"r 	c #AFBAC3",
"s 	c #4D7EA8",
"t 	c #6EA1CF",
"u 	c #6FA3D1",
"v 	c #5996CB",
"w 	c #6793B9",
"x 	c #666666",
"y 	c #5C5C5C",
"z 	c #595959",
"A 	c #4E4E4E",
"B 	c #535353",
"C 	c #7F7F7F",
"D 	c #C6CCD1",
"E 	c #577896",
"F 	c #6A97C1",
"G 	c #6793BB",
"H 	c #809CB7",
"I 	c #707070",
"J 	c #232323",
"K 	c #282828",
"L 	c #363636",
"M 	c #525252",
"N 	c #858585",
"O 	c #414141",
"P 	c #2E2E2E",
"Q 	c #3E4C5A",
"R 	c #33383D",
"S 	c #6A6A6A",
"T 	c #7D9573",
"U 	c #222A1E",
"V 	c #272727",
"W 	c #2A2A2A",
"X 	c #080E05",
"Y 	c #1D3F0F",
"Z 	c #1B4608",
"` 	c #255711",
" .	c #435939",
"..	c #88A979",
"+.	c #306C15",
"@.	c #234C12",
"#.	c #161616",
"$.	c #16320A",
"%.	c #20520A",
"&.	c #246509",
"*.	c #2E800C",
"=.	c #4D9B2B",
"-.	c #42991E",
";.	c #538C3A",
">.	c #ABC1A2",
",.	c #63A745",
"'.	c #5BA33C",
").	c #5A9D3E",
"!.	c #57973C",
"~.	c #599B3E",
"{.	c #5AA53B",
"].	c #5EAB3D",
"^.	c #62AC41",
"/.	c #5FAB3F",
"(.	c #77A962",
"_.	c #ECECEC",
":.	c #818181",
"<.	c #9B9B9B",
"  . . . . . . . . . . . . + @   ",
". # # # # # # # # # # # # $ % & ",
". # * = - ; > > , ' ' , ) $ % ! ",
". # = ~ { ] ] ] ^ / / ^ ( $ % ! ",
". # _ : < [ } | 1 2 2 1 3 $ % ! ",
". # 4 5 6 7 8 9 0 a a 0 b $ % ! ",
". # c d e f g h i j j k l $ % ! ",
". # m n o p q r s t u v w $ % ! ",
". # x y z A B C D E F G H $ % ! ",
". # I J K L M N O P Q R S $ % ! ",
". # T U V A L W X Y Z `  .$ % ! ",
". # ..+.@.#.$.%.&.*.=.-.;.$ % ! ",
". # >.,.'.).!.~.{.].^./.(.$ % ! ",
"+ $ $ $ $ $ $ $ $ $ $ $ $ _.% ! ",
"@ % % % % % % % % % % % % % :.<.",
"  & ! ! ! ! ! ! ! ! ! ! ! ! <.  "};
