/* XPM */
static char * Bild_xpm[] = {
"20 20 117 2",
"  	c None",
". 	c #494949",
"+ 	c #FFFFFF",
"@ 	c #A2A2A2",
"# 	c #2D506B",
"$ 	c #315775",
"% 	c #315673",
"& 	c #345C7A",
"* 	c #345D7C",
"= 	c #456781",
"- 	c #4A6C84",
"; 	c #3F6E93",
"> 	c #6185A1",
", 	c #7D97A9",
"' 	c #889DAE",
") 	c #375D7B",
"! 	c #497DA5",
"~ 	c #4C7FA6",
"{ 	c #4E84AE",
"] 	c #6992B1",
"^ 	c #95B1C7",
"/ 	c #BCCEDC",
"( 	c #CFDBE5",
"_ 	c #567F9E",
": 	c #3B617F",
"< 	c #5689B0",
"[ 	c #5B87A9",
"} 	c #6D96B5",
"| 	c #6691B2",
"1 	c #759BB9",
"2 	c #A2BCD0",
"3 	c #D0DCE6",
"4 	c #6286A2",
"5 	c #416785",
"6 	c #4F7DA1",
"7 	c #487194",
"8 	c #5587AD",
"9 	c #6994B5",
"0 	c #7198B9",
"a 	c #9BB6CD",
"b 	c #BFD1DF",
"c 	c #D2DEE8",
"d 	c #6086A4",
"e 	c #51708B",
"f 	c #C1C1C1",
"g 	c #466C8C",
"h 	c #6590B5",
"i 	c #4E779A",
"j 	c #83A5C1",
"k 	c #9EB9D0",
"l 	c #AAC1D6",
"m 	c #85A8C5",
"n 	c #517DA3",
"o 	c #57758F",
"p 	c #6A6A6A",
"q 	c #9D9D9D",
"r 	c #9C9C9C",
"s 	c #131313",
"t 	c #517597",
"u 	c #799DBF",
"v 	c #83A6C7",
"w 	c #7DA3C3",
"x 	c #6A96BC",
"y 	c #5883A8",
"z 	c #888888",
"A 	c #6B6B6B",
"B 	c #6E6E6E",
"C 	c #555555",
"D 	c #686868",
"E 	c #838383",
"F 	c #71899F",
"G 	c #7D9CB9",
"H 	c #87AACB",
"I 	c #87A9C9",
"J 	c #7492AE",
"K 	c #505050",
"L 	c #464646",
"M 	c #4B4B4B",
"N 	c #8A8A8A",
"O 	c #BDBDBD",
"P 	c #757575",
"Q 	c #595959",
"R 	c #282828",
"S 	c #A6C1DA",
"T 	c #434343",
"U 	c #767676",
"V 	c #393939",
"W 	c #585858",
"X 	c #646464",
"Y 	c #656565",
"Z 	c #525252",
"` 	c #171717",
" .	c #3A3A3A",
"..	c #232323",
"+.	c #2B2B2B",
"@.	c #1C1C1C",
"#.	c #356F1B",
"$.	c #444444",
"%.	c #414141",
"&.	c #5A5A5A",
"*.	c #255A0E",
"=.	c #346E1A",
"-.	c #3D811F",
";.	c #438824",
">.	c #2B5A16",
",.	c #4D7A3A",
"'.	c #3C7F1F",
").	c #1D1D1D",
"!.	c #161616",
"~.	c #2F6616",
"{.	c #489725",
"].	c #7BAA66",
"^.	c #509B2F",
"/.	c #5F834F",
"(.	c #449123",
"_.	c #429020",
":.	c #4E992D",
". . . . . . . . . . . . . . . . . . .   ",
". + + + + + + + + + + + + + + + + + . @ ",
". + + + + + + + + + + + + + + + + + . @ ",
". + + # $ % & * * * * = - = * * + + . @ ",
". + + $ ; ; ; ; ; ; > , ' , > ; + + . @ ",
". + + ) ! ! ~ ~ { ] ^ / ( / ^ _ + + . @ ",
". + + : < < [ } | 1 2 3 + 3 2 4 + + . @ ",
". + + 5 6 + 7 8 9 0 a b c b a d + + . @ ",
". + + e + f + g h i j k l k m n + + . @ ",
". + + o p q r + s + t u v w x y + + . @ ",
". + + s z A B C D E + F G H I J + + . @ ",
". + + s K L M s N O P Q R S T U + + . @ ",
". + + V s s W X Y Z `  ...s +.@.+ + . @ ",
". + + #.$.%.Q &.s +.s *.=.-.;.>.+ + . @ ",
". + + ,.'.=.).!.~.=.'.;.{.].^.-.+ + . @ ",
". + + /.{.(.;.;.-.;._.{.{.:.{.-.+ + . @ ",
". + + + + + + + + + + + + + + + + + . @ ",
". + + + + + + + + + + + + + + + + + . @ ",
". . . . . . . . . . . . . . . . . . . @ ",
"  @ @ @ @ @ @ @ @ @ @ @ @ @ @ @ @ @ @ @ "};
