/* XPM */
static char * Bild_xpm[] = {
"20 20 118 2",
"  	c None",
". 	c #494949",
"+ 	c #FFFFFF",
"@ 	c #E1E1E1",
"# 	c #A2A2A2",
"$ 	c #1B4260",
"% 	c #1E4B6D",
"& 	c #1E4A6B",
"* 	c #204F73",
"= 	c #215175",
"- 	c #325C7C",
"; 	c #37607E",
"> 	c #296491",
", 	c #4D7CA0",
"' 	c #6A90AB",
") 	c #7697B0",
"! 	c #235174",
"~ 	c #3375A7",
"{ 	c #3677A8",
"] 	c #367CB1",
"^ 	c #4E8BBA",
"/ 	c #81ADCE",
"( 	c #AFCBE0",
"_ 	c #C7DAE9",
": 	c #42759D",
"< 	c #275478",
"[ 	c #3C81B7",
"} 	c #447FAE",
"| 	c #5390BF",
"1 	c #4A8ABC",
"2 	c #5C95C2",
"3 	c #92B8D6",
"4 	c #C8DBEA",
"5 	c #4D7EA4",
"6 	c #2D5B80",
"7 	c #3974A3",
"8 	c #336893",
"9 	c #3D7DB0",
"0 	c #4D8DC0",
"a 	c #5792C3",
"b 	c #89B3D5",
"c 	c #B4CFE4",
"d 	c #CADDEC",
"e 	c #4A7DA6",
"f 	c #3E6688",
"g 	c #BDBDBD",
"h 	c #326088",
"i 	c #4788C0",
"j 	c #396D99",
"k 	c #6C9FCA",
"l 	c #8CB6D8",
"m 	c #99BDDD",
"n 	c #6EA2CE",
"o 	c #3C74A4",
"p 	c #446B8C",
"q 	c #5F5F5F",
"r 	c #969696",
"s 	c #959595",
"t 	c #000000",
"u 	c #3D6B94",
"v 	c #6198C9",
"w 	c #6BA1D1",
"x 	c #639CCE",
"y 	c #4E8FC8",
"z 	c #4279A9",
"A 	c #7F7F7F",
"B 	c #606060",
"C 	c #636363",
"D 	c #484848",
"E 	c #5C5C5C",
"F 	c #7A7A7A",
"G 	c #5C80A2",
"H 	c #6594C1",
"I 	c #70A5D6",
"J 	c #6FA3D4",
"K 	c #5E8AB4",
"L 	c #424242",
"M 	c #383838",
"N 	c #3D3D3D",
"O 	c #818181",
"P 	c #B8B8B8",
"Q 	c #6A6A6A",
"R 	c #4C4C4C",
"S 	c #171717",
"T 	c #94BCE2",
"U 	c #343434",
"V 	c #6B6B6B",
"W 	c #2A2A2A",
"X 	c #4B4B4B",
"Y 	c #585858",
"Z 	c #595959",
"` 	c #454545",
" .	c #050505",
"..	c #2B2B2B",
"+.	c #121212",
"@.	c #1B1B1B",
"#.	c #0A0A0A",
"$.	c #246608",
"%.	c #363636",
"&.	c #323232",
"*.	c #4D4D4D",
"=.	c #154700",
"-.	c #236308",
";.	c #2B790A",
">.	c #31840E",
",.	c #1A4906",
"'.	c #3E7326",
").	c #2B780A",
"!.	c #0B0B0B",
"~.	c #040404",
"{.	c #1E5905",
"].	c #36960D",
"^.	c #6BB14D",
"/.	c #3E9A17",
"(.	c #517D3E",
"_.	c #328E0B",
":.	c #308C09",
"<.	c #3D9915",
"  . . . . . . . . . . . . . . . . .     ",
". + + + + + + + + + + + + + + + + @ .   ",
". + + + + + + + + + + + + + + + + @ . # ",
". + + $ % & * = = = = - ; - = = + @ . # ",
". + + % > > > > > > , ' ) ' , > + @ . # ",
". + + ! ~ ~ { { ] ^ / ( _ ( / : + @ . # ",
". + + < [ [ } | 1 2 3 4 + 4 3 5 + @ . # ",
". + + 6 7 + 8 9 0 a b c d c b e + @ . # ",
". + + f + g + h i j k l m l n o + @ . # ",
". + + p q r s + t + u v w x y z + @ . # ",
". + + t A B C D E F + G H I J K + @ . # ",
". + + t L M N t O P Q R S T U V + @ . # ",
". + + W t t X Y Z `  ...+.t @.#.+ @ . # ",
". + + $.%.&.R *.t @.t =.-.;.>.,.+ @ . # ",
". + + '.).-.!.~.{.-.).>.].^./.;.+ @ . # ",
". + + (.]._.>.>.;.>.:.].].<.].;.+ @ . # ",
". + + + + + + + + + + + + + + + + @ . # ",
". @ @ @ @ @ @ @ @ @ @ @ @ @ @ @ @ @ . # ",
"  . . . . . . . . . . . . . . . . . # # ",
"    # # # # # # # # # # # # # # # # #   "};
