/* XPM */
static const char* DateiClos[] = {
"22 22 53 1",
". c None",
"Y c #080808",
"W c #080c08",
"V c #100c10",
"R c #101010",
"X c #101410",
"O c #181418",
"K c #181818",
"U c #181c18",
"F c #201c20",
"v c #202020",
"Q c #202420",
"l c #292429",
"e c #292829",
"N c #292c29",
"E c #313031",
"d c #313431",
"u c #393439",
"c c #393839",
"D c #393c39",
"M c #413c41",
"b c #414041",
"a c #414441",
"t c #4a444a",
"# c #4a484a",
"T c #4a4c4a",
"f c #524c52",
"g c #525052",
"k c #525552",
"m c #5a555a",
"J c #5a595a",
"C c #625d62",
"j c #626162",
"s c #6a656a",
"i c #6a696a",
"B c #6a6d6a",
"r c #737173",
"h c #737573",
"I c #7b757b",
"S c #7b797b",
"A c #7b7d7b",
"q c #837d83",
"p c #838583",
"n c #8b858b",
"o c #8b898b",
"P c #948d94",
"w c #949594",
"z c #9c959c",
"y c #9c999c",
"x c #9c9d9c",
"H c #a4a1a4",
"G c #aca5ac",
"L c #ffffff",
"......................",
"......................",
"........#abcde........",
"......fghhijk#el......",
".....mnoopqrsktuv.....",
"....kowxyzoABC#DEF....",
"...gnwGyyHzpIJ#bueK...",
"...goxyLLyyoiLLMENO...",
"..#IoyyLLLPALLLDueQR..",
"..bhpzHyLLLLLL#bEevR..",
"..bBqozxPLLLLkfDEevR..",
"..cjBApoSLLLLTauelUV..",
"..dmsBIBLLLLLLuEevUW..",
"..e#gCkLLLgTLLLlvFXY..",
"...etT#LL#tMuLLvvKV...",
"...ldDMMcbcuNlvvKXY...",
"....vEuEuEENeQvKOY....",
".....FeNeeQlvFKXY.....",
"......KKQvvUUXVY......",
"........RRVVYY........",
"......................",
"......................"};
