/* XPM */
static char * DateiOpen_xpm[] = {
"22 18 128 2",
"  	c None",
". 	c #555555",
"+ 	c #A2A2A2",
"@ 	c #FFF4C9",
"# 	c #D39205",
"$ 	c #E9D777",
"% 	c #FFF9E3",
"& 	c #454545",
"* 	c #FCE398",
"= 	c #FAE196",
"- 	c #545454",
"; 	c #695F45",
"> 	c #6A6044",
", 	c #6E6344",
"' 	c #C1A933",
") 	c #E8D99C",
"! 	c #FCEFBD",
"~ 	c #F5DA8E",
"{ 	c #FFFFFF",
"] 	c #CCBF8B",
"^ 	c #896F21",
"/ 	c #C9B561",
"( 	c #F8E7AF",
"_ 	c #EFD488",
": 	c #F1EDC2",
"< 	c #FEF5BB",
"[ 	c #FEF5AB",
"} 	c #FEF4A4",
"| 	c #FBEF9D",
"1 	c #F7EA95",
"2 	c #F4E58D",
"3 	c #F0E086",
"4 	c #ECDC7E",
"5 	c #E5D26F",
"6 	c #745E1C",
"7 	c #B8A246",
"8 	c #F4E1A5",
"9 	c #E1C57B",
"0 	c #616260",
"a 	c #D2CA82",
"b 	c #FEF4A6",
"c 	c #F4E58E",
"d 	c #F0E186",
"e 	c #ECDB7F",
"f 	c #E2CD68",
"g 	c #8F7622",
"h 	c #A08625",
"i 	c #EBD594",
"j 	c #D4B66B",
"k 	c #828382",
"l 	c #8C8757",
"m 	c #F7EB95",
"n 	c #F3E58E",
"o 	c #ECDB7E",
"p 	c #DFC861",
"q 	c #B0972A",
"r 	c #7F6417",
"s 	c #D4B66E",
"t 	c #CBAC5E",
"u 	c #BDBEBD",
"v 	c #5E5D4C",
"w 	c #FBEF9C",
"x 	c #ECDC7F",
"y 	c #E2CD67",
"z 	c #DBC359",
"A 	c #D4B545",
"B 	c #685113",
"C 	c #C09E53",
"D 	c #BE9C4E",
"E 	c #777978",
"F 	c #DDD37D",
"G 	c #FAEF9C",
"H 	c #EDDB7F",
"I 	c #DEC860",
"J 	c #D8BE51",
"K 	c #D4B949",
"L 	c #93741B",
"M 	c #9C7529",
"N 	c #AD893B",
"O 	c #A1A1A1",
"P 	c #9E9A6A",
"Q 	c #FBF098",
"R 	c #F3E68D",
"S 	c #EDDC7F",
"T 	c #E6D26F",
"U 	c #D4B94A",
"V 	c #D1B442",
"W 	c #B7982B",
"X 	c #855E18",
"Y 	c #96742F",
"Z 	c #CACBCA",
"` 	c #6D6D65",
" .	c #F8EB8E",
"..	c #F7E98F",
"+.	c #F3E385",
"@.	c #EFDD79",
"#.	c #E7D164",
"$.	c #E5D063",
"%.	c #DFCB5E",
"&.	c #DCC559",
"*.	c #D8BF51",
"=.	c #D8BC4D",
"-.	c #D6B94A",
";.	c #CFB241",
">.	c #C2A42C",
",.	c #B99724",
"'.	c #6D521C",
").	c #86662B",
"!.	c #5E5E57",
"~.	c #E9D752",
"{.	c #EED661",
"].	c #E6D15C",
"^.	c #E3CA56",
"/.	c #E0C656",
"(.	c #D9C150",
"_.	c #D8BE4E",
":.	c #D5BA49",
"<.	c #CEAD39",
"[.	c #CAAA35",
"}.	c #C6A62F",
"|.	c #B6911B",
"1.	c #AA8720",
"2.	c #A78D31",
"3.	c #856929",
"4.	c #715424",
"5.	c #BFC0BF",
"6.	c #434343",
"7.	c #414141",
"          . . . . . . +                     ",
"        . @ @ @ @ @ @ . +                   ",
"      . # $ $ $ $ $ $ # . . . . . . .       ",
"      . % % % % % % % % % % % % % % @ &     ",
"      . % @ @ @ @ @ @ @ @ @ @ @ @ @ * & +   ",
"      . % @ @ @ @ @ @ @ @ @ @ @ @ @ = & +   ",
". . . - ; > > > > > > > > > , ' ) ! ~ & +   ",
". { { { { { { { { { { { { { ] ^ / ( _ & +   ",
". : < [ } } } } } | 1 2 3 4 5 6 7 8 9 & +   ",
"0 a b } } } } } | 1 c d e $ f g h i j & +   ",
"k l } } } } } | m n 3 o $ 5 p q r s t & +   ",
"u v } } } } w m n 3 x $ 5 y z A B C D & +   ",
"  E F } } G 1 c d H $ 5 f I J K L M N & +   ",
"  O P Q G 1 R 3 S $ T f p z U V W X Y & +   ",
"  Z `  ...+.@.#.$.%.&.*.=.-.;.>.,.'.).& +   ",
"    !.~.{.].^./.(._.:.<.[.}.|.1.2.3.4.& +   ",
"    5.& & & & & & & 6.6.6.7.& & & & & & +   ",
"      + + + + + + + + + + + + + + + + + +   "};
