/* XPM */
static const char* DateiPrint[] = {
"22 22 120 2",
"Qt c None",
".l c None",
".w c None",
".D c None",
".H c None",
".v c #000000",
"#X c #008900",
"#Y c #00ff00",
".N c #080408",
".a c #313031",
".I c #313431",
".p c #393431",
"#Z c #393439",
".f c #393831",
".8 c #393839",
"#R c #413c41",
".J c #414041",
"#L c #414441",
"#l c #4a444a",
".O c #4a4829",
".P c #4a484a",
".Z c #4a4c4a",
".g c #524829",
".S c #52484a",
".r c #524c29",
".x c #525552",
".q c #5a4c41",
"#b c #5a5041",
".e c #5a504a",
".# c #5a595a",
"#v c #5a5d5a",
".b c #62504a",
".K c #625d5a",
"#V c #626162",
"#. c #6a656a",
"#0 c #6a696a",
"#S c #6a6d6a",
"#1 c #736d73",
".2 c #737173",
"#w c #7b797b",
"#D c #7b7d7b",
"#K c #837d83",
"#J c #838183",
"#B c #838583",
"#C c #8b858b",
"#u c #8b898b",
".X c #948108",
"#c c #948110",
"#q c #949194",
"#o c #949594",
"#p c #9c959c",
"#h c #9c999c",
"#g c #9c9d9c",
".9 c #a4a1a4",
".1 c #a4a5a4",
"#W c #aca5ac",
".R c #acaaac",
"#E c #acaeac",
"#i c #b4996a",
"#f c #b4aeb4",
"#T c #b4b2b4",
"#N c #b4b6b4",
".3 c #bd9973",
"#k c #bdb24a",
".7 c #bdb64a",
"#U c #bdb6bd",
"#M c #bdbabd",
".0 c #bdbebd",
".Q c #c5bec5",
"#G c #c5c2c5",
"#O c #c5c6c5",
"#F c #cdc6cd",
"#x c #cdcacd",
"#H c #cdcecd",
"#P c #d5ced5",
"#y c #d5d2d5",
"#I c #d5d6d5",
"#d c #ded27b",
".Y c #ded67b",
"#A c #ded6de",
"#z c #dedade",
"#Q c #dedede",
".T c #e6caa4",
".M c #e6caac",
".B c #e6dacd",
"#r c #e6dee6",
"#s c #e6e2e6",
"#t c #e6e6e6",
".4 c #eec28b",
"## c #eec294",
"#j c #eecaac",
".C c #eeceac",
"#a c #eeceb4",
".6 c #eed2bd",
".5 c #eed6bd",
".u c #eedabd",
".W c #eedac5",
".G c #eedacd",
".d c #eedecd",
".k c #eee2cd",
".F c #eee2d5",
"#m c #eee6ee",
".c c #f6e2cd",
".h c #f6e2d5",
".A c #f6e6de",
".U c #f6eade",
".L c #f6eae6",
".t c #f6eee6",
".o c #f6eeee",
"#n c #f6eef6",
".y c #f6f2ee",
".m c #f6f6f6",
".V c #ffeee6",
".E c #ffeeee",
".z c #fff2ee",
".s c #fff2f6",
".i c #fff6f6",
".n c #fff6ff",
".j c #fffaff",
"#e c #ffffff",
"QtQtQtQtQtQtQtQtQtQt.#.a.bQtQtQtQtQtQtQtQtQt",
"QtQtQtQtQtQtQtQtQtQt.a.c.d.e.f.eQtQtQtQtQtQt",
"QtQtQtQtQtQtQtQtQt.g.h.i.j.j.j.k.e.a.bQtQtQt",
"QtQtQtQtQtQtQtQt.l.#.m.j.j.j.n.n.m.o.d.p.qQt",
"QtQtQtQtQtQtQtQt.r.c.j.j.j.j.j.s.i.t.h.u.vQt",
"QtQtQtQtQtQtQt.w.x.j.j.j.j.j.y.z.t.A.B.C.vQt",
"QtQtQtQtQtQt.D.g.E.m.j.n.j.i.z.t.t.F.G.eQtQt",
"QtQtQt.H.I.I.J.K.k.L.o.z.y.z.t.L.F.h.M.N.O.g",
"QtQt.H.P.Q.R.S.T.h.A.L.U.V.U.U.F.d.W.e.X.Y.g",
"Qt.H.Z.0.1.2.J.3.4.C.F.h.W.G.W.5.6.C.v.7.gQt",
"Qt.8.Q.1.9.9#..v.#.3##.M.W.5.6#a.6#b#c#d.rQt",
".v#e.m#f#g#h#h#h.9#..v.##i##.T#j.M.v#k.vQtQt",
"#l#m#n#e#e.n#f#o#p#q#g.9#..v.#.3#l.v.Y.v.vQt",
".x#r#s#t#s#m#e#e.m#f#q#q#u#h.9.#.v.J#v.2#w.v",
".P#x#y#z#A#A#r#z#t#e#e.n#f#u#u#B#C#D#u#q.J.v",
".v#q#E#F#G#x#H#x#H#I#I#r#e#e.m#f#J#K#u.J#L.v",
"Qt.v.v#w#p.R#M#N#G#G#G#O#P#y#Q#e.j#F#R#L#l.v",
"QtQtQt#L.v.v#S#C.9#T.R#U#N#U.0#O#G#o#L.8.a.J",
"QtQtQtQtQtQt#l.v.v#V#J#p#W#W#X#Y#f#..P#Z.vQt",
"QtQtQtQtQtQtQtQtQt.J.v.v#v#D#q#h#q#0.J.vQtQt",
"QtQtQtQtQtQtQtQtQtQtQtQt.J.v.v#v#1.2.vQtQtQt",
"QtQtQtQtQtQtQtQtQtQtQtQtQtQtQt#L.v.vQtQtQtQt"};
