/* XPM */
static char *dummy[]={
"22 22 85 2",
"Qt c None",
"#s c #000000",
"#o c #000400",
"#m c #080808",
"#h c #181818",
"#p c #202020",
"#q c #292429",
".P c #313031",
"#b c #313431",
".Y c #393839",
".8 c #393c39",
".7 c #393c41",
"#e c #413c41",
"#l c #414041",
".Z c #414441",
".u c #4a484a",
".9 c #4a4c4a",
".N c #524c52",
".6 c #525052",
".M c #525552",
".0 c #52555a",
"#j c #5a555a",
".G c #5a595a",
".O c #5a5d5a",
".E c #625d62",
".w c #626162",
"## c #626562",
".x c #6a656a",
".o c #6a696a",
".S c #6a6d6a",
".2 c #6a6d73",
".X c #736d73",
".F c #737173",
".D c #737573",
".1 c #737d83",
"#f c #7b757b",
".3 c #7b797b",
".i c #7b7d7b",
"#a c #837d83",
".a c #838183",
".T c #838583",
".h c #8b858b",
".v c #8b898b",
"#r c #8b8d8b",
"#k c #948d94",
".A c #949194",
"#. c #949594",
"#d c #9c959c",
".# c #9c999c",
".L c #9c9d9c",
".y c #a49da4",
".b c #a4a1a4",
"#i c #a4a5a4",
"#g c #aca5ac",
".g c #acaaac",
"#c c #acaeac",
".n c #b4aeb4",
".t c #b4b2b4",
".z c #b4b6b4",
".U c #bdb2bd",
".s c #bdb6bd",
".r c #bdbabd",
".m c #bdbebd",
".l c #c5bec5",
".f c #c5c2c5",
".k c #c5c6c5",
".p c #cdc6cd",
".q c #cdcacd",
".H c #cdcecd",
".j c #d5ced5",
".e c #d5d2d5",
".d c #ded6de",
".c c #dedade",
".4 c #dedede",
".K c #e6dee6",
".B c #e6e2e6",
".J c #eee6ee",
".C c #eeeaee",
"#n c #f6eaf6",
".Q c #f6eef6",
".V c #f6f2f6",
".W c #fff2ff",
".5 c #fff6ff",
".R c #fffaff",
".I c #ffffff",
"QtQtQtQtQtQtQtQtQtQtQtQtQtQtQtQtQtQtQtQtQtQt",
"QtQtQtQtQtQtQtQtQtQtQtQtQtQtQtQtQtQtQtQtQtQt",
"QtQtQtQtQtQtQtQtQt.#.aQtQtQtQtQtQtQtQtQtQtQt",
"QtQtQtQtQtQtQtQt.b.c.d.e.f.g.h.iQtQtQtQtQtQt",
"QtQtQtQtQtQtQtQt.f.d.j.k.f.f.l.f.m.n.oQtQtQt",
"QtQtQtQtQtQtQtQt.c.e.p.q.p.f.m.r.s.t.uQtQtQt",
"QtQtQtQt.r.v.w.x.y.n.s.p.k.f.l.m.z.AQtQtQtQt",
"QtQtQt.B.C.g.t.v.D.E.E.w.F.A.t.s.t.GQtQtQtQt",
"QtQt.H.I.q.J.K.j.r.L.i.o.w.M.N.O.a.PQtQtQtQt",
"QtQt.Q.R.r.c.c.c.e.q.l.n.#.a.S.O.#.t.DQtQtQt",
"Qt.i.B.J.#.T.#.g.U.m.l.r.t.g.y.n.V.W.J.A.PQt",
"Qt.X.q.q.o.Y.Z.0.1.2.3.v.A.#.g.4.5.R.q.o.ZQt",
"Qt.6.z.t.l.b.F.Z.7.Y.8.Z.9.M.F.K.C.C#..w.GQt",
"Qt.N.#.h###a.b.f.t.a.G.u.Y.8.N.e.e.e.X.O.GQt",
"QtQt#b.Z.D.D.G.6.o.A.t.l#c#d.b.q.l.r.w.G#eQt",
"QtQtQt.g.K.d.p.z.##f.w.S.a#g.z.t.t.g.G.M#hQt",
"QtQtQt.I.5.Q.C.B.d.q.f.z.g.D.b#i#g.##j.PQtQt",
"QtQt.R.5.V.C.B.K.d.e.q.H#f.P#f.v.A#k#l#mQtQt",
"QtQt.J.C#n.J.K.d.e.q.q.g#mQtQt#o#h#p#oQtQtQt",
"QtQtQtQtQt.q.j.c.j.q.c#qQtQtQtQtQtQtQtQtQtQt",
"QtQtQtQtQtQtQtQt.q.q#r#sQtQtQtQtQtQtQtQtQtQt",
"QtQtQtQtQtQtQtQtQtQtQtQtQtQtQtQtQtQtQtQtQtQt"};
