/* XPM */
static char *DateiOpen[]={
"22 22 121 2",
"Qt c None",
".# c #000000",
"#N c #080400",
".s c #101008",
"#X c #101010",
"#W c #101410",
".r c #181008",
".q c #181010",
"#G c #181410",
"#a c #181818",
".H c #201808",
"#1 c #202420",
".b c #291810",
".a c #291c10",
"#2 c #292429",
"#B c #292829",
"#Z c #292c29",
"#M c #303030",
".G c #311c10",
"#Y c #312c29",
"#0 c #312c31",
"#l c #313431",
".F c #392018",
".h c #392410",
".p c #392810",
".c c #392818",
".0 c #393439",
"#J c #393831",
".i c #412818",
".E c #4a2c18",
".C c #4a3018",
".D c #523018",
".2 c #523020",
"#m c #523418",
".B c #523420",
"#d c #52504a",
".L c #525052",
"#v c #5a5052",
"#V c #625d5a",
"## c #626162",
"#O c #73696a",
"#t c #736d6a",
"#k c #7b7d7b",
".A c #835529",
"#. c #838183",
"#j c #8b8d8b",
".9 c #948d8b",
"#s c #948d94",
"#F c #949194",
"#U c #949594",
".8 c #9c959c",
"#A c #9c999c",
"#R c #9c9d9c",
"#u c #a46d39",
"#i c #a49d9c",
"#S c #a49da4",
"#T c #a4a19c",
".7 c #a4a1a4",
"#h c #a4a5a4",
".K c #ac6d39",
"#c c #ac7139",
"#Q c #acaaa4",
".6 c #acaaac",
".Z c #acaeac",
"#K c #b4aeb4",
".Y c #b4b2b4",
".X c #b4b6b4",
"#H c #bd7941",
"#z c #bdb6b4",
"#L c #bdb6bd",
"#g c #bdbab4",
".5 c #bdbabd",
".W c #bdbebd",
"#P c #c5bebd",
"#r c #c5bec5",
".V c #c5c2c5",
"#q c #c5c6c5",
"#E c #cdc6cd",
"#y c #cdcac5",
".U c #cdcacd",
"#C c #d5cecd",
"#I c #d5ced5",
".T c #d5d2cd",
"#n c #d5d2d5",
".4 c #d5d6d5",
"#p c #ded6d5",
"#x c #dedad5",
".S c #dedade",
".R c #dedede",
"#D c #e6dede",
"#w c #e6dee6",
"#e c #e6e2e6",
".3 c #e6e6e6",
".j c #eea56a",
"#o c #eee6e6",
".Q c #eee6ee",
".P c #eeeaee",
"#f c #eeeeee",
".z c #f6a15a",
".1 c #f6a55a",
".d c #f6ae6a",
".O c #f6f2f6",
".M c #f6f6f6",
".x c #ffae62",
"#b c #ffb26a",
".w c #ffb66a",
".J c #ffb673",
".g c #ffba73",
".o c #ffba7b",
".f c #ffc27b",
".v c #ffc283",
".e c #ffc683",
".t c #ffc68b",
".n c #ffca8b",
".I c #ffca94",
".k c #ffce9c",
".u c #ffd294",
".m c #ffd29c",
".l c #ffd69c",
".y c #ffd6a4",
".N c #fffaff",
"QtQtQtQtQtQtQtQtQtQtQtQtQtQtQtQtQtQtQtQtQtQt",
"QtQtQtQtQtQtQtQtQt.#.#.#.#.#QtQtQtQtQtQtQtQt",
"QtQtQtQtQtQtQt.#.#.#.#.#.#.#.#.#Qt.#QtQtQtQt",
"QtQtQtQtQtQt.#.#QtQtQtQtQtQt.#.#.#.#QtQtQtQt",
"QtQtQtQtQt.#QtQtQtQtQtQtQtQtQt.#.#.#QtQtQtQt",
"QtQtQtQtQtQtQtQtQtQtQtQtQtQt.#.#.#.#QtQtQtQt",
"QtQt.a.a.a.bQtQtQtQtQtQtQtQtQtQtQtQtQtQtQtQt",
"Qt.c.d.e.f.g.hQtQtQtQtQtQtQtQtQtQtQtQtQtQtQt",
".i.j.k.l.m.n.o.p.q.r.r.s.q.r.r.sQtQtQtQtQtQt",
".h.t.l.u.v.w.x.x.x.x.x.x.x.x.x.x.hQtQtQtQtQt",
".i.n.y.v.z.A.B.C.D.C.E.i.i.h.F.G.a.H.#.#.#.#",
".h.n.I.J.K.L.M.N.M.O.P.Q.R.S.T.U.V.W.X.Y.Z.0",
".i.t.t.1.2.U.P.3.Q.S.4.U.V.5.Y.6.7.8.9#.###a",
".h.t#b#c#d.M#e#f.P.Q.R.4.U.V#g.Y#h#i#j#k#lQt",
".i.g.z#m#n.4#o.P.P.3#e#p#n#q#r.Y.6#i#s#t.#Qt",
".h.w#u#v.R#p#e.Q#e#w#x#n#y.V#z.Y#h#A#.#BQtQt",
".i.1.D.Z#C.4#e.R#D#p#n.U#E.5#z.6.7#F###GQtQt",
".h#H#d#n#q#n.4.4#n#I#y.V.5#z.Z#h#A#.#JQtQtQt",
".i.E#K.X.V#q.U.U.U#q.V.5#L.Z.6#M#M#M#M#M#M#M",
"#N#O.U#K.Y.5.5#P.5.5.Y.Y#Q#h#R#F#M#M#M#M#MQt",
"#a#F#S#A#S.7.7#T.7#A#A#U#F#j.9#k#V#W#M#MQtQt",
"#X#l#B#Y#Z#0#Z#0#Z#0#B#Z#B#B#1#2#XQt#MQtQtQt"};
