/* XPM */
static const char* DateiSave[] = {
"22 22 70 2",
"Qt c None",
".G c None",
".a c #000000",
".7 c #000400",
".q c #080408",
".Z c #080808",
".P c #100c10",
".C c #181418",
".8 c #292829",
".Y c #313031",
".X c #393839",
".u c #393c39",
".N c #413c41",
".c c #414041",
".p c #414441",
".6 c #4a444a",
".d c #4a484a",
".M c #4a4c4a",
".x c #524c52",
".j c #525052",
".s c #525552",
".A c #5a555a",
".l c #5a595a",
".h c #5a5d5a",
"## c #625d62",
".v c #626162",
".r c #626562",
".i c #6a656a",
".2 c #6a696a",
".# c #6a6d6a",
".o c #736d73",
".e c #737173",
".w c #737573",
".k c #7b757b",
".B c #7b797b",
".E c #7b7d7b",
".S c #837d83",
".H c #838183",
".W c #838583",
".V c #8b858b",
".f c #8b898b",
".T c #8b8d8b",
".U c #948d94",
".Q c #949194",
".1 c #949594",
".R c #9c959c",
".t c #9c999c",
".3 c #a49da4",
"#c c #acaaac",
".D c #b4b2b4",
".I c #bdb6bd",
"#d c #bdbabd",
".F c #bdbebd",
".L c #c5bec5",
".b c #c5c2c5",
".y c #c5c6c5",
".g c #cdc6cd",
".O c #cdcacd",
"#b c #d5ced5",
"#a c #ded6de",
".5 c #dedade",
".z c #deeaee",
".n c #e6e2e6",
"#. c #eee6ee",
".0 c #eeeeee",
".J c #f6f2f6",
".9 c #f6f6f6",
".4 c #fff6ff",
".K c #fffaff",
".m c #ffffff",
"QtQtQtQtQt.#.aQtQtQtQtQtQtQtQtQtQtQtQtQtQtQt",
"QtQtQtQtQt.a.b.c.d.eQtQtQtQtQtQtQtQtQtQtQtQt",
"QtQtQtQt.e.f.g.h.i.h.c.j.kQtQtQtQtQtQtQtQtQt",
"QtQtQtQt.c.b.b.l.m.n.h.o.h.c.p.oQtQtQtQtQtQt",
"QtQtQtQt.q.b.l.n.m.m.m.m.n.h.r.h.c.s.kQtQtQt",
"QtQtQt.o.t.b.u.m.m.m.m.m.m.m.m.n.h.v.w.a.lQt",
"QtQtQt.x.y.b.l.m.m.m.m.m.m.m.m.m.z.A.B.y.aQt",
"QtQtQt.C.D.l.n.m.m.m.m.m.m.m.m.m.s.E.w.F.d.G",
"QtQt.o.H.I.c.J.m.m.m.m.m.m.m.m.K.c.B.L.qQtQt",
"Qt.G.M.t.t.N.#.m.m.m.m.m.m.m.m.n.s.B.O.N.GQt",
"QtQt.P.Q.R.Q.S.s.c.f.m.m.m.m.m.A.B.w.L.d.GQt",
"Qt.o.w.T.T.Q.T.U.Q.k.j.c.f.m.n.c.w.F.aQtQtQt",
"Qt.c.V.W.d.X.l.T.f.V.f.W.e.l.c.w.B.O.Y.GQtQt",
"Qt.Z.E.e.B.0.1.d.M.v.B.W.B.B.w.e.2.b.M.GQtQt",
".o.2.k.j.3.m.4.J.5.W.6.6.B.e.e.#.L.7QtQtQtQt",
".8.o.i.d.9.0.5#..0.n.H.j.X.6.h.2.O.p.GQtQtQt",
"##.a.2.c.4#a.5#b.O.F.A.W.V.u.v.v.L.l.GQtQtQt",
"Qt.o.p.a.p#c.y.L#d.T.p.S.T.A.j.F.aQtQtQtQtQt",
"QtQtQtQt.o.6.a.6#c.6.f.f.p.s.A.O.X.GQtQtQtQt",
"QtQtQtQtQtQtQt.o.p.a.p.t.X.s.j.F.d.GQtQtQtQt",
"QtQtQtQtQtQtQtQtQtQt.o.6.a.6.l.7.GQtQtQtQtQt",
"QtQtQtQtQtQtQtQtQtQtQtQtQt.o.a.hQtQtQtQtQtQt"};
