/* XPM */
static char * DateiPrint_xpm[] = {
"22 22 103 2",
"  	c None",
". 	c #C9C7C9",
"+ 	c #D1CFD1",
"@ 	c #DEDADE",
"# 	c #DED6DE",
"$ 	c #D5D2D5",
"% 	c #CAC8CA",
"& 	c #C5C2C5",
"* 	c #D5CED5",
"= 	c #C5C6C5",
"- 	c #C5BEC5",
"; 	c #BDBEBD",
"> 	c #B4AEB4",
", 	c #949494",
"' 	c #CDC6CD",
") 	c #CDCACD",
"! 	c #BDBABD",
"~ 	c #BDB6BD",
"{ 	c #B4B2B4",
"] 	c #9A999A",
"^ 	c #8B898B",
"/ 	c #626162",
"( 	c #6A656A",
"_ 	c #A49DA4",
": 	c #B4B6B4",
"< 	c #949194",
"[ 	c #E6E2E6",
"} 	c #EEEAEE",
"| 	c #ACAAAC",
"1 	c #737573",
"2 	c #625D62",
"3 	c #737173",
"4 	c #5A595A",
"5 	c #CDCECD",
"6 	c #FFFFFF",
"7 	c #EEE6EE",
"8 	c #E6DEE6",
"9 	c #9C9D9C",
"0 	c #7B7D7B",
"a 	c #6A696A",
"b 	c #525552",
"c 	c #524C52",
"d 	c #5A5D5A",
"e 	c #838183",
"f 	c #646364",
"g 	c #F6EEF6",
"h 	c #FFFAFF",
"i 	c #9C999C",
"j 	c #6A6D6A",
"k 	c #838583",
"l 	c #BDB2BD",
"m 	c #F6F2F6",
"n 	c #FFF2FF",
"o 	c #414441",
"p 	c #393839",
"q 	c #52555A",
"r 	c #737D83",
"s 	c #6A6D73",
"t 	c #7B797B",
"u 	c #DEDEDE",
"v 	c #FFF6FF",
"w 	c #494449",
"x 	c #A4A1A4",
"y 	c #393C41",
"z 	c #393C39",
"A 	c #4A4C4A",
"B 	c #949594",
"C 	c #413C41",
"D 	c #8B858B",
"E 	c #6D706D",
"F 	c #837D83",
"G 	c #4A484A",
"H 	c #736D73",
"I 	c #848584",
"J 	c #787A78",
"K 	c #525052",
"L 	c #ACAEAC",
"M 	c #9C959C",
"N 	c #7B757B",
"O 	c #ACA5AC",
"P 	c #4C474C",
"Q 	c #A4A5A4",
"R 	c #5A555A",
"S 	c #313031",
"T 	c #414141",
"U 	c #948D94",
"V 	c #3D3D3D",
"W 	c #999699",
"X 	c #B2ADB2",
"Y 	c #D5CAD5",
"Z 	c #EDE5ED",
"` 	c #3A363A",
" .	c #595959",
"..	c #9D999D",
"+.	c #A19CA1",
"@.	c #999299",
"#.	c #BAB5BA",
"$.	c #CFC8CF",
"%.	c #ABA7AB",
"&.	c #9D989D",
"*.	c #979297",
"=.	c #858585",
"-.	c #8F918F",
"                                            ",
"                  . +                       ",
"                @ @ # $ % % % $             ",
"                & # * = & & - & ; > ,       ",
"                @ $ ' ) ' & ; ! ~ { ]       ",
"        ! ^ / ( _ > ~ ' = & - ; : <         ",
"      [ } | { ^ 1 2 2 / 3 < { ~ { 4         ",
"    5 6 ) 7 8 * ! 9 0 a / b c d e f         ",
"  } g h ! @ @ @ $ ) - > i e j d i { 1       ",
"  5 [ 7 i k i | l ; - ! { | _ > m n 7 < o   ",
"  5 ) ) a p o q r s t ^ < i | u v h ) a w   ",
"  5 : { - x 3 o y p z o A b 3 8 } } B / C   ",
"    i D E F x & { e 4 G p z c $ $ $ H d C   ",
"      I J 1 4 K a < { - L M x ) - ! / 4 C   ",
"      | 8 # ' : i N / j e O : { { | 4 b P   ",
"      6 v g } [ # ) & : | 1 x Q O i R S     ",
"    h v m } [ 8 # $ ) 5 N T N ^ < U V       ",
"    W X Y Z 8 # $ ) ) | `     O <  .        ",
"        ..+.@.#.$.) @ `                     ",
"              %.&.*.=.-.                    ",
"                    %.                      ",
"                                            "};
