/* XPM */
static char * DateiNeu_xpm[] = {
"17 20 7 1",
" 	c None",
".	c #494949",
"+	c #FFFFFF",
"@	c #E1E1E1",
"#	c #A2A2A2",
"$	c #CFCFCF",
"%	c #B3B3B3",
" ............    ",
".++++++++++.@.   ",
".++++++++++.+@.# ",
".++++++++++.++@.#",
".++++++++++.....#",
".++++++++++@$%%.#",
".+++++++++++@$%.#",
".++++++++++++@$.#",
".+++++++++++++@.#",
".+++++++++++++@.#",
".+++++++++++++@.#",
".+++++++++++++@.#",
".+++++++++++++@.#",
".+++++++++++++@.#",
".+++++++++++++@.#",
".+++++++++++++@.#",
".+++++++++++++@.#",
".@@@@@@@@@@@@@@.#",
" ..............##",
" ############### "};
