/* XPM */
static char * DateiNeu_xpm[] = {
"17 20 66 1",
" 	c None",
".	c #C9C9C9",
"+	c #C7C7C7",
"@	c #C4C4C4",
"#	c #C3C3C3",
"$	c #C0C0C0",
"%	c #BFBFBF",
"&	c #C2C2C2",
"*	c #C6C6C6",
"=	c #F7F7F7",
"-	c #F6F6F6",
";	c #F5F5F5",
">	c #F4F4F4",
",	c #F3F3F3",
"'	c #EFEFEF",
")	c #D2D2D2",
"!	c #EAEAEA",
"~	c #B0B0B0",
"{	c #F8F8F8",
"]	c #D6D6D6",
"^	c #ECECEC",
"/	c #E9E9E9",
"(	c #ADADAD",
"_	c #DDDDDD",
":	c #FFFFFF",
"<	c #EBEBEB",
"[	c #E8E8E8",
"}	c #ACACAC",
"|	c #C1C1C1",
"1	c #F9F8F9",
"2	c #E1E1E1",
"3	c #E7E7E7",
"4	c #CECECE",
"5	c #F9F9F9",
"6	c #E6E6E6",
"7	c #CCCCCC",
"8	c #CACACA",
"9	c #A9A9A9",
"0	c #BEBEBE",
"a	c #FAFAFA",
"b	c #F9F9FA",
"c	c #F6F7F6",
"d	c #EEEEEE",
"e	c #E4E4E4",
"f	c #DEDEDE",
"g	c #A5A5A5",
"h	c #A2A2A2",
"i	c #BCBCBC",
"j	c #A1A1A1",
"k	c #9F9F9F",
"l	c #BBBBBB",
"m	c #FBFBFB",
"n	c #A0A0A0",
"o	c #BABABA",
"p	c #FCFCFC",
"q	c #FDFDFD",
"r	c #FEFEFE",
"s	c #9E9E9E",
"t	c #BDBDBD",
"u	c #FDFEFD",
"v	c #A7A7A7",
"w	c #ABABAB",
"x	c #A3A3A3",
"y	c #B4B4B4",
"z	c #B2B2B2",
"A	c #AEAEAE",
" .+@#$$%%$$&*    ",
" .===-;>,')!~@   ",
" +{{==-;>,]^/(#  ",
" @{{{{=-->_:<[}# ",
" |{1{{{==-2::^3(4",
" $55555{{=67#@890",
" 0aaab555{cd6efgh",
" iaaaaaa555{=->jk",
" lmmmmmmaaa5{=-nk",
" opppmmmmmmaa5{nk",
" lppppppppmmma5nk",
" lqqqpppppppmmank",
" oqqqqqppppppmmnk",
" lqqqqqqppppppmnk",
" irqqqqqqqqqpppss",
" trrrrqqqqqqpqpnk",
" $rrrrrrrrqqqqqhn",
" |rrrrrrrrurqqqvh",
" #~wvxnkssknxvwwg",
"  yz~A}wwww}A~zyt"};
