/* XPM */
static char *DateiNeu[]={
"24 24 161 2",
"Qt c None",
".j c #000000",
".i c #080808",
".h c #101010",
".u c #141414",
".g c #181818",
".f c #212121",
".C c #232300",
".e c #292929",
".d c #313131",
".A c #323232",
".x c #393939",
".c c #3a3a3a",
".y c #3e3e3e",
".w c #3f3f3f",
".b c #424242",
".q c #464646",
".2 c #494900",
".a c #4a4a4a",
".k c #4c4c4c",
".# c #535353",
".J c #857f7a",
".p c #989898",
"af c #999999",
"#X c #9e9c9a",
"#G c #9e9c9b",
".R c #a09b97",
"## c #aaa538",
"#7 c #aba7a3",
"#H c #aba7a4",
"#b c #ababab",
"#C c #ada9a7",
"#9 c #b0a69d",
"as c #b1aaa5",
".o c #b4b4b4",
".I c #b8b1a9",
".3 c #b8b8b8",
".1 c #bbb2ab",
"#c c #bcbcbc",
"ag c #bdb6b0",
"#8 c #bdb6b1",
"#I c #beb8b2",
".U c #c2c2c2",
"#. c #c6b8ac",
".n c #c6c6c6",
"aE c #c7a081",
"aj c #c7baad",
"a. c #c7baae",
"ar c #c8a487",
"aD c #c8a488",
"av c #c8b9ad",
"ae c #c9a88d",
"aC c #c9a88e",
".v c #c9c9c9",
"#6 c #cbac93",
"aB c #cbad94",
"aw c #cbb9ac",
"#W c #ccb099",
"#D c #ccc7c1",
"aA c #cdb09a",
"au c #cdc0b6",
"at c #cdc3bb",
"#Q c #ceb49f",
"az c #ceb5a0",
"#B c #cfb8a5",
"ay c #cfb8a6",
"ax c #cfbbaa",
".H c #cfcbc4",
"#s c #d0bcab",
".Q c #d0c8c1",
".D c #d1d1d1",
"#k c #d2c0b1",
".4 c #d2d2d2",
"ai c #d5c9bd",
"#Y c #d5c9be",
"ak c #d6c4b6",
".m c #d6d6d6",
"ah c #d8cdc4",
"#R c #d8cfc7",
"#J c #d9d1c8",
"#v c #dbd5cf",
".S c #dbda4d",
"#l c #dddbda",
"#d c #dddcdc",
".l c #dedede",
".z c #e0e0e0",
".t c #e1e1e1",
".V c #e2e2e2",
"a# c #e4d3c3",
".P c #e4e0db",
"aq c #e7c2a2",
"ap c #e8c5a6",
"ad c #e9c5a6",
"al c #e9d4c0",
"ao c #eac9ac",
"#5 c #eac9ad",
"#Z c #eadbcd",
".0 c #eadfd5",
"#E c #eadfd7",
"#S c #ebded3",
"an c #eccdb3",
"#4 c #ecceb4",
"#V c #ecceb5",
".s c #ececec",
"ac c #eed2ba",
"#3 c #eed2bb",
"#P c #eed3bc",
"am c #eed5bf",
"#K c #eee0d6",
"#2 c #efd6c1",
"ab c #efd7c1",
"#U c #efd8c2",
"#O c #efd8c3",
"aa c #efd8c5",
"#A c #f0d8c3",
"#w c #f0e5dc",
".G c #f0eeec",
"#1 c #f1dbc8",
"#N c #f1dcc9",
"#0 c #f1decd",
"#m c #f1ece8",
".M c #f1f1f1",
"#r c #f2ddcb",
"#T c #f2e2d4",
"#M c #f3e0d0",
"#z c #f3e1d1",
"#j c #f3e1d2",
"#e c #f3f2f0",
"#q c #f4e1d2",
"#L c #f4e4d6",
".L c #f4f4f4",
"#y c #f5e5d8",
"#p c #f5e6d8",
".9 c #f5e6d9",
"#F c #f5e8dc",
"#x c #f6e9dd",
"#i c #f6eadf",
".K c #f6f611",
"#o c #f7eadf",
".8 c #f7ebe1",
".E c #f7f7f7",
"#h c #f8eee6",
"#n c #f8f0ea",
".7 c #f9efe7",
".Z c #f9f0e8",
"#g c #faf3ed",
".6 c #faf4ee",
"#f c #faf6f2",
".Y c #fbf3ee",
".X c #fcf8f5",
".5 c #fcfaf9",
".O c #fdfaf7",
".F c #fdfdfd",
".W c #fefdfb",
".N c #fefdfc",
".B c #fefefe",
".T c #ffff00",
"#t c #ffffc3",
"#a c #ffffda",
"#u c #ffffdd",
".r c #ffffff",
"QtQtQtQtQtQtQtQtQtQtQtQtQtQtQtQtQtQtQtQtQtQtQtQt",
"QtQtQtQtQtQt.#.a.b.c.d.e.f.g.h.i.j.jQtQtQtQtQtQt",
"QtQtQtQtQtQt.k.l.l.l.l.l.l.m.n.o.j.p.jQtQtQtQtQt",
"QtQtQtQtQtQt.q.l.r.r.r.r.r.r.s.t.u.v.p.jQtQtQtQt",
"QtQtQtQtQtQt.w.l.r.r.r.r.r.r.r.s.e.r.v.p.jQtQtQt",
"QtQtQtQtQtQt.x.l.r.r.r.r.r.r.r.r.y.z.r.v.p.jQtQt",
"QtQtQtQtQtQt.AQt.B.r.r.r.r.r.r.r.#.y.e.u.j.jQtQt",
"QtQtQtQtQtQt.C.D.E.F.B.F.B.r.r.r.F.G.H.I.J.jQtQt",
"QtQt.CQtQt.C.K.C.z.L.C.M.E.F.r.r.N.O.P.Q.R.jQtQt",
"Qt.C.S.CQt.C.T.C.U.C.S.C.V.E.B.W.X.Y.Z.0.1.jQtQt",
"QtQt.C.T.2.S.T.S.2.T.C.3.4.M.5.X.6.7.8.9#..jQtQt",
"QtQtQt.2.T###a##.T.2#b#c#d#e#f#g#h#i.9#j#k.jQtQt",
"Qt.C.C.S###a#a#a##.S.C.C#l#m#n#h#o#p#q#r#s.jQtQt",
".C.K.T.T#a#t#u#t#a.T.T.K.C#v#w#x#y#z#r#A#B.jQtQt",
"Qt.C.C.S###a#a#a##.S.C.C#C#D#E#F#y#z#r#A#B.jQtQt",
"QtQtQt.2.T###a##.T.2#G#H#I#J#K#L#M#N#O#P#Q.jQtQt",
"QtQt.C.T.2.S.T.S.2.T.C#I#R#S#T#M#N#U#P#V#W.jQtQt",
"Qt.C.S.CQt.C.T.C#X.C.S.C#Y#Z#0#1#2#3#4#5#6.jQtQt",
"QtQt.CQtQt.C.K.C#7#8.C#9a.a#aaabac#4#5adae.jQtQt",
"QtQtQtQtQtQt.Cafagahaiajakalamacanaoapaqar.jQtQt",
"QtQtQtQtQtQt.jas#8atauavawaxayazaAaBaCaDaE.jQtQt",
"QtQtQtQtQtQt.j.j.j.j.j.j.j.j.j.j.j.j.j.j.j.jQtQt",
"QtQtQtQtQtQtQtQtQtQtQtQtQtQtQtQtQtQtQtQtQtQtQtQt",
"QtQtQtQtQtQtQtQtQtQtQtQtQtQtQtQtQtQtQtQtQtQtQtQt"};
