/* XPM */
static char *DrawPolylineFrame[]={
"32 32 5 1",
"c c None",
". c None",
"# c #000000",
"b c #808080",
"a c #dcdcdc",
"................................",
"................................",
"................................",
"................................",
"................................",
"................................",
"................................",
"................................",
"................................",
"................................",
"................................",
"................................",
"...............#................",
"...............#................",
"..............a#a...............",
"............###a###.............",
"..............a#a...............",
"...............#................",
"...............#..#.#.#.b.#.#.#.",
"...................a.a.a#a.a.a.a",
"..................#...a#c#a...#.",
"...................a.ac#c#cac..a",
"..................#.ac#cc.#ca.#.",
"...................a##cccc.##aca",
"..................b#ccccccccc#b.",
"...................a##ccccc##aca",
"..................#.ac#ccc#ca.#.",
"...................a.ac#c#ca...a",
"..................#...a#c#ac..#.",
"...................a...a#a.....a",
"..................#.#.#.b.#.#.#.",
"...................a.a.aca.a.a.a"};
