/* XPM */
static char *DrawFrame[]={
"32 32 4 1",
"a c None",
". c None",
"# c #000000",
"b c #dcdcdc",
"................................",
"................................",
"................................",
"................................",
"................................",
"................................",
"................................",
"................................",
"................................",
"................................",
"................................",
"................................",
"...............#................",
".............aa#aa..............",
".............ab#ba..............",
"............###b###.............",
".............ab#ba..............",
".............aa#aa..............",
".............a.#..#############.",
"..................#bbbbbbbbbbb#b",
"..................#b..........#b",
"..................#b..........#b",
"..................#b..........#b",
"..................#b..........#b",
"..................#b..........#b",
"..................#b..........#b",
"..................#b..........#b",
"..................#############b",
"....................bbbbbbbbbbbb",
"................................",
"................................",
"................................"};
