/* XPM */
static char *DrawTextFrame[]={
"32 32 4 1",
"b c None",
". c None",
"# c #000000",
"a c #dcdcdc",
"................................",
"................................",
"................................",
"................................",
"................................",
"................................",
"................................",
"................................",
"................................",
"................................",
"................................",
"................................",
"...............#................",
"...............#................",
"..............a#a...............",
"............###a###.............",
"..............a#a...............",
"...............#................",
"...............#..#############.",
"..................#aaaaaaaaaaa#.",
"..................#abb#bb.###.#a",
"..................#ab#b#bbaaa.#a",
"..................#a.#b#b.###.#a",
"..................#a#####baaa.#a",
"..................#a#bbb#b###.#a",
"..................#abbbbbbaaa.#a",
"..................#a#########.#a",
"..................#aaaaaaaaaa.#a",
"..................#a#########.#a",
"..................#aaaaaaaaaa.#a",
"..................#############a",
"...................aaaaaaaaaaaaa"};
