/* XPM */
static char * DrawTable_xpm[] = {
"28 28 2 1",
" 	c None",
".	c #000000",
"                            ",
"                            ",
"                            ",
"                            ",
"                            ",
"                            ",
"                            ",
"                            ",
"                            ",
"                            ",
"                            ",
"            ...             ",
"            ..              ",
"            . ............. ",
"              .     .     . ",
"              .     .     . ",
"              .     .     . ",
"              ............. ",
"              .     .     . ",
"              .     .     . ",
"              .     .     . ",
"              ............. ",
"              .     .     . ",
"              .     .     . ",
"              .     .     . ",
"              ............. ",
"                            ",
"                            "};
