/* XPM */
static char *DrawTable[]={
"32 32 3 1",
". c None",
"# c #000000",
"a c #dcdcdc",
"................................",
"................................",
"................................",
"................................",
"................................",
"................................",
"................................",
"................................",
"................................",
"................................",
"................................",
"................................",
"...............#................",
"...............#................",
"..............a#a...............",
"............###a###.............",
"..............a#a...............",
"...............#..#############.",
"...............#..#aaaaaaaaaaa#a",
"..................#############a",
"..................#############a",
"..................#aaa#aaa#aaa#a",
"..................#a..#...#...#a",
"..................#############a",
"..................#aaa#aaa#aaa#a",
"..................#a..#a..#a..#a",
"..................#############a",
"..................#aaa#aaa#aaa#a",
"..................#a..#a..#a..#a",
"..................#############a",
"...................aaaaaaaaaaaaa",
"................................"};
