/* XPM */
static char * Editm_xpm[] = {
"22 22 8 1",
" 	c None",
".	c #000000",
"+	c #F4EAE1",
"@	c #D8CCC0",
"#	c #FFFFFF",
"$	c #D6CDC5",
"%	c #F6E6D5",
"&	c #87807A",
"                      ",
"                      ",
"             ..       ",
".... ...... .+@...    ",
".##...##.+@..+@.+@.   ",
"...###...+@..+@.+@. . ",
"  ..#..  .+@.+@.+@..$.",
"   .#.   .+@.+@.+@.+@.",
"   .#. .. .%@%%@%@.+@.",
"   .#..++..%%%%%%%@%@.",
"   .#..+%%&%%%%%%%%@. ",
"   .#. .%%%%%%%%%%%@. ",
"   .#.  .%%%%%%%%%%@. ",
"   .#.  .%%%%%%%%%@.  ",
"  ..#..  .%%%%%%%%@.  ",
"...###... .%%%%%%@.   ",
".##...##.  .%%%%%@.   ",
".... ....  .%%%%%@.   ",
"                      ",
"                      ",
"                      ",
"                      "};
