/* XPM */
static char * Editm_xpm[] = {
"22 15 67 1",
" 	c None",
".	c #FFFFFF",
"+	c #EDEEED",
"@	c #2B4951",
"#	c #8F9DA1",
"$	c #EEEFEE",
"%	c #FDFDFD",
"&	c #474747",
"*	c #000000",
"=	c #444444",
"-	c #859598",
";	c #5E6F73",
">	c #A2A2A2",
",	c #D4D4D4",
"'	c #D3D3D3",
")	c #040404",
"!	c #030303",
"~	c #818281",
"{	c #7E7E7E",
"]	c #F9F9F9",
"^	c #2B2B2B",
"/	c #595959",
"(	c #282828",
"_	c #BCBDBC",
":	c #2F302F",
"<	c #CACBCA",
"[	c #303030",
"}	c #B8B9B8",
"|	c #656665",
"1	c #5C5C5C",
"2	c #DFE0DF",
"3	c #646464",
"4	c #626262",
"5	c #F2F3F2",
"6	c #131313",
"7	c #B8B8B8",
"8	c #DDDEDD",
"9	c #C0C0C0",
"0	c #242524",
"a	c #121212",
"b	c #EBECEB",
"c	c #9FA09F",
"d	c #666766",
"e	c #838483",
"f	c #5F605F",
"g	c #050505",
"h	c #9C9D9C",
"i	c #E9EAE9",
"j	c #494A49",
"k	c #010101",
"l	c #464646",
"m	c #FAFAFA",
"n	c #D4D5D4",
"o	c #ECECEC",
"p	c #B4B5B4",
"q	c #F7F7F7",
"r	c #FBFBFB",
"s	c #A2A3A2",
"t	c #808180",
"u	c #F6F6F6",
"v	c #2E2E2E",
"w	c #121312",
"x	c #070707",
"y	c #2A2A2A",
"z	c #7F9094",
"A	c #5B6D72",
"B	c #8A999C",
"    ......+  @@@#@@@  ",
"   $%&***=.    -@;>>>,",
"   .')***!.+    @>,,, ",
"   .~*****{.    @>,,  ",
"  +]^**/**(.    @>,   ",
"  ._**:<[**}$   @>,   ",
"  .|**123**4.   @>,   ",
" 5.6**7890*a.b  @>,   ",
" .c***defg**h.  @>,   ",
"i%j***k*****l.  @>,   ",
"mng*********)'o @>,   ",
".e***pq.rs***tu @>,   ",
".v**w.+ $.x**y.z@A,   ",
"......   ....@@@B@@@, ",
"              >>>>>>>,"};
