/* XPM */
static char * FlipV_xpm[] = {
"16 16 3 1",
" 	c None",
".	c #464646",
"+	c #FFFFFF",
"................",
".++++++++++++++.",
".++++++..++++++.",
".+++++....+++++.",
".++++......++++.",
".++++++..++++++.",
".++++++..++++++.",
".++++++..++++++.",
".++++++..++++++.",
".++++++..++++++.",
".++++++..++++++.",
".++++......++++.",
".+++++....+++++.",
".++++++..++++++.",
".++++++++++++++.",
"................"};
