/* XPM */
static const char *Gross[]={
"11 11 2 1",
"# c #000000",
". c #dddddd",
"...........",
"..........#",
".........##",
"........###",
".......####",
"..#...#####",
".###.######",
".##########",
".##########",
".##########",
".##########"};
