/* XPM */
static char * Gross_xpm[] = {
"11 11 38 1",
" 	c None",
".	c #000000",
"+	c #506377",
"@	c #8FA2B9",
"#	c #A4B3C4",
"$	c #98A5B5",
"%	c #5A6875",
"&	c #56687A",
"*	c #89A2BC",
"=	c #D1DDEA",
"-	c #EAECF0",
";	c #B4BEC7",
">	c #5C6978",
",	c #839AB4",
"'	c #86A2BE",
")	c #B4C3D8",
"!	c #F0F2FB",
"~	c #EDEEF5",
"{	c #9AA7B6",
"]	c #90A6BF",
"^	c #A7B2C1",
"/	c #8EA6BE",
"(	c #97ACC8",
"_	c #8CA2BE",
":	c #B4C5D8",
"<	c #C8D3E2",
"[	c #8597AB",
"}	c #596A7E",
"|	c #A7B8CA",
"1	c #98AFC6",
"2	c #849CBA",
"3	c #768DA6",
"4	c #475668",
"5	c #5F6E81",
"6	c #8A9EB4",
"7	c #8095AD",
"8	c #76889C",
"9	c #455666",
"           ",
"   .....   ",
"  .+@#$%.  ",
" .&*=.-;>. ",
" .,').!~{. ",
" .].....^. ",
" ./(_.:<[. ",
" .}|1.234. ",
"  .56789.  ",
"   .....   ",
"           "};
