/* XPM */
static char * Gross_xpm[] = {
"11 11 6 1",
" 	c None",
".	c #4E4E4E",
"+	c #2A2A2A",
"@	c #262626",
"#	c #191919",
"$	c #4A4A4A",
"           ",
"   .+@+.   ",
"  #     #  ",
" .   #   . ",
" +   #   + ",
" @ ##$## @ ",
" +   #   + ",
" .   #   . ",
"  #     #  ",
"   .+@+.   ",
"           "};
