/* XPM */
static char * Hoch_xpm[] = {
"20 20 3 1",
" 	c None",
".	c #FF0000",
"+	c #000000",
"                    ",
"              .. .. ",
"               . .  ",
"               . .  ",
"               ..   ",
"               ..   ",
"        +   +  .    ",
"      +++  ++ .     ",
"        +++  .      ",
"        ++          ",
"        ++          ",
"        ++          ",
"       ++++ +       ",
"    +++  +++        ",
"     ++  ++         ",
"                    ",
"                    ",
"                    ",
"                    ",
"                    "};
