/* XPM */
static const char* Kern[] = {
"22 22 4 1",
". c None",
"b c #000000",
"# c #7b7d7b",
"a c #ffffff",
"......................",
"......................",
"......................",
"......................",
"......................",
"...###############a...",
"...#bbbbbbbbbbbbb.a...",
"...#baaaaaaaaaaab.a...",
"...#baaaaaaabbaab.a...",
"...#baabbaabaaaab.a...",
"...#babaababbbaab.a...",
"...#baabbbabaabab.a...",
"...#babaababaabab.a...",
"...#baabbbaabbaab.a...",
"...#baaaaaaaaaaab.a...",
"...#..............a...",
"...aaaaaaaaaaaaaaaa...",
"......................",
"......................",
"......................",
"......................",
"......................"};