/* XPM */
static char * Klein_xpm[] = {
"11 11 7 1",
" 	c None",
".	c #4D4D4D",
"+	c #2A2A2A",
"@	c #262626",
"#	c #191919",
"$	c #4A4A4A",
"%	c #222222",
"           ",
"   .+@+.   ",
"  #     #  ",
" .       . ",
" +       + ",
" @ $%%%$ @ ",
" +       + ",
" .       . ",
"  #     #  ",
"   .+@+.   ",
"           "};
