/* XPM */
static char * Klein_xpm[] = {
"11 11 42 1",
" 	c None",
".	c #000000",
"+	c #506377",
"@	c #8FA2B9",
"#	c #A4B3C4",
"$	c #98A5B5",
"%	c #5A6875",
"&	c #56687A",
"*	c #89A2BC",
"=	c #D1DDEA",
"-	c #ECEEF6",
";	c #EAECF0",
">	c #B4BEC7",
",	c #5C6978",
"'	c #839AB4",
")	c #86A2BE",
"!	c #B4C3D8",
"~	c #DBE2F0",
"{	c #F0F2FB",
"]	c #EDEEF5",
"^	c #9AA7B6",
"/	c #90A6BF",
"(	c #A7B2C1",
"_	c #8EA6BE",
":	c #97ACC8",
"<	c #8CA2BE",
"[	c #91A9C6",
"}	c #B4C5D8",
"|	c #C8D3E2",
"1	c #8597AB",
"2	c #596A7E",
"3	c #A7B8CA",
"4	c #98AFC6",
"5	c #8BA2BD",
"6	c #849CBA",
"7	c #768DA6",
"8	c #475668",
"9	c #5F6E81",
"0	c #8A9EB4",
"a	c #8095AD",
"b	c #76889C",
"c	c #455666",
"           ",
"   .....   ",
"  .+@#$%.  ",
" .&*=-;>,. ",
" .')!~{]^. ",
" ./.....(. ",
" ._:<[}|1. ",
" .2345678. ",
"  .90abc.  ",
"   .....   ",
"           "};
