/* XPM */
static const char *Klein[]={
"11 11 2 1",
"# c #000000",
". c #dddddd",
"...........",
"...........",
"...........",
"...........",
"...........",
"...........",
"........#..",
".......###.",
"...#..#####",
"..#########",
".##########"};
