/* XPM */
static const char *Kreise[] = {
"22 22 4 1",
". c None",
"# c #000000",
"b c #838383",
"a c #dedede",
"......................",
"......................",
"......................",
"......................",
"......................",
"......................",
".......#######........",
".....##aaaaaaa##......",
"....#aaaaaaaaaaa#.....",
"...#aaaaaaaaaaaaa#....",
"...#aaaaaaaaaaaaa#b...",
"...#aaaaaaaaaaaaa#b...",
"....#aaaaaaaaaaa#bb...",
".....##aaaaaaa##bb....",
"......b#######bbb.....",
"........bbbbbbb.......",
"......................",
"......................",
"......................",
"......................",
"......................",
"......................"};
