/* XPM */
static char * Kreise_xpm[] = {
"22 22 5 1",
" 	c None",
".	c #323232",
"+	c #000000",
"@	c #DEDEDE",
"#	c #838383",
"                      ",
"                      ",
"                      ",
"                      ",
"                      ",
"                      ",
"       .+++++.        ",
"     ++@@@@@@@++      ",
"    +@@@@@@@@@@@+     ",
"   +@@@@@@@@@@@@@+    ",
"   +@@@@@@@@@@@@@+#   ",
"   +@@@@@@@@@@@@@+#   ",
"    +@@@@@@@@@@@+##   ",
"     ++@@@@@@@++##    ",
"      #.+++++.###     ",
"        #######       ",
"                      ",
"                      ",
"                      ",
"                      ",
"                      ",
"                      "};
