/* XPM */
static char * Kreuz_xpm[] = {
"22 22 31 1",
" 	c None",
".	c #F9F9F9",
"+	c #FFFFFF",
"@	c #F3F3F3",
"#	c #3C3C3C",
"$	c #000000",
"%	c #C2C2C2",
"&	c #454545",
"*	c #C4C4C4",
"=	c #101010",
"-	c #ABABAB",
";	c #EDEEED",
">	c #3F3F3F",
",	c #F5F6F5",
"'	c #F4F4F4",
")	c #7C7C7C",
"!	c #F2F2F2",
"~	c #CACACA",
"{	c #020202",
"]	c #F6F6F6",
"^	c #545454",
"/	c #090909",
"(	c #5E5E5E",
"_	c #EEEEEE",
":	c #0A0A0A",
"<	c #202020",
"[	c #E4E4E4",
"}	c #E0E0E0",
"|	c #EBEBEB",
"1	c #F8F8F8",
"2	c #ECECEC",
"                      ",
"                      ",
"      .               ",
"      +@              ",
"      +#@             ",
"      +$#@            ",
"      +$$#@           ",
"      +$$$#@          ",
"      +$$$$#@         ",
"      +$$$$$#@        ",
"      +$$$$$$#@       ",
"      +$$$$$$$#@      ",
"      +$$$$$%+++.     ",
"      +$&*=$-;        ",
"      +>,')$&!        ",
"      +@  ~{$%        ",
"      .   ]^/(_       ",
"           -:<[;      ",
"           })||       ",
"           12         ",
"                      ",
"                      "};
