/* XPM */
static const char *magick[] = {
/* columns rows colors chars-per-pixel */
"15 12 10 1",
"  c Gray0",
". c #003366",
"X c Blue",
"o c #3366cc",
"O c #3399ff",
"+ c #66ccff",
"@ c #808080",
"# c #c0c0c0",
"$ c #e4e4e4",
"% c None",
/* pixels */
"%%%%%%%%%%%%%%%",
"%%%%%%%#%%%%%%%",
"%%%##@#####%%%%",
"%%#@        #%%",
"%% #X % X.  #%%",
"%%#$o  +O.@  %%",
"%%#%%oOO.@$ #%%",
"%%%#%%@X@%###%%",
"%%%##$%%$@@#%%%",
"%%%%%@@@##%%%%%",
"%%%%%%##%%%%%%%",
"%%%%%%%%%%%%%%%"
};
