/* XPM */
static char * Layervisible_xpm[] = {
"15 12 11 1",
" 	c None",
".	c #C0C0C0",
"+	c #808080",
"@	c #000000",
"#	c #0000FF",
"$	c #003366",
"%	c #E4E4E4",
"&	c #3366CC",
"*	c #66CCFF",
"=	c #3399FF",
"-	c #B7B7B7",
"               ",
"      ....     ",
"   ..+.....    ",
"  .+@@@@@@@@.  ",
"  @.#@ @#$@@.  ",
"  .%&@@*=$+@@  ",
"  .  &==$+%@.  ",
"   .  +#+ ...  ",
"   ..%  %++.   ",
"     ---..     ",
"               ",
"               "};
