/* XPM */
static char * Lock_xpm[] = {
"22 22 9 1",
" 	c None",
".	c #000000",
"+	c #FFFFFF",
"@	c #D8D8D8",
"#	c #C1C1C1",
"$	c #999999",
"%	c #AFAFAF",
"&	c #E2E2E2",
"*	c #777777",
"                      ",
"                      ",
"                      ",
"                      ",
"                      ",
"                      ",
"                      ",
"    ... ..... ...     ",
"   .+@#.+@###.@##.    ",
"  .+@..+@...#$..##.   ",
"  .@. .@.. ..$. .#.   ",
"  .#. ..%. .&.. .%.   ",
"  .##..%*...&#..%*.   ",
"   .##%*.##%.##%*.    ",
"    .... ... ....     ",
"                      ",
"                      ",
"                      ",
"                      ",
"                      ",
"                      ",
"                      "};
