/* XPM */
static char *Lock[]={
"22 22 5 1",
"a c None",
". c None",
"b c #0000c0",
"# c #303030",
"c c #d8d8d8",
"......................",
"......................",
"......................",
"......................",
"......................",
"..#######....#######..",
"......................",
"..#######....#######..",
".........b............",
"..#######bb..#######..",
".........bbb..........",
"..#######bbbb#######..",
".........bbb..........",
"..#######bb..#######..",
".........b............",
"..#######....#######..",
"......................",
"..#######....#######..",
"......................",
"......................",
"......................",
"......................"};
