/* XPM */
static char * Lock_xpm[] = {
"22 22 3 1",
" 	c None",
".	c #303030",
"+	c #34458E",
"                      ",
"                      ",
"                      ",
"                      ",
" ........     ........",
"                      ",
" ........     ........",
"                      ",
" ........ +   ........",
"          ++          ",
" ........ +++ ........",
"          ++++        ",
" ........ +++ ........",
"          ++          ",
" ........ +   ........",
"                      ",
" ........     ........",
"                      ",
" ........     ........",
"                      ",
"                      ",
"                      "};
