/* XPM */
static char * Lupe_xpm[] = {
"18 18 152 2",
"  	c None",
". 	c #686D73",
"+ 	c #0E0F11",
"@ 	c #000000",
"# 	c #030405",
"$ 	c #22282E",
"% 	c #68717B",
"& 	c #C3C6C8",
"* 	c #0E1011",
"= 	c #252A2F",
"- 	c #7C8FA4",
"; 	c #A6C1E0",
"> 	c #9AB9DC",
", 	c #708BAA",
"' 	c #313E4D",
") 	c #1E252D",
"! 	c #BAC0C5",
"~ 	c #0F1011",
"{ 	c #515B66",
"] 	c #B3CDEA",
"^ 	c #ADC9E8",
"/ 	c #BFD5EB",
"( 	c #CADCEF",
"_ 	c #A4C5E6",
": 	c #86AFDC",
"< 	c #455C77",
"[ 	c #1C232C",
"} 	c #757A7F",
"| 	c #262A2F",
"1 	c #B6CEEA",
"2 	c #BCD3EB",
"3 	c #F9FBFB",
"4 	c #F7F9FB",
"5 	c #E7F1FA",
"6 	c #BCD4EE",
"7 	c #83ADDC",
"8 	c #77A5D8",
"9 	c #26374A",
"0 	c #5D6A78",
"a 	c #8292A5",
"b 	c #AFCBE8",
"c 	c #FAFBFB",
"d 	c #C6D9EF",
"e 	c #8CB3DF",
"f 	c #7AA6D9",
"g 	c #71A1D6",
"h 	c #5075A0",
"i 	c #19222C",
"j 	c #ACC5E1",
"k 	c #CFE0F2",
"l 	c #F8F9FC",
"m 	c #CDDEF0",
"n 	c #8EB4DF",
"o 	c #85AEDC",
"p 	c #7CA8DA",
"q 	c #74A2D7",
"r 	c #6D9FD5",
"s 	c #A1C2E5",
"t 	c #0C0F12",
"u 	c #C8C8C8",
"v 	c #A5C1DF",
"w 	c #C2D7ED",
"x 	c #D1E3F2",
"y 	c #9ABEE2",
"z 	c #88B0DD",
"A 	c #7FAADB",
"B 	c #76A4D8",
"C 	c #6D9ED6",
"D 	c #7BA9DA",
"E 	c #CFE3F4",
"F 	c #1D2125",
"G 	c #C2C3C2",
"H 	c #0D0F11",
"I 	c #7C92AD",
"J 	c #ACC9E8",
"K 	c #97BBE2",
"L 	c #8AB2DE",
"M 	c #81ACDB",
"N 	c #78A6D9",
"O 	c #6FA0D6",
"P 	c #679AD4",
"Q 	c #71A2D9",
"R 	c #C8DAE9",
"S 	c #202935",
"T 	c #C2C2C2",
"U 	c #565C63",
"V 	c #37424F",
"W 	c #96B9E1",
"X 	c #8DB3DF",
"Y 	c #84ADDC",
"Z 	c #7BA8D9",
"` 	c #72A1D7",
" .	c #699CD5",
"..	c #6096D1",
"+.	c #8AB4D9",
"@.	c #6D7984",
"#.	c #454F5D",
"$.	c #BCBCBC",
"%.	c #22272E",
"&.	c #4E637A",
"*.	c #87AFDD",
"=.	c #7EA9DA",
"-.	c #75A4D7",
";.	c #7AA7DA",
">.	c #8CB7E3",
",.	c #B7D3ED",
"'.	c #9FA6AA",
").	c #020202",
"!.	c #131313",
"~.	c #7A7B7A",
"{.	c #BCC2C6",
"].	c #1F262D",
"^.	c #2C3B4C",
"/.	c #6C8DAF",
"(.	c #9DBFE2",
"_.	c #CAE0F1",
":.	c #CCD2D7",
"<.	c #777E83",
"[.	c #0A0A0B",
"}.	c #E6DFCC",
"|.	c #303030",
"1.	c #C0C0C0",
"2.	c #626D7A",
"3.	c #1E2730",
"4.	c #0D1115",
"5.	c #222325",
"6.	c #343E4D",
"7.	c #2E3841",
"8.	c #474847",
"9.	c #6F706F",
"0.	c #CACBCA",
"a.	c #BABABA",
"b.	c #B7B7B7",
"c.	c #A5A6A8",
"d.	c #2E2E2E",
"e.	c #010101",
"f.	c #4B4B4B",
"g.	c #ADAFAE",
"h.	c #949594",
"i.	c #757675",
"j.	c #3F403F",
"k.	c #5F605F",
"l.	c #C0C1C0",
"m.	c #9C9D9C",
"n.	c #878887",
"o.	c #5B5C5B",
"p.	c #C8C9C8",
"q.	c #C6C7C6",
"r.	c #C5C6C5",
"s.	c #BDBDBD",
"t.	c #C3C4C3",
"u.	c #CFCFCF",
"      . + @ # $ %                   ",
"  & * = - ; > , ' ) !               ",
"  ~ { ] ^ / ( _ : < [               ",
"} | 1 2 3 4 5 6 7 8 9 0             ",
"* a b c c d e 7 f g h i             ",
"@ j k l m n o p q r s t u           ",
"@ v w x y z A B C D E F G           ",
"H I J K L M N O P Q R S T           ",
"U V W X Y Z `  ...+.@.#.$.          ",
"  %.&.*.=.-.;.>.,.'.).!.~.          ",
"  {.].^./.(._.:.<.[.}.@ |.~.        ",
"    1.2.3.4.5.6.7.@ @ }.@ 8.9.      ",
"    0.1.a.b.b.b.c.~.d.@ }.e.f.~.    ",
"        u G T T g.h.i.j.@ }.@ k.~.  ",
"                  l.m.n.o.@ }.@ k.  ",
"                      p.~.k.@ }.@   ",
"                        u ~.k.@ $.q.",
"                            r.s.t.u."};
