/* XPM */
static char *LupeZ[]={
"16 14 4 1",
"b c None",
". c None",
"# c #000000",
"a c #ffffff",
"................",
"....####........",
"...#....#....#..",
"..#..a...#...#..",
"..#.a....#.#####",
"..#......#...#..",
"..#......#...#..",
"...#....##......",
"....#######.....",
"..b......###....",
"bbbb......###...",
"..b........###..",
"............##..",
"................"};
