/* XPM */
static const char *Lupe[] = {
"22 22 7 1",
". c None",
"# c #000000",
"a c #00ffff",
"e c #c55a00",
"d c #ffac5a",
"c c #ffdeac",
"b c #ffffff",
"......................",
"......................",
".....#####............",
"....#aaaaa#...........",
"...#aabbbba#..........",
"..#aaaaabbba#.........",
"..#aaaaaaaba#.........",
"..#aaaaaaaba#.........",
"..#aaaaaaaaa#.........",
"..#aaaaaaaaa#.........",
"...#aaaaaaa#..........",
"....#aaaaa#c##........",
".....#####.#cc#.......",
"...........#cde#......",
"............#cde#.....",
".............#cde#....",
"..............#cde#...",
"...............#ee#...",
"................##....",
"......................",
"......................",
"......................"};
