/* XPM */
static char *viewmag[] = {
/* columns rows colors chars-per-pixel */
"16 16 86 1",
"  c black",
". c #5F301700",
"X c #61321700",
"o c #78421800",
"O c #7D481B00",
"+ c #7A4D2700",
"@ c #43436000",
"# c #55586A00",
"$ c #5A5D6F00",
"% c #5F627300",
"& c #61596B00",
"* c #6C6D7D00",
"= c #72748200",
"- c #098D0000",
"; c #09A20000",
": c #38A72100",
"> c #09C60000",
", c #2DC31900",
"< c #7E818800",
"1 c #874D1800",
"2 c #8D501900",
"3 c #96571900",
"4 c #85542700",
"5 c #94622D00",
"6 c #A05A1300",
"7 c #A25F1800",
"8 c #AF681600",
"9 c #B66D1A00",
"0 c #BD711600",
"q c #BC741E00",
"w c #A36E2C00",
"e c #815C4100",
"r c #81624C00",
"t c #AD7E4A00",
"y c #887D8100",
"u c #8BD65C00",
"i c #D6902C00",
"p c #D8912B00",
"a c #DF9A3300",
"s c #D1A65A00",
"d c #D7AE6300",
"f c #D1B16D00",
"g c #DAB66D00",
"h c #F3CC7700",
"j c #F5D07A00",
"k c #83848A00",
"l c #86898D00",
"z c #83899300",
"x c #8C8D9400",
"c c #88889800",
"v c #8C929C00",
"b c #998C8D00",
"n c #91959B00",
"m c #8E92A100",
"M c #9494A500",
"N c #9698A000",
"B c #9B9DAB00",
"V c #A1A3AC00",
"C c #A2A6B200",
"Z c #A3ABB400",
"A c #AAAEB800",
"S c #ACB0B600",
"D c #ADB3BA00",
"F c #B0B6BB00",
"G c #B3BCC200",
"H c #BBC5CA00",
"J c #BEC8CD00",
"K c #C4CACB00",
"L c #C4CDD100",
"P c #C7D1D500",
"I c #C9D2D600",
"U c #CCD6D900",
"Y c #CED8DA00",
"T c #D1D5D500",
"R c #D2DBDC00",
"E c #D6DEE000",
"W c #D7E0E200",
"Q c #DBE3E400",
"! c #E1E1E200",
"~ c #E0E7E800",
"^ c #E4EAEA00",
"/ c #E8EDED00",
"( c #EBF0F000",
") c #F2F5F500",
"_ c #F8F9F900",
"` c None",
/* pixels */
"`BCADDFDVB``````",
"MBAGJJJJDVM`````",
"mCHIRUPIISn`````",
"vGUQ/YWEEKN`````",
"vHY/(EQQQQn`````",
"nJPYEQ////x`````",
"zJPYQ//()^l`````",
"=GJUQ^((_K=`````",
"#vLYE/()!x=`````",
"M%vLW~/Txcnq9```",
"`B$*<l<*=rta07``",
"`````````3gja81`",
"`````````2wgjp6o",
"``````````O5fhi1",
"```````````X4fde",
"````````````.+r&"
};
