/* XPM */
static char * nftabout_xpm[] = {
"19 19 37 1",
" 	c None",
".	c #3F61CF",
"+	c #4C6BD0",
"@	c #B8C4EC",
"#	c #DAE1F4",
"$	c #DBE2F5",
"%	c #778FDB",
"&	c #C4CEEE",
"*	c #D3DBF3",
"=	c #4263CE",
"-	c #A3B3E7",
";	c #F8F9FC",
">	c #7C92DC",
",	c #F9FAFD",
"'	c #D4DCF4",
")	c #4D6CD1",
"!	c #FFFFFF",
"~	c #BAC6EC",
"{	c #BFCAED",
"]	c #E4E8F6",
"^	c #506FD2",
"/	c #B5C2EB",
"(	c #ADBBE9",
"_	c #FCFDFE",
":	c #7B92DD",
"<	c #889CDE",
"[	c #98AAE4",
"}	c #617CD5",
"|	c #F2F4FA",
"1	c #889CE0",
"2	c #8FA2E1",
"3	c #8499DE",
"4	c #BBC5E5",
"5	c #C0CBEE",
"6	c #C0C9E6",
"7	c #EDEFF9",
"8	c #C6D0F0",
"                   ",
"       .....       ",
"     .........     ",
"    ...........    ",
"   ...+@###$%...   ",
"  ....&*==.-;>...  ",
"  ....,'...)!~...  ",
" .....{]...^!/.... ",
" ..........(_:.... ",
" .........<![..... ",
" ........}|1...... ",
" ........{2....... ",
"  .......|)......  ",
"  ......)3)......  ",
"   .....4]5.....   ",
"    ....678....    ",
"     .........     ",
"       .....       ",
"                   "};
