/* XPM */
static char *nftabout[]={
"20 20 4 1",
". c None",
"# c #0000ff",
"a c #ffff00",
"b c #ffffff",
"....................",
"....................",
".......#####........",
".....#########......",
"....####aaa####.....",
"...####aaaaa####....",
"..####aaa#aaa####...",
"..####aa###aa####...",
".#####aa###aa#####..",
".#########aaa#####..",
".########aaa######..",
".#######aaa#######..",
".#######baa#######..",
"..###############...",
"..###############...",
"...#####aaa#####....",
"....####aaa####.....",
".....#########......",
".......#####........",
"...................."};
