/* XPM */
static char *info[]={
"20 20 3 1",
". c None",
"# c #0000ff",
"a c #ffffff",
"....................",
"....................",
".......#####........",
".....#########......",
"....###aaaaa###.....",
"...####aaaaa####....",
"..#####aaaaa#####...",
"..###############...",
".#################..",
".######aaaaa######..",
".######aaaaa######..",
".######aaaaa######..",
".######aaaaa######..",
"..#####aaaaa#####...",
"..#####aaaaa#####...",
"...####aaaaa####....",
"....###########.....",
".....#########......",
".......#####........",
"...................."};
