/* XPM */
static char * nftinfo_xpm[] = {
"19 19 11 1",
" 	c None",
".	c #3F61CF",
"+	c #4C6BD0",
"@	c #6882D8",
"#	c #CED7F2",
"$	c #617BCF",
"%	c #6580D7",
"&	c #FFFFFF",
"*	c #8FA1DB",
"=	c #D4DCF4",
"-	c #7D93DD",
"                   ",
"       .....       ",
"     .........     ",
"    ...........    ",
"   ....+@##$....   ",
"  .....%#&&*.....  ",
"  .....+@##$.....  ",
" ................. ",
" ......=&&&....... ",
" .......-&&....... ",
" .......-&&....... ",
" .......-&&....... ",
"  ......-&&......  ",
"  .....#&&&&-....  ",
"   .............   ",
"    ...........    ",
"     .........     ",
"       .....       ",
"                   "};
