/* XPM */
static const char *Rechtecke[] = {
"22 22 4 1",
". c None",
"# c #000000",
"b c #838383",
"a c #dedede",
"......................",
"......................",
"......................",
"......................",
"......................",
".....############.....",
".....#aaaaaaaaaa#b....",
".....#aaaaaaaaaa#b....",
".....#aaaaaaaaaa#b....",
".....#aaaaaaaaaa#b....",
".....#aaaaaaaaaa#b....",
".....#aaaaaaaaaa#b....",
".....#aaaaaaaaaa#b....",
".....#aaaaaaaaaa#b....",
".....#aaaaaaaaaa#b....",
".....#aaaaaaaaaa#b....",
".....############b....",
"......bbbbbbbbbbbb....",
"......................",
"......................",
"......................",
"......................"};
