/* XPM */
static char * Rechtecke_xpm[] = {
"20 20 5 1",
" 	c None",
".	c #434343",
"+	c #FFFFFF",
"@	c #494949",
"#	c #A2A2A2",
"                    ",
"                    ",
"  ................. ",
"  .+++++++++++++++@#",
"  .+++++++++++++++@#",
"  .+++++++++++++++@#",
"  .+++++++++++++++@#",
"  .+++++++++++++++@#",
"  .+++++++++++++++@#",
"  .+++++++++++++++@#",
"  .+++++++++++++++@#",
"  .+++++++++++++++@#",
"  .+++++++++++++++@#",
"  .+++++++++++++++@#",
"  .+++++++++++++++@#",
"  .+++++++++++++++@#",
"  .+++++++++++++++@#",
"  .+++++++++++++++@#",
"  .@@@@@@@@@@@@@@@@#",
"   #################"};
