/* XPM */
static char * Rotieren_xpm[] = {
"22 22 7 1",
" 	c None",
".	c #7B7B7B",
"+	c #000000",
"@	c #7F7F7F",
"#	c #FFFFFF",
"$	c #C1C1C1",
"%	c #424242",
"                      ",
"                      ",
"                      ",
"                      ",
"        .+++++        ",
"       ++@##$%++      ",
"      ++#######++     ",
"     ++##@++++%$+     ",
"    ++##@+    +++     ",
"   ++$#@++   ++#++    ",
"  +#######+ ++###++   ",
"  ++#####++++#####++  ",
"   ++###++ +#######+  ",
"    ++#++   ++@#$++   ",
"     +++    +@##++    ",
"     +$%++++@##++     ",
"     ++#######++      ",
"      ++%$##@++       ",
"        +++++         ",
"                      ",
"                      ",
"                      "};
