/* XPM */
static char * Rotieren_xpm[] = {
"22 22 24 1",
" 	c None",
".	c #969796",
"+	c #000000",
"@	c #B3B4B3",
"#	c #696969",
"$	c #272727",
"%	c #6B6B6B",
"&	c #CBCCCB",
"*	c #D3D3D3",
"=	c #8F908F",
"-	c #B7B7B7",
";	c #686968",
">	c #040404",
",	c #8B8C8B",
"'	c #9E9F9E",
")	c #1E1E1E",
"!	c #9D9D9D",
"~	c #D7D5D5",
"{	c #494949",
"]	c #FFFFFF",
"^	c #E3E3E3",
"/	c #E0E1E0",
"(	c #C8C8C8",
"_	c #A2A2A2",
"           .+         ",
"         @#++         ",
"        +++++$%&      ",
"         *=++-;>,     ",
"           '+  -),    ",
" !~!~!~!~!      ->&   ",
"!~~~~~~~~~!  {{  ;%   ",
"~~~~~~~~~~~ {]^{  $   ",
"!~~~~~~~~~!{]]]^{/    ",
"~~~~~~~~~~{]]]]]^{    ",
"!~~~~~~~~{]]]]]]]^{   ",
"~~~~~~~~{]]]]]]]]]^{  ",
"!~~~~~~{]]]]]]]]]]]^{ ",
"~~~~~~{]]]]]]]]]]]]({_",
"!~~~~~{]]]]]]]]]]]({_ ",
"~~~~~~~{]]]]]]]]]({_  ",
"!~~~~~~~{]]]]]]]({_   ",
" !~!~!~!~{]]]]]({_    ",
"         _{]]]({_     ",
"          _{(({_      ",
"           _{{_       ",
"            __        "};
