/* XPM */
static const char* Spacing[] = {
"21 21 2 1",
". c None",
"# c #000000",
".....................",
".....................",
".....................",
".....................",
"....#############....",
".....................",
"....#############....",
".....................",
"....#############....",
".....................",
"....#############....",
".....................",
"....#############....",
".....................",
"....#############....",
".....................",
"....#############....",
".....................",
".....................",
".....................",
"....................."};