/* XPM */
static char * Stiftalt_xpm[] = {
"22 22 50 1",
" 	c None",
".	c #EDA1B5",
"+	c #DE8E9F",
"@	c #DD899B",
"#	c #C7BBA8",
"$	c #D1A795",
"%	c #DD839A",
"&	c #BEBEBE",
"*	c #AEAEAE",
"=	c #9B9B9B",
"-	c #939393",
";	c #B8B8B8",
">	c #ACACAC",
",	c #949494",
"'	c #A5A5A5",
")	c #B5B5B5",
"!	c #A2A2A2",
"~	c #999999",
"{	c #FFCD1F",
"]	c #FFCE09",
"^	c #E0AE00",
"/	c #FFCB15",
"(	c #FFC705",
"_	c #CC9E00",
":	c #FFC80B",
"<	c #F4BD00",
"[	c #C09500",
"}	c #C89C02",
"|	c #FFCC1B",
"1	c #FFC90F",
"2	c #D1A726",
"3	c #ECBC0C",
"4	c #B8984A",
"5	c #B69648",
"6	c #A79035",
"7	c #383838",
"8	c #AD8F47",
"9	c #303030",
"0	c #B79749",
"a	c #777777",
"b	c #4C4C4C",
"c	c #393939",
"d	c #3D3D3D",
"e	c #505050",
"f	c #474747",
"g	c #AF9047",
"h	c #535353",
"i	c #444444",
"j	c #404040",
"k	c #5A5A5A",
"                      ",
"                      ",
"         .+@          ",
"         #$%          ",
"        &*=-          ",
"        ;>,'          ",
"        )!~           ",
"       {]^-           ",
"       /(_            ",
"       :<[            ",
"      /]^}            ",
"      :(_             ",
"      ]<[             ",
"     |]^}             ",
"     1]_              ",
"     23[              ",
"     456           7  ",
"     48           9   ",
"     00abcde    ef    ",
"     ga     hijk      ",
"                      ",
"                      "};
