/* XPM */
static const char *line[] = {
/* width height num_colors chars_per_pixel */
"    22    22        2            1",
/* colors */
". c #000000",
"# c None",
/* pixels */
"######################",
"#################.####",
"#################.####",
"###############.....##",
"################..####",
"###############.#.####",
"##############.#######",
"#############.########",
"############.#########",
"###########.##########",
"##########.###########",
"#########.############",
"########.#############",
"#######.##############",
"######.###############",
"###.#.################",
"###..#################",
"#.....################",
"###.##################",
"###.##################",
"######################",
"######################"
};
