/* XPM */
static char * Stift16_xpm[] = {
"16 16 4 1",
" 	c None",
".	c #323232",
"+	c #4B4B4B",
"@	c #3A3A3A",
"                ",
"            .   ",
"           ...  ",
"           +.   ",
"          @     ",
"         @      ",
"        @       ",
"       @        ",
"      @         ",
"     @          ",
"    @           ",
"  .+            ",
" ...            ",
"  .             ",
"                ",
"                "};
