/* XPM */
static char * Stiftalt16_xpm[] = {
"16 16 35 1",
" 	c None",
".	c #DCACAA",
"+	c #D7A19F",
"@	c #DD869A",
"#	c #B1B0AE",
"$	c #A49E9A",
"%	c #9F8D91",
"&	c #A6A6A6",
"*	c #969696",
"=	c #F6C929",
"-	c #D5B53E",
";	c #A09779",
">	c #FFCA11",
",	c #E7B402",
"'	c #FBC709",
")	c #D9A900",
"!	c #FFC90E",
"~	c #F7C206",
"{	c #D0A100",
"]	c #FFCE0B",
"^	c #E8B501",
"/	c #C29701",
"(	c #FFCD0D",
"_	c #D8A901",
":	c #E3B618",
"<	c #C59A06",
"[	c #B59548",
"}	c #A99138",
"|	c #373737",
"1	c #4D4D4D",
"2	c #464646",
"3	c #424242",
"4	c #474747",
"5	c #4E4E4E",
"6	c #404040",
"                ",
"     .+@        ",
"     #$%        ",
"     &*         ",
"    =-;         ",
"    >,          ",
"    ')          ",
"   !~{          ",
"   ]^/          ",
"   (_           ",
"   :<           ",
"   [}        |  ",
"   [  123   |   ",
"   435   363    ",
"                ",
"                "};
