/* XPM */
static char * Stiftalt16_xpm[] = {
"16 16 27 1",
" 	c None",
".	c #A08766",
"+	c #9C6532",
"@	c #41382C",
"#	c #D39253",
"$	c #8F4100",
"%	c #745636",
"&	c #E48A38",
"*	c #3F1C00",
"=	c #32291F",
"-	c #EEB06F",
";	c #B85F14",
">	c #000000",
",	c #896E4D",
"'	c #E58531",
")	c #361800",
"!	c #E09A56",
"~	c #8D480D",
"{	c #A2845F",
"]	c #DF8A3D",
"^	c #592800",
"/	c #473E30",
"(	c #D5985B",
"_	c #A65008",
":	c #544939",
"<	c #E8C493",
"[	c #3C2510",
"                ",
"                ",
"       .+       ",
"      @#$       ",
"      %&*       ",
"     =-;>       ",
"     ,')        ",
"    >!~         ",
"    {]^         ",
"   /(_>         ",
"   :<[       >  ",
"   >>       >   ",
"   > >>    >    ",
"    >     >     ",
"                ",
"                "};
