/* XPM */
static const char *Text[] = {
"22 22 3 1",
". c None",
"# c #000000",
"a c #ffffff",
"......................",
"......................",
"......................",
"..........##..........",
".........#aa#.........",
".........#aa#.........",
"........#aaaa#........",
"........#a#aa#........",
".......#a#.#aa#.......",
".......#a#.#aa#.......",
"......#a#...#aa#......",
"......#a#####aa#......",
".....#aaaaaaaaaa#.....",
".....#a#######aa#.....",
"....#a#.......#aa#....",
"....#a#.......#aa#....",
"...#aaaa#....#aaaa#...",
"...######....######...",
"......................",
"......................",
"......................",
"......................"};
