/* XPM */
static char *TextNew[]={
"32 32 8 1",
"# c #000000",
"a c #7a7bbd",
"c c #c0c0ff",
"b c #c3c3c3",
"d c #de7928",
"e c #e3a470",
"f c #e3b996",
". c #ffffff",
"............................##aa",
"...........................##aaa",
"b#b.......................##aaac",
"b#b......................##aaacc",
"b#b.....................##aaaccc",
".......................###aacc#c",
".......................#a##cc##c",
"......................##aa######",
"b#b..................##aacc#####",
"b#b.................##aacccc####",
"b#b.................#aacc#ccc###",
"b#b................###cc###ccc##",
"b#b...............#d#d#########.",
"b#b..............#d#d#d######...",
"b#b.............#d#ddddd####....",
"b#b............#d#ddddd#e##.....",
"b#b...........#e#ddddeee#.......",
"b#b##........#e#eedeeff#........",
"b#b###......#eeeeeefff#.........",
"b#b####....#eeeefffff#..........",
"b#b#####..#ee########...........",
"b#b##.###.###...................",
"b#b##..###......................",
"b#b##...###.....................",
"b#b##..#####....................",
"b#b#########....................",
"b#b####...#.....................",
"b#b##...........................",
"b#b##...........................",
"b#bbbbbbbbbbbbbbbbbbbbbb...bbb..",
"b#######################...###..",
"bbbbbbbbbbbbbbbbbbbbbbbb...bbb.."};
