/* XPM */
static char *Text[]={
"22 22 6 1",
"# c None",
". c #000000",
"b c #7f7f7f",
"c c #b2b2b2",
"d c #f2f2f2",
"a c #ffffff",
"######################",
"...######...######...#",
"...a.a.a.....a.a.a...#",
"..aaaaaaaaaaaaaaaaa..#",
"#aabbbbbbbbbbbbbbbaa##",
"#.abcccccccccccccca.##",
"#aabcddddddddddddcaa##",
"#.abcdaaaaa..aaaaca.##",
"#aabcd...aaa.aaaacaa##",
"..abcdaaa.aa...aaca..#",
"..abcda...aa.aa.aca..#",
"..abcd.aa.aa.aa.aca..#",
"#aabcd.aa.aa.aa.acaa##",
"#.abcda..a..a..aaca.##",
"#aabcdaaaaaaaaaaacaa##",
"#.abcdaaaaaaaaaaaca.##",
"#aabccccccccccccccaa##",
"..aaaaaaaaaaaaaaaaa..#",
"...a.a.a.....a.a.a...#",
"...######...######...#",
"######################",
"######################"};
