/* XPM */
static char * Text_xpm[] = {
"20 20 34 1",
" 	c None",
".	c #494949",
"+	c #FFFFFF",
"@	c #E1E1E1",
"#	c #A2A2A2",
"$	c #FBFBFB",
"%	c #434343",
"&	c #000000",
"*	c #C3C3C3",
"=	c #E0E0E0",
"-	c #060606",
";	c #505050",
">	c #636363",
",	c #A7A7A7",
"'	c #818181",
")	c #444444",
"!	c #B3B3B3",
"~	c #0D0D0D",
"{	c #F5F5F5",
"]	c #FAFAFA",
"^	c #222222",
"/	c #969696",
"(	c #F8F8F8",
"_	c #A1A1A1",
":	c #C0C0C0",
"<	c #010101",
"[	c #1C1C1C",
"}	c #1F1F1F",
"|	c #0B0B0B",
"1	c #414141",
"2	c #5F5F5F",
"3	c #4B4B4B",
"4	c #BBBBBB",
"5	c #DFDFDF",
" .................  ",
".++++++++++++++++@. ",
".++++++++++++++++@.#",
".++$+%&*+++++++++@.#",
".++$=-;>+++,,,,,+@.#",
".++$')!~{++++++++@.#",
".++]^/(~_++,,,,,+@.#",
".++:<[}|1++++++++@.#",
".++23++4<5+,,,,,+@.#",
".++++++++++++++++@.#",
".++,,,,,,,,,,,,,+@.#",
".++++++++++++++++@.#",
".++,,,,,,,,,,,,,+@.#",
".++++++++++++++++@.#",
".++,,,,,,,,,,,,,+@.#",
".++++++++++++++++@.#",
".++++++++++++++++@.#",
".@@@@@@@@@@@@@@@@@.#",
" .................##",
"  ################# "};
