/* XPM */
static char * Text16_xpm[] = {
"16 16 48 1",
" 	c None",
".	c #6D6D6D",
"+	c #6B6B6B",
"@	c #606060",
"#	c #FFFFFF",
"$	c #F3F3F3",
"%	c #868686",
"&	c #808080",
"*	c #FEFEFE",
"=	c #959595",
"-	c #F1F1F1",
";	c #909090",
">	c #FDFDFD",
",	c #EAEAEA",
"'	c #1B1B1B",
")	c #565656",
"!	c #C8C8C8",
"~	c #B9B9B9",
"{	c #C7C7C7",
"]	c #FCFCFC",
"^	c #8A8A8A",
"/	c #6A6A6A",
"(	c #797979",
"_	c #8E8E8E",
":	c #FAFAFA",
"<	c #FBFBFB",
"[	c #EDEDED",
"}	c #EEEEEE",
"|	c #3E3E3E",
"1	c #717171",
"2	c #666666",
"3	c #4E4E4E",
"4	c #E5E5E5",
"5	c #F4F4F4",
"6	c #CACACA",
"7	c #D5D5D5",
"8	c #B6B6B6",
"9	c #3F3F3F",
"0	c #A4A4A4",
"a	c #929292",
"b	c #C2C2C2",
"c	c #ECECEC",
"d	c #DCDCDC",
"e	c #DBDBDB",
"f	c #F0F0F0",
"g	c #E3E3E3",
"h	c #818181",
"i	c #9B9B9B",
" ............+@ ",
".############$%&",
".#*#%=-######$%;",
".#>,')!#-~~~{$%;",
".#]^/(_:<[[[-$%;",
".#}|123456667$%;",
".#890a9b56667$%;",
".#cd#:ef<[[[-$%;",
".#7~~~~~~~~~{$%;",
".#,dddddddddg$%;",
".#,dddddddddg$%;",
".#7~~~~~~~~~{$%;",
".############$%;",
"+$$$$$$$$$$$$c%;",
"@%%%%%%%%%%%%%hi",
" &;;;;;;;;;;;;i "};
