/* XPM */
static char *Text[]={
"32 32 4 1",
"a c #000000",
"# c #303030",
". c #c3c3c3",
"b c #ffffff",
"................................",
".##############################.",
".a............................#.",
".a.bbbbbbbbbbbbbbbbbbbbbbbbbb.#.",
".a.bbbbbbbbbbbbbbbbbbbbbbbbbb.#.",
"bbbbbbbbbbbbbbbbbbbbbbbbbbbbb.#.",
"bbbbb#############bbbbbbbbbbb.#.",
"bbbb.............bbbbbbbbbbbb.#.",
".a.bbbbbbbbbbbbbbbbbbbbbbbbbb.#.",
".a.bbbbbbbbbbbbbbbbbbbbbbbbbb.#.",
".a.bb#################bbbbbbb.#.",
".a.b.................bbbbbbbb.#.",
".a.bbbbbbbbbbbbbbbbbbbbbbbbbb.#.",
".a.bbbbbbbbbbbbbbbbbbbbbbbbbb.#.",
".a.bb######################bb.#.",
".a.b......................bbb.#.",
".a.bbbbbbbbbbbbbbbbbbbbbbbbbb.#.",
".a.bbbbbbbbbbbbbbbbbbbbbbbbbb.#.",
".a.bb######################bb.#.",
".a.b......................bbb.#.",
".a.bbbbbbbbbbbbbbbbbbbbbbbbbb.#.",
".a.bbbbbbbbbbbbbbbbbbbbbbbbbb.#.",
".a.bb######################bb.#.",
".a.b......................bbb.#.",
".a.bbbbbbbbbbbbbbbbbbbbbbbbbb.#.",
".a.bbbbbbbbbbbbbbbbbbbbbbbbbb.#.",
".a.bb#######bbbbbbbbbbbbbbbbb.#.",
".a.b.......bbbbbbbbbbbbbbbbbb.#.",
".a.bbbbbbbbbbbbbbbbbbbbbbbbbb.#.",
".a......................bbb...#.",
".aaaaaaaaaaaaaaaaaaaaaaabbbaaa#.",
"........................bbb....."};
