/* XPM */
static char * Unlock_xpm[] = {
"22 22 3 1",
" 	c None",
".	c #C00000",
"+	c #34458E",
"                      ",
"                      ",
"                      ",
"                      ",
" ........    ........ ",
"                      ",
" ........    ........ ",
"      +        +      ",
" ....++..    ..++.... ",
"    +++        +++    ",
" ..++++..    ..++++.. ",
"  +++++        +++++  ",
" ..++++..    ..++++.. ",
"    +++        +++    ",
" ....++..    ..++.... ",
"      +        +      ",
" ........    ........ ",
"                      ",
" ........    ........ ",
"                      ",
"                      ",
"                      "};
