/* XPM */
static char *Unlock[]={
"22 22 4 1",
"# c None",
". c None",
"b c #0000ff",
"a c #c00000",
"......#...............",
"......##..............",
".......#..............",
"......##########......",
"..aaaaaaa####aaaaaaa..",
".......########.......",
"..aaaaaaa####aaaaaaa..",
".#####b########b####..",
".#aaabbaa####aabbaaa..",
".###bbb########bbb###.",
".#abbbbaa####aabbbba#.",
".#bbbbb########bbbbb#.",
".#abbbbaa####aabbbba#.",
".###bbb########bbb###.",
"..aaabbaa####aabbaaa..",
"......b########b##....",
"..aaaaaaa####aaaaaaa..",
".....###########......",
"..aaaaaaa####aaaaaaa..",
"......................",
"......................",
"......................"};
