/* XPM */
static char * Unlock_xpm[] = {
"22 22 5 1",
" 	c None",
".	c #303030",
",	c #606060",
"+	c #C00000",
"*	c #F00000",
"                      ",
"                      ",
"                      ",
"                      ",
"                      ",
" ........    ........ ",
"                      ",
" ....,*..    ..*,.... ",
"     ++        ++     ",
" ..,+++..    ..+++,.. ",
"   ++++        ++++   ",
" .*++++..    ..++++*. ",
"   ++++        ++++   ",
" ..,+++..    ..+++,.. ",
"     ++        ++     ",
" ....,*..    ..*,.... ",
"                      ",
" ........    ........ ",
"                      ",
"                      ",
"                      ",
"                      "};
