/* XPM */
static char * Unlock_xpm[] = {
"22 22 7 1",
" 	c None",
".	c #000000",
"+	c #FFFFFF",
"@	c #D8D8D8",
"#	c #C1C1C1",
"$	c #AFAFAF",
"%	c #777777",
"                      ",
"                      ",
"                      ",
"       .   .  .       ",
"      .+. .+..+.      ",
"       .+..+.+.       ",
"        .  . .        ",
"   ... ...  ... ...   ",
"  .+@#.+##  ###.@##.  ",
" .+#..+#..  ..#$..##. ",
" .@. .#..    ..$. .#. ",
" .#. ..@.    .@.. .$. ",
" .##..@%..  ..@#..#%. ",
"  .##$%.##  ##.##$%.  ",
"   .... ..  .. ....   ",
"        . .  .        ",
"       .+.+..+.       ",
"      .+..+. .+.      ",
"       .  .   .       ",
"                      ",
"                      ",
"                      "};
