/* XPM */
static const char* UnterSt2[] = {
"22 22 3 1",
". c None",
"# c #000000",
"a c #a4a1a4",
"......................",
"......................",
"......................",
"......................",
".....######..#####....",
"......a##aaa..a#aaa...",
".......##a.....#a.....",
".......##a.....#a.....",
".......##a.....#a.....",
".......##a.....#a.....",
".......##a.....#a.....",
".......##a.....#a.....",
".......##a.....#a.....",
".......##a.....#a.....",
"........##....#.a.....",
".........#####.a......",
"..........aaaaa.......",
".......#########......",
"........aaaaaaaaa.....",
"......................",
"......................",
"......................"};