/* XPM */
static const char* Winkel2[] = {
"20 20 3 1",
". c None",
"# c #000000",
"a c #838183",
"....................",
"....................",
".......######.......",
".....##########.....",
"....####aaaa####....",
"...####aa....a###...",
"...####a.......##a..",
"...###aa.......###..",
".#######........##a.",
"..#####aa.......##a.",
"...###aa........##a.",
"....#aa.........##a.",
".....a..........##a.",
"...............##aa.",
"...............##a..",
"..............##aa..",
"............###aa...",
"..........###aaa....",
"...........aaa......",
"...................."};