/* XPM */
static const char * Zeichen[] = {
"16 16 8 1",
". c None",
"# c #000000",
"e c #5a595a",
"b c #a4a1a4",
"f c #c50000",
"c c #c5c2c5",
"d c #ff0000",
"a c #ffffff",
".......#........",
"......#a##......",
"......##ba##....",
"..###...##ba##..",
"..#aa##.b###c#..",
"..#deaa####c#...",
"....ddeac##c....",
"....ddc#c##c....",
"....ddc####c....",
"....ddc####c....",
"....ddc####c....",
"....ddc#.##ac...",
"...fddc#...#....",
"....ffa#........",
"......f.........",
"................"};
