/* XPM */
static char * Zeichen_xpm[] = {
"22 22 13 1",
" 	c None",
".	c #000000",
"+	c #080808",
"@	c #181C18",
"#	c #212421",
"$	c #181818",
"%	c #101410",
"&	c #080C08",
"*	c #292829",
"=	c #FF1C00",
"-	c #FF2000",
";	c #FF2C10",
">	c #000400",
"                      ",
"                      ",
"                      ",
"     ..............   ",
"     ..+@#$..##%...   ",
"     ..    .&    *.   ",
"     .     .&     .   ",
"           .&         ",
"           .&         ",
"           .&         ",
"    =======.&         ",
"    -=  -  .&         ",
"    =   =  .&         ",
"        -  .&         ",
"        =  .&         ",
"        -  .&         ",
"        =  ..         ",
"       =-=....        ",
"      =;=.>>>>>       ",
"                      ",
"                      ",
"                      "};
