/* XPM */
static char *LupeZm[]={
"16 14 4 1",
"a c None",
". c None",
"# c #000000",
"b c #ffffff",
"................",
"....####........",
"...#....#....a..",
"..#..b...#...a..",
"..#.b....#.#####",
"..#......#...a..",
"..#......#...a..",
"...#....##......",
"....#######.....",
"..a......###....",
"aaaa......###...",
"..a........###..",
"............##..",
"................"};
