<?xml version="1.0" encoding="windows-1252" standalone="no"?>
<svg id="svg3844" height="64" width="64" version="1.1" sodipodi:docname="application-vnd.scribus.svg" inkscape:version="1.1.2 (0a00cf5339, 2022-02-04)" inkscape:export-filename="application-vnd.scribus_64x64.png" inkscape:export-xdpi="96" inkscape:export-ydpi="96" xmlns:inkscape="http://www.inkscape.org/namespaces/inkscape" xmlns:sodipodi="http://sodipodi.sourceforge.net/DTD/sodipodi-0.dtd" xmlns:xlink="http://www.w3.org/1999/xlink" xmlns="http://www.w3.org/2000/svg" xmlns:svg="http://www.w3.org/2000/svg" xmlns:rdf="http://www.w3.org/1999/02/22-rdf-syntax-ns#" xmlns:cc="http://creativecommons.org/ns#" xmlns:dc="http://purl.org/dc/elements/1.1/">
  <sodipodi:namedview id="namedview35" pagecolor="#ffffff" bordercolor="#666666" borderopacity="1.0" inkscape:pageshadow="2" inkscape:pageopacity="0.0" inkscape:pagecheckerboard="0" showgrid="false" inkscape:zoom="12.959941" inkscape:cx="19.251631" inkscape:cy="23.688379" inkscape:window-width="2560" inkscape:window-height="1391" inkscape:window-x="0" inkscape:window-y="25" inkscape:window-maximized="1" inkscape:current-layer="svg3844"/>
  <defs id="defs3846">
    <linearGradient gradientTransform="matrix(1.0843523,0,0,1.1997367,79.550862,-4.1628601)" gradientUnits="userSpaceOnUse" xlink:href="#linearGradient3104-6" id="linearGradient3033" y2="2.9062471" x2="-51.786404" y1="50.786446" x1="-51.786404"/>
    <linearGradient id="linearGradient3104-6">
      <stop offset="0" style="stop-color:#000000;stop-opacity:0.31782946" id="stop3106-3"/>
      <stop offset="1" style="stop-color:#000000;stop-opacity:0.24031007" id="stop3108-9"/>
    </linearGradient>
    <linearGradient gradientTransform="matrix(1.2162162,0,0,1.5405376,2.8108184,-6.9729501)" gradientUnits="userSpaceOnUse" xlink:href="#linearGradient3977-4" id="linearGradient3093" y2="42.175503" x2="23.99999" y1="5.8641062" x1="23.99999"/>
    <linearGradient id="linearGradient3977-4">
      <stop offset="0" style="stop-color:#ffffff;stop-opacity:1" id="stop3979-7"/>
      <stop offset="0" style="stop-color:#ffffff;stop-opacity:0.23529412" id="stop3981-6"/>
      <stop offset="1" style="stop-color:#ffffff;stop-opacity:0.15686275" id="stop3983-5"/>
      <stop offset="1" style="stop-color:#ffffff;stop-opacity:0.39215687" id="stop3985-6"/>
    </linearGradient>
    <linearGradient gradientTransform="matrix(1.3142827,0,0,1.2602393,0.4572141,-2.1793201)" gradientUnits="userSpaceOnUse" xlink:href="#linearGradient3600-9" id="linearGradient3096" y2="47.013336" x2="25.132275" y1="0.98520643" x1="25.132275"/>
    <linearGradient id="linearGradient3600-9">
      <stop offset="0" style="stop-color:#f4f4f4;stop-opacity:1" id="stop3602-3"/>
      <stop offset="1" style="stop-color:#dbdbdb;stop-opacity:1" id="stop3604-7"/>
    </linearGradient>
    <radialGradient gradientTransform="matrix(0.03132633,0,0,0.02058823,35.220859,49.45142)" gradientUnits="userSpaceOnUse" xlink:href="#linearGradient5060" id="radialGradient3153" fy="486.64789" fx="605.71429" r="117.14286" cy="486.64789" cx="605.71429"/>
    <linearGradient id="linearGradient5060">
      <stop offset="0" style="stop-color:#000000;stop-opacity:1" id="stop5062"/>
      <stop offset="1" style="stop-color:#000000;stop-opacity:0" id="stop5064"/>
    </linearGradient>
    <radialGradient gradientTransform="matrix(-0.03132632,0,0,0.02058823,28.779136,49.45142)" gradientUnits="userSpaceOnUse" xlink:href="#linearGradient5060" id="radialGradient3156" fy="486.64789" fx="605.71429" r="117.14286" cy="486.64789" cx="605.71429"/>
    <linearGradient id="linearGradient5048">
      <stop offset="0" style="stop-color:#000000;stop-opacity:0" id="stop5050"/>
      <stop offset="0.5" style="stop-color:#000000;stop-opacity:1" id="stop5056"/>
      <stop offset="1" style="stop-color:#000000;stop-opacity:0" id="stop5052"/>
    </linearGradient>
    <linearGradient gradientTransform="matrix(0.09153846,0,0,0.02058823,-1.084616,49.45142)" gradientUnits="userSpaceOnUse" xlink:href="#linearGradient5048" id="linearGradient3842" y2="609.50507" x2="302.85715" y1="366.64789" x1="302.85715"/>
    <linearGradient xlink:href="#linearGradient619" id="linearGradient664" x1="27.984486" y1="-79.004845" x2="332.46686" y2="605.53149" gradientUnits="userSpaceOnUse" gradientTransform="matrix(0.04466313,0,0,0.04545288,15.953981,18.801753)"/>
    <linearGradient id="linearGradient619">
      <stop style="stop-color:#66b8ff;stop-opacity:1;" offset="0.00000000" id="stop620"/>
      <stop style="stop-color:#00507a;stop-opacity:1;" offset="1.00000000" id="stop621"/>
    </linearGradient>
    <linearGradient xlink:href="#linearGradient624" id="linearGradient623" x1="273.63623" y1="74.198006" x2="411.62375" y2="425.91623" gradientTransform="matrix(0.0381913,0,0,0.07399807,12.324853,9.8891595)" gradientUnits="userSpaceOnUse"/>
    <linearGradient id="linearGradient624">
      <stop style="stop-color:#b9e5ff;stop-opacity:0.419643;" offset="0.00000000" id="stop625"/>
      <stop style="stop-color:#ffffff;stop-opacity:1;" offset="1.00000000" id="stop626"/>
    </linearGradient>
    <linearGradient xlink:href="#linearGradient578" id="linearGradient581" x1="596.05676" y1="231.00583" x2="656.45557" y2="279.76099" gradientTransform="matrix(0.04281418,0,0,0.0660081,12.324853,9.8891595)" gradientUnits="userSpaceOnUse"/>
    <linearGradient id="linearGradient578">
      <stop style="stop-color:#fff2bc;stop-opacity:1;" offset="0.00000000" id="stop579"/>
      <stop style="stop-color:#83560b;stop-opacity:1;" offset="1.00000000" id="stop580"/>
    </linearGradient>
    <linearGradient xlink:href="#linearGradient593" id="linearGradient590" x1="779.7168" y1="160.62531" x2="908.44781" y2="264.66052" gradientTransform="matrix(0.0395539,0,0,0.07144891,12.324853,9.8891595)" gradientUnits="userSpaceOnUse"/>
    <linearGradient id="linearGradient593">
      <stop style="stop-color:#fff9db;stop-opacity:0.732143;" offset="0.00000000" id="stop594"/>
      <stop style="stop-color:#2c2c2c;stop-opacity:1;" offset="1.00000000" id="stop595"/>
    </linearGradient>
  </defs>
  <metadata id="metadata3849">
    <rdf:RDF>
      <cc:Work rdf:about="">
        <dc:format>image/svg+xml</dc:format>
        <dc:type rdf:resource="http://purl.org/dc/dcmitype/StillImage"/>
      </cc:Work>
    </rdf:RDF>
  </metadata>
  <rect width="44.199997" height="5" x="9.8999996" y="57.000004" id="rect2879" style="display:inline;overflow:visible;visibility:visible;opacity:0.15;fill:url(#linearGradient3842);fill-opacity:1;fill-rule:nonzero;stroke:none;stroke-width:1;marker:none"/>
  <path d="m 9.9,57.00022 c 0,0 0,4.9997 0,4.9997 -1.6132281,0.01 -3.9,-1.1202 -3.9,-2.5002 0,-1.38 1.8002408,-2.4995 3.9,-2.4995 z" id="path2881" style="display:inline;overflow:visible;visibility:visible;opacity:0.15;fill:url(#radialGradient3156);fill-opacity:1;fill-rule:nonzero;stroke:none;stroke-width:1;marker:none"/>
  <path d="m 54.099999,57.00022 c 0,0 0,4.9997 0,4.9997 C 55.713227,62.00992 58,60.87972 58,59.49972 c 0,-1.38 -1.800241,-2.4995 -3.900001,-2.4995 z" id="path2883" style="display:inline;overflow:visible;visibility:visible;opacity:0.15;fill:url(#radialGradient3153);fill-opacity:1;fill-rule:nonzero;stroke:none;stroke-width:1;marker:none"/>
  <path d="m 9,0.9998799 c 10.540935,0 45.999945,0.004 45.999945,0.004 L 55,59.00002 c 0,0 -30.666666,0 -46,0 0,-19.3334 0,-38.6665 0,-57.9998201 z" id="path4160-6" style="display:inline;fill:url(#linearGradient3096);fill-opacity:1;stroke:none"/>
  <path d="m 54.499999,58.50002 -44.9999992,0 0,-57.0000401 44.9999992,0 z" id="rect6741-1-8" style="fill:none;stroke:url(#linearGradient3093);stroke-width:1;stroke-linecap:round;stroke-linejoin:miter;stroke-miterlimit:4;stroke-dasharray:none;stroke-dashoffset:0;stroke-opacity:1"/>
  <path d="m 8.4999684,0.4998999 c 10.7700936,0 47.0000286,0.004 47.0000286,0.004 l 4.9e-5,58.9962201 c 0,0 -31.333384,0 -47.0000776,0 0,-19.6668 0,-39.3334 0,-58.9999701 z" id="path4160-6-1" style="display:inline;fill:none;stroke:url(#linearGradient3033);stroke-width:0.9999218;stroke-linecap:butt;stroke-linejoin:round;stroke-miterlimit:4;stroke-dasharray:none;stroke-dashoffset:0;stroke-opacity:1"/>
  <g id="g1242" transform="matrix(0.96234398,0,0,0.96624564,0.882521,1.2800378)">
    <ellipse style="font-size:12px;fill:#060000;fill-opacity:1;fill-rule:evenodd;stroke:#000000;stroke-width:0.0373516pt" id="path686" transform="matrix(0.76683461,0.64184475,-0.73869982,0.67403455,0,0)" cx="43.629948" cy="-16.275871" rx="5.1046829" ry="2.9858718"/>
    <ellipse style="font-size:12px;fill:url(#linearGradient664);fill-opacity:1;fill-rule:evenodd;stroke:none;stroke-width:0.691636;stroke-dasharray:none;stroke-opacity:1" id="path653" cx="31.195272" cy="30.499605" rx="16.525356" ry="16.817564"/>
    <path style="font-size:12px;fill:url(#linearGradient623);fill-opacity:0.75;fill-rule:evenodd;stroke:#f6f7f7;stroke-width:0.0519905pt;stroke-opacity:0.392857" d="m 29.061957,43.458969 c 0,0 -4.596456,-7.237298 -1.02884,-14.549683 2.835393,-5.878058 3.715399,-11.290072 1.40921,-15.11918 -4.095741,0.507913 -7.661193,2.590305 -9.427759,4.368559 -2.675892,2.594288 -3.956295,5.314067 -4.536084,7.21531 0.773052,9.375094 13.647894,18.281674 13.583473,18.084994 z" id="path622" sodipodi:nodetypes="cscscc"/>
    <path style="font-size:12px;fill:url(#linearGradient581);fill-rule:evenodd;stroke:none;stroke-width:0.299565" d="m 30.237966,43.817709 c -0.12207,-0.113463 6.007863,-9.155465 13.501007,-10.383251 0.02303,-9.746749 4.527752,-13.332131 4.812895,-13.942373 -0.602066,-3.237984 -2.36979,-4.460943 -3.965275,-4.718548 -2.70422,-0.342864 -2.196672,0.864138 -2.528928,1.18551 -1.829875,4.111013 -5.662155,9.914442 -6.20307,10.95216 -1.521979,2.098127 -4.745064,12.453254 -6.03424,16.885953 z" id="hrot" sodipodi:nodetypes="cccccccc"/>
    <ellipse style="font-size:12px;fill:#665123;fill-rule:evenodd;stroke-width:0.125798" id="path583" transform="matrix(0.8324628,0.55408094,-0.51681455,0.85609738,0,0)" cx="45.841328" cy="3.7556207" rx="0.46246707" ry="1.3239251"/>
    <path style="font-size:12px;fill:#665123;fill-rule:evenodd;stroke:#665123;stroke-width:0.0924532" d="m 35.665266,29.679544 -0.120044,-0.0897 c -0.138077,-0.103171 -4.76781,11.986727 -5.482254,14.152733 0.710009,-2.283916 4.887717,-13.110172 5.602298,-14.063034 z" id="path585" sodipodi:nodetypes="cscc"/>
    <path style="font-size:12px;fill:url(#linearGradient590);fill-rule:evenodd;stroke-width:0.0531609pt" d="m 38.262464,33.754331 c 1.625445,-1.271315 2.341839,-2.305962 3.951179,-2.62128 -0.278027,-3.97514 2.793076,-8.775309 5.289517,-13.263789 l -0.449555,-0.807033 c -1.032676,1.555984 -7.169748,12.73606 -8.791141,16.692102 z" id="path589" sodipodi:nodetypes="ccccc"/>
  </g>
</svg>