<svg width="256" height="256" viewBox="0 0 256 256" fill="none" xmlns="http://www.w3.org/2000/svg">
<g clip-path="url(#clip0_939_182)">
<path d="M128 256C198.692 256 256 198.692 256 128C256 57.3076 198.692 0 128 0C57.3076 0 0 57.3076 0 128C0 198.692 57.3076 256 128 256Z" fill="#1B5EA1"/>
<path d="M128 256C198.692 256 256 198.692 256 128C256 57.3076 198.692 0 128 0C57.3076 0 0 57.3076 0 128C0 198.692 57.3076 256 128 256Z" fill="url(#paint0_radial_939_182)" fill-opacity="0.2"/>
<path d="M155.398 73.3363C154.559 75.3331 155.117 78.1063 156.61 81.1589C149.502 90.176 142.229 98.6697 134.565 107.62C129.004 114.115 123.236 120.851 117.177 128.201C99.5302 149.606 88.6327 175.902 79.762 197.307L79.7313 197.381C79.3716 198.249 79.0152 199.11 78.6617 199.961C78.8467 199.975 79.2646 200.081 79.7653 200.21C94.9823 169.219 103.008 157.885 111.322 146.145C112.089 145.061 112.859 143.974 113.637 142.868C113.149 141.509 114.304 138.607 116.531 135.846C119.098 132.662 122.118 130.873 123.277 131.849C124.435 132.825 123.292 136.196 120.725 139.38C119.063 141.44 117.211 142.917 115.798 143.438C105.006 157.031 94.767 173.6 81.1446 200.553C81.5568 200.647 81.9411 200.72 82.2277 200.743C82.8919 200.11 83.5575 199.475 84.2252 198.837L84.2266 198.835C100.863 182.943 118.844 165.765 150.82 163.199C155.497 140.34 164.14 119.198 183.012 103.297C183.175 103.158 183.318 102.985 183.44 102.783C185.359 102.846 187.07 102.365 188.44 101.197C205.724 87.182 221.633 73.4803 236.448 59.975C224.976 41.7251 209.026 26.5753 190.138 16.0675C178.418 33.8267 166.854 52.7924 155.398 73.3363Z" fill="black" fill-opacity="0.4"/>
<path d="M182.844 92.9269C173.531 102.019 143.622 77.4625 146.906 67.7447C156.637 47.014 166.591 27.7545 176.785 9.62512C197.078 17.9972 214.747 31.4354 228.217 48.3639C214.271 62.8943 199.237 77.7034 182.844 92.9269Z" fill="#0C2238"/>
<path d="M82.4997 200.5C82.2056 200.5 81.8078 200.457 81.3799 200.396C93.1109 172.457 102.225 155.135 112.141 140.737C113.541 140.107 115.311 138.49 116.84 136.305C119.204 132.93 120.098 129.479 118.839 128.597C117.579 127.715 114.642 129.736 112.279 133.111C110.229 136.038 109.284 139.022 109.891 140.339C109.187 141.502 108.489 142.646 107.793 143.786C100.256 156.143 92.9788 168.072 79.9453 200.162C79.4243 200.072 78.9895 200 78.7997 200C79.1001 199.099 79.4031 198.188 79.7089 197.269C87.0385 175.233 96.0429 148.163 112.324 125.439C117.914 117.636 123.256 110.469 128.408 103.558C136.204 93.0964 143.565 83.2213 150.689 72.6143C152.358 70.2494 161.855 70.2962 168.497 75.3662C175.667 80.8389 180.156 92.8459 177.475 95.4455C159.503 112.779 152.385 134.534 149.449 157.689C117.04 162.757 100.079 181.292 84.3854 198.441L84.3524 198.477C83.7332 199.154 83.1159 199.829 82.4997 200.5Z" fill="#F1E3C0"/>
<path d="M82.4997 200.5C82.2056 200.5 81.8078 200.457 81.3799 200.396C93.1108 172.457 102.225 155.135 112.141 140.737C113.541 140.107 115.311 138.49 116.84 136.305C118.799 133.508 119.749 130.659 119.3 129.263C138.598 102.875 150.054 90.4763 153.5 87.5C157.167 83.6667 166.2 77.5 173 83.5C175.299 85.5289 176.825 87.6912 177.805 89.7742C178.476 92.3819 178.434 94.5155 177.475 95.4454C159.503 112.779 152.385 134.534 149.449 157.689C117.04 162.757 100.079 181.292 84.3854 198.441L84.3459 198.485C83.7288 199.159 83.1137 199.831 82.4997 200.5Z" fill="#D9B563"/>
<path d="M140.537 155.927C143.78 154.994 145.685 154.446 146 153.5C146.532 151.905 146.922 150.133 147.434 147.808C148.848 141.39 151.19 130.758 160 108C158.964 110.251 157.988 112.374 157.066 114.38C145.087 140.44 142.306 146.49 137 151C133.044 154.362 130.184 156.003 126.872 157.904C121.81 160.808 115.693 164.318 103 175.5C120.12 161.804 133.489 157.956 140.537 155.927Z" fill="#8F6C2A"/>
<path d="M182.709 12.2477L154 64C154 64 157.5 64 159 64.5L193.564 18.0435C190.051 15.9445 186.429 14.0091 182.709 12.2477Z" fill="white" fill-opacity="0.7"/>
</g>
<defs>
<radialGradient id="paint0_radial_939_182" cx="0" cy="0" r="1" gradientUnits="userSpaceOnUse" gradientTransform="translate(128 158) rotate(63.0389) scale(97.0477 117.838)">
<stop stop-color="#C3D8EC"/>
<stop offset="1" stop-color="#1B5EA1"/>
</radialGradient>
<clipPath id="clip0_939_182">
<rect width="256" height="256" fill="white"/>
</clipPath>
</defs>
</svg>
