/* XPM */
static char * Hoch_xpm[] = {
"16 16 3 1",
" 	c None",
".	c #FF0000",
"+	c #333333",
"                ",
"                ",
"           ..   ",
"          ...   ",
"  +++++    ..   ",
"   +++     ..   ",
"   +++     ..   ",
"   +++    ....  ",
"   +++          ",
"   +++          ",
"   +++          ",
"   +++    +     ",
"   +++   ++     ",
"  +++++++++     ",
"                ",
"                "};
