/* XPM */
static char * Tief_xpm[] = {
"16 16 3 1",
" 	c None",
".	c #333333",
"+	c #FF0000",
"                ",
"                ",
"  ..........    ",
"  ..  ..  ..    ",
"  .   ..   .    ",
"      ..        ",
"      ..        ",
"      ..        ",
"      ..   ++   ",
"      ..  +++   ",
"      ..   ++   ",
"    ...... ++   ",
"           ++   ",
"          ++++  ",
"                ",
"                "};
