/* XPM */
static char * Zeichen_xpm[] = {
"15 14 2 1",
" 	c None",
".	c #333333",
"    ...........",
"    ..  ...  ..",
"    .   ...   .",
"  .     ...    ",
" ...    ...    ",
". . .   ...    ",
"  .     ...    ",
"  .     ...    ",
"  .     ...    ",
"  .     ...    ",
"  .     ...    ",
". . .   ...    ",
" ...    ...    ",
"  .   .......  "};
