/* XPM */
static char *Zeichen[] = {
/* columns rows colors chars-per-pixel */
"16 16 2 1 ",
"  c gray20",
". c None",
/* pixels */
"................",
".....           ",
".....  ..   ..  ",
"..... ...   ... ",
"... .....   ....",
"..   ....   ....",
". . . ...   ....",
"... .....   ....",
"... .....   ....",
"... .....   ....",
"... .....   ....",
"... .....   ....",
". . . ...   ....",
"..   ....   ....",
"... ...       ..",
"................"
};
