/* XPM */
static char *Corner[]={
"16 16 10 1",
". c None",
"# c #000000",
"e c #0d0d0d",
"c c #1f1f1f",
"f c #222222",
"d c #303030",
"g c #d1d1d1",
"b c #d9d9d9",
"h c #dadada",
"a c #dbdbdb",
"............###.",
"..........##....",
".......a##...bb.",
"......##..b.....",
".....#..........",
"....#c###d......",
"..a#.ed.........",
"..#..fdd........",
"..#..d.dd.......",
".#...d..dd......",
".#.......dd.....",
"g#........dd.a..",
"#..........dd...",
"#...........dd..",
"#............dd.",
"..h...........d."};
