/* XPM */
static const char *DragPix[]={
"22 22 69 2",
"Qt c None",
".a c #000000",
".M c #010101",
".2 c #040404",
".E c #050505",
".T c #0f0f0f",
".y c #101010",
".F c #121212",
"#c c #151515",
".8 c #163f00",
"#. c #174300",
".z c #181818",
".W c #212121",
".e c #272727",
".j c #282828",
".S c #292929",
"#b c #2f2f2f",
".K c #303030",
".Q c #313131",
".0 c #323232",
".6 c #33a800",
".A c #343434",
".B c #363636",
".R c #373737",
".# c #393939",
".H c #3c3c3c",
".x c #3e3e3e",
".7 c #434343",
".3 c #47be07",
".4 c #47c005",
".5 c #4ac109",
".X c #4f4f4f",
".q c #505050",
".t c #535353",
".V c #53c315",
".Z c #53c415",
"## c #565656",
".P c #58c51c",
".C c #626262",
".n c #666666",
".d c #6b6b6b",
".b c #707070",
".G c #7f7f7f",
".k c #990000",
".L c #999999",
".h c #9c0808",
".D c #a0a0a0",
".i c #a92a2a",
".9 c #b7e89f",
"#a c #bceaa6",
".U c #beeba8",
".I c #cccccc",
".N c #d8d8d8",
".J c #dbdbdb",
".1 c #f1f1f1",
".w c #f3f3f3",
".s c #f4f4f4",
".v c #f5f5f5",
".p c #f6f6f6",
".o c #f7f7f7",
".c c #f8f8f8",
".O c #f8fdf6",
".f c #f9f9f9",
".g c #fafafa",
".l c #fbfbfb",
".m c #fcfcfc",
".r c #fdfdfd",
".Y c #fdfefd",
".u c #ffffff",
"QtQtQtQtQtQtQt.#.aQtQtQtQtQtQtQtQtQtQtQtQtQt",
"QtQtQtQtQtQtQt.b.c.d.aQtQtQtQtQtQtQtQtQtQtQt",
"QtQtQtQtQtQt.eQt.f.f.f.d.aQtQtQtQtQtQtQtQtQt",
"QtQtQtQtQtQt.d.g.g.h.i.g.f.d.aQtQtQtQtQtQtQt",
"QtQtQtQtQt.jQt.g.k.c.l.k.k.f.c.d.aQtQtQtQtQt",
"QtQtQtQtQt.d.g.l.m.n.n.l.g.k.k.o.p.d.aQtQtQt",
"QtQtQtQt.qQt.l.m.r.r.r.n.n.g.f.k.k.p.s.d.aQt",
"QtQtQt.tQt.c.a.a.r.u.r.m.l.n.n.c.o.k.v.w.d.a",
"QtQt.xQt.f.a.l.m.a.a.r.m.l.g.f.n.n.s.sQt.yQt",
"QtQt.d.o.f.g.a.a.m.m.a.z.g.g.f.o.p.v.s.AQt.B",
"Qt.aQt.o.a.a.g.g.a.a.l.g.g.f.n.o.p.vQt.C.D.a",
"Qt.d.p.a.o.c.a.a.g.g.a.E.f.n.o.p.p.v.FQt.aQt",
".BQt.v.p.a.a.c.f.a.a.f.f.c.n.o.a.vQt.C.D.G.A",
".H.I.I.v.p.p.a.a.c.c.a.o.n.p.p.vQt.a.J.CQt.a",
".K.L.L.I.I.p.p.p.a.a.o.p.n.p.M.s.a.a.a.N.aQt",
"Qt.z.d.L.L.I.I.v.p.p.p.n.v.v.sQt.a.O.P.aQt.Q",
"QtQtQt.R.d.L.L.I.I.p.s.n.s.S.w.T.a.U.V.a.a.Q",
"QtQtQtQtQt.W.d.L.L.I.I.w.w.w.X.u.U.Y.Z.U.UQt",
"QtQtQtQtQtQtQt.0.d.L.L.I.I.1.2.3.4.5.6.6.6.a",
"QtQtQtQtQtQtQtQtQt.S.d.L.L.I.C.7.8.9.6#..8.8",
"QtQtQtQtQtQtQtQtQtQtQt.j.C.C.X.L###a.6.8QtQt",
"QtQtQtQtQtQtQtQtQtQtQtQtQt#b#cQt.Q.a.a.8QtQt"};
