/* XPM */
static char *DrawImageFrame[]={
"32 32 3 1",
". c None",
"# c #000000",
"a c #dcdcdc",
"................................",
"................................",
"................................",
"................................",
"................................",
"................................",
"................................",
"................................",
"................................",
"................................",
"................................",
"................................",
"...............#................",
"...............#................",
"..............a#a...............",
"............###a###.............",
"..............a#a...............",
"...............#................",
"...............#..#############.",
"..................#aaaaaaaaaaa#a",
"..................#a.......##.#a",
"..................#a.......##a#a",
"..................#a.......aaa#a",
"..................#a..........#a",
"..................#a.#........#a",
"..................#a#a#.......#a",
"..................##a.a#.#...##a",
"..................#a.#.a#a#.#a#a",
"..................#a#a#.a.a#a.#a",
"..................#aa.a#.#.a..#a",
"..................#############a",
"...................aaaaaaaaaaaaa"};
