/* XPM */
static char * Editm_xpm[] = {
"22 22 45 1",
" 	c None",
".	c #FFFFFF",
"+	c #A5A5A5",
"@	c #000000",
"#	c #858585",
"$	c #888888",
"%	c #757575",
"&	c #6F6F6F",
"*	c #747474",
"=	c #ABABAB",
"-	c #959595",
";	c #BFBFBF",
">	c #575757",
",	c #FEFEFE",
"'	c #F8F8F8",
")	c #505050",
"!	c #ACACAC",
"~	c #B9B9B9",
"{	c #555555",
"]	c #A9A9A9",
"^	c #B5B5B5",
"/	c #5D5D5D",
"(	c #FCFCFC",
"_	c #9D9D9D",
":	c #B1B1B1",
"<	c #FDFDFD",
"[	c #787878",
"}	c #C2C2C2",
"|	c #D2D2D2",
"1	c #CDCDCD",
"2	c #FBFBFB",
"3	c #CECECE",
"4	c #5E5E5E",
"5	c #E2E2E2",
"6	c #E4E4E4",
"7	c #656565",
"8	c #676767",
"9	c #E1E1E1",
"0	c #848484",
"a	c #EEEEEE",
"b	c #ECECEC",
"c	c #5F5F5F",
"d	c #7D7D7D",
"e	c #4F4F4F",
"f	c #919191",
"            .......   ",
"           +.@@.@@.#  ",
"           +...@...#  ",
"     ###$$$##%.@.###  ",
"     &.....*#=.@.#    ",
"    -;.....;-=.@.#    ",
"    >,.....')!.@.#    ",
"    &...~...*!.@.#    ",
"   -;...{...;].@.#    ",
"   >...^/^..(].@.#    ",
"   &...]_]...:.@.#    ",
"  -;..<[=[...}.@.#    ",
"  >...|[[[|..1.@.#    ",
"  &...<222,..3.@.#    ",
" -;..........3.@.#    ",
" 4...255556..3.@.#    ",
" *...+478849.3.@.#    ",
"09aabc     d...@...   ",
"+eeee+     +.@@.@@.#  ",
"           +.......#  ",
"           +f#######  ",
"                      "};
