/* XPM */
static char * Kreuz_xpm[] = {
"22 22 29 1",
" 	c None",
".	c #F9F9F9",
"+	c #FFFFFF",
"@	c #3C3C3C",
"#	c #000000",
"$	c #C2C2C2",
"%	c #454545",
"&	c #C4C4C4",
"*	c #101010",
"=	c #ABABAB",
"-	c #EDEEED",
";	c #3F3F3F",
">	c #F5F6F5",
",	c #F4F4F4",
"'	c #7C7C7C",
")	c #F2F2F2",
"!	c #F3F3F3",
"~	c #CACACA",
"{	c #020202",
"]	c #F6F6F6",
"^	c #5E5E5E",
"/	c #090909",
"(	c #EEEEEE",
"_	c #0A0A0A",
":	c #202020",
"<	c #E4E4E4",
"[	c #E0E0E0",
"}	c #EBEBEB",
"|	c #ECECEC",
"                      ",
"                      ",
"      .               ",
"      ++              ",
"      +@+             ",
"      +#@+            ",
"      +##@+           ",
"      +###@+          ",
"      +####@+         ",
"      +#####@+        ",
"      +######@+       ",
"      +#######@+      ",
"      +#####$+++.     ",
"      +#%&*#=-        ",
"      +;>,'#%)        ",
"      +!  ~{#$        ",
"      .   ]^/^(       ",
"           ~_:<-      ",
"           ['}}       ",
"            |         ",
"                      ",
"                      "};
