/* XPM */
static char * Lupe_xpm[] = {
"18 18 88 1",
" 	c None",
".	c #878787",
"+	c #323232",
"@	c #1E1E1E",
"#	c #333333",
"$	c #7D7D7D",
"%	c #252525",
"&	c #535353",
"*	c #B3B3B3",
"=	c #D5D5D5",
"-	c #CFCFCF",
";	c #B8B8B8",
">	c #696969",
",	c #313131",
"'	c #7E7E7E",
")	c #DDDDDD",
"!	c #E4E4E4",
"~	c #E8E8E8",
"{	c #E6E6E6",
"]	c #D4D4D4",
"^	c #A2A2A2",
"/	c #2F2F2F",
"(	c #898989",
"_	c #D3D3D3",
":	c #DFDFDF",
"<	c #F0F0F0",
"[	c #F1F1F1",
"}	c #E9E9E9",
"|	c #DBDBDB",
"1	c #828282",
"2	c #777777",
"3	c #464646",
"4	c #A6A6A6",
"5	c #E2E2E2",
"6	c #E7E7E7",
"7	c #E5E5E5",
"8	c #EFEFEF",
"9	c #BFBFBF",
"0	c #353535",
"a	c #C3C3C3",
"b	c #D6D6D6",
"c	c #D8D8D8",
"d	c #DCDCDC",
"e	c #D9D9D9",
"f	c #DADADA",
"g	c #CDCDCD",
"h	c #363636",
"i	c #C8C8C8",
"j	c #DEDEDE",
"k	c #D1D1D1",
"l	c #434343",
"m	c #C9C9C9",
"n	c #3D3D3D",
"o	c #A7A7A7",
"p	c #E1E1E1",
"q	c #E3E3E3",
"r	c #E0E0E0",
"s	c #3E3E3E",
"t	c #C5C5C5",
"u	c #727272",
"v	c #D0D0D0",
"w	c #D7D7D7",
"x	c #656565",
"y	c #C2C2C2",
"z	c #AFAFAF",
"A	c #818181",
"B	c #C7C7C7",
"C	c #303030",
"D	c #939393",
"E	c #BCBCBC",
"F	c #BBBBBB",
"G	c #9D9D9D",
"H	c #282828",
"I	c #111111",
"J	c #7C7C7C",
"K	c #4F4F4F",
"L	c #C6C6C6",
"M	c #797979",
"N	c #383838",
"O	c #272727",
"P	c #4D4D4D",
"Q	c #000000",
"R	c #C0C0C0",
"S	c #BEBEBE",
"T	c #AEAEAE",
"U	c #626262",
"V	c #515151",
"W	c #636363",
"                  ",
"    .+@@#$        ",
"   %&*=-;>,       ",
"  %')!~{!]^/      ",
" (&_:<[<<}|12     ",
" 34=567{{8!90     ",
" #abcd|efcfghg    ",
" #ijfef|eeeklm    ",
" nobp5qq5rcast    ",
" uuv5!7qprw4xy    ",
"  +z7667:jv,A     ",
"  BCDE]]FGHIJK    ",
"   LMNO/PllQQdK   ",
"     RSSST UQQ|V  ",
"            UQQ|x ",
"             UQQ|W",
"              xQQf",
"               WU "};
