/* XPM */
static char * Rotieren2_xpm[] = {
"20 20 2 1",
" 	c None",
".	c #000000",
"          .         ",
"          ..        ",
"    .........       ",
"   ...........      ",
"  ...........       ",
"  ....    ..        ",
"  ...     .     .   ",
"  ...          ...  ",
"  ...         ..... ",
"  ...    ..  .......",
".......  ..    ...  ",
" .....         ...  ",
"  ...          ...  ",
"   .     .     ...  ",
"        ..    ....  ",
"       ...........  ",
"      ...........   ",
"       .........    ",
"        ..          ",
"         .          "};
