<?xml version="1.0" encoding="UTF-8" standalone="no"?>
<svg
   xmlns:dc="http://purl.org/dc/elements/1.1/"
   xmlns:cc="http://creativecommons.org/ns#"
   xmlns:rdf="http://www.w3.org/1999/02/22-rdf-syntax-ns#"
   xmlns:svg="http://www.w3.org/2000/svg"
   xmlns="http://www.w3.org/2000/svg"
   xmlns:sodipodi="http://sodipodi.sourceforge.net/DTD/sodipodi-0.dtd"
   xmlns:inkscape="http://www.inkscape.org/namespaces/inkscape"
   width="22"
   height="22"
   viewBox="0 0 5.8208332 5.8208335"
   version="1.1"
   id="svg8"
   inkscape:version="1.0.1 (3bc2e813f5, 2020-09-07)"
   sodipodi:docname="character-style-dark.svg"
   inkscape:export-filename="/home/gellert/Dokumentumok/character-style.png"
   inkscape:export-xdpi="96"
   inkscape:export-ydpi="96">
  <defs
     id="defs2" />
  <sodipodi:namedview
     id="base"
     pagecolor="#ffffff"
     bordercolor="#666666"
     borderopacity="1.0"
     inkscape:pageopacity="0.0"
     inkscape:pageshadow="2"
     inkscape:zoom="5.5781218"
     inkscape:cx="-48.143671"
     inkscape:cy="24.373001"
     inkscape:document-units="px"
     inkscape:current-layer="layer1"
     inkscape:document-rotation="0"
     showgrid="true"
     units="px"
     inkscape:snap-bbox="true"
     inkscape:bbox-nodes="true"
     inkscape:snap-global="true"
     inkscape:window-width="1920"
     inkscape:window-height="1163"
     inkscape:window-x="1920"
     inkscape:window-y="0"
     inkscape:window-maximized="1">
    <inkscape:grid
       type="xygrid"
       id="grid833"
       empspacing="11" />
  </sodipodi:namedview>
  <metadata
     id="metadata5">
    <rdf:RDF>
      <cc:Work
         rdf:about="">
        <dc:format>image/svg+xml</dc:format>
        <dc:type
           rdf:resource="http://purl.org/dc/dcmitype/StillImage" />
        <dc:title />
      </cc:Work>
    </rdf:RDF>
  </metadata>
  <g
     inkscape:label="Réteg 1"
     inkscape:groupmode="layer"
     id="layer1">
    <path
       id="path852"
       style="font-style:normal;font-variant:normal;font-weight:bold;font-stretch:normal;font-size:4.65246px;line-height:90%;font-family:'Liberation Sans';-inkscape-font-specification:'Liberation Sans, Bold';font-variant-ligatures:normal;font-variant-caps:normal;font-variant-numeric:normal;font-variant-east-asian:normal;text-align:center;letter-spacing:0px;word-spacing:0px;text-anchor:middle;stroke-width:0.439604;fill:#bebebe"
       d="M 6.4492188 2 L 2 14 L 4.5527344 14 L 5.6347656 10.933594 L 10.283203 10.933594 L 10.544922 11.675781 L 11.884766 8.5683594 A 0.5753447 0.5753447 0 0 1 11.886719 8.5664062 L 9.4609375 2 L 6.4492188 2 z M 7.9550781 3.8476562 L 8.1367188 4.4355469 L 8.5097656 5.59375 L 9.7128906 9.0429688 L 6.2070312 9.0429688 C 7.1187805 6.4311862 7.6145238 4.9955532 7.6953125 4.734375 C 7.7761012 4.4731981 7.8446379 4.2395581 7.9023438 4.0351562 L 7.9550781 3.8476562 z M 12.667969 11.978516 L 11.857422 14 L 13.378906 14 L 12.667969 11.978516 z "
       transform="scale(0.26458333)" />
    <g
       aria-label="A"
       transform="scale(1.0081375,0.99192818)"
       id="text841"
       style="font-style:normal;font-variant:normal;font-weight:bold;font-stretch:normal;font-size:4.84975px;line-height:90%;font-family:'Libertinus Serif';-inkscape-font-specification:'Libertinus Serif, Bold';font-variant-ligatures:normal;font-variant-caps:normal;font-variant-numeric:normal;font-variant-east-asian:normal;text-align:center;letter-spacing:0px;word-spacing:0px;text-anchor:middle;stroke-width:0.121244;fill:#bebebe">
      <path
         d="M 2.4870206,4.9418977 2.7440574,4.2677824 c 0.024249,-0.063047 0.053347,-0.082446 0.1697412,-0.082446 h 0.9214525 l 0.271586,0.7905092 c 0.058197,0.174591 -0.082446,0.1794408 -0.2667362,0.1891403 -0.029098,0 -0.063047,0.00485 -0.092145,0.00485 -0.029098,0.029098 -0.029098,0.135793 0,0.1648915 0.1794408,-0.00485 0.640167,-0.0097 0.8293073,-0.0097 0.1988397,0 0.4704257,0.00485 0.6498665,0.0097 0.029098,-0.029098 0.029098,-0.135793 0,-0.1648915 C 5.0379891,5.1504369 4.8779474,5.1552867 4.7906519,4.9079494 L 3.7916034,2.1338924 c -0.072746,0.043648 -0.3637313,0.213389 -0.5334725,0.213389 l -1.0523958,2.483072 c -0.1260935,0.3006845 -0.271586,0.3249333 -0.484975,0.3394825 -0.029098,0.029098 -0.029098,0.135793 0,0.1648915 0.1794408,-0.00485 0.2667363,-0.0097 0.4558765,-0.0097 0.1988398,0 0.465576,0.00485 0.6450168,0.0097 0.029098,-0.029098 0.029098,-0.135793 0,-0.1648915 C 2.6373629,5.1552867 2.4094246,5.1407374 2.4870206,4.9418977 Z m 0.523773,-0.989349 c -0.1066945,0 -0.1406427,-0.014549 -0.1212437,-0.063047 l 0.426778,-1.086344 h 0.033948 l 0.3976795,1.1493908 z"
         style="font-style:normal;font-variant:normal;font-weight:bold;font-stretch:normal;font-size:4.84975px;font-family:'Libertinus Serif';-inkscape-font-specification:'Libertinus Serif, Bold';font-variant-ligatures:normal;font-variant-caps:normal;font-variant-numeric:normal;font-variant-east-asian:normal;stroke-width:0.121244;fill:#bebebe"
         id="path858" />
    </g>
  </g>
</svg>
