<?xml version="1.0" encoding="UTF-8" standalone="no"?>
<svg
   xmlns:dc="http://purl.org/dc/elements/1.1/"
   xmlns:cc="http://creativecommons.org/ns#"
   xmlns:rdf="http://www.w3.org/1999/02/22-rdf-syntax-ns#"
   xmlns:svg="http://www.w3.org/2000/svg"
   xmlns="http://www.w3.org/2000/svg"
   xmlns:xlink="http://www.w3.org/1999/xlink"
   xmlns:sodipodi="http://sodipodi.sourceforge.net/DTD/sodipodi-0.dtd"
   xmlns:inkscape="http://www.inkscape.org/namespaces/inkscape"
   width="22"
   height="22"
   viewBox="0 0 5.8208332 5.8208335"
   version="1.1"
   id="svg885"
   inkscape:version="1.0.1 (3bc2e813f5, 2020-09-07)"
   sodipodi:docname="paragraph-style-dark.svg"
   inkscape:export-filename="/home/gellert/Dokumentumok/paragraph-style.png"
   inkscape:export-xdpi="96"
   inkscape:export-ydpi="96">
  <defs
     id="defs879" />
  <sodipodi:namedview
     id="base"
     pagecolor="#ffffff"
     bordercolor="#666666"
     borderopacity="1.0"
     inkscape:pageopacity="0.0"
     inkscape:pageshadow="2"
     inkscape:zoom="22.312487"
     inkscape:cx="19.929978"
     inkscape:cy="13.547218"
     inkscape:document-units="px"
     inkscape:current-layer="layer1"
     inkscape:document-rotation="0"
     showgrid="true"
     units="px"
     inkscape:snap-bbox="true"
     inkscape:bbox-nodes="true"
     inkscape:window-width="1920"
     inkscape:window-height="1163"
     inkscape:window-x="1920"
     inkscape:window-y="0"
     inkscape:window-maximized="1">
    <inkscape:grid
       type="xygrid"
       id="grid1448"
       empspacing="11" />
  </sodipodi:namedview>
  <metadata
     id="metadata882">
    <rdf:RDF>
      <cc:Work
         rdf:about="">
        <dc:format>image/svg+xml</dc:format>
        <dc:type
           rdf:resource="http://purl.org/dc/dcmitype/StillImage" />
        <dc:title />
      </cc:Work>
    </rdf:RDF>
  </metadata>
  <g
     inkscape:label="Réteg 1"
     inkscape:groupmode="layer"
     id="layer1">
    <path
       d="m 2.0502948,0.80335839 c -0.1297391,0 -0.4132429,-0.00961 -0.7736292,-0.00961 -0.63427979,0 -0.91297849,0.41804801 -0.91297849,0.79765491 0,0.6438901 0.3940223,0.9562248 1.09557419,0.9562248 0.072077,0 0.1105185,-0.00481 0.1537648,-0.014415 V 4.67631 c 0,0.1345442 -0.057662,0.1874009 -0.2594781,0.2018163 l -0.129739,0.00961 c -0.019221,0 -0.033636,0.014416 -0.033636,0.038441 v 0.091298 l 0.00961,0.00961 c 0.2354524,-0.00961 0.5189562,-0.00961 0.8505116,-0.00961 0.3315553,0 0.6246695,0 0.8505115,0.00961 l 0.00961,-0.00961 v -0.091298 c 0,-0.024026 -0.019221,-0.038441 -0.038441,-0.038441 L 2.7470415,4.8781256 C 2.5548355,4.8637102 2.4827583,4.8204638 2.4827583,4.6763093 V 1.144524 c 0,-0.1441545 0.072077,-0.18740081 0.2642832,-0.20181626 l 0.1249339,-0.00961 c 0.019221,0 0.038441,-0.0144154 0.038441,-0.0384412 v -0.0912979 l -0.00961,-0.00961 c -0.225842,0.00961 -0.5189562,0.00961 -0.8505116,0.00961 z M 1.8532836,1.144524 c 0,-0.129739 0.081688,-0.18259566 0.192206,-0.18259566 0.1105185,0 0.1970112,0.033636 0.1970112,0.18259566 v 3.5317853 c 0,0.1489597 -0.086493,0.1825957 -0.1970112,0.1825957 -0.1105184,0 -0.192206,-0.052857 -0.192206,-0.1825957 z"
       style="font-style:normal;font-variant:normal;font-weight:normal;font-stretch:normal;font-size:4.80515px;line-height:90%;font-family:'Libertinus Serif';-inkscape-font-specification:'Libertinus Serif, Normal';font-variant-ligatures:normal;font-variant-caps:normal;font-variant-numeric:normal;font-variant-east-asian:normal;text-align:center;letter-spacing:0px;word-spacing:0px;text-anchor:middle;stroke-width:0.120129;fill:#bebebe"
       id="path1505" />
    <path
       style="color:#000000;font-style:normal;font-variant:normal;font-weight:normal;font-stretch:normal;font-size:medium;line-height:normal;font-family:sans-serif;font-variant-ligatures:normal;font-variant-position:normal;font-variant-caps:normal;font-variant-numeric:normal;font-variant-alternates:normal;font-variant-east-asian:normal;font-feature-settings:normal;font-variation-settings:normal;text-indent:0;text-align:start;text-decoration:none;text-decoration-line:none;text-decoration-style:solid;text-decoration-color:#000000;letter-spacing:normal;word-spacing:normal;text-transform:none;writing-mode:lr-tb;direction:ltr;text-orientation:mixed;dominant-baseline:auto;baseline-shift:baseline;text-anchor:start;white-space:normal;shape-padding:0;shape-margin:0;inline-size:0;clip-rule:nonzero;display:inline;overflow:visible;visibility:visible;opacity:1;isolation:auto;mix-blend-mode:normal;color-interpolation:sRGB;color-interpolation-filters:linearRGB;solid-color:#000000;solid-opacity:1;vector-effect:none;fill:#bebebe;fill-opacity:1;fill-rule:nonzero;stroke:none;stroke-width:0.352734px;stroke-linecap:butt;stroke-linejoin:miter;stroke-miterlimit:4;stroke-dasharray:none;stroke-dashoffset:0;stroke-opacity:1;color-rendering:auto;image-rendering:auto;shape-rendering:auto;text-rendering:auto;enable-background:accumulate;stop-color:#000000;stop-opacity:1"
       d="m 3.5425781,0.79375 -0.5292969,0.5291666 0.125,0.1249693 0.4042969,0.4041974 H 5.55625 V 0.79375 Z m 0.1615886,0.2645833 h 1.5875 V 1.5875 h -1.5875 L 3.4395833,1.3229167 Z"
       id="path1464"
       sodipodi:nodetypes="ccccccccccccc" />
    <use
       x="0"
       y="0"
       xlink:href="#path1464"
       id="use837"
       transform="translate(0,1.5875)"
       width="100%"
       height="100%" />
    <use
       x="0"
       y="0"
       xlink:href="#path1464"
       id="use839"
       transform="translate(0,3.175)"
       width="100%"
       height="100%" />
  </g>
</svg>
