<svg width="16" height="16" viewBox="0 0 16 16" xmlns="http://www.w3.org/2000/svg"><style>@import '../colors.css';</style>
<path fill-rule="evenodd" clip-rule="evenodd" d="M11.8907 10.4765C12.5892 9.49572 13 8.29583 13 7C13 3.68629 10.3137 1 7 1C3.68629 1 1 3.68629 1 7C1 10.3137 3.68629 13 7 13C8.29583 13 9.49571 12.5892 10.4765 11.8908L13.2928 14.707C13.6833 15.0976 14.3165 15.0976 14.707 14.707C15.0975 14.3165 15.0975 13.6833 14.707 13.2928L11.8907 10.4765ZM7 12C9.76142 12 12 9.76142 12 7C12 4.23858 9.76142 2 7 2C4.23858 2 2 4.23858 2 7C2 9.76142 4.23858 12 7 12ZM3 6H11V8H3V6Z"/>
</svg>
