<svg width="16" height="16" viewBox="0 0 16 16" xmlns="http://www.w3.org/2000/svg"><style>@import '../colors.css';</style>
<path fill-rule="evenodd" clip-rule="evenodd" d="M10.4765 11.8908C9.49571 12.5892 8.29583 13 7 13C3.68629 13 1 10.3137 1 7C1 3.68629 3.68629 1 7 1C10.3137 1 13 3.68629 13 7C13 8.29583 12.5892 9.49572 11.8907 10.4765L14.707 13.2928C15.0975 13.6833 15.0975 14.3165 14.707 14.707C14.3165 15.0976 13.6833 15.0976 13.2928 14.707L10.4765 11.8908ZM12 7C12 9.76142 9.76142 12 7 12C4.23858 12 2 9.76142 2 7C2 4.23858 4.23858 2 7 2C9.76142 2 12 4.23858 12 7ZM11 6H8V3H6V6H3V8H6V11H8V8H11V6Z"/>
</svg>
