<svg width="16" height="16" viewBox="0 0 16 16" xmlns="http://www.w3.org/2000/svg"><style>@import '../colors.css';</style>
<path fill-rule="evenodd" clip-rule="evenodd" d="M2 5L6 1H13V7.57329C12.9813 7.59068 12.9629 7.60847 12.9447 7.62665L12 8.57137V2H7V6H2V5ZM7.28913 14H3V7H2V15H7.05836L7.28913 14Z"/>
<path d="M15.2634 8.33376C14.8183 7.88875 14.0968 7.88875 13.6518 8.33376L13.2489 8.73664L15.2634 10.7511L15.6662 10.3482C16.1113 9.90316 16.1113 9.18165 15.6662 8.73664L15.2634 8.33376Z"/>
<path d="M14.5558 11.4586L12.5414 9.44423L8.41436 13.5712L8.01503 15.3017C7.92035 15.712 8.28804 16.0797 8.69831 15.985L10.4288 15.5856L14.5558 11.4586Z"/>
</svg>
