<svg width="16" height="16" viewBox="0 0 16 16" xmlns="http://www.w3.org/2000/svg"><style>@import '../colors.css';</style>
<g clip-path="url(#clip0_1405_302)">
<path fill-rule="evenodd" clip-rule="evenodd" d="M5 7L9 0L13 7H5ZM6.72318 6L9 2.01556L11.2768 6H6.72318ZM2 14V8H8V14H2ZM3 13V9H7V13H3Z"/>
<path fill-rule="evenodd" clip-rule="evenodd" d="M16 13L16 11.5C16 9.567 14.433 8 12.5 8C10.567 8 9 9.567 9 11.5L9.00001 13H11.0001L11.0001 11.5C11.0001 10.6716 11.6717 10 12.5001 10C13.3285 10 14.0001 10.6716 14.0001 11.5V13H16ZM9.00012 14H11.0001V16H9.00012V14ZM16.0001 14H14.0001V16H16.0001V14Z" class="error"/>
</g>
<defs>
<clipPath id="clip0_1405_302">
<rect width="16" height="16" fill="white"/>
</clipPath>
</defs>
</svg>
