<svg width="16" height="16" viewBox="0 0 16 16" xmlns="http://www.w3.org/2000/svg"><style>@import '../colors.css';</style>
<path fill-rule="evenodd" clip-rule="evenodd" d="M15 8C15 11.866 11.866 15 8 15C4.13401 15 1 11.866 1 8C1 4.13401 4.13401 1 8 1C11.866 1 15 4.13401 15 8ZM7 10V9C7 8.26499 7.17819 7.96309 7.30889 7.74167L7.30889 7.74166C7.32045 7.72208 7.33163 7.70313 7.34229 7.68457C7.47347 7.45605 7.6512 7.24447 7.87549 7.0498C8.07438 6.88477 8.24577 6.72607 8.38965 6.57373C8.53353 6.42139 8.64355 6.26693 8.71973 6.11035C8.7959 5.95378 8.83398 5.78662 8.83398 5.60889C8.83398 5.38883 8.80225 5.20898 8.73877 5.06934C8.67952 4.92969 8.58854 4.82601 8.46582 4.7583C8.34733 4.68636 8.1971 4.65039 8.01514 4.65039C7.86702 4.65039 7.72738 4.68636 7.59619 4.7583C7.46924 4.83024 7.33431 4.91699 7.25391 5.06934L7.23821 5.09798C7.15297 5.25275 7 5.53052 7 6H5C5 5 5.15234 4.54248 5.41895 4.14893C5.68978 3.75114 6.04948 3.46126 6.49805 3.2793C6.95085 3.0931 7.45654 3 8.01514 3C8.63298 3 9.16406 3.09521 9.6084 3.28564C10.0527 3.47607 10.3934 3.7596 10.6304 4.13623C10.8674 4.50863 10.9858 4.96777 10.9858 5.51367C10.9858 5.8776 10.916 6.19499 10.7764 6.46582C10.641 6.73242 10.4569 6.9821 10.2241 7.21484C9.99561 7.44336 9.73958 7.6888 9.45605 7.95117C9.21061 8.16699 9 8.5 9 9C9 9.19098 9.00124 9.33318 9.00229 9.45464V9.45465V9.45469C9.004 9.65119 9.00523 9.7934 9 10H7ZM9 13V11H7V13H9Z"/>
</svg>
