<svg width="16" height="16" viewBox="0 0 16 16" xmlns="http://www.w3.org/2000/svg"><style>@import '../colors.css';</style>
<g clip-path="url(#clip0_933_1191)">
<path fill-rule="evenodd" clip-rule="evenodd" d="M2.69667 3.40379L3.40378 2.69668L6.23221 5.52511L5.5251 6.23222L2.69667 3.40379ZM1.98957 10.4749C1.20852 11.2559 1.20852 12.5222 1.98957 13.3033L2.69667 14.0104C3.47772 14.7914 4.74405 14.7914 5.5251 14.0104L7.64642 11.8891C8.16988 11.3656 8.34252 10.6242 8.16433 9.95695L6.93931 11.182L6.23221 11.8891L4.81799 13.3033C4.42747 13.6938 3.7943 13.6938 3.40378 13.3033L2.69667 12.5962C2.30615 12.2057 2.30615 11.5725 2.69667 11.182L4.11089 9.76775L4.81799 9.06065L6.04301 7.83563C5.37578 7.65744 4.63434 7.83008 4.11089 8.35354L1.98957 10.4749ZM9.95694 8.16434C10.6242 8.34253 11.3656 8.16989 11.8891 7.64643L14.0104 5.52511C14.7914 4.74406 14.7914 3.47773 14.0104 2.69668L13.3033 1.98958C12.5222 1.20853 11.2559 1.20853 10.4748 1.98958L8.35353 4.1109C7.83007 4.63436 7.65743 5.37579 7.83562 6.04302L9.06063 4.81801L9.76774 4.1109L11.182 2.69668C11.5725 2.30616 12.2056 2.30616 12.5962 2.69668L13.3033 3.40379C13.6938 3.79432 13.6938 4.42748 13.3033 4.81801L11.8891 6.23222L11.182 6.93933L9.95694 8.16434ZM10.4748 9.76775L9.76774 10.4749L12.5962 13.3033L13.3033 12.5962L10.4748 9.76775ZM5.99997 1.99995L6.99997 1.99995L6.99997 3.99995L5.99997 3.99995L5.99997 1.99995ZM9.99997 12H8.99997L8.99997 14L9.99997 14L9.99997 12Z"/>
</g>
<defs>
<clipPath id="clip0_933_1191">
<rect width="16" height="16" fill="white"/>
</clipPath>
</defs>
</svg>
