<svg width="16" height="16" viewBox="0 0 16 16" xmlns="http://www.w3.org/2000/svg"><style>@import '../colors.css';</style>
<path fill-rule="evenodd" clip-rule="evenodd" d="M13 1H3V3H2C0.895431 3 0 3.89543 0 5V9C0 10.1046 0.895431 11 2 11H3V15H8.75777C8.55127 14.6915 8.3819 14.356 8.25606 14H4V8H12V8.02746C12.1642 8.00932 12.331 8 12.5 8C13.8671 8 15.0918 8.60961 15.9171 9.5718C15.971 9.39063 16 9.1987 16 9V5C16 3.89543 15.1046 3 14 3H13V1ZM14 5V6H12V5H14ZM4 2H12V4H4V2Z" fill-opacity="0.4"/>
<path fill-rule="evenodd" clip-rule="evenodd" d="M12.5 16C14.433 16 16 14.433 16 12.5C16 10.567 14.433 9 12.5 9C10.567 9 9 10.567 9 12.5C9 14.433 10.567 16 12.5 16ZM15 12H10V13H15V12Z"/>
</svg>
