<svg width="16" height="16" viewBox="0 0 16 16" xmlns="http://www.w3.org/2000/svg"><style>@import '../colors.css';</style>
<path fill-rule="evenodd" clip-rule="evenodd" d="M6 4L3.5 1L1 4H3V14H4V4H6Z" class="error"/>
<path d="M8.87805 7C8.29496 7 7.83528 6.84862 7.49902 6.54586C7.16634 6.23954 7 5.82101 7 5.29029C7 4.92698 7.09837 4.60819 7.29512 4.33393C7.49545 4.0561 7.78878 3.84061 8.17512 3.68744C8.56504 3.53072 9.03902 3.45236 9.59707 3.45236H10.4234V2.99822C10.4234 2.70614 10.3358 2.47106 10.1605 2.29297C9.98878 2.11487 9.7348 2.02582 9.39854 2.02582C9.2161 2.02582 9.05154 2.04898 8.90488 2.09528C8.76179 2.13802 8.63301 2.20036 8.51854 2.28228L8.39512 3.05699H7.33268L7.32195 1.59305C7.61528 1.41496 7.93724 1.27248 8.2878 1.16563C8.64195 1.05521 9.03545 1 9.46829 1C10.2159 1 10.8044 1.17453 11.2337 1.5236C11.6665 1.8691 11.8829 2.36598 11.8829 3.01425V5.47729C11.8829 5.55565 11.8829 5.63224 11.8829 5.70703C11.8865 5.78183 11.8937 5.85485 11.9044 5.92609L12.5 6.01158V6.8878H10.6488C10.6094 6.77738 10.5719 6.66518 10.5361 6.5512C10.5039 6.43366 10.4807 6.31612 10.4663 6.19858C10.2767 6.43722 10.0496 6.63134 9.78488 6.78094C9.52374 6.92698 9.22146 7 8.87805 7ZM9.23756 5.90472C9.48439 5.90472 9.71512 5.84773 9.92976 5.73375C10.148 5.61977 10.3125 5.47551 10.4234 5.30098V4.36064H9.59171C9.2161 4.36064 8.93171 4.44791 8.73854 4.62244C8.54894 4.79341 8.45415 4.99644 8.45415 5.23152C8.45415 5.44524 8.52211 5.61086 8.65805 5.72841C8.79398 5.84595 8.98715 5.90472 9.23756 5.90472Z"/>
<path d="M7 15V14.085L10.0823 10.0702H8.37053L8.2026 11.0906H7.11918V9H11.8537V9.97597L8.90141 13.9076H10.7378L10.9545 12.8262H12V15H7Z"/>
</svg>
