<svg width="16" height="16" viewBox="0 0 16 16" xmlns="http://www.w3.org/2000/svg"><style>@import '../colors.css';</style>
<path fill-rule="evenodd" clip-rule="evenodd" d="M1.98959 10.4749C1.20854 11.2559 1.20854 12.5223 1.98959 13.3033L2.6967 14.0104C3.47775 14.7915 4.74408 14.7915 5.52513 14.0104L7.64645 11.8891C8.1699 11.3656 8.34254 10.6242 8.16436 9.95698L6.93934 11.182L6.23223 11.8891L4.81802 13.3033C4.42749 13.6938 3.79433 13.6938 3.40381 13.3033L2.6967 12.5962C2.30617 12.2057 2.30617 11.5725 2.6967 11.182L4.11091 9.76778L4.81802 9.06067L6.04304 7.83566C5.3758 7.65747 4.63437 7.83011 4.11091 8.35357L1.98959 10.4749ZM7.64645 9.06067L9.06066 7.64646L9.76777 6.93935L11.182 5.52514L10.4749 4.81803L9.06066 6.23224L8.35355 6.93935L6.93934 8.35357L6.23223 9.06067L4.81802 10.4749L5.52513 11.182L6.93934 9.76778L7.64645 9.06067ZM11.8891 6.23224L11.182 6.93935L9.95696 8.16437C10.6242 8.34255 11.3656 8.16992 11.8891 7.64646L14.0104 5.52514C14.7915 4.74409 14.7915 3.47776 14.0104 2.69671L13.3033 1.9896C12.5223 1.20856 11.2559 1.20856 10.4749 1.9896L8.35355 4.11092C7.83009 4.63438 7.65746 5.37581 7.83564 6.04305L9.06066 4.81803L9.76777 4.11092L11.182 2.69671C11.5725 2.30619 12.2057 2.30619 12.5962 2.69671L13.3033 3.40382C13.6938 3.79434 13.6938 4.42751 13.3033 4.81803L11.8891 6.23224Z"/>
</svg>
