<svg width="16" height="16" viewBox="0 0 16 16" xmlns="http://www.w3.org/2000/svg"><style>@import '../colors.css';</style>
<path fill-rule="evenodd" clip-rule="evenodd" d="M9 3.5C9 4.32843 8.32843 5 7.5 5C6.67157 5 6 4.32843 6 3.5C6 2.67157 6.67157 2 7.5 2C8.32843 2 9 2.67157 9 3.5ZM9 11.5C9 12.3284 8.32843 13 7.5 13C6.67157 13 6 12.3284 6 11.5C6 10.6716 6.67157 10 7.5 10C8.32843 10 9 10.6716 9 11.5ZM7.5 9C8.32843 9 9 8.32843 9 7.5C9 6.67157 8.32843 6 7.5 6C6.67157 6 6 6.67157 6 7.5C6 8.32843 6.67157 9 7.5 9Z"/>
</svg>
