<svg width="16" height="16" viewBox="0 0 16 16" xmlns="http://www.w3.org/2000/svg"><style>@import '../colors.css';</style>
<g clip-path="url(#clip0_1405_223)">
<path fill-rule="evenodd" clip-rule="evenodd" d="M1 1H14V7.25606C13.6816 7.14352 13.3467 7.06579 13 7.02746V2H2V13H8L8 14H1V1Z"/>
<path fill-rule="evenodd" clip-rule="evenodd" d="M5 2H6V5H9V2H10V5H13V6H10V7.75778C9.62236 8.01056 9.28512 8.31899 9 8.67134V6H6V9H8.75778C8.55127 9.30851 8.3819 9.64397 8.25606 10H6V13H5V10H2V9H5V6H2V5H5V2Z" fill-opacity="0.4"/>
<path fill-rule="evenodd" clip-rule="evenodd" d="M16 13L16 11.5C16 9.567 14.433 8 12.5 8C10.567 8 9 9.567 9 11.5L9.00001 13H11.0001L11.0001 11.5C11.0001 10.6716 11.6717 10 12.5001 10C13.3285 10 14.0001 10.6716 14.0001 11.5V13H16ZM9.00012 14H11.0001V16H9.00012V14ZM16.0001 14H14.0001V16H16.0001V14Z" class="error"/>
</g>
<defs>
<clipPath id="clip0_1405_223">
<rect width="16" height="16" fill="white"/>
</clipPath>
</defs>
</svg>
