<svg width="16" height="16" viewBox="0 0 16 16" xmlns="http://www.w3.org/2000/svg"><style>@import '../colors.css';</style>
<path fill-rule="evenodd" clip-rule="evenodd" d="M13 1H3V3H2C0.895431 3 0 3.89543 0 5V9C0 10.1046 0.895431 11 2 11H3V15H8.18041C7.75795 14.7168 7.37639 14.3804 7.04684 14H4V8H11.5H12V8.02043C13.5031 8.14375 14.8546 8.81805 15.8134 9.84468C15.9331 9.58807 16 9.30184 16 9V5C16 3.89543 15.1046 3 14 3H13V1ZM14 5V6H12V5H14ZM4 2H12V4H4V2Z"/>
<path fill-rule="evenodd" clip-rule="evenodd" d="M7 12C7.65503 10.2522 9.42246 9 11.5 9C13.5775 9 15.345 10.2522 16 12C15.345 13.7478 13.5775 15 11.5 15C9.42246 15 7.65503 13.7478 7 12ZM13.5 12C13.5 13.1046 12.6046 14 11.5 14C10.3954 14 9.5 13.1046 9.5 12C9.5 10.8954 10.3954 10 11.5 10C12.6046 10 13.5 10.8954 13.5 12ZM11.5 13C12.0523 13 12.5 12.5523 12.5 12C12.5 11.4477 12.0523 11 11.5 11C10.9477 11 10.5 11.4477 10.5 12C10.5 12.5523 10.9477 13 11.5 13Z"/>
</svg>
