<svg width="16" height="16" viewBox="0 0 16 16" xmlns="http://www.w3.org/2000/svg"><style>@import '../colors.css';</style>
<path fill-rule="evenodd" clip-rule="evenodd" d="M10 2H6V3.5H3.91465C3.70873 2.9174 3.15311 2.5 2.5 2.5C1.67157 2.5 1 3.17157 1 4C1 4.82843 1.67157 5.5 2.5 5.5C3.15311 5.5 3.70873 5.0826 3.91465 4.5H6V6H10V4.5H12.0854C12.2913 5.0826 12.8469 5.5 13.5 5.5C14.3284 5.5 15 4.82843 15 4C15 3.17157 14.3284 2.5 13.5 2.5C12.8469 2.5 12.2913 2.9174 12.0854 3.5H10V2ZM9 3H7V5H9V3Z" class="success"/>
<path fill-rule="evenodd" clip-rule="evenodd" d="M8.00002 6.31456L13.1571 11.7635L10.7542 12.2606C10.5439 12.3041 10.3431 12.3851 10.1614 12.4996C10.1607 12.5 10.16 12.5005 10.1594 12.5009L8 13.8544L8.00002 6.31456ZM7 14.2111L7.00002 5.79997C6.99516 5.08162 7.87159 4.72752 8.3671 5.24763L14.1367 11.3438C14.566 11.7943 14.3648 12.5348 13.7554 12.6609L10.9568 13.2399C10.8634 13.2592 10.7743 13.2952 10.6937 13.3461L8.25289 14.8761C7.72693 15.2085 7.00421 14.8334 7 14.2111Z"/>
</svg>
