<svg width="16" height="16" viewBox="0 0 16 16" xmlns="http://www.w3.org/2000/svg"><style>@import '../colors.css';</style>
<g clip-path="url(#clip0_933_3761)">
<path fill-rule="evenodd" clip-rule="evenodd" d="M12.5 16C14.433 16 16 14.433 16 12.5C16 10.567 14.433 9 12.5 9C10.567 9 9 10.567 9 12.5C9 14.433 10.567 16 12.5 16ZM12 10H13V12H15V13H13V15H12V13H10V12H12V10Z"/>
<path fill-rule="evenodd" clip-rule="evenodd" d="M10.8615 1.62092C10.0804 0.839873 8.8141 0.839873 8.03305 1.62092L7.32594 2.32803L10.6876 5.68973L11.3948 4.98262C12.1758 4.20157 12.1758 2.93525 11.3948 2.1542L10.8615 1.62092ZM9.99359 6.40989L6.59204 3.00834L3.47195 4.06475L1.0076 9.95341L1.66744 10.6133L4.64222 7.63847C4.38077 7.08239 4.47981 6.39887 4.93934 5.93934C5.52513 5.35355 6.47488 5.35355 7.06066 5.93934C7.64645 6.52512 7.64645 7.47487 7.06066 8.06066C6.59657 8.52475 5.90403 8.62116 5.34502 8.34989L2.37455 11.3204L3.04853 11.9943L8.93789 9.53069L9.99359 6.40989Z"/>
</g>
<defs>
<clipPath id="clip0_933_3761">
<rect width="16" height="16" fill="white" transform="matrix(0 1 -1 0 16 0)"/>
</clipPath>
</defs>
</svg>
