<svg width="16" height="16" viewBox="0 0 16 16" xmlns="http://www.w3.org/2000/svg"><style>@import '../colors.css';</style>
<path fill-rule="evenodd" clip-rule="evenodd" d="M11 2H7V3.5H4.91465C4.70873 2.9174 4.15311 2.5 3.5 2.5C2.67157 2.5 2 3.17157 2 4C2 4.82843 2.67157 5.5 3.5 5.5C4.15311 5.5 4.70873 5.0826 4.91465 4.5H7V6H11V2ZM10 3H8V5H10V3Z" class="info"/>
<path fill-rule="evenodd" clip-rule="evenodd" d="M11.5 15C13.433 15 15 13.433 15 11.5C15 9.567 13.433 8 11.5 8C10.2778 8 9.20185 8.6265 8.57588 9.57588L7.5 8.5V11.5H8H9H10.5L9.30407 10.3041C9.72811 9.5271 10.5525 9 11.5 9C12.8807 9 14 10.1193 14 11.5C14 12.8807 12.8807 14 11.5 14C10.6821 14 9.95592 13.6072 9.49982 13H8.33682C8.89855 14.1825 10.1038 15 11.5 15Z"/>
</svg>
