<svg width="16" height="16" viewBox="0 0 16 16" xmlns="http://www.w3.org/2000/svg"><style>@import '../colors.css';</style>
<path fill-rule="evenodd" clip-rule="evenodd" d="M2 1.5C2 1.22386 1.77614 1 1.5 1C1.22386 1 1 1.22386 1 1.5C1 3.33078 1.51991 5.55093 2.63938 7.32891C3.60765 8.86673 5.04823 10.1032 7 10.4207V9.40413C5.4716 9.1016 4.3122 8.10891 3.48562 6.79609C2.48009 5.19907 2 3.16922 2 1.5ZM9 9.40413V10.4207C10.9518 10.1032 12.3924 8.86673 13.3606 7.32891C14.4801 5.55093 15 3.33078 15 1.5C15 1.22386 14.7761 1 14.5 1C14.2239 1 14 1.22386 14 1.5C14 3.16922 13.5199 5.19907 12.5144 6.79609C11.6878 8.10891 10.5284 9.1016 9 9.40413Z" fill-opacity="0.4"/>
<path fill-rule="evenodd" clip-rule="evenodd" d="M10 9H6V11H4.91465C4.70873 10.4174 4.15311 10 3.5 10C2.67157 10 2 10.6716 2 11.5C2 12.3284 2.67157 13 3.5 13C4.15311 13 4.70873 12.5826 4.91465 12H6V13H10V12H13.0854C13.2913 12.5826 13.8469 13 14.5 13C15.3284 13 16 12.3284 16 11.5C16 10.6716 15.3284 10 14.5 10C13.8469 10 13.2913 10.4174 13.0854 11H10V9ZM9 10H7V12H9V10Z" class="info"/>
</svg>
