<svg width="16" height="16" viewBox="0 0 16 16" xmlns="http://www.w3.org/2000/svg"><style>@import '../colors.css';</style>
<path fill-rule="evenodd" clip-rule="evenodd" d="M10 2H6V3.5H3.91465C3.70873 2.9174 3.15311 2.5 2.5 2.5C1.67157 2.5 1 3.17157 1 4C1 4.82843 1.67157 5.5 2.5 5.5C3.15311 5.5 3.70873 5.0826 3.91465 4.5H6V6H10V4.5H12.0854C12.2913 5.0826 12.8469 5.5 13.5 5.5C14.3284 5.5 15 4.82843 15 4C15 3.17157 14.3284 2.5 13.5 2.5C12.8469 2.5 12.2913 2.9174 12.0854 3.5H10V2ZM9 3H7V5H9V3Z" class="info"/>
<path fill-rule="evenodd" clip-rule="evenodd" d="M11.5 15C13.433 15 15 13.433 15 11.5C15 9.567 13.433 8 11.5 8C10.2778 8 9.20185 8.6265 8.57588 9.57588L7.5 8.5V11.5H8H9H10.5L9.30407 10.3041C9.72811 9.5271 10.5525 9 11.5 9C12.8807 9 14 10.1193 14 11.5C14 12.8807 12.8807 14 11.5 14C10.6821 14 9.95592 13.6072 9.49982 13H8.33682C8.89855 14.1825 10.1038 15 11.5 15Z"/>
</svg>
