<svg width="16" height="16" viewBox="0 0 16 16" xmlns="http://www.w3.org/2000/svg"><style>@import '../colors.css';</style>
<path fill-rule="evenodd" clip-rule="evenodd" d="M2 1.5C2 1.22386 1.77614 1 1.5 1C1.22386 1 1 1.22386 1 1.5C1 2.82225 1.39088 5.03256 2.43721 6.92904C3.35671 8.59562 4.81862 10.0733 7 10.4223V9.40602C5.29394 9.07343 4.11172 7.89402 3.31279 6.44596C2.35912 4.71744 2 2.67775 2 1.5ZM9 9.72066V10.734C10.2976 10.9343 11.3557 10.7679 12.2069 10.3068C13.2898 9.72028 13.9456 8.70635 14.3449 7.60837C15.044 5.68583 15.0182 3.31367 15.0036 1.96235C15.0017 1.79077 15 1.63565 15 1.5C15 1.22386 14.7761 1 14.5 1C14.2239 1 14 1.22386 14 1.5C14 1.64753 14.0015 1.81083 14.0032 1.98728L14.0032 1.98742C14.0159 3.36093 14.0361 5.53127 13.4051 7.26663C13.0544 8.23115 12.5227 8.99847 11.7306 9.42754C11.0871 9.7761 10.21 9.93465 9 9.72066Z" fill-opacity="0.4"/>
<path fill-rule="evenodd" clip-rule="evenodd" d="M10 8H6V10H3.91465C3.70873 9.4174 3.15311 9 2.5 9C1.67157 9 1 9.67157 1 10.5C1 11.3284 1.67157 12 2.5 12C3.15311 12 3.70873 11.5826 3.91465 11H6V12H9.29289L11.1462 13.8533C11.0525 14.0491 11 14.2684 11 14.5C11 15.3284 11.6716 16 12.5 16C13.3284 16 14 15.3284 14 14.5C14 13.6716 13.3284 13 12.5 13C12.2684 13 12.0491 13.0525 11.8533 13.1462L10 11.2929V8ZM9 9H7V11H9V9Z" class="info"/>
</svg>
