<svg width="16" height="16" viewBox="0 0 16 16" xmlns="http://www.w3.org/2000/svg"><style>@import '../colors.css';</style>
<path fill-rule="evenodd" clip-rule="evenodd" d="M2 1.5C2 1.22386 1.77614 1 1.5 1C1.22386 1 1 1.22386 1 1.5C1 3.33078 1.51991 5.55093 2.63938 7.32891C3.60765 8.86673 5.04823 10.1032 7 10.4207V9.40413C5.4716 9.1016 4.3122 8.10891 3.48562 6.79609C2.48009 5.19907 2 3.16922 2 1.5ZM9 9.40413V10.4207C10.9518 10.1032 12.3924 8.86673 13.3606 7.32891C14.4801 5.55093 15 3.33078 15 1.5C15 1.22386 14.7761 1 14.5 1C14.2239 1 14 1.22386 14 1.5C14 3.16922 13.5199 5.19907 12.5144 6.79609C11.6878 8.10891 10.5284 9.1016 9 9.40413Z" fill-opacity="0.4"/>
<path fill-rule="evenodd" clip-rule="evenodd" d="M10 8H6V10H3.91465C3.70873 9.4174 3.15311 9 2.5 9C1.67157 9 1 9.67157 1 10.5C1 11.3284 1.67157 12 2.5 12C3.15311 12 3.70873 11.5826 3.91465 11H6V12H10V11H12.0854C12.2913 11.5826 12.8469 12 13.5 12C14.3284 12 15 11.3284 15 10.5C15 9.67157 14.3284 9 13.5 9C12.8469 9 12.2913 9.4174 12.0854 10H10V8ZM9 9H7V11H9V9Z" class="info"/>
</svg>
