<svg width="16" height="16" viewBox="0 0 16 16" xmlns="http://www.w3.org/2000/svg"><style>@import '../colors.css';</style>
<path d="M6 13V12H10V13H6Z"/>
<path fill-rule="evenodd" clip-rule="evenodd" d="M15 10H11V14H15V10ZM14 11H12V13H14V11ZM10 2H6V6L10 6V2ZM9 3H7V5H9V3ZM1 10H5V14H1V10ZM2 11H4V13H2V11Z" class="info"/>
<path fill-rule="evenodd" clip-rule="evenodd" d="M3 10C3 8.53994 3.24613 7.0292 3.98172 5.89752C4.42745 5.21177 5.06835 4.64084 6 4.3098V3.26056C4.69883 3.63411 3.77226 4.38487 3.14328 5.35253C2.25387 6.72084 2 8.46011 2 10H3ZM10 3.26056C11.3012 3.63411 12.2277 4.38487 12.8567 5.35253C13.7461 6.72084 14 8.46011 14 10H13C13 8.53994 12.7539 7.0292 12.0183 5.89752C11.5725 5.21177 10.9317 4.64084 10 4.3098V3.26056Z" fill-opacity="0.4"/>
</svg>
