<svg width="16" height="16" viewBox="0 0 16 16" xmlns="http://www.w3.org/2000/svg"><style>@import '../colors.css';</style>
<path fill-rule="evenodd" clip-rule="evenodd" d="M0 4H2V5H0V4ZM14 4H16V5H14V4ZM4 12.5C4 10.567 5.567 9 7.5 9H12.5C14.433 9 16 10.567 16 12.5C16 14.433 14.433 16 12.5 16H7.5C5.567 16 4 14.433 4 12.5ZM7.5 10C6.11929 10 5 11.1193 5 12.5C5 13.8807 6.11929 15 7.5 15H9V14H7.5C6.67157 14 6 13.3284 6 12.5C6 11.6716 6.67157 11 7.5 11H9V10H7.5ZM12.5 15H11V14H12.5C13.3284 14 14 13.3284 14 12.5C14 11.6716 13.3284 11 12.5 11H11V10H12.5C13.8807 10 15 11.1193 15 12.5C15 13.8807 13.8807 15 12.5 15ZM12 12H8V13H12V12Z"/>
<path fill-rule="evenodd" clip-rule="evenodd" d="M9 2L14 2V7H9V2ZM10 3H13V6H10V3ZM2 2L7 2V7L2 7V2ZM3 3L6 3V6H3V3Z" class="info"/>
</svg>
