<svg width="16" height="16" viewBox="0 0 16 16" xmlns="http://www.w3.org/2000/svg"><style>@import '../colors.css';</style>
<path fill-rule="evenodd" clip-rule="evenodd" d="M1 15V11.8589L2.17804 11.6969L6.30025 1H9.75371L13.8248 11.6973L15 11.8589V15H9V12H7V15H1ZM5.59483 11H10.4108L10.9555 12.5742L10 12.7308V14H14V12.7308L13.1011 12.6071L9.06431 2H6.98657L2.89894 12.6071L2 12.7308V14H6V12.7308L5.03604 12.5742L5.59483 11ZM9.75124 9.09615L8.03816 4.33242H7.98728L6.26572 9.09615H9.75124ZM7.69041 8.09615H8.32894L8.01046 7.21053L7.69041 8.09615Z"/>
</svg>
