<svg width="16" height="16" viewBox="0 0 16 16" xmlns="http://www.w3.org/2000/svg"><style>@import '../colors.css';</style>
<path fill-rule="evenodd" clip-rule="evenodd" d="M5.50308 14.4691L5.50309 14.469C4.75948 14.1123 4.11931 13.611 3.58897 12.9731L3.58521 12.9686L3.58523 12.9685C3.06383 12.3339 2.67255 11.5961 2.40264 10.7698C2.13037 9.93616 2 9.0395 2 8.08812V7.91188C2 6.96513 2.13056 6.07125 2.40264 5.23825C2.67255 4.41188 3.06383 3.67415 3.58523 3.03946L3.58583 3.03873C4.11649 2.394 4.75861 1.89019 5.50632 1.53743C6.26688 1.17318 7.09888 1 7.9843 1C8.89046 1 9.73792 1.17111 10.5064 1.53602C11.26 1.88855 11.9044 2.39322 12.432 3.04135C12.954 3.67731 13.3428 4.41659 13.6072 5.24451C13.8726 6.07559 14 6.96729 14 7.91188V8.08812C14 9.03736 13.8728 9.93184 13.6072 10.7635C13.3426 11.5922 12.9533 12.3322 12.4305 12.9685C11.9029 13.6107 11.2599 14.1136 10.5096 14.4705L10.5032 14.4735L10.5032 14.4735C9.73628 14.8317 8.89286 15 7.99215 15C7.10401 15 6.27039 14.8305 5.50951 14.4721L5.50308 14.4691ZM11.6578 3.67423C11.2234 3.14019 10.6975 2.72897 10.0801 2.44059C9.46259 2.14686 8.764 2 7.9843 2C7.23077 2 6.54788 2.14686 5.93564 2.44059C5.32339 2.72897 4.79749 3.14019 4.35793 3.67423C3.9236 4.20294 3.5887 4.82777 3.35322 5.54873C3.11774 6.26969 3 7.05741 3 7.91188V8.08812C3 8.94793 3.11774 9.73832 3.35322 10.4593C3.5887 11.1802 3.9236 11.8051 4.35793 12.3338C4.79749 12.8625 5.32339 13.2737 5.93564 13.5674C6.54788 13.8558 7.23339 14 7.99215 14C8.76661 14 9.46259 13.8558 10.0801 13.5674C10.6975 13.2737 11.2234 12.8625 11.6578 12.3338C12.0921 11.8051 12.4244 11.1802 12.6546 10.4593C12.8849 9.73832 13 8.94793 13 8.08812V7.91188C13 7.05741 12.8849 6.26969 12.6546 5.54873C12.4244 4.82777 12.0921 4.20294 11.6578 3.67423ZM9.6876 4.15487C9.24281 3.79172 8.67504 3.61015 7.9843 3.61015C7.32496 3.61015 6.77289 3.79172 6.3281 4.15487C5.88331 4.51802 5.5484 5.02003 5.32339 5.66088C5.09838 6.30174 4.98587 7.04673 4.98587 7.89586V8.08812C4.98587 8.94259 5.09838 9.69559 5.32339 10.3471C5.5484 10.9933 5.88331 11.498 6.3281 11.8611C6.77813 12.219 7.33281 12.3979 7.99215 12.3979C8.68289 12.3979 9.25065 12.219 9.69545 11.8611C10.1455 11.498 10.4778 10.9933 10.6923 10.3471C10.9121 9.70093 11.022 8.94793 11.022 8.08812V7.89586C11.022 7.04673 10.9121 6.30174 10.6923 5.66088C10.4725 5.02003 10.1376 4.51802 9.6876 4.15487ZM9.06814 11.0824C9.34385 10.8597 9.57835 10.5287 9.74325 10.032L9.74554 10.0251L9.74557 10.0251C9.92229 9.50555 10.022 8.86557 10.022 8.08812V7.89586C10.022 7.13035 9.92261 6.49911 9.74639 5.98528C9.57706 5.49155 9.3394 5.15888 9.05961 4.93309L9.05515 4.9295L9.05517 4.92949C8.82323 4.74012 8.49314 4.61015 7.9843 4.61015C7.51944 4.61015 7.20076 4.73335 6.96053 4.92949C6.68246 5.15652 6.44225 5.49282 6.26692 5.99217C6.0873 6.50373 5.98587 7.1325 5.98587 7.89586V8.08812C5.98587 8.85642 6.08719 9.49482 6.26816 10.0194C6.44301 10.521 6.68151 10.857 6.95541 11.0823C7.20241 11.2769 7.52711 11.3979 7.99215 11.3979C8.50407 11.3979 8.83613 11.2688 9.06814 11.0824Z"/>
</svg>
