<svg width="16" height="16" viewBox="0 0 16 16" xmlns="http://www.w3.org/2000/svg"><style>@import '../colors.css';</style>
<path fill-rule="evenodd" clip-rule="evenodd" d="M7.9962 14C7.24153 14 6.54004 13.9011 5.89174 13.7034C5.24343 13.5057 4.61285 13.1771 4 12.7175V10.0323H5.48148L5.7246 11.7717C5.99304 11.9747 6.32225 12.1377 6.71225 12.2606C7.10731 12.3835 7.5353 12.445 7.9962 12.445C8.44698 12.445 8.82431 12.3782 9.12821 12.2446C9.43716 12.1057 9.67268 11.9133 9.83476 11.6675C9.99683 11.4217 10.0779 11.1304 10.0779 10.7938C10.0779 10.4838 10.007 10.2086 9.86515 9.96817C9.72333 9.7277 9.48781 9.51396 9.15859 9.32693C8.96235 9.21225 8.72472 9.10328 8.44569 9H11.489C11.8297 9.50273 12 10.0953 12 10.7777C12 11.4243 11.8329 11.9908 11.4986 12.477C11.1694 12.958 10.7034 13.332 10.1007 13.5992C9.50301 13.8664 8.80152 14 7.9962 14ZM12 8H15V7H7.99007C7.56696 6.85753 7.21952 6.71673 6.94777 6.57759C6.60336 6.3959 6.35771 6.19551 6.21083 5.97642C6.06394 5.75733 5.9905 5.50083 5.9905 5.20692C5.9905 4.87027 6.07407 4.58171 6.24122 4.34124C6.40836 4.09543 6.63881 3.90573 6.93257 3.77214C7.22634 3.63854 7.56569 3.57175 7.95062 3.57175C8.40139 3.57175 8.79139 3.62786 9.12061 3.74007C9.45489 3.84695 9.72586 3.97787 9.93352 4.13284L10.207 5.76801H11.6581V3.25914C11.2225 2.87974 10.6882 2.57247 10.0551 2.33735C9.42703 2.10223 8.70275 1.99001 7.88224 2.0007C7.13264 2.00604 6.47167 2.14765 5.89934 2.42552C5.327 2.7034 4.87876 3.0828 4.55461 3.56373C4.23552 4.04467 4.07597 4.59774 4.07597 5.22295C4.07597 5.83214 4.21526 6.36117 4.49383 6.81004C4.53468 6.87469 4.57832 6.93801 4.62474 7H1V8H3H5.81033H10.4228H12Z"/>
</svg>
