<svg width="16" height="16" viewBox="0 0 16 16" xmlns="http://www.w3.org/2000/svg"><style>@import '../colors.css';</style>
<path fill-rule="evenodd" clip-rule="evenodd" d="M1 13.5L4 11V13H12V11L15 13.5L12 16V14H4V16L1 13.5Z" class="error"/>
<path d="M3.85534 10.3401L0.795446 2.09694L0 1.99431V1H3.39347V1.99431L2.54671 2.12902L4.49042 7.81902L4.66362 8.42843H4.70211L4.88173 7.82543L6.8511 2.1226L5.88245 1.99431V1H9.17328V1.99431L8.36501 2.09694L5.42058 10.3401H3.85534Z"/>
<path d="M6.92294 10.3401V9.35218L7.60292 9.25595L10.6949 1H12.2665L15.32 9.25595L16 9.35218V10.3401H13.0299V9.35218L13.6971 9.23029L13.2031 7.76129H9.72624L9.21947 9.23029L9.89303 9.35218V10.3401H6.92294ZM10.1496 6.52321H12.7861L11.5737 3.06559L11.4903 2.81541H11.4518L11.362 3.07842L10.1496 6.52321Z"/>
</svg>
