<svg width="16" height="16" viewBox="0 0 16 16" xmlns="http://www.w3.org/2000/svg"><style>@import '../colors.css';</style>
<path d="M1 12V10.8614L1.98168 10.7135L4.34221 7.97782L2.0791 5.2939L1.17236 5.14603V4H4.8368V5.11645L4.13239 5.20518L5.51124 6.95009L6.8751 5.20518L6.10325 5.11645V4H9.66278V5.14603L8.79351 5.2939L6.66528 7.91867L9.07077 10.7135L10 10.8614V12H6.14072V10.8909L6.95754 10.8022L5.48876 9.02033L4.05745 10.8096L4.82182 10.8909V12H1Z"/>
<path d="M11.0809 7V6.08599L12.8759 4.07921C13.0366 3.88422 13.1642 3.71225 13.2586 3.5633C13.353 3.41435 13.4206 3.27759 13.4615 3.15301C13.5048 3.02844 13.5265 2.90792 13.5265 2.79147C13.5265 2.59919 13.478 2.4367 13.3811 2.30399C13.2841 2.16858 13.1387 2.10088 12.9448 2.10088C12.733 2.10088 12.5761 2.18077 12.474 2.34056C12.372 2.49763 12.3209 2.71022 12.3209 2.97833H11.0082L11.0005 2.95396C10.9929 2.58835 11.0669 2.25796 11.2225 1.96276C11.3807 1.66757 11.6078 1.43331 11.9038 1.25999C12.1997 1.08666 12.548 1 12.9486 1C13.3492 1 13.6924 1.07448 13.9781 1.22343C14.2664 1.36967 14.4872 1.57684 14.6402 1.84496C14.7959 2.11036 14.8737 2.4218 14.8737 2.77928C14.8737 3.02302 14.8342 3.2478 14.7551 3.45362C14.6785 3.65674 14.5509 3.87475 14.3723 4.10765C14.1963 4.34056 13.9603 4.62221 13.6643 4.95261L12.8223 5.89912L12.83 5.91943H13.936L13.9934 5.42789H15V7H11.0809Z" class="error"/>
</svg>
