<svg width="16" height="16" viewBox="0 0 16 16" xmlns="http://www.w3.org/2000/svg"><style>@import '../colors.css';</style>
<path fill-rule="evenodd" clip-rule="evenodd" d="M8.68945 13C8.37012 13 8.09918 12.9342 7.87663 12.8027C7.65407 12.6711 7.46699 12.4805 7.31539 12.2309L7.20895 12.8937H5.8736V6.11828L5.13335 5.96142V5H7.41699V7.98039C7.56214 7.76787 7.74277 7.60426 7.95888 7.48956C8.17498 7.37487 8.42496 7.31752 8.7088 7.31752C9.12811 7.31752 9.48291 7.43559 9.77321 7.67173C10.0667 7.90449 10.2893 8.23677 10.4409 8.66856C10.5957 9.09699 10.6731 9.60299 10.6731 10.1866V10.2929C10.6731 10.8393 10.5957 11.3167 10.4409 11.7249C10.2893 12.1297 10.0651 12.4434 9.76837 12.666C9.47485 12.8887 9.11521 13 8.68945 13ZM8.20562 11.7502C8.54107 11.7502 8.77815 11.627 8.91684 11.3808C9.05876 11.1311 9.12972 10.7685 9.12972 10.2929V10.1866C9.12972 9.84588 9.09747 9.55577 9.03296 9.31626C8.97168 9.07674 8.87491 8.89289 8.74267 8.76471C8.61042 8.63314 8.43786 8.56736 8.22498 8.56736C8.0379 8.56736 7.87501 8.61459 7.73632 8.70904C7.60085 8.80013 7.49441 8.92326 7.41699 9.07843V11.3251C7.50731 11.4668 7.61859 11.5731 7.75083 11.6439C7.88308 11.7147 8.03467 11.7502 8.20562 11.7502ZM1.70789 13C1.19182 13 0.777341 12.8533 0.464469 12.5598C0.154823 12.2629 0 11.8632 0 11.3605C0 11.0198 0.087088 10.7179 0.261264 10.4548C0.438665 10.1917 0.703155 9.98587 1.05473 9.83744C1.40631 9.68902 1.84336 9.6148 2.36589 9.6148H2.99002V9.25047C2.99002 9.00759 2.92229 8.80687 2.78682 8.64832C2.65457 8.48977 2.45137 8.4105 2.1772 8.4105C2.04496 8.4105 1.924 8.42737 1.81433 8.4611C1.70789 8.49483 1.60952 8.54375 1.5192 8.60784L1.40792 9.31626H0.304808L0.285455 7.84883C0.569297 7.69703 0.872493 7.57052 1.19504 7.46932C1.51759 7.36812 1.87562 7.31752 2.26913 7.31752C2.96906 7.31752 3.52223 7.48619 3.92864 7.82353C4.33505 8.16087 4.53825 8.64158 4.53825 9.26565V11.4111V11.6388C4.54148 11.7097 4.54954 11.7788 4.56244 11.8463L5.114 11.9374V12.8937H3.25612C3.21742 12.8162 3.1771 12.7251 3.13517 12.6205C3.09324 12.5159 3.06421 12.4113 3.04808 12.3068C2.88358 12.5193 2.69489 12.688 2.48201 12.8128C2.26913 12.9376 2.01109 13 1.70789 13ZM2.15301 11.8311C2.31428 11.8311 2.47072 11.794 2.62232 11.7198C2.77391 11.6456 2.89648 11.5444 2.99002 11.4162V10.5863H2.37557C2.10463 10.5863 1.89658 10.6504 1.75144 10.7786C1.60952 10.9068 1.53855 11.0654 1.53855 11.2543C1.53855 11.4364 1.59339 11.5781 1.70305 11.6793C1.81595 11.7805 1.96593 11.8311 2.15301 11.8311ZM12.5116 12.6458C12.8826 12.8819 13.3229 13 13.8325 13C14.2969 13 14.6759 12.9258 14.9695 12.7774C15.263 12.6289 15.4904 12.413 15.6516 12.1297C15.8161 11.8429 15.9323 11.4938 16 11.0822L15.9806 11.0519H14.6695C14.6114 11.2813 14.5163 11.4584 14.384 11.5832C14.255 11.7046 14.076 11.7653 13.847 11.7653C13.6857 11.7653 13.5325 11.7147 13.3874 11.6135C13.2454 11.509 13.1309 11.3454 13.0438 11.1227C12.9568 10.8967 12.9132 10.5998 12.9132 10.2321V10.0955C12.9132 9.74468 12.9487 9.45119 13.0197 9.21505C13.0938 8.97892 13.2083 8.80013 13.3632 8.67868C13.5212 8.55387 13.726 8.49146 13.9776 8.49146C14.0712 8.49146 14.1712 8.51339 14.2776 8.55724C14.384 8.6011 14.4695 8.65676 14.534 8.72423L14.7275 9.71094H15.8887L15.9081 8.06641C15.6984 7.8775 15.4194 7.70546 15.0711 7.55028C14.7227 7.39511 14.3066 7.31752 13.8228 7.31752C13.3261 7.31752 12.8939 7.43559 12.5262 7.67173C12.1585 7.90786 11.873 8.23508 11.6698 8.65338C11.4666 9.07168 11.365 9.55239 11.365 10.0955V10.2321C11.365 10.7685 11.4634 11.2458 11.6601 11.6641C11.8601 12.0791 12.1439 12.4063 12.5116 12.6458ZM16 14H0V15H16V14Z"/>
</svg>
