<svg width="16" height="16" viewBox="0 0 16 16" xmlns="http://www.w3.org/2000/svg"><style>@import '../colors.css';</style>
<path fill-rule="evenodd" clip-rule="evenodd" d="M5.87012 12.3857C6.48535 12.6738 7.19092 12.8179 7.98682 12.8179C8.81201 12.8179 9.53467 12.6763 10.1548 12.3931C10.7749 12.105 11.2559 11.6875 11.5977 11.1406C11.9443 10.5938 12.1177 9.92725 12.1177 9.14111V3.35498L13.2749 3.13525V2H9.10742V3.13525L10.272 3.35498V9.14111C10.272 9.63916 10.1768 10.0542 9.98633 10.3862C9.80078 10.7183 9.53711 10.9673 9.19531 11.1333C8.8584 11.2993 8.45801 11.3823 7.99414 11.3823C7.54492 11.3823 7.15186 11.2993 6.81494 11.1333C6.47803 10.9673 6.2168 10.7183 6.03125 10.3862C5.8457 10.0493 5.75293 9.63428 5.75293 9.14111V3.35498L6.91748 3.13525V2H2.75V3.13525L3.91455 3.35498V9.14111C3.91455 9.91748 4.08545 10.5791 4.42725 11.126C4.77393 11.6729 5.25488 12.0928 5.87012 12.3857ZM14 14H2V15H14V14Z"/>
</svg>
