<svg width="16" height="16" viewBox="0 0 16 16" xmlns="http://www.w3.org/2000/svg"><style>@import '../colors.css';</style>
<path d="M1 12V10.8614L1.98168 10.7135L4.34221 7.97782L2.0791 5.2939L1.17236 5.14603V4H4.8368V5.11645L4.13239 5.20518L5.51124 6.95009L6.8751 5.20518L6.10325 5.11645V4H9.66278V5.14603L8.79351 5.2939L6.66528 7.91867L9.07077 10.7135L10 10.8614V12H6.14072V10.8909L6.95754 10.8022L5.48876 9.02033L4.05745 10.8096L4.82182 10.8909V12H1Z"/>
<path d="M11.0809 15V14.086L12.8759 12.0792C13.0366 11.8842 13.1642 11.7123 13.2586 11.5633C13.353 11.4144 13.4206 11.2776 13.4615 11.153C13.5048 11.0284 13.5265 10.9079 13.5265 10.7915C13.5265 10.5992 13.478 10.4367 13.3811 10.304C13.2841 10.1686 13.1387 10.1009 12.9448 10.1009C12.733 10.1009 12.5761 10.1808 12.474 10.3406C12.372 10.4976 12.3209 10.7102 12.3209 10.9783H11.0082L11.0005 10.954C10.9929 10.5884 11.0669 10.258 11.2225 9.96276C11.3807 9.66757 11.6078 9.43331 11.9038 9.25999C12.1997 9.08666 12.548 9 12.9486 9C13.3492 9 13.6924 9.07448 13.9781 9.22343C14.2664 9.36967 14.4872 9.57684 14.6402 9.84496C14.7959 10.1104 14.8737 10.4218 14.8737 10.7793C14.8737 11.023 14.8342 11.2478 14.7551 11.4536C14.6785 11.6567 14.5509 11.8747 14.3723 12.1077C14.1963 12.3406 13.9603 12.6222 13.6643 12.9526L12.8223 13.8991L12.83 13.9194H13.936L13.9934 13.4279H15V15H11.0809Z" class="error"/>
</svg>
