<svg width="16" height="16" viewBox="0 0 16 16" xmlns="http://www.w3.org/2000/svg"><style>@import '../colors.css';</style>
<path fill-rule="evenodd" clip-rule="evenodd" d="M1 8C2.01893 5.08702 4.76826 3 8 3C11.2317 3 13.9811 5.08702 15 8C14.9278 8.20647 14.8469 8.40878 14.7577 8.6065C14.0941 8.22085 13.3228 8 12.5 8C11.9699 8 11.4612 8.09167 10.9889 8.26001C10.9962 8.17432 11 8.0876 11 8C11 6.34315 9.65685 5 8 5C6.34315 5 5 6.34315 5 8C5 9.65685 6.34315 11 8 11C8.08759 11 8.17431 10.9962 8.26 10.9889C8.09166 11.4612 8 11.9699 8 12.5C8 12.669 8.00932 12.8358 8.02746 12.9999C8.01831 13 8.00916 13 8 13C4.76826 13 2.01893 10.913 1 8Z"/>
<circle cx="8" cy="8" r="2" fill="#FF0000"/>
<path fill-rule="evenodd" clip-rule="evenodd" d="M12.5 16C14.433 16 16 14.433 16 12.5C16 10.567 14.433 9 12.5 9C10.567 9 9 10.567 9 12.5C9 14.433 10.567 16 12.5 16ZM10.3787 11.0858L11.0858 10.3787L12.5 11.7929L13.9142 10.3787L14.6213 11.0858L13.2071 12.5L14.6213 13.9142L13.9142 14.6213L12.5 13.2071L11.0858 14.6213L10.3787 13.9142L11.7929 12.5L10.3787 11.0858Z"/>
</svg>
