<svg width="16" height="16" viewBox="0 0 16 16" xmlns="http://www.w3.org/2000/svg"><style>@import '../colors.css';</style>
<path fill-rule="evenodd" clip-rule="evenodd" d="M8 2H7V4.0359C6.71234 4.07742 6.43033 4.1547 6.16061 4.26642C5.73597 4.44231 5.35013 4.70012 5.02513 5.02513C4.70012 5.35013 4.44231 5.73597 4.26642 6.16061C4.1547 6.43033 4.07742 6.71234 4.0359 7H2V8H4.0359C4.07742 8.28766 4.1547 8.56967 4.26642 8.83939C4.44231 9.26403 4.70012 9.64987 5.02513 9.97487C5.35013 10.2999 5.73597 10.5577 6.16061 10.7336C6.43033 10.8453 6.71234 10.9226 7 10.9641V13H8V10.9641C8.28766 10.9226 8.56967 10.8453 8.83939 10.7336C9.26403 10.5577 9.64987 10.2999 9.97487 9.97487C10.2999 9.64987 10.5577 9.26403 10.7336 8.83939C10.8453 8.56967 10.9226 8.28766 10.9641 8H13V7H10.9641C10.9226 6.71234 10.8453 6.43033 10.7336 6.16061C10.5577 5.73597 10.2999 5.35013 9.97487 5.02513C9.64987 4.70012 9.26403 4.44231 8.83939 4.26642C8.56967 4.1547 8.28766 4.07742 8 4.0359V2ZM7 5.05051C6.84403 5.08235 6.69107 5.12909 6.54329 5.1903C6.23998 5.31594 5.96438 5.50009 5.73223 5.73223C5.50009 5.96438 5.31594 6.23998 5.1903 6.54329C5.12909 6.69107 5.08235 6.84403 5.05051 7H7V5.05051ZM5.05051 8C5.08235 8.15597 5.12909 8.30893 5.1903 8.45671C5.31594 8.76002 5.50009 9.03562 5.73223 9.26777C5.96438 9.49991 6.23998 9.68406 6.54329 9.8097C6.69107 9.87091 6.84403 9.91765 7 9.94949V8H5.05051ZM8 9.94949C8.15597 9.91765 8.30893 9.87091 8.45671 9.8097C8.76002 9.68406 9.03562 9.49991 9.26777 9.26777C9.49991 9.03562 9.68406 8.76002 9.8097 8.45671C9.87091 8.30893 9.91765 8.15597 9.94949 8H8V9.94949ZM9.94949 7H8V5.05051C8.15597 5.08235 8.30893 5.12909 8.45671 5.1903C8.76002 5.31594 9.03562 5.50009 9.26777 5.73223C9.49991 5.96438 9.68406 6.23998 9.8097 6.54329C9.87091 6.69107 9.91765 6.84403 9.94949 7Z"/>
</svg>
