<svg width="16" height="16" viewBox="0 0 16 16" xmlns="http://www.w3.org/2000/svg"><style>@import '../colors.css';</style>
<path fill-rule="evenodd" clip-rule="evenodd" d="M1 1H15V1.99995L15 1.99998L15 1.99999V4.99995L15 4.99998L15 4.99999V7.99995L15 7.99998L15 7.99999V10.9999L15 11L15 11V15H1V1ZM14 10.2614V8.30768L2.00001 12L2 12V13.9537L14 10.2614ZM5.24996 14L14 11.3077V14H5.24996ZM2 10.9537L14 7.26141V5.30768L2.00001 8.99998L2 8.99995V10.9537ZM2 7.95372L14 4.26141V2.30768L2.00001 5.99998L2 5.99995V7.95372ZM2 4.95372L11.5996 2H2V4.95372Z"/>
</svg>
