<svg width="16" height="16" viewBox="0 0 16 16" xmlns="http://www.w3.org/2000/svg"><style>@import '../colors.css';</style>
<path fill-rule="evenodd" clip-rule="evenodd" d="M14.9851 5.12126C15.052 4.85337 14.8892 4.5819 14.6213 4.51493C14.3534 4.44795 14.0819 4.61083 14.0149 4.87873C13.9534 5.12491 13.896 5.43572 13.8364 5.75835L13.8364 5.75836L13.8364 5.75849C13.8112 5.89508 13.7856 6.03379 13.7591 6.17061C13.6664 6.64942 13.5572 7.14158 13.4028 7.58574C13.0809 8.511 12.6519 9 12 9C11.231 9 10.6396 8.54458 9.82531 7.91754L9.8253 7.91753L9.74236 7.85368C8.92806 7.2273 7.93376 6.5 6.5 6.5C5.80751 6.5 5.17739 6.89799 4.65223 7.40638C4.11659 7.92492 3.62071 8.62473 3.19088 9.37693C2.71533 10.2091 2.30309 11.1369 2 12.0103V1H1V15H15V14H2.50557C2.67645 12.908 3.26672 11.2598 4.05912 9.87307C4.46263 9.16693 4.90425 8.55424 5.34778 8.12486C5.80179 7.68534 6.19249 7.5 6.5 7.5C7.56625 7.5 8.32195 8.02269 9.13265 8.64631C9.18539 8.68688 9.23874 8.72827 9.29274 8.77017L9.29297 8.77035C10.0246 9.33805 10.8778 10 12 10C13.3481 10 14.0024 8.90566 14.3473 7.91426C14.5261 7.40008 14.6461 6.85058 14.7409 6.36063C14.7725 6.19748 14.8008 6.04403 14.8273 5.90041L14.8273 5.90037C14.8834 5.59618 14.9314 5.33606 14.9851 5.12126Z"/>
</svg>
