<svg width="16" height="16" viewBox="0 0 16 16" xmlns="http://www.w3.org/2000/svg"><style>@import '../colors.css';</style>
<path fill-rule="evenodd" clip-rule="evenodd" d="M12.6195 9.70718C11.9515 10.2267 11.0865 10.5 10 10.5C8.64014 10.5 7.6661 10.0876 6.97405 9.42319C6.29632 8.77258 5.9365 7.92514 5.7075 7.14C5.59232 6.7451 5.50703 6.35401 5.43336 6.00041C5.42045 5.93846 5.40798 5.87805 5.39581 5.81914C5.33697 5.53423 5.28537 5.28443 5.22749 5.06508C5.1559 4.79381 5.08911 4.62976 5.02784 4.54024C5.01288 4.51839 5.00174 4.50631 4.99534 4.50021C4.97367 4.50199 4.90294 4.51749 4.77908 4.63152C4.64618 4.75388 4.49409 4.95247 4.33153 5.23424C4.00759 5.79574 3.69262 6.59797 3.41641 7.51867C2.86389 9.36043 2.5 11.5609 2.5 13H1.5C1.5 11.4391 1.88611 9.13957 2.45859 7.23133C2.74488 6.27703 3.08616 5.39176 3.46534 4.73451C3.65435 4.40691 3.86554 4.11331 4.10177 3.89582C4.33591 3.68027 4.63903 3.5 5 3.5C5.39436 3.5 5.67395 3.71378 5.85302 3.97538C6.01636 4.21399 6.11754 4.51869 6.19439 4.80992C6.25989 5.05814 6.31819 5.34068 6.37699 5.62566C6.38873 5.68258 6.4005 5.7396 6.41234 5.79646C6.48516 6.14599 6.56393 6.5049 6.6675 6.86C6.876 7.57486 7.17243 8.22742 7.66658 8.70181C8.1464 9.16244 8.85986 9.5 10 9.5C10.9135 9.5 11.5485 9.27329 12.0055 8.91782C12.4669 8.55899 12.796 8.03071 13.0257 7.34189C13.4944 5.93566 13.5 4.02835 13.5 2H14.5L14.5 2.06106C14.5001 4.01478 14.5001 6.08078 13.9743 7.65811C13.704 8.46929 13.2831 9.19101 12.6195 9.70718Z"/>
<path fill-rule="evenodd" clip-rule="evenodd" d="M14 4C15.1046 4 16 3.10457 16 2C16 0.895431 15.1046 0 14 0C12.8954 0 12 0.895431 12 2C12 3.10457 12.8954 4 14 4ZM12 10C12 11.1046 11.1046 12 10 12C8.89543 12 8 11.1046 8 10C8 8.89543 8.89543 8 10 8C11.1046 8 12 8.89543 12 10ZM5 6C6.10457 6 7 5.10457 7 4C7 2.89543 6.10457 2 5 2C3.89543 2 3 2.89543 3 4C3 5.10457 3.89543 6 5 6ZM2 15C3.10457 15 4 14.1046 4 13C4 11.8954 3.10457 11 2 11C0.895431 11 0 11.8954 0 13C0 14.1046 0.895431 15 2 15Z" class="note"/>
<path fill-rule="evenodd" clip-rule="evenodd" d="M15 2C15 2.55228 14.5523 3 14 3C13.4477 3 13 2.55228 13 2C13 1.44772 13.4477 1 14 1C14.5523 1 15 1.44772 15 2ZM10 11C10.5523 11 11 10.5523 11 10C11 9.44771 10.5523 9 10 9C9.44772 9 9 9.44771 9 10C9 10.5523 9.44772 11 10 11ZM5 5C5.55229 5 6 4.55228 6 4C6 3.44772 5.55229 3 5 3C4.44771 3 4 3.44772 4 4C4 4.55228 4.44771 5 5 5ZM2 14C2.55229 14 3 13.5523 3 13C3 12.4477 2.55229 12 2 12C1.44771 12 1 12.4477 1 13C1 13.5523 1.44771 14 2 14Z" fill="white"/>
</svg>
