<svg width="16" height="16" viewBox="0 0 16 16" xmlns="http://www.w3.org/2000/svg"><style>@import '../colors.css';</style>
<path fill-rule="evenodd" clip-rule="evenodd" d="M14.4472 2.22358L10.1053 10.9074L5.19051 5.0096L2.47435 13.1581L1.52567 12.8419L4.8095 2.99035L9.89469 9.09257L13.5528 1.77637L14.4472 2.22358Z"/>
<path fill-rule="evenodd" clip-rule="evenodd" d="M14 4C15.1046 4 16 3.10457 16 2C16 0.895431 15.1046 0 14 0C12.8954 0 12 0.895431 12 2C12 3.10457 12.8954 4 14 4ZM12 10C12 11.1046 11.1046 12 10 12C8.89543 12 8 11.1046 8 10C8 8.89543 8.89543 8 10 8C11.1046 8 12 8.89543 12 10ZM5 6C6.10457 6 7 5.10457 7 4C7 2.89543 6.10457 2 5 2C3.89543 2 3 2.89543 3 4C3 5.10457 3.89543 6 5 6ZM2 15C3.10457 15 4 14.1046 4 13C4 11.8954 3.10457 11 2 11C0.895431 11 0 11.8954 0 13C0 14.1046 0.895431 15 2 15Z" class="note"/>
<path fill-rule="evenodd" clip-rule="evenodd" d="M15 2C15 2.55228 14.5523 3 14 3C13.4477 3 13 2.55228 13 2C13 1.44772 13.4477 1 14 1C14.5523 1 15 1.44772 15 2ZM10 11C10.5523 11 11 10.5523 11 10C11 9.44771 10.5523 9 10 9C9.44772 9 9 9.44771 9 10C9 10.5523 9.44772 11 10 11ZM5 5C5.55229 5 6 4.55228 6 4C6 3.44772 5.55229 3 5 3C4.44771 3 4 3.44772 4 4C4 4.55228 4.44771 5 5 5ZM2 14C2.55229 14 3 13.5523 3 13C3 12.4477 2.55229 12 2 12C1.44771 12 1 12.4477 1 13C1 13.5523 1.44771 14 2 14Z" fill="white"/>
</svg>
