<svg width="16" height="16" viewBox="0 0 16 16" xmlns="http://www.w3.org/2000/svg"><style>@import '../colors.css';</style>
<path fill-rule="evenodd" clip-rule="evenodd" d="M9 1H15V7H9V1ZM6.25 3C6.25 2.58579 5.91421 2.25 5.5 2.25C3.83789 2.25 2.75 3.63536 2.75 5H1L3.5 7.5L6 5H4.25C4.25 4.36464 4.76211 3.75 5.5 3.75C5.91421 3.75 6.25 3.41421 6.25 3Z"/>
<path fill-rule="evenodd" clip-rule="evenodd" d="M15 11H13.25C13.25 12.3646 12.1621 13.75 10.5 13.75C10.0858 13.75 9.75 13.4142 9.75 13C9.75 12.5858 10.0858 12.25 10.5 12.25C11.2379 12.25 11.75 11.6354 11.75 11H10L12.5 8.5L15 11ZM1 9H7V15H1V9Z" fill-opacity="0.4"/>
</svg>
