<svg width="16" height="16" viewBox="0 0 16 16" xmlns="http://www.w3.org/2000/svg"><style>@import '../colors.css';</style>
<path fill-rule="evenodd" clip-rule="evenodd" d="M7 1H1V7H7V1ZM9.75 3C9.75 2.58579 10.0858 2.25 10.5 2.25C12.1621 2.25 13.25 3.63536 13.25 5H15L12.5 7.5L10 5H11.75C11.75 4.36464 11.2379 3.75 10.5 3.75C10.0858 3.75 9.75 3.41421 9.75 3Z"/>
<path fill-rule="evenodd" clip-rule="evenodd" d="M1 11H2.75C2.75 12.3646 3.83789 13.75 5.5 13.75C5.91421 13.75 6.25 13.4142 6.25 13C6.25 12.5858 5.91421 12.25 5.5 12.25C4.76211 12.25 4.25 11.6354 4.25 11H6L3.5 8.5L1 11ZM15 9H9V15H15V9Z" fill-opacity="0.4"/>
</svg>
