<svg width="16" height="16" viewBox="0 0 16 16" xmlns="http://www.w3.org/2000/svg"><style>@import '../colors.css';</style>
<path fill-rule="evenodd" clip-rule="evenodd" d="M15 7C15 8.3086 14.1621 9.42151 12.9936 9.83154C13.3134 10.3086 13.5 10.8825 13.5 11.5C13.5 13.1569 12.1569 14.5 10.5 14.5C9.45651 14.5 8.53746 13.9672 8 13.1589C7.46254 13.9672 6.54349 14.5 5.5 14.5C3.84315 14.5 2.5 13.1569 2.5 11.5C2.5 10.8825 2.68656 10.3086 3.00638 9.83154C1.83786 9.42151 1 8.3086 1 7C1 5.34315 2.34315 4 4 4C4.35246 4 4.69072 4.06078 5.00487 4.17243C5.00164 4.11537 5 4.05788 5 4C5 2.34315 6.34315 1 8 1C9.65685 1 11 2.34315 11 4C11 4.05788 10.9984 4.11537 10.9951 4.17243C11.3093 4.06078 11.6475 4 12 4C13.6569 4 15 5.34315 15 7ZM8 10C9.10457 10 10 9.10457 10 8C10 6.89543 9.10457 6 8 6C6.89543 6 6 6.89543 6 8C6 9.10457 6.89543 10 8 10Z"/>
</svg>
