<svg width="16" height="16" viewBox="0 0 16 16" xmlns="http://www.w3.org/2000/svg"><style>@import '../colors.css';</style>
<g clip-path="url(#clip0_1369_284)">
<path d="M-0.0219727 12V11.0601L0.536621 10.9795L3.02344 4.17969H4.62939L7.1001 10.9795L7.65869 11.0601V12H4.99463V11.0601L5.53711 10.9634L5.19336 9.88916H2.44336L2.09961 10.9634L2.64209 11.0601V12H-0.0219727ZM2.81396 8.73438H4.82275L3.90967 6.0542L3.83447 5.81787H3.80225L3.72168 6.07031L2.81396 8.73438Z"/>
<path d="M8.09912 12V11.0601L8.65771 10.9795L11.1445 4.17969H12.7505L15.2212 10.9795L15.7798 11.0601V12H13.1157V11.0601L13.6582 10.9634L13.3145 9.88916H10.5645L10.2207 10.9634L10.7632 11.0601V12H8.09912ZM10.9351 8.73438H12.9438L12.0308 6.0542L11.9556 5.81787H11.9233L11.8428 6.07031L10.9351 8.73438Z"/>
</g>
<defs>
<clipPath id="clip0_1369_284">
<rect width="16" height="16" fill="white"/>
</clipPath>
</defs>
</svg>
