<svg width="16" height="16" viewBox="0 0 16 16" xmlns="http://www.w3.org/2000/svg"><style>@import '../colors.css';</style>
<path d="M0.395996 12V11.0601L0.95459 10.9795L3.44141 4.17969H5.04736L7.51807 10.9795L8.07666 11.0601V12H5.4126V11.0601L5.95508 10.9634L5.61133 9.88916H2.86133L2.51758 10.9634L3.06006 11.0601V12H0.395996ZM3.23193 8.73438H5.24072L4.32764 6.0542L4.25244 5.81787H4.22021L4.13965 6.07031L3.23193 8.73438Z" class="error"/>
<path d="M10.7871 12.123C10.1426 12.123 9.64062 11.957 9.28125 11.625C8.92188 11.293 8.74219 10.8359 8.74219 10.2539C8.74219 9.65625 8.98633 9.17188 9.47461 8.80078C9.96289 8.42969 10.6602 8.24414 11.5664 8.24414H12.5332V7.71094C12.5332 7.375 12.4316 7.10742 12.2285 6.9082C12.0293 6.70898 11.7383 6.60938 11.3555 6.60938C11.1367 6.60938 10.9434 6.63672 10.7754 6.69141C10.6074 6.74219 10.457 6.81641 10.3242 6.91406L10.1895 7.76953H9.10547L9.09375 6.20508C9.40625 6.00195 9.75391 5.8418 10.1367 5.72461C10.5195 5.60352 10.9453 5.54297 11.4141 5.54297C12.2188 5.54297 12.8516 5.73242 13.3125 6.11133C13.7773 6.48633 14.0098 7.02539 14.0098 7.72852V10.5234C14.0098 10.6094 14.0098 10.6934 14.0098 10.7754C14.0137 10.8574 14.0195 10.9375 14.0273 11.0156L14.6719 11.0977V12H12.7441C12.7051 11.8633 12.668 11.7305 12.6328 11.6016C12.6016 11.4727 12.5781 11.3438 12.5625 11.2148C12.3516 11.4805 12.0957 11.6992 11.7949 11.8711C11.498 12.0391 11.1621 12.123 10.7871 12.123ZM11.1211 10.9805C11.418 10.9805 11.6953 10.9121 11.9531 10.7754C12.2109 10.6348 12.4043 10.459 12.5332 10.248V9.1875H11.5488C11.1074 9.1875 10.7734 9.29102 10.5469 9.49805C10.3242 9.70117 10.2129 9.93945 10.2129 10.2129C10.2129 10.459 10.291 10.6484 10.4473 10.7812C10.6035 10.9141 10.8281 10.9805 11.1211 10.9805Z"/>
</svg>
