<svg width="16" height="16" viewBox="0 0 16 16" xmlns="http://www.w3.org/2000/svg"><style>@import '../colors.css';</style>
<path d="M1.03223 13.8997V12.6589L2.94165 12.4172V4.1189L1 4.13501V2.94263L4.96387 2.16919V12.4172L6.87329 12.6589V13.8997H1.03223Z"/>
<path d="M11.957 14.0688C11.1782 14.0688 10.4934 13.9399 9.90259 13.6821C9.31177 13.4243 8.84985 13.0457 8.51685 12.5461C8.18921 12.0413 8.02539 11.429 8.02539 10.7092C8.02539 10.0593 8.21338 9.48999 8.58936 9.00122C8.96533 8.50708 9.47559 8.13379 10.1201 7.88135C9.55615 7.63965 9.11572 7.29321 8.79883 6.84204C8.48193 6.3855 8.32349 5.85913 8.32349 5.26294C8.32349 4.5647 8.47388 3.97388 8.77466 3.49048C9.07544 3.00708 9.49707 2.63916 10.0396 2.38672C10.5874 2.12891 11.2212 2 11.9409 2C12.6606 2 13.2917 2.12891 13.8342 2.38672C14.3821 2.63916 14.8091 3.00708 15.1152 3.49048C15.4268 3.97388 15.5825 4.5647 15.5825 5.26294C15.5825 5.85913 15.4187 6.3855 15.0911 6.84204C14.7634 7.29321 14.3203 7.63965 13.7617 7.88135C14.4062 8.13379 14.9165 8.50708 15.2925 9.00122C15.6738 9.49536 15.8645 10.0647 15.8645 10.7092C15.8645 11.429 15.7007 12.0413 15.373 12.5461C15.0454 13.0457 14.5862 13.4243 13.9954 13.6821C13.4099 13.9399 12.7305 14.0688 11.957 14.0688ZM11.957 12.5059C12.333 12.5059 12.6633 12.428 12.948 12.2722C13.2327 12.1165 13.4529 11.8962 13.6086 11.6116C13.7644 11.3269 13.8423 10.9912 13.8423 10.6045C13.8423 10.2178 13.7617 9.87939 13.6006 9.58936C13.4395 9.29395 13.2139 9.06567 12.9238 8.90454C12.6392 8.74341 12.3115 8.66284 11.9409 8.66284C11.5703 8.66284 11.2427 8.74341 10.958 8.90454C10.6787 9.06567 10.4585 9.29395 10.2974 9.58936C10.1362 9.87939 10.0557 10.2178 10.0557 10.6045C10.0557 11.1953 10.2275 11.6599 10.5713 11.9983C10.9204 12.3367 11.3823 12.5059 11.957 12.5059ZM11.957 7.08374C12.2793 7.08374 12.5586 7.01392 12.7949 6.87427C13.0312 6.72925 13.2166 6.52515 13.3508 6.26196C13.4851 5.99878 13.5522 5.68994 13.5522 5.33545C13.5522 4.98633 13.4824 4.68018 13.3428 4.41699C13.2085 4.15381 13.0205 3.94702 12.7788 3.79663C12.5425 3.64624 12.2632 3.57104 11.9409 3.57104C11.4575 3.57104 11.0708 3.73218 10.7808 4.05444C10.4961 4.37134 10.3538 4.79834 10.3538 5.33545C10.3538 5.86719 10.4961 6.2915 10.7808 6.6084C11.0708 6.92529 11.4629 7.08374 11.957 7.08374Z"/>
</svg>
