<svg width="16" height="16" viewBox="0 0 16 16" xmlns="http://www.w3.org/2000/svg"><style>@import '../colors.css';</style>
<path d="M0 12.9375V11.8913L1.08016 11.6875V4.30299L0 4.09918V3.0462H2.79212L7.10598 10.1114L7.14674 10.1046V4.30299L6.06658 4.09918V3.0462H9.93207V4.09918L8.8519 4.30299V12.9375H7.14674L2.83288 5.86549L2.79212 5.87908V11.6875L3.87228 11.8913V12.9375H0ZM10.7337 10.6481V9.43886H14.9185V10.6481H10.7337ZM12.8329 8.52174C12.0675 8.52174 11.4583 8.30208 11.0054 7.86277C10.5525 7.41893 10.3261 6.84149 10.3261 6.13043V5.3356C10.3261 4.86458 10.428 4.45018 10.6318 4.09239C10.8401 3.73007 11.13 3.44701 11.5014 3.24321C11.8773 3.0394 12.3166 2.9375 12.8193 2.9375C13.3311 2.9375 13.7726 3.0394 14.144 3.24321C14.5199 3.44701 14.8098 3.73007 15.0136 4.09239C15.2174 4.45018 15.3193 4.86458 15.3193 5.3356V6.13043C15.3193 6.84149 15.0928 7.41893 14.6399 7.86277C14.1916 8.30208 13.5892 8.52174 12.8329 8.52174ZM12.8329 7.25136C13.1544 7.25136 13.399 7.14946 13.5666 6.94565C13.7387 6.73732 13.8247 6.46558 13.8247 6.13043V5.3356C13.8247 5.00951 13.7387 4.7423 13.5666 4.53397C13.3945 4.32563 13.1454 4.22147 12.8193 4.22147C12.4977 4.22147 12.2509 4.32563 12.0788 4.53397C11.9067 4.7423 11.8207 5.00951 11.8207 5.3356V6.13043C11.8207 6.46558 11.9067 6.73732 12.0788 6.94565C12.2509 7.14946 12.5023 7.25136 12.8329 7.25136Z"/>
</svg>
