<svg width="16" height="16" viewBox="0 0 16 16" xmlns="http://www.w3.org/2000/svg"><style>@import '../colors.css';</style>
<path d="M1 13.8997V12.6589L2.28101 12.4172V7.65967L1 7.41797V6.16919H5.58423V7.41797L4.31128 7.65967V12.4172L5.58423 12.6589V13.8997H1Z"/>
<path d="M11.0466 14.0688C10.2302 14.0688 9.51318 13.9399 8.89551 13.6821C8.2832 13.4243 7.80518 13.0457 7.46143 12.5461C7.12305 12.0466 6.95386 11.4397 6.95386 10.7253C6.95386 10.0701 7.14722 9.49536 7.53394 9.00122C7.92065 8.50708 8.45239 8.13379 9.12915 7.88135C8.53833 7.63965 8.07642 7.29053 7.74341 6.83398C7.41577 6.37744 7.25195 5.8457 7.25195 5.23877C7.25195 4.55127 7.40771 3.96851 7.71924 3.49048C8.03613 3.00708 8.47656 2.63916 9.04053 2.38672C9.60986 2.12891 10.2732 2 11.0305 2C11.7825 2 12.4431 2.12891 13.0125 2.38672C13.5818 2.63916 14.0249 3.00708 14.3418 3.49048C14.6641 3.96851 14.8252 4.55127 14.8252 5.23877C14.8252 5.8457 14.656 6.37744 14.3176 6.83398C13.9792 7.29053 13.5173 7.63965 12.9319 7.88135C13.6033 8.13916 14.135 8.51514 14.5271 9.00928C14.9192 9.49805 15.1152 10.0701 15.1152 10.7253C15.1152 11.4397 14.9434 12.0466 14.5996 12.5461C14.2559 13.0457 13.7778 13.4243 13.1655 13.6821C12.5586 13.9399 11.8523 14.0688 11.0466 14.0688ZM11.0466 12.5059C11.4495 12.5059 11.804 12.428 12.1101 12.2722C12.4216 12.1165 12.6633 11.8962 12.8352 11.6116C13.0071 11.3269 13.093 10.9912 13.093 10.6045C13.093 10.2178 13.0044 9.87939 12.8271 9.58936C12.6499 9.29932 12.4055 9.07373 12.094 8.9126C11.7825 8.74609 11.428 8.66284 11.0305 8.66284C10.6223 8.66284 10.2651 8.74341 9.95898 8.90454C9.65283 9.06567 9.41382 9.29395 9.24194 9.58936C9.07007 9.87939 8.98413 10.2178 8.98413 10.6045C8.98413 11.1953 9.16943 11.6599 9.54004 11.9983C9.91602 12.3367 10.4182 12.5059 11.0466 12.5059ZM11.0466 7.08374C11.4011 7.08374 11.71 7.01392 11.9731 6.87427C12.2363 6.72925 12.4377 6.52515 12.5774 6.26196C12.7224 5.99878 12.7949 5.68994 12.7949 5.33545C12.7949 4.98633 12.7197 4.68018 12.5693 4.41699C12.4243 4.15381 12.2202 3.94702 11.957 3.79663C11.6938 3.64624 11.385 3.57104 11.0305 3.57104C10.4934 3.57104 10.0664 3.73218 9.74951 4.05444C9.43799 4.37134 9.28223 4.79834 9.28223 5.33545C9.28223 5.86719 9.44067 6.2915 9.75757 6.6084C10.0745 6.92529 10.5042 7.08374 11.0466 7.08374Z"/>
</svg>
