<svg width="16" height="16" viewBox="0 0 16 16" xmlns="http://www.w3.org/2000/svg"><style>@import '../colors.css';</style>
<path d="M1.91748 12V11.0991L2.36572 11.0332L4.27295 5.60156H5.94287L7.85449 11.0332L8.30273 11.0991V12H5.91211V11.0991L6.32959 11.02L6.13623 10.3257H4.07959L3.89502 11.02L4.3125 11.0991V12H1.91748ZM4.40479 9.24463H5.80664L5.18262 7.30664L5.1123 7.08252H5.08594L5.01123 7.32861L4.40479 9.24463Z"/>
<path d="M8.50928 12V11.0991L8.95752 11.0332L10.8647 5.60156H12.5347L14.4463 11.0332L14.8945 11.0991V12H12.5039V11.0991L12.9214 11.02L12.728 10.3257H10.6714L10.4868 11.02L10.9043 11.0991V12H8.50928ZM10.9966 9.24463H12.3984L11.7744 7.30664L11.7041 7.08252H11.6777L11.603 7.32861L10.9966 9.24463Z"/>
</svg>
