<svg width="16" height="16" viewBox="0 0 16 16" xmlns="http://www.w3.org/2000/svg"><style>@import '../colors.css';</style>
<path d="M9.50928 12V11.0991L9.95752 11.0332L11.8647 5.60156H13.5347L15.4463 11.0332L15.8945 11.0991V12H13.5039V11.0991L13.9214 11.02L13.728 10.3257H11.6714L11.4868 11.02L11.9043 11.0991V12H9.50928ZM11.9966 9.24463H13.3984L12.7744 7.30664L12.7041 7.08252H12.6777L12.603 7.32861L11.9966 9.24463Z" class="error"/>
<path d="M0 12V11.0481L0.65522 10.9554L2.14492 6.97768L3.63462 3H5.14904L8.09135 10.9554L8.74657 11.0481V12H5.88462V11.0481L6.52747 10.9306L6.05151 9.51511H2.70124L2.21291 10.9306L2.86195 11.0481V12H0ZM3.1092 8.32212H5.64972L4.48146 4.99038L4.4011 4.74931H4.36401L4.27747 5.00275L3.1092 8.32212Z"/>
</svg>
