<svg width="16" height="16" viewBox="0 0 16 16" xmlns="http://www.w3.org/2000/svg"><style>@import '../colors.css';</style>
<path d="M0 12V11.0481L0.65522 10.9554L2.14492 6.97768L3.63462 3H5.14904L8.09135 10.9554L8.74657 11.0481V12H5.88462V11.0481L6.52747 10.9306L6.05151 9.51511H2.70124L2.21291 10.9306L2.86195 11.0481V12H0ZM3.1092 8.32212H5.64972L4.48146 4.99038L4.4011 4.74931H4.36401L4.27747 5.00275L3.1092 8.32212Z"/>
<path d="M8.09912 12V11.0601L8.65771 10.9795L11.1445 4.17969H12.7505L15.2212 10.9795L15.7798 11.0601V12H13.1157V11.0601L13.6582 10.9634L13.3145 9.88916H10.5645L10.2207 10.9634L10.7632 11.0601V12H8.09912ZM10.9351 8.73438H12.9438L12.0308 6.0542L11.9556 5.81787H11.9233L11.8428 6.07031L10.9351 8.73438Z" class="error"/>
</svg>
