<svg width="16" height="16" viewBox="0 0 16 16" xmlns="http://www.w3.org/2000/svg"><style>@import '../colors.css';</style>
<path d="M0.0844727 12V11.0601L0.643066 10.9795L3.12988 4.17969H4.73584L7.20654 10.9795L7.76514 11.0601V12H5.10107V11.0601L5.64355 10.9634L5.2998 9.88916H2.5498L2.20605 10.9634L2.74854 11.0601V12H0.0844727ZM2.92041 8.73438H4.9292L4.01611 6.0542L3.94092 5.81787H3.90869L3.82812 6.07031L2.92041 8.73438Z"/>
<path d="M10.9873 12.1487C10.1896 12.1487 9.58309 11.9552 9.16772 11.5681C8.75236 11.1764 8.54468 10.6265 8.54468 9.91846C8.54468 9.19157 8.84204 8.60864 9.43677 8.16968C10.0315 7.72599 10.8575 7.50415 11.9148 7.50415H13.2812V6.75366C13.2812 6.2911 13.1396 5.93237 12.8564 5.67749C12.578 5.42261 12.1838 5.29517 11.6741 5.29517C11.3531 5.29517 11.0746 5.33529 10.8386 5.41553C10.6026 5.49105 10.3879 5.59725 10.1943 5.73413L10.0457 6.80322H8.96948V5.04736C9.31405 4.76888 9.71525 4.55884 10.1731 4.41724C10.6309 4.27091 11.1383 4.19775 11.6953 4.19775C12.6252 4.19775 13.3544 4.4196 13.8831 4.86328C14.4117 5.30697 14.676 5.94181 14.676 6.76782V10.4565C14.676 10.5557 14.676 10.6524 14.676 10.7468C14.6807 10.8412 14.6878 10.9356 14.6973 11.03L15.4407 11.1079V12H13.437C13.3945 11.7923 13.3615 11.6059 13.3379 11.4407C13.3143 11.2755 13.2978 11.1103 13.2883 10.9451C13.0193 11.2896 12.6818 11.5776 12.2759 11.8088C11.8747 12.0354 11.4451 12.1487 10.9873 12.1487ZM11.1926 10.9805C11.6552 10.9805 12.0776 10.8695 12.46 10.6477C12.8423 10.4259 13.116 10.1592 13.2812 9.84766V8.45996H11.8652C11.2233 8.45996 10.7419 8.61336 10.4209 8.92017C10.0999 9.22697 9.93945 9.56917 9.93945 9.94678C9.93945 10.2819 10.0433 10.5391 10.251 10.7185C10.4587 10.8931 10.7725 10.9805 11.1926 10.9805Z" class="error"/>
</svg>
