<svg width="16" height="16" viewBox="0 0 16 16" xmlns="http://www.w3.org/2000/svg"><style>@import '../colors.css';</style>
<path fill-rule="evenodd" clip-rule="evenodd" d="M4.0574 8C4.36892 8 4.65021 8.06374 4.90129 8.19122C5.15236 8.3187 5.34996 8.50283 5.4941 8.74363C5.64288 8.9797 5.71727 9.26062 5.71727 9.5864C5.71727 9.91218 5.64288 10.1955 5.4941 10.4363C5.34996 10.6723 5.15236 10.8565 4.90129 10.9887C4.65021 11.1161 4.36892 11.1799 4.0574 11.1799H3.09496V13H2V8H4.0574ZM4.26663 10.2309C4.15504 10.2875 4.03183 10.3159 3.897 10.3159H3.09496V8.86402H3.897C4.03183 8.86402 4.15504 8.89235 4.26663 8.94901C4.37822 9.00567 4.46656 9.08829 4.53165 9.19688C4.59675 9.30548 4.62929 9.43532 4.62929 9.5864C4.62929 9.74221 4.59675 9.87441 4.53165 9.983C4.46656 10.0916 4.37822 10.1742 4.26663 10.2309Z"/>
<path fill-rule="evenodd" clip-rule="evenodd" d="M8.30537 8C8.67733 8 9.01907 8.06138 9.33059 8.18414C9.64676 8.30217 9.92108 8.4745 10.1536 8.70113C10.3907 8.92304 10.572 9.18744 10.6975 9.49433C10.8277 9.79651 10.8928 10.1317 10.8928 10.5C10.8928 10.8636 10.8277 11.1988 10.6975 11.5057C10.572 11.8126 10.393 12.077 10.1605 12.2989C9.92805 12.5208 9.65373 12.6931 9.33756 12.8159C9.02605 12.9386 8.68663 13 8.31932 13H6.33166V8H8.30537ZM8.29143 12.0227H7.42662V8.97026H8.29143C8.58899 8.97026 8.84704 9.03163 9.06557 9.15439C9.28874 9.27715 9.46077 9.45184 9.58166 9.67847C9.7072 9.9051 9.76997 10.1766 9.76997 10.4929C9.76997 10.8093 9.70952 11.0831 9.58864 11.3144C9.46775 11.5458 9.29572 11.7229 9.07254 11.8456C8.84937 11.9636 8.58899 12.0227 8.29143 12.0227Z"/>
<path d="M11.5896 13V8H15V8.95609L12.6845 8.94901V10.0822H14.8884V11.0382H12.6845V13H11.5896Z"/>
<path fill-rule="evenodd" clip-rule="evenodd" d="M0 5L4 1H11V7H10V2H5V6H0V5ZM1 7H0V15H11V14H10H1V7Z"/>
</svg>
