<svg width="16" height="16" viewBox="0 0 16 16" xmlns="http://www.w3.org/2000/svg"><style>@import '../colors.css';</style>
<path d="M11.3204 13.1996C11.3204 13.0609 11.3311 12.9116 11.3524 12.7516C11.3738 12.5809 11.4111 12.3676 11.4644 12.1116C11.5178 11.8449 11.5924 11.4982 11.6884 11.0716L12.4084 7.40756C12.4404 7.2689 12.4084 7.15156 12.3124 7.05556C12.2164 6.95956 12.0724 6.8849 11.8804 6.83156C11.6991 6.76756 11.4698 6.71423 11.1924 6.67156L10.9844 6.63956L11.1604 5.83956H14.1364L13.0644 11.2316C12.9898 11.5836 12.9258 11.8822 12.8724 12.1276C12.8298 12.3622 12.7978 12.5489 12.7764 12.6876C12.7551 12.8262 12.7444 12.9329 12.7444 13.0076C12.7444 13.1249 12.7764 13.2156 12.8404 13.2796C12.9151 13.3436 13.0271 13.3756 13.1764 13.3756C13.3471 13.3756 13.5124 13.3596 13.6724 13.3276C13.8431 13.2956 14.0031 13.2636 14.1524 13.2316C14.3124 13.1889 14.4404 13.1622 14.5364 13.1516L14.3604 14.0316C14.2218 14.0849 14.0671 14.1382 13.8964 14.1916C13.7364 14.2342 13.5604 14.2716 13.3684 14.3036C13.1764 14.3356 12.9738 14.3516 12.7604 14.3516C12.4831 14.3516 12.2324 14.3089 12.0084 14.2236C11.7844 14.1382 11.6138 14.0102 11.4964 13.8396C11.3791 13.6689 11.3204 13.4556 11.3204 13.1996ZM12.5844 3.00756C12.5844 2.68756 12.6804 2.44223 12.8724 2.27156C13.0644 2.1009 13.3098 2.01556 13.6084 2.01556C13.8964 2.01556 14.1364 2.1009 14.3284 2.27156C14.5204 2.44223 14.6164 2.68756 14.6164 3.00756C14.6164 3.32756 14.5204 3.57823 14.3284 3.75956C14.1364 3.93023 13.8964 4.01556 13.6084 4.01556C13.3098 4.01556 13.0644 3.93023 12.8724 3.75956C12.6804 3.57823 12.5844 3.32756 12.5844 3.00756Z"/>
<path d="M6.875 14.3516C6.36979 14.3516 5.94271 14.2526 5.59375 14.0547C5.25 13.8516 4.95833 13.5599 4.71875 13.1797L4.53906 14.1875H2.17188V3.85938L1 3.60938V2.00001H4.90625V6.57032C5.13542 6.25261 5.41667 6.00782 5.75 5.83595C6.08854 5.66407 6.47917 5.57813 6.92187 5.57813C7.59375 5.57813 8.16146 5.75782 8.625 6.1172C9.09375 6.47657 9.44792 6.98699 9.6875 7.64845C9.93229 8.3047 10.0547 9.08074 10.0547 9.97657V10.1406C10.0547 10.9948 9.93229 11.7396 9.6875 12.375C9.44792 13.0052 9.09114 13.4922 8.61719 13.8359C8.14844 14.1797 7.56771 14.3516 6.875 14.3516ZM6 12.25C6.49479 12.25 6.83854 12.0755 7.03125 11.7266C7.22917 11.3776 7.32812 10.849 7.32812 10.1406V9.97657C7.32812 9.48699 7.28385 9.07292 7.19531 8.73438C7.11198 8.39063 6.97656 8.13022 6.78906 7.95313C6.60156 7.77084 6.35156 7.6797 6.03906 7.6797C5.78385 7.6797 5.55729 7.73959 5.35937 7.85938C5.16667 7.97917 5.01562 8.14324 4.90625 8.35157V11.75C5.04167 11.9271 5.20052 12.0547 5.38281 12.1328C5.57031 12.2109 5.77604 12.25 6 12.25Z"/>
</svg>
