<svg width="16" height="16" viewBox="0 0 16 16" xmlns="http://www.w3.org/2000/svg"><style>@import '../colors.css';</style>
<path fill-rule="evenodd" clip-rule="evenodd" d="M9.5 7V5.75L10.9968 5.5V1.5H9.67328L9.49881 3H8V0H16V3H14.5L14.3188 1.5H12.9952V5.5L14.5 5.75V7H16V8H5V7H9.5ZM9.5 16V14.75L10.9968 14.5V10.5H9.67328L9.49881 12H8V9H16V12H14.5L14.3188 10.5H12.9952V14.5L14.5 14.75V16H9.5Z"/>
<path fill-rule="evenodd" clip-rule="evenodd" d="M1 7H4V8H3V15H4V16H1V15H2V8H1V7Z" class="error"/>
</svg>
