<svg width="16" height="16" viewBox="0 0 16 16" xmlns="http://www.w3.org/2000/svg"><style>@import '../colors.css';</style>
<path d="M6.86003 15C5.47483 15 4.3048 14.6772 3.34995 14.0317C2.40854 13.3862 1.73611 12.4986 1.33266 11.3689C0.942646 10.2257 0.895576 8.90778 1.19144 7.41499C1.36628 6.47358 1.67559 5.61287 2.1194 4.83285C2.57665 4.03939 3.14149 3.36023 3.81392 2.79539C4.48635 2.2171 5.23948 1.77329 6.07329 1.46398C6.92055 1.15466 7.82161 1 8.77646 1C10.1213 1 11.2712 1.30259 12.226 1.90778C13.1943 2.49952 13.8869 3.36023 14.3038 4.48991C14.7342 5.6196 14.788 6.99135 14.4652 8.60519C14.2366 9.81556 13.7726 10.9049 13.0733 11.8732C12.3874 12.8415 11.5133 13.6081 10.4508 14.1729C9.38837 14.7243 8.19144 15 6.86003 15ZM7.1828 13.8905C7.96282 13.8905 8.66215 13.6619 9.28078 13.2046C9.89942 12.7339 10.4239 12.0951 10.8543 11.2882C11.2846 10.4813 11.5872 9.55331 11.762 8.50432C11.9907 7.26705 11.9907 6.17099 11.762 5.21614C11.5469 4.24784 11.1501 3.48799 10.5718 2.9366C9.99356 2.37176 9.28078 2.08934 8.43352 2.08934C7.70729 2.08934 7.03486 2.31796 6.41623 2.77522C5.81104 3.21902 5.29327 3.83766 4.86291 4.63112C4.43256 5.41114 4.12324 6.29875 3.93496 7.29395C3.76013 8.195 3.69961 9.04227 3.7534 9.83573C3.8072 10.6292 3.96858 11.3353 4.23755 11.9539C4.50653 12.5591 4.88309 13.0365 5.36724 13.3862C5.86484 13.7224 6.47002 13.8905 7.1828 13.8905Z" class="success"/>
<path d="M10.4473 1.17777C9.92854 1.05926 9.37159 1 8.77646 1C7.82161 1 6.92055 1.15466 6.07329 1.46398C5.23947 1.77329 4.48635 2.2171 3.81392 2.79539C3.14149 3.36023 2.57665 4.03939 2.1194 4.83285C1.67559 5.61287 1.36628 6.47358 1.19144 7.41499C0.895576 8.90778 0.942646 10.2257 1.33266 11.3689C1.73611 12.4986 2.40854 13.3862 3.34995 14.0317C4.11525 14.5491 5.01878 14.8591 6.06054 14.9618C6.06027 14.9141 6.06013 14.8663 6.06013 14.8184C6.06013 14.4538 6.06812 14.0914 6.08391 13.7315C5.82433 13.6487 5.58544 13.5336 5.36724 13.3862C4.88309 13.0365 4.50653 12.5591 4.23755 11.9539C3.96858 11.3353 3.8072 10.6292 3.7534 9.83574C3.69961 9.04227 3.76013 8.195 3.93496 7.29395C4.12324 6.29875 4.43256 5.41114 4.86291 4.63112C5.29327 3.83766 5.81104 3.21902 6.41623 2.77522C7.03486 2.31796 7.70729 2.08934 8.43352 2.08934C8.87345 2.08934 9.27712 2.16548 9.64453 2.31776C9.90056 1.92572 10.1684 1.54546 10.4473 1.17777Z"/>
</svg>
