<svg width="16" height="16" viewBox="0 0 16 16" xmlns="http://www.w3.org/2000/svg"><style>@import '../colors.css';</style>
<path d="M13.9559 11.1593C14.0192 11.096 14.0983 11.096 14.1932 11.1593C14.2881 11.2226 14.3198 11.3175 14.2881 11.4441C13.7186 12.2667 13.0859 12.9311 12.3898 13.4373C11.6938 13.9119 11.0294 14.1492 10.3966 14.1492C9.66893 14.1492 9.19435 13.6429 8.97288 12.6305C8.78305 11.5864 8.89379 10.3525 9.30509 8.92881C8.45085 10.2893 7.51751 11.4599 6.50508 12.4407C5.52429 13.3898 4.48023 13.9593 3.37288 14.1492C2.61356 14.1492 2.02825 13.8011 1.61695 13.1051C1.20565 12.409 1 11.6023 1 10.6847C1 9.64068 1.25311 8.61243 1.75932 7.6C2.26554 6.55593 2.92994 5.6226 3.75254 4.8C4.60678 3.9774 5.54011 3.31299 6.55254 2.80678C7.59661 2.26893 8.64068 2 9.68475 2C10.7921 2 11.6621 2.26893 12.2949 2.80678C12.6113 2.58531 13.0068 2.39548 13.4814 2.23729C13.9876 2.0791 14.4305 2 14.8102 2C14.9367 2 15 2.0791 15 2.23729C14.2723 3.12316 13.6395 4.10395 13.1017 5.17966C12.5955 6.22373 12.2 7.23616 11.9153 8.21695C11.6305 9.1661 11.4565 10.0203 11.3932 10.7797C11.3299 11.539 11.3932 12.061 11.5831 12.3458C11.7412 12.5356 12.0102 12.5989 12.3898 12.5356C12.7695 12.4407 13.2915 11.9819 13.9559 11.1593ZM4.84407 12.3932C5.22373 12.3932 5.68249 12.1559 6.22034 11.6814C6.78983 11.2068 7.37514 10.574 7.97627 9.78305C8.5774 8.99209 9.16271 8.10622 9.7322 7.12542C10.3333 6.14463 10.8554 5.14802 11.2983 4.13559C11.1718 3.72429 10.8712 3.39209 10.3966 3.13898C9.95367 2.88588 9.43164 2.75932 8.83051 2.75932C8.10283 2.75932 7.4226 2.94915 6.78983 3.32881C6.15706 3.67684 5.60339 4.18305 5.12881 4.84746C4.68588 5.48023 4.32203 6.25537 4.03729 7.17288C3.78418 8.05876 3.65763 9.03955 3.65763 10.1153C3.65763 10.8113 3.76836 11.365 3.98983 11.7763C4.24294 12.1876 4.52768 12.3932 4.84407 12.3932Z" class="error"/>
</svg>
