<svg width="16" height="16" viewBox="0 0 16 16" xmlns="http://www.w3.org/2000/svg"><style>@import '../colors.css';</style>
<path d="M1.70789 11C1.19182 11 0.777341 10.8533 0.464469 10.5598C0.154823 10.2629 0 9.86317 0 9.36053C0 9.01982 0.087088 8.7179 0.261264 8.45478C0.438665 8.19165 0.703155 7.98587 1.05473 7.83744C1.40631 7.68902 1.84336 7.6148 2.36589 7.6148H2.99002V7.25047C2.99002 7.00759 2.92229 6.80687 2.78682 6.64832C2.65457 6.48977 2.45137 6.4105 2.1772 6.4105C2.04496 6.4105 1.924 6.42737 1.81433 6.4611C1.70789 6.49483 1.60952 6.54375 1.5192 6.60784L1.40792 7.31626H0.304808L0.285455 5.84883C0.569297 5.69703 0.872493 5.57052 1.19504 5.46932C1.51759 5.36812 1.87562 5.31752 2.26913 5.31752C2.96906 5.31752 3.52223 5.48619 3.92864 5.82353C4.33505 6.16087 4.53825 6.64158 4.53825 7.26565V9.41113C4.53825 9.48872 4.53825 9.56462 4.53825 9.63884C4.54148 9.70968 4.54954 9.77883 4.56244 9.8463L5.114 9.93738V10.8937H3.25612C3.21742 10.8162 3.1771 10.7251 3.13517 10.6205C3.09324 10.5159 3.06421 10.4113 3.04808 10.3068C2.88358 10.5193 2.69489 10.688 2.48201 10.8128C2.26913 10.9376 2.01109 11 1.70789 11ZM2.15301 9.83112C2.31428 9.83112 2.47072 9.79401 2.62232 9.7198C2.77391 9.64558 2.89648 9.54438 2.99002 9.41619V8.58634H2.37557C2.10463 8.58634 1.89658 8.65043 1.75144 8.77862C1.60952 8.90681 1.53855 9.06536 1.53855 9.25427C1.53855 9.43643 1.59339 9.57812 1.70305 9.67932C1.81595 9.78052 1.96593 9.83112 2.15301 9.83112Z"/>
<path d="M8.68945 11C8.37012 11 8.09918 10.9342 7.87663 10.8027C7.65407 10.6711 7.46699 10.4805 7.31539 10.2309L7.20895 10.8937H5.8736V4.11828L5.13335 3.96142V3H7.41699V5.98039C7.56214 5.76787 7.74277 5.60426 7.95888 5.48956C8.17498 5.37487 8.42496 5.31752 8.7088 5.31752C9.12811 5.31752 9.48291 5.43559 9.77321 5.67173C10.0667 5.90449 10.2893 6.23677 10.4409 6.66856C10.5957 7.09699 10.6731 7.60299 10.6731 8.18659V8.29285C10.6731 8.83934 10.5957 9.31668 10.4409 9.72486C10.2893 10.1297 10.0651 10.4434 9.76837 10.666C9.47485 10.8887 9.11521 11 8.68945 11ZM8.20562 9.75016C8.54107 9.75016 8.77815 9.62703 8.91684 9.38077C9.05876 9.13114 9.12972 8.7685 9.12972 8.29285V8.18659C9.12972 7.84588 9.09747 7.55577 9.03296 7.31626C8.97168 7.07674 8.87491 6.89289 8.74267 6.76471C8.61042 6.63314 8.43786 6.56736 8.22498 6.56736C8.0379 6.56736 7.87501 6.61459 7.73632 6.70904C7.60085 6.80013 7.49441 6.92326 7.41699 7.07843V9.32511C7.50731 9.46679 7.61859 9.57305 7.75083 9.6439C7.88308 9.71474 8.03467 9.75016 8.20562 9.75016Z"/>
<path d="M13.8325 11C13.3229 11 12.8826 10.8819 12.5116 10.6458C12.1439 10.4063 11.8601 10.0791 11.6601 9.66414C11.4634 9.24584 11.365 8.7685 11.365 8.23213V8.09551C11.365 7.55239 11.4666 7.07168 11.6698 6.65338C11.873 6.23508 12.1585 5.90786 12.5262 5.67173C12.8939 5.43559 13.3261 5.31752 13.8228 5.31752C14.3066 5.31752 14.7227 5.39511 15.0711 5.55028C15.4194 5.70546 15.6984 5.8775 15.9081 6.06641L15.8887 7.71094H14.7275L14.534 6.72423C14.4695 6.65676 14.384 6.6011 14.2776 6.55724C14.1712 6.51339 14.0712 6.49146 13.9776 6.49146C13.726 6.49146 13.5212 6.55387 13.3632 6.67868C13.2083 6.80013 13.0938 6.97892 13.0197 7.21505C12.9487 7.45119 12.9132 7.74468 12.9132 8.09551V8.23213C12.9132 8.59983 12.9568 8.89669 13.0438 9.12271C13.1309 9.34535 13.2454 9.50896 13.3874 9.61354C13.5325 9.71474 13.6857 9.76534 13.847 9.76534C14.076 9.76534 14.255 9.70462 14.384 9.58318C14.5163 9.45836 14.6114 9.28126 14.6695 9.05187H15.9806L16 9.08223C15.9323 9.49378 15.8161 9.84293 15.6516 10.1297C15.4904 10.413 15.263 10.6289 14.9695 10.7774C14.6759 10.9258 14.2969 11 13.8325 11Z"/>
<path fill-rule="evenodd" clip-rule="evenodd" d="M0 12H1V13H15V12H16V15H15V14H1V15H0V12Z" class="error"/>
</svg>
