<svg width="16" height="16" viewBox="0 0 16 16" xmlns="http://www.w3.org/2000/svg"><style>@import '../colors.css';</style>
<rect x="12" y="8" width="4" height="1" class="error"/>
<path d="M1.70789 12C1.19182 12 0.777341 11.8533 0.464469 11.5598C0.154823 11.2629 0 10.8632 0 10.3605C0 10.0198 0.087088 9.7179 0.261264 9.45478C0.438665 9.19165 0.703155 8.98587 1.05473 8.83744C1.40631 8.68902 1.84336 8.6148 2.36589 8.6148H2.99002V8.25047C2.99002 8.00759 2.92229 7.80687 2.78682 7.64832C2.65457 7.48977 2.45137 7.4105 2.1772 7.4105C2.04496 7.4105 1.924 7.42737 1.81433 7.4611C1.70789 7.49483 1.60952 7.54375 1.5192 7.60784L1.40792 8.31626H0.304808L0.285455 6.84883C0.569297 6.69703 0.872493 6.57052 1.19504 6.46932C1.51759 6.36812 1.87562 6.31752 2.26913 6.31752C2.96906 6.31752 3.52223 6.48619 3.92864 6.82353C4.33505 7.16087 4.53825 7.64158 4.53825 8.26565V10.4111C4.53825 10.4887 4.53825 10.5646 4.53825 10.6388C4.54148 10.7097 4.54954 10.7788 4.56244 10.8463L5.114 10.9374V11.8937H3.25612C3.21742 11.8162 3.1771 11.7251 3.13517 11.6205C3.09324 11.5159 3.06421 11.4113 3.04808 11.3068C2.88358 11.5193 2.69489 11.688 2.48201 11.8128C2.26913 11.9376 2.01109 12 1.70789 12ZM2.15301 10.8311C2.31428 10.8311 2.47072 10.794 2.62232 10.7198C2.77391 10.6456 2.89648 10.5444 2.99002 10.4162V9.58634H2.37557C2.10463 9.58634 1.89658 9.65043 1.75144 9.77862C1.60952 9.90681 1.53855 10.0654 1.53855 10.2543C1.53855 10.4364 1.59339 10.5781 1.70305 10.6793C1.81595 10.7805 1.96593 10.8311 2.15301 10.8311Z"/>
<path d="M8.68945 12C8.37012 12 8.09918 11.9342 7.87663 11.8027C7.65407 11.6711 7.46699 11.4805 7.31539 11.2309L7.20895 11.8937H5.8736V5.11828L5.13335 4.96142V4H7.41699V6.98039C7.56214 6.76787 7.74277 6.60426 7.95888 6.48956C8.17498 6.37487 8.42496 6.31752 8.7088 6.31752C9.12811 6.31752 9.48291 6.43559 9.77321 6.67173C10.0667 6.90449 10.2893 7.23677 10.4409 7.66856C10.5957 8.09699 10.6731 8.60299 10.6731 9.18659V9.29285C10.6731 9.83934 10.5957 10.3167 10.4409 10.7249C10.2893 11.1297 10.0651 11.4434 9.76837 11.666C9.47485 11.8887 9.11521 12 8.68945 12ZM8.20562 10.7502C8.54107 10.7502 8.77815 10.627 8.91684 10.3808C9.05876 10.1311 9.12972 9.7685 9.12972 9.29285V9.18659C9.12972 8.84588 9.09747 8.55577 9.03296 8.31626C8.97168 8.07674 8.87491 7.89289 8.74267 7.76471C8.61042 7.63314 8.43786 7.56736 8.22498 7.56736C8.0379 7.56736 7.87501 7.61459 7.73632 7.70904C7.60085 7.80013 7.49441 7.92326 7.41699 8.07843V10.3251C7.50731 10.4668 7.61859 10.5731 7.75083 10.6439C7.88308 10.7147 8.03467 10.7502 8.20562 10.7502Z"/>
</svg>
