<svg width="16" height="16" viewBox="0 0 16 16" xmlns="http://www.w3.org/2000/svg"><style>@import '../colors.css';</style>
<path fill-rule="evenodd" clip-rule="evenodd" d="M6.55348 6.4466L10.8995 2.10059L11.6066 2.80769L7.17497 7.23932C8.14375 8.61158 8.77573 10.2386 8.95062 12.0001H15V13.0001L9 13.0001C9 13.685 8.93114 14.3539 8.79996 15.0001H7.77698C7.92294 14.3569 8 13.6875 8 13.0001L1 13.0001V12.0001L5.84441 7.15567C5.38357 6.6165 4.86014 6.13243 4.28536 5.71472L5 5.00008H5.00097C5.56832 5.42634 6.08885 5.91154 6.55348 6.4466ZM6.45619 7.95811L2.41421 12.0001H7.94507C7.78075 10.5136 7.25442 9.13625 6.45619 7.95811Z"/>
</svg>
