<svg width="16" height="16" viewBox="0 0 16 16" xmlns="http://www.w3.org/2000/svg"><style>@import '../colors.css';</style>
<g clip-path="url(#clip0_933_2542)">
<path fill-rule="evenodd" clip-rule="evenodd" d="M13 9C11.8954 9 11 9.89543 11 11V12C10.4477 12 10 12.4477 10 13V15C10 15.5523 10.4477 16 11 16H15C15.5523 16 16 15.5523 16 15V13C16 12.4477 15.5523 12 15 12V11C15 9.89543 14.1046 9 13 9ZM14 12V11.0714C14 10.4797 13.5523 10 13 10C12.4477 10 12 10.4797 12 11.0714V12H14Z"/>
<path fill-rule="evenodd" clip-rule="evenodd" d="M3 0H0V3H1V13H0V16H3V15H9V14H3V13H2V3H3V2H13V3H14V8H15V3H16V0H13V1H3V0Z" fill-opacity="0.4"/>
</g>
<defs>
<clipPath id="clip0_933_2542">
<rect width="16" height="16" fill="white"/>
</clipPath>
</defs>
</svg>
