<svg width="16" height="16" viewBox="0 0 16 16" xmlns="http://www.w3.org/2000/svg"><style>@import '../colors.css';</style>
<path fill-rule="evenodd" clip-rule="evenodd" d="M8.41422 2L2.12132 8.29289C1.7308 8.68342 1.7308 9.31658 2.12132 9.70711L6.2929 13.8787C6.68342 14.2692 7.31659 14.2692 7.70711 13.8787L14 7.58579V3C14 2.44772 13.5523 2 13 2L8.41422 2ZM15 8V3C15 1.89543 14.1046 1 13 1L8 1L1.41422 7.58579C0.633169 8.36684 0.633167 9.63316 1.41422 10.4142L5.58579 14.5858C6.36684 15.3668 7.63317 15.3668 8.41422 14.5858L15 8ZM3.25736 9.20709L8.91422 3.55024L9.62132 4.25734L3.96447 9.9142L3.25736 9.20709ZM11.0355 7.08577L6.08578 12.0355L6.79289 12.7426L11.7426 7.79288L11.0355 7.08577ZM4.67158 10.6213L8.91422 6.3787L9.62132 7.0858L5.37868 11.3284L4.67158 10.6213ZM12 5C12.5523 5 13 4.55228 13 4C13 3.44772 12.5523 3 12 3C11.4477 3 11 3.44772 11 4C11 4.55228 11.4477 5 12 5Z"/>
</svg>
