<svg width="16" height="16" viewBox="0 0 16 16" xmlns="http://www.w3.org/2000/svg"><style>@import '../colors.css';</style>
<path fill-rule="evenodd" clip-rule="evenodd" d="M8 8.96456V6H5.03544C5.2547 7.53285 6.46715 8.7453 8 8.96456ZM4.02746 5C4.27619 2.75002 6.18372 1 8.5 1C10.9853 1 13 3.01472 13 5.5C13 7.81628 11.25 9.72381 9 9.97254V12H1V5H4.02746ZM5.03544 5C5.27806 3.30385 6.73676 2 8.5 2C10.433 2 12 3.567 12 5.5C12 7.26324 10.6961 8.72194 9 8.96456V5H5.03544ZM8 9.97254V11H2V6H4.02746C4.25804 8.08581 5.91419 9.74196 8 9.97254ZM7 15H8.41421H14H15V14V8.41421V7L14 8L8 14L7 15ZM14 9.41421L9.41421 14H14V9.41421Z"/>
</svg>
