<svg width="16" height="16" viewBox="0 0 16 16" xmlns="http://www.w3.org/2000/svg"><style>@import '../colors.css';</style>
<path fill-rule="evenodd" clip-rule="evenodd" d="M3.79289 0H15V10.5L14.7143 10.2857L14 9.3333V1H4.20711L1 4.20711V14H9.33337L10.2857 14.7143L10.5 15H0V3.79289L3.79289 0ZM11 11L12.5 9L14 11H13V12H14V11L16 12.5L14 14V13H13V14H14L12.5 16L11 14H12V13H11V14L9 12.5L11 11ZM11 11H12V12H11V11Z"/>
<path fill-rule="evenodd" clip-rule="evenodd" d="M12.5 9L11 11L9 12.5L11 14L12.5 16L14 14L16 12.5L14 11L12.5 9ZM14 11V12H13V11H14ZM14 14H13V13H14V14ZM11 14V13H12V14H11ZM11 11V12H12V11H11Z"/>
</svg>
