<svg width="16" height="16" viewBox="0 0 16 16" xmlns="http://www.w3.org/2000/svg"><style>@import '../colors.css';</style>
<g clip-path="url(#clip0_1137_23)">
<path fill-rule="evenodd" clip-rule="evenodd" d="M0 0H3V1H12V0H15V3H14V8H13V3H12V2H3V3H2V12H3V13H8V14H3V15H0V12H1V3H0V0ZM13.25 9H11.75V10.1144C11.3962 10.2256 11.0763 10.4132 10.8097 10.6581L9.84393 10.1005L9.09393 11.3995L10.0592 11.9568C10.0205 12.1317 10 12.3135 10 12.5C10 12.6865 10.0205 12.8683 10.0592 13.0432L9.09396 13.6005L9.84396 14.8995L10.8097 14.342C11.0763 14.5868 11.3962 14.7744 11.75 14.8856V16H13.25V14.8855C13.6039 14.7744 13.9238 14.5868 14.1904 14.342L15.1561 14.8995L15.9061 13.6005L14.9409 13.0432C14.9796 12.8683 15 12.6865 15 12.5C15 12.3135 14.9796 12.1317 14.9409 11.9568L15.9061 11.3995L15.1561 10.1005L14.1904 10.6581C13.9238 10.4132 13.6039 10.2256 13.25 10.1145V9ZM13.5 12.5C13.5 13.0523 13.0523 13.5 12.5 13.5C11.9477 13.5 11.5 13.0523 11.5 12.5C11.5 11.9477 11.9477 11.5 12.5 11.5C13.0523 11.5 13.5 11.9477 13.5 12.5Z"/>
</g>
<defs>
<clipPath id="clip0_1137_23">
<rect width="16" height="16" fill="white"/>
</clipPath>
</defs>
</svg>
