<svg width="16" height="16" viewBox="0 0 16 16" xmlns="http://www.w3.org/2000/svg"><style>@import '../colors.css';</style>
<g clip-path="url(#clip0_933_1974)">
<path fill-rule="evenodd" clip-rule="evenodd" d="M5 2H9H10V3H9V10.5565C8.69526 10.9024 8.49443 11.3096 8.3987 11.7351C8.26345 11.7663 8.13009 11.8082 8 11.8608V3H6V12H5V8C3.34315 8 2 6.65685 2 5C2 3.34315 3.34315 2 5 2Z"/>
<path fill-rule="evenodd" clip-rule="evenodd" d="M13.8941 8.09797C14.2679 7.91941 14.7292 7.98493 15.0388 8.29454C15.3484 8.60415 15.4139 9.06541 15.2354 9.43921L12.4078 13.2484C12.3468 13.3405 12.2757 13.4279 12.1945 13.5091C11.9295 13.7741 11.5979 13.9318 11.2536 13.9822L9.35112 12.0797C9.40155 11.7354 9.55925 11.4038 9.82423 11.1388C9.9054 11.0577 9.99283 10.9866 10.085 10.9255L13.8941 8.09797ZM7.82149 13.1548C8.14573 12.8306 8.57032 12.6679 8.99529 12.6667L10.6667 14.338C10.6655 14.763 10.5028 15.1876 10.1785 15.5118C9.85188 15.8385 9.4234 16.0012 8.99529 16L6.66667 16C6.29848 16 6 15.7015 6 15.3333C6 14.9651 6.29848 14.6667 6.66667 14.6667C7.2 14.6667 7.35566 14.2222 7.36682 14C7.42973 13.6903 7.58129 13.395 7.82149 13.1548Z"/>
</g>
<defs>
<clipPath id="clip0_933_1974">
<rect width="16" height="16" fill="white"/>
</clipPath>
</defs>
</svg>
