<svg width="16" height="16" viewBox="0 0 16 16" xmlns="http://www.w3.org/2000/svg"><style>@import '../colors.css';</style>
<path fill-rule="evenodd" clip-rule="evenodd" d="M1.45732 9.625C1.50165 9.73246 1.54225 9.83088 1.57878 9.91C3.10186 9.42845 4.39821 8.76726 5.48176 7.88579C6.1543 8.46239 6.92532 8.94412 7.81294 9.32803L8.29485 8.05736C7.6348 7.74921 7.05415 7.37245 6.49102 6.93361C7.41464 5.92347 8.13888 4.68944 8.67678 3.19344H10.1408V2.00342H6.15914V1H4.92174V2.00342H1V3.19344H2.43976C2.48398 3.31478 3.30538 5.52589 4.5697 6.97915C3.55174 7.76383 2.48727 8.33485 1.00038 8.73006C1.17725 8.94605 1.33214 9.32153 1.45732 9.625ZM3.76915 3.19344H7.27328C6.85106 4.33179 6.28097 5.28569 5.55344 6.0779C4.78452 5.25734 4.19423 4.28682 3.76915 3.19344ZM6.5 14.0426V15H9.36322V14.0426L8.75352 13.9317L9.17792 12.6823H12.3281L12.7525 13.9317L12.1368 14.0426V15H15V14.0426L14.3783 13.955L11.5749 6.5H9.95499L7.12764 13.955L6.5 14.0426ZM11.9276 11.4856H9.57841L10.6484 8.47321L10.738 8.21635H10.7739L10.8576 8.46154L11.9276 11.4856Z"/>
</svg>
