<svg width="16" height="16" viewBox="0 0 16 16" xmlns="http://www.w3.org/2000/svg"><style>@import '../colors.css';</style>
<path fill-rule="evenodd" clip-rule="evenodd" d="M3 0H4V2H3V0ZM5 13.8736V15H8.36849V13.8736L7.6512 13.7431L8.15049 12.2734H11.8565L12.3558 13.7431L11.6315 13.8736V15H15V13.8736L14.2686 13.7706L10.9705 5H9.0647L5.7384 13.7706L5 13.8736ZM11.3854 10.8654H8.62166L9.88045 7.32143L9.98594 7.01923H10.0281L10.1266 7.30769L11.3854 10.8654ZM4 10H3V16H4V10ZM0.5 6.6993V8H2.07343V6.69231C2.07343 6.27739 2.12471 5.89744 2.22727 5.55245C2.32984 5.2028 2.48135 4.86014 2.68182 4.52448L1.77273 4C1.52098 4.21445 1.29953 4.47552 1.10839 4.78322C0.917249 5.08625 0.768065 5.40559 0.660839 5.74126C0.553613 6.07226 0.5 6.39161 0.5 6.6993ZM2.82168 6.6993V8H4.39511V6.69231C4.39511 6.27739 4.44639 5.89744 4.54895 5.55245C4.65152 5.2028 4.80303 4.86014 5.0035 4.52448L4.09441 4C3.84266 4.21445 3.62121 4.47552 3.43007 4.78322C3.23893 5.08625 3.08974 5.40559 2.98252 5.74126C2.87529 6.07226 2.82168 6.39161 2.82168 6.6993Z"/>
</svg>
