<svg width="16" height="16" viewBox="0 0 16 16" xmlns="http://www.w3.org/2000/svg"><style>@import '../colors.css';</style>
<path fill-rule="evenodd" clip-rule="evenodd" d="M12 0H13V2H12V0ZM1 13.8736V15H4.36849V13.8736L3.6512 13.7431L4.15049 12.2734H7.85654L8.35584 13.7431L7.63151 13.8736V15H11V13.8736L10.2686 13.7706L6.97046 5H5.0647L1.7384 13.7706L1 13.8736ZM7.38537 10.8654H4.62166L5.88045 7.32143L5.98594 7.01923H6.02813L6.12658 7.30769L7.38537 10.8654ZM13 10H12V16H13V10ZM10.55 7.46528L11.4597 8C11.7051 7.78241 11.9204 7.52315 12.1056 7.22222C12.2954 6.9213 12.4435 6.60417 12.55 6.27083C12.6611 5.93287 12.7167 5.61111 12.7167 5.30556V4H11.1542V5.3125C11.1542 5.7338 11.1032 6.11806 11.0014 6.46528C10.8995 6.80787 10.7491 7.1412 10.55 7.46528ZM12.8417 7.46528L13.7514 8C13.9968 7.78241 14.212 7.52315 14.3972 7.22222C14.587 6.9213 14.7352 6.60417 14.8417 6.27083C14.9528 5.93287 15.0083 5.61111 15.0083 5.30556V4H13.4458V5.3125C13.4458 5.7338 13.3949 6.11806 13.2931 6.46528C13.1912 6.80787 13.0407 7.1412 12.8417 7.46528Z"/>
</svg>
