<svg width="16" height="16" viewBox="0 0 16 16" xmlns="http://www.w3.org/2000/svg"><style>@import '../colors.css';</style>
<g clip-path="url(#clip0_1601_51)">
<path fill-rule="evenodd" clip-rule="evenodd" d="M6 6C6 7.65685 4.65685 9 3 9C1.34315 9 0 7.65685 0 6C0 2.68629 2.68629 0 6 0C7.65685 0 9 1.34315 9 3C9 4.65685 7.65685 6 6 6ZM6 5C5.44772 5 5 5.44772 5 6C5 7.10457 4.10457 8 3 8C1.89543 8 1 7.10457 1 6C1 3.23858 3.23858 1 6 1C7.10457 1 8 1.89543 8 3C8 4.10457 7.10457 5 6 5Z"/>
<path fill-rule="evenodd" clip-rule="evenodd" d="M13.25 5H15L12.5 7.5L10 5H11.75C11.75 4.36464 11.2379 3.75 10.5 3.75C10.0858 3.75 9.75 3.41421 9.75 3C9.75 2.58579 10.0858 2.25 10.5 2.25C12.1621 2.25 13.25 3.63536 13.25 5Z"/>
<path fill-rule="evenodd" clip-rule="evenodd" d="M16 8H8V16H16V8ZM15 9H9V15H15V9Z"/>
<path fill-rule="evenodd" clip-rule="evenodd" d="M6 4C4.89543 4 4 4.89543 4 6C4 6.55228 3.55228 7 3 7C2.44772 7 2 6.55228 2 6C2 3.79086 3.79086 2 6 2C6.55228 2 7 2.44772 7 3C7 3.55228 6.55228 4 6 4Z" fill-opacity="0.4"/>
</g>
<defs>
<clipPath id="clip0_1601_51">
<rect width="16" height="16" fill="white" transform="matrix(0 1 -1 0 16 0)"/>
</clipPath>
</defs>
</svg>
