<svg width="16" height="16" viewBox="0 0 16 16" xmlns="http://www.w3.org/2000/svg"><style>@import '../colors.css';</style>
<path d="M15.2634 8.33376C14.8183 7.88875 14.0968 7.88875 13.6518 8.33376L13.2489 8.73664L15.2634 10.7511L15.6662 10.3482C16.1113 9.90316 16.1113 9.18165 15.6662 8.73664L15.2634 8.33376Z"/>
<path d="M14.5558 11.4586L12.5414 9.44423L8.41436 13.5712L8.01503 15.3017C7.92035 15.712 8.28804 16.0797 8.69831 15.985L10.4288 15.5856L14.5558 11.4586Z"/>
<path fill-rule="evenodd" clip-rule="evenodd" d="M9.5 6C7.567 6 6 7.567 6 9.5C6 10.0523 5.55228 10.5 5 10.5C4.44772 10.5 4 10.0523 4 9.5C4 6.46243 6.46243 4 9.5 4C10.0523 4 10.5 4.44772 10.5 5C10.5 5.55228 10.0523 6 9.5 6Z" fill-opacity="0.4"/>
<path fill-rule="evenodd" clip-rule="evenodd" d="M9.5 9C9.22386 9 9 9.22386 9 9.5C9 11.7091 7.20914 13.5 5 13.5C2.79086 13.5 1 11.7091 1 9.5C1 4.80558 4.80558 1 9.5 1C11.7091 1 13.5 2.79086 13.5 5C13.5 7.20914 11.7091 9 9.5 9ZM8 9.5C8 8.67157 8.67157 8 9.5 8C11.1569 8 12.5 6.65685 12.5 5C12.5 3.34315 11.1569 2 9.5 2C5.35786 2 2 5.35786 2 9.5C2 11.1569 3.34315 12.5 5 12.5C6.65685 12.5 8 11.1569 8 9.5Z"/>
</svg>
