<svg width="16" height="16" viewBox="0 0 16 16" xmlns="http://www.w3.org/2000/svg"><style>@import '../colors.css';</style>
<path fill-rule="evenodd" clip-rule="evenodd" d="M7 12C7.65503 10.2522 9.42246 9 11.5 9C13.5775 9 15.345 10.2522 16 12C15.345 13.7478 13.5775 15 11.5 15C9.42246 15 7.65503 13.7478 7 12ZM13.5 12C13.5 13.1046 12.6046 14 11.5 14C10.3954 14 9.5 13.1046 9.5 12C9.5 10.8954 10.3954 10 11.5 10C12.6046 10 13.5 10.8954 13.5 12ZM11.5 13C12.0523 13 12.5 12.5523 12.5 12C12.5 11.4477 12.0523 11 11.5 11C10.9477 11 10.5 11.4477 10.5 12C10.5 12.5523 10.9477 13 11.5 13Z"/>
<path d="M10 3.00376V2C5.69597 2.24966 2.24967 5.69597 2 10H3.00375C3.25062 6.24947 6.24947 3.25062 10 3.00376Z" fill-opacity="0.4"/>
<path fill-rule="evenodd" clip-rule="evenodd" d="M10 1L14 1V5H10V1ZM11 2H13V4H11V2ZM1 10H5V14H1V10ZM2 11H4V13H2V11Z"/>
</svg>
