<svg width="16" height="16" viewBox="0 0 16 16" xmlns="http://www.w3.org/2000/svg"><style>@import '../colors.css';</style>
<g clip-path="url(#clip0_1595_123)">
<path fill-rule="evenodd" clip-rule="evenodd" d="M6 4C4.89543 4 4 4.89543 4 6C4 6.55228 3.55228 7 3 7C2.44772 7 2 6.55228 2 6C2 3.79086 3.79086 2 6 2C6.55228 2 7 2.44772 7 3C7 3.55228 6.55228 4 6 4Z" fill-opacity="0.4"/>
<path fill-rule="evenodd" clip-rule="evenodd" d="M6 6C6 7.65685 4.65685 9 3 9C1.34315 9 0 7.65685 0 6C0 2.68629 2.68629 0 6 0C7.65685 0 9 1.34315 9 3C9 4.65685 7.65685 6 6 6ZM6 5C5.44772 5 5 5.44772 5 6C5 7.10457 4.10457 8 3 8C1.89543 8 1 7.10457 1 6C1 3.23858 3.23858 1 6 1C7.10457 1 8 1.89543 8 3C8 4.10457 7.10457 5 6 5Z"/>
<path fill-rule="evenodd" clip-rule="evenodd" d="M13.25 5H15L12.5 7.5L10 5H11.75C11.75 4.36464 11.2379 3.75 10.5 3.75C10.0858 3.75 9.75 3.41421 9.75 3C9.75 2.58579 10.0858 2.25 10.5 2.25C12.1621 2.25 13.25 3.63536 13.25 5Z"/>
<path fill-rule="evenodd" clip-rule="evenodd" d="M11 10.5C11 10.7316 10.9475 10.9509 10.8538 11.1467L11.5 11.7929L13.7929 9.5H15V9.7071L12.2071 12.5L15 15.2929V15.5H13.7929L11.5 13.2071L10.8538 13.8533C10.9475 14.0491 11 14.2684 11 14.5C11 15.3284 10.3284 16 9.5 16C8.67157 16 8 15.3284 8 14.5C8 13.6716 8.67157 13 9.5 13C9.73157 13 9.95089 13.0525 10.1467 13.1462L10.7929 12.5L10.1467 11.8538C9.95089 11.9475 9.73157 12 9.5 12C8.67157 12 8 11.3284 8 10.5C8 9.67157 8.67157 9 9.5 9C10.3284 9 11 9.67157 11 10.5ZM10.25 10.5C10.25 10.9142 9.91421 11.25 9.5 11.25C9.08579 11.25 8.75 10.9142 8.75 10.5C8.75 10.0858 9.08579 9.75 9.5 9.75C9.91421 9.75 10.25 10.0858 10.25 10.5ZM10.25 14.5C10.25 14.9142 9.91421 15.25 9.5 15.25C9.08579 15.25 8.75 14.9142 8.75 14.5C8.75 14.0858 9.08579 13.75 9.5 13.75C9.91421 13.75 10.25 14.0858 10.25 14.5ZM11.5 12.75C11.6381 12.75 11.75 12.6381 11.75 12.5C11.75 12.3619 11.6381 12.25 11.5 12.25C11.3619 12.25 11.25 12.3619 11.25 12.5C11.25 12.6381 11.3619 12.75 11.5 12.75ZM6 12H8V13H6V12ZM5 12H3V13H5V12ZM16 12H14V13H16V12Z"/>
</g>
<defs>
<clipPath id="clip0_1595_123">
<rect width="16" height="16" fill="white" transform="matrix(0 1 -1 0 16 0)"/>
</clipPath>
</defs>
</svg>
