<svg width="16" height="16" viewBox="0 0 16 16" xmlns="http://www.w3.org/2000/svg"><style>@import '../colors.css';</style>
<path fill-rule="evenodd" clip-rule="evenodd" d="M8.5 1.5C8.5 1.08579 8.83579 0.75 9.25 0.75C9.62002 0.75 10.1583 0.854836 10.6257 1.19135C10.6682 1.2219 10.7096 1.25412 10.75 1.288C10.7904 1.25412 10.8318 1.2219 10.8743 1.19135C11.3417 0.854836 11.88 0.75 12.25 0.75C12.6642 0.75 13 1.08579 13 1.5C13 1.91421 12.6642 2.25 12.25 2.25C12.12 2.25 11.9083 2.29516 11.7507 2.40865C11.6314 2.4946 11.5 2.64444 11.5 3V4H15C15.5523 4 16 4.44772 16 5V11C16 11.5523 15.5523 12 15 12H11.5C11.5 12.13 11.5452 12.3417 11.6587 12.4993C11.7446 12.6186 11.8944 12.75 12.25 12.75C12.6642 12.75 13 13.0858 13 13.5C13 13.9142 12.6642 14.25 12.25 14.25C11.6115 14.25 11.1127 14.0393 10.75 13.7179C10.3873 14.0393 9.88847 14.25 9.25 14.25C8.83579 14.25 8.5 13.9142 8.5 13.5C8.5 13.0858 8.83579 12.75 9.25 12.75C9.60556 12.75 9.7554 12.6186 9.84135 12.4993C9.95484 12.3417 10 12.13 10 12H1C0.447715 12 0 11.5523 0 11V5C0 4.44772 0.447715 4 1 4H10V3C10 2.64444 9.86865 2.4946 9.74927 2.40865C9.59165 2.29516 9.37998 2.25 9.25 2.25C8.83579 2.25 8.5 1.91421 8.5 1.5ZM10 5H1V11H10V5ZM11.5 11H15V5H11.5V11Z"/>
</svg>
