<svg width="16" height="16" viewBox="0 0 16 16" xmlns="http://www.w3.org/2000/svg"><style>@import '../colors.css';</style>
<g clip-path="url(#clip0_933_2982)">
<path fill-rule="evenodd" clip-rule="evenodd" d="M2 2C1.44772 2 1 2.44772 1 3V8C1 8.55228 1.44772 9 2 9H14C14.5523 9 15 8.55228 15 8V3C15 2.44772 14.5523 2 14 2H2ZM14 3H2V8H14V3Z"/>
<path fill-rule="evenodd" clip-rule="evenodd" d="M4.96696 5.63188L6.05935 13.0408C6.17381 13.8171 7.09695 14.1651 7.69543 13.6576L8.47046 13.0004L9.40904 14.626C9.68518 15.1043 10.2968 15.2682 10.7751 14.9921L11.7837 14.4097C12.262 14.1336 12.4259 13.522 12.1497 13.0437L11.2113 11.4183L12.163 11.0778C12.9019 10.8134 13.0622 9.83975 12.447 9.35241L6.57724 4.70219C5.86716 4.13964 4.83482 4.73565 4.96696 5.63188Z"/>
</g>
<defs>
<clipPath id="clip0_933_2982">
<rect width="16" height="16" fill="white"/>
</clipPath>
</defs>
</svg>
