<svg width="16" height="16" viewBox="0 0 16 16" xmlns="http://www.w3.org/2000/svg"><style>@import '../colors.css';</style>
<path fill-rule="evenodd" clip-rule="evenodd" d="M2 1C0.895431 1 0 1.89543 0 3V11C0 12.1046 0.895431 13 2 13H4V16H5L7 13H14C15.1046 13 16 12.1046 16 11V3C16 1.89543 15.1046 1 14 1H2ZM12 4.21429L8 2.5L4 4.21429V9.37368L8 11.088L12 9.37368V4.21429ZM7.5 6.37368L5 5.30225V8.71429L7.5 9.78572V6.37368ZM11 8.71429L8.5 9.78572V6.37368L11 5.30225V8.71429ZM10.2307 4.54398L8 5.5L5.7693 4.54398L8 3.58797L10.2307 4.54398Z"/>
</svg>
