<svg width="16" height="16" viewBox="0 0 16 16" xmlns="http://www.w3.org/2000/svg"><style>@import '../colors.css';</style>
<path fill-rule="evenodd" clip-rule="evenodd" d="M12 0H4V1H2V3L4 5V6H2V8L4 10V11H2V13L4 15V16H12V15L14 13V11H12V10L14 8V6H12V5L14 3V1H12V0ZM8 5C9.10457 5 10 4.10457 10 3C10 1.89543 9.10457 1 8 1C6.89543 1 6 1.89543 6 3C6 4.10457 6.89543 5 8 5ZM10 8C10 9.10457 9.10457 10 8 10C6.89543 10 6 9.10457 6 8C6 6.89543 6.89543 6 8 6C9.10457 6 10 6.89543 10 8ZM8 15C9.10457 15 10 14.1046 10 13C10 11.8954 9.10457 11 8 11C6.89543 11 6 11.8954 6 13C6 14.1046 6.89543 15 8 15Z"/>
</svg>
