<svg width="16" height="16" viewBox="0 0 16 16" xmlns="http://www.w3.org/2000/svg"><style>@import '../colors.css';</style>
<path fill-rule="evenodd" clip-rule="evenodd" d="M1 10H2.58673L3.25959 8H6.73283L7.40724 10H9L5.68175 1H4.30618L1 10ZM4.99422 2.84402L3.68013 6.75H6.31133L4.99422 2.84402ZM8.24355 14.0824C8.16619 14.0405 8.1318 13.9944 8.1404 13.9441L9.20029 12H12.385L12.5888 14.0824C12.5802 14.1075 12.5287 14.1327 12.4341 14.1578C12.3395 14.1746 12.2106 14.1872 12.0473 14.1955C11.8926 14.2039 11.7163 14.2081 11.5186 14.2081H11.351L11.1705 15H14.8066L15 14.2081H14.9226C14.6819 14.2081 14.4928 14.1704 14.3553 14.095C14.2264 14.0196 14.1447 13.8478 14.1103 13.5796L13.298 6H11.5057L7.35387 13.5419C7.20774 13.8184 7.04441 13.9986 6.8639 14.0824C6.69198 14.1662 6.48997 14.2081 6.25788 14.2081H6.18052L6 15H9.09456L9.27507 14.2081H9.12034C8.93123 14.2081 8.75931 14.1997 8.60458 14.183C8.44986 14.1578 8.32951 14.1243 8.24355 14.0824ZM9.60917 11.25H12.3116L11.9004 7.04732L9.60917 11.25Z"/>
</svg>
