<svg width="16" height="16" viewBox="0 0 16 16" xmlns="http://www.w3.org/2000/svg"><style>@import '../colors.css';</style>
<path fill-rule="evenodd" clip-rule="evenodd" d="M7 1H9L9.5 3V3.2289C10.2076 3.45115 10.8474 3.82648 11.3807 4.31607L11.5801 4.20093L13.5622 3.63394L14.5622 5.36599L13.0801 6.799L12.8816 6.91359C12.9591 7.26336 13 7.62691 13 8C13 8.37309 12.9591 8.73663 12.8816 9.08639L13.0801 9.201L14.5622 10.634L13.5622 12.3661L11.5801 11.7991L11.3807 11.6839C10.8475 12.1735 10.2076 12.5488 9.5 12.7711V13L9 15H7L6.5 13V12.7711C5.79235 12.5488 5.1525 12.1735 4.61926 11.6839L4.41986 11.799L2.43781 12.366L1.43781 10.6339L2.91986 9.20093L3.11834 9.08633C3.04085 8.73659 3 8.37306 3 8C3 7.62693 3.04086 7.2634 3.11834 6.91365L2.91988 6.79907L1.43783 5.36606L2.43783 3.63401L4.41988 4.201L4.61927 4.31612C5.15251 3.8265 5.79236 3.45116 6.5 3.2289V3L7 1ZM8 10C9.10457 10 10 9.10457 10 8C10 6.89543 9.10457 6 8 6C6.89543 6 6 6.89543 6 8C6 9.10457 6.89543 10 8 10Z"/>
</svg>
