<svg width="16" height="16" viewBox="0 0 16 16" xmlns="http://www.w3.org/2000/svg"><style>@import '../colors.css';</style>
<path fill-rule="evenodd" clip-rule="evenodd" d="M0 1H16V8H15V4H1V14H8V15H0V1ZM11.75 9H13.25V10.1145C13.6039 10.2256 13.9238 10.4132 14.1904 10.6581L15.1561 10.1005L15.9061 11.3995L14.9409 11.9568C14.9796 12.1317 15 12.3135 15 12.5C15 12.6865 14.9796 12.8683 14.9409 13.0432L15.9061 13.6005L15.1561 14.8995L14.1904 14.342C13.9238 14.5868 13.6039 14.7744 13.25 14.8855V16H11.75V14.8856C11.3962 14.7744 11.0763 14.5868 10.8097 14.342L9.84396 14.8995L9.09396 13.6005L10.0592 13.0432C10.0205 12.8683 10 12.6865 10 12.5C10 12.3135 10.0205 12.1317 10.0592 11.9568L9.09393 11.3995L9.84393 10.1005L10.8097 10.6581C11.0763 10.4132 11.3962 10.2256 11.75 10.1144V9ZM12.5 13.5C13.0523 13.5 13.5 13.0523 13.5 12.5C13.5 11.9477 13.0523 11.5 12.5 11.5C11.9477 11.5 11.5 11.9477 11.5 12.5C11.5 13.0523 11.9477 13.5 12.5 13.5ZM10 6H2V7H10V6ZM2 8H9V9H2V8ZM8 10H2V11H8V10Z"/>
</svg>
