<svg width="16" height="16" viewBox="0 0 16 16" xmlns="http://www.w3.org/2000/svg"><style>@import '../colors.css';</style>
<path fill-rule="evenodd" clip-rule="evenodd" d="M6 6.15522V7H8.68681V6.15522L8.06456 6.02335V1.98077L8.68681 1.8489V1H6V1.8489L6.62225 1.98077V6.02335L6 6.15522ZM9.48214 1.91484L11.3613 7H12.9272L14.6085 1.91484L15.1937 1.8489V1H12.6799V1.8489L13.3228 1.93132L12.2802 5.31456L12.2266 5.53709H12.2019L12.1442 5.3022L11.0687 1.93132L11.6044 1.8489V1H8.91346V1.8489L9.48214 1.91484ZM5 6H2V7H5V6ZM9 14H2V15H9V14ZM12.1421 15.1301C11.7575 15.1301 11.4006 15.0582 11.0713 14.9143C10.742 14.7704 10.4792 14.5684 10.2827 14.3083C10.0863 14.0455 9.9922 13.7397 10.0005 13.3911L10.0088 13.3745L11.4365 13.2791C11.4365 13.5115 11.5002 13.6941 11.6275 13.8269C11.7575 13.957 11.9291 14.022 12.1421 14.022C12.3856 14.022 12.5571 13.9334 12.6568 13.7563C12.7591 13.5793 12.8103 13.3621 12.8103 13.1047C12.8103 12.7838 12.7536 12.5292 12.6402 12.3411C12.5267 12.1529 12.3441 12.0588 12.0923 12.0588C11.9208 12.0588 11.7796 12.099 11.669 12.1792C11.5611 12.2567 11.485 12.3521 11.4407 12.4656L10.125 12.395L10.4736 9H14.1301V10.49H13.3001L13.1756 10.1248H11.6607L11.5029 11.3284C11.5749 11.2786 11.6579 11.2343 11.752 11.1956C11.8488 11.1568 11.9526 11.1264 12.0632 11.1042C12.1767 11.0793 12.2929 11.0669 12.4119 11.0669C12.8103 11.0586 13.1465 11.1333 13.4204 11.291C13.6971 11.4487 13.906 11.6798 14.0471 11.9841C14.1882 12.2885 14.2588 12.6593 14.2588 13.0964C14.2588 13.4727 14.1772 13.8158 14.0139 14.1257C13.8507 14.4329 13.6113 14.6777 13.2959 14.8604C12.9805 15.0402 12.5959 15.1301 12.1421 15.1301Z"/>
</svg>
