<svg width="16" height="16" viewBox="0 0 16 16" xmlns="http://www.w3.org/2000/svg"><style>@import '../colors.css';</style>
<path fill-rule="evenodd" clip-rule="evenodd" d="M12.5 16C14.433 16 16 14.433 16 12.5C16 10.567 14.433 9 12.5 9C10.567 9 9 10.567 9 12.5C9 14.433 10.567 16 12.5 16ZM12 10H13V12H15V13H13V15H12V13H10V12H12V10Z"/>
<path fill-rule="evenodd" clip-rule="evenodd" d="M10.8907 1.58408C11.6695 0.805307 12.9321 0.805308 13.7109 1.58408L14.4159 2.28912C15.1947 3.06789 15.1947 4.33053 14.4159 5.1093L13.7109 5.81434L10.1857 2.28912L10.8907 1.58408ZM9.48062 2.99417L13.0058 6.51938L11.3864 8.13886C9.79587 8.54378 8.54378 9.79587 8.13886 11.3864L5.25035 14.2749L2.22205 14.9737C1.50407 15.1394 0.860609 14.4959 1.02629 13.778L1.72513 10.7496L9.48062 2.99417Z"/>
</svg>
