<svg width="16" height="16" viewBox="0 0 16 16" xmlns="http://www.w3.org/2000/svg"><style>@import '../colors.css';</style>
<path fill-rule="evenodd" clip-rule="evenodd" d="M16 1H0V2H16V1ZM6 3H0V4H6V3ZM0 5H5V6H0V5ZM4 7H0V8H4V7ZM0 9H3V10H0V9ZM2 11H0V12H2V11ZM0 13H16V14H0V13ZM16 3H10V4H16V3ZM11 5H16V6H11V5ZM16 7H12V8H16V7ZM13 9H16V10H13V9ZM16 11H14V12H16V11Z"/>
<path fill-rule="evenodd" clip-rule="evenodd" d="M10.9619 8.3314L13 12H9V11H11.25L10.0802 8.84043L10.9619 8.3314ZM9.99047 6.58285L8 3L6.00953 6.58285L6.87268 7.0812L8 5L9.12731 7.0812L9.99047 6.58285ZM5.91977 8.84043L4.75 11H7V12H3L5.03811 8.33141L5.91977 8.84043Z" class="error"/>
</svg>
