<svg width="16" height="16" viewBox="0 0 16 16" xmlns="http://www.w3.org/2000/svg"><style>@import '../colors.css';</style>
<path fill-rule="evenodd" clip-rule="evenodd" d="M12.8766 10.8027C13.0992 10.9342 13.3701 11 13.6894 11C14.1152 11 14.4749 10.8887 14.7684 10.666C15.0651 10.4434 15.2893 10.1297 15.4409 9.72486C15.5957 9.31668 15.6731 8.83934 15.6731 8.29285V8.18659C15.6731 7.60299 15.5957 7.09699 15.4409 6.66856C15.2893 6.23677 15.0667 5.90449 14.7732 5.67173C14.4829 5.43559 14.1281 5.31752 13.7088 5.31752C13.425 5.31752 13.175 5.37487 12.9589 5.48956C12.7428 5.60426 12.5621 5.76787 12.417 5.98039V3H10.1334V3.96142L10.8736 4.11828V10.8937H12.209L12.3154 10.2309C12.467 10.4805 12.6541 10.6711 12.8766 10.8027ZM13.9168 9.38077C13.7781 9.62703 13.5411 9.75016 13.2056 9.75016C13.0347 9.75016 12.8831 9.71474 12.7508 9.6439C12.6186 9.57305 12.5073 9.46679 12.417 9.32511V7.07843C12.4944 6.92326 12.6008 6.80013 12.7363 6.70904C12.875 6.61459 13.0379 6.56736 13.225 6.56736C13.4379 6.56736 13.6104 6.63314 13.7427 6.76471C13.8749 6.89289 13.9717 7.07674 14.033 7.31626C14.0975 7.55577 14.1297 7.84588 14.1297 8.18659V8.29285C14.1297 8.7685 14.0588 9.13114 13.9168 9.38077ZM5.46447 10.5598C5.77734 10.8533 6.19182 11 6.70789 11C7.01109 11 7.26913 10.9376 7.48201 10.8128C7.69489 10.688 7.88358 10.5193 8.04808 10.3068C8.06421 10.4113 8.09324 10.5159 8.13517 10.6205C8.1771 10.7251 8.21742 10.8162 8.25612 10.8937H10.114V9.93738L9.56244 9.8463C9.54954 9.77883 9.54148 9.70968 9.53825 9.63884V9.41113V7.26565C9.53825 6.64158 9.33505 6.16087 8.92864 5.82353C8.52223 5.48619 7.96906 5.31752 7.26913 5.31752C6.87562 5.31752 6.51759 5.36812 6.19504 5.46932C5.87249 5.57052 5.5693 5.69703 5.28546 5.84883L5.30481 7.31626H6.40792L6.5192 6.60784C6.60952 6.54375 6.70789 6.49483 6.81433 6.4611C6.924 6.42737 7.04496 6.4105 7.1772 6.4105C7.45137 6.4105 7.65457 6.48977 7.78682 6.64832C7.92229 6.80687 7.99002 7.00759 7.99002 7.25047V7.6148H7.36589C6.84336 7.6148 6.40631 7.68902 6.05473 7.83744C5.70316 7.98587 5.43867 8.19165 5.26126 8.45478C5.08709 8.7179 5 9.01982 5 9.36053C5 9.86317 5.15482 10.2629 5.46447 10.5598ZM7.62232 9.7198C7.47072 9.79401 7.31428 9.83112 7.15301 9.83112C6.96593 9.83112 6.81595 9.78052 6.70305 9.67932C6.59339 9.57812 6.53855 9.43643 6.53855 9.25427C6.53855 9.06536 6.60952 8.90681 6.75144 8.77862C6.89658 8.65043 7.10463 8.58634 7.37557 8.58634H7.99002V9.41619C7.89648 9.54438 7.77391 9.64558 7.62232 9.7198ZM16 12H0V13H16V12Z"/>
<path fill-rule="evenodd" clip-rule="evenodd" d="M0 7H1V8H3V7H4V10H3V9H1V10H0V7Z" class="error"/>
</svg>
