<svg width="16" height="16" viewBox="0 0 16 16" xmlns="http://www.w3.org/2000/svg"><style>@import '../colors.css';</style>
<path fill-rule="evenodd" clip-rule="evenodd" d="M8.68945 9C8.37012 9 8.09918 8.93422 7.87663 8.80266C7.65407 8.67109 7.46699 8.4805 7.31539 8.23087L7.20895 8.89374H5.8736V2.11828L5.13335 1.96142V1H7.41699V3.98039C7.56214 3.76787 7.74277 3.60426 7.95888 3.48956C8.17498 3.37487 8.42496 3.31752 8.7088 3.31752C9.12811 3.31752 9.48291 3.43559 9.77321 3.67173C10.0667 3.90449 10.2893 4.23677 10.4409 4.66856C10.5957 5.09699 10.6731 5.60299 10.6731 6.18659V6.29285C10.6731 6.83934 10.5957 7.31668 10.4409 7.72486C10.2893 8.12966 10.0651 8.44339 9.76837 8.66603C9.47485 8.88868 9.11521 9 8.68945 9ZM8.20562 7.75016C8.54107 7.75016 8.77815 7.62703 8.91684 7.38077C9.05876 7.13114 9.12972 6.7685 9.12972 6.29285V6.18659C9.12972 5.84588 9.09747 5.55577 9.03296 5.31626C8.97168 5.07674 8.87491 4.89289 8.74267 4.76471C8.61042 4.63314 8.43786 4.56736 8.22498 4.56736C8.0379 4.56736 7.87501 4.61459 7.73632 4.70904C7.60085 4.80013 7.49441 4.92326 7.41699 5.07843V7.32511C7.50731 7.46679 7.61859 7.57305 7.75083 7.6439C7.88308 7.71474 8.03467 7.75016 8.20562 7.75016ZM1.70789 9C1.19182 9 0.777341 8.85326 0.464469 8.55977C0.154823 8.26291 0 7.86317 0 7.36053C0 7.01982 0.087088 6.7179 0.261264 6.45478C0.438665 6.19165 0.703155 5.98587 1.05473 5.83744C1.40631 5.68902 1.84336 5.6148 2.36589 5.6148H2.99002V5.25047C2.99002 5.00759 2.92229 4.80687 2.78682 4.64832C2.65457 4.48977 2.45137 4.4105 2.1772 4.4105C2.04496 4.4105 1.924 4.42737 1.81433 4.4611C1.70789 4.49483 1.60952 4.54375 1.5192 4.60784L1.40792 5.31626H0.304808L0.285455 3.84883C0.569297 3.69703 0.872493 3.57052 1.19504 3.46932C1.51759 3.36812 1.87562 3.31752 2.26913 3.31752C2.96906 3.31752 3.52223 3.48619 3.92864 3.82353C4.33505 4.16087 4.53825 4.64158 4.53825 5.26565V7.41113V7.63884C4.54148 7.70968 4.54954 7.77883 4.56244 7.8463L5.114 7.93738V8.89374H3.25612C3.21742 8.81615 3.1771 8.72507 3.13517 8.62049C3.09324 8.51592 3.06421 8.41134 3.04808 8.30677C2.88358 8.51929 2.69489 8.68796 2.48201 8.81278C2.26913 8.93759 2.01109 9 1.70789 9ZM2.15301 7.83112C2.31428 7.83112 2.47072 7.79401 2.62232 7.7198C2.77391 7.64558 2.89648 7.54438 2.99002 7.41619V6.58634H2.37557C2.10463 6.58634 1.89658 6.65043 1.75144 6.77862C1.60952 6.90681 1.53855 7.06536 1.53855 7.25427C1.53855 7.43643 1.59339 7.57812 1.70305 7.67932C1.81595 7.78052 1.96593 7.83112 2.15301 7.83112ZM12.5116 8.64579C12.8826 8.88193 13.3229 9 13.8325 9C14.2969 9 14.6759 8.92579 14.9695 8.77736C15.263 8.62893 15.4904 8.41303 15.6516 8.12966C15.8161 7.84293 15.9323 7.49378 16 7.08223L15.9806 7.05187H14.6695C14.6114 7.28126 14.5163 7.45836 14.384 7.58318C14.255 7.70462 14.076 7.76534 13.847 7.76534C13.6857 7.76534 13.5325 7.71474 13.3874 7.61354C13.2454 7.50896 13.1309 7.34535 13.0438 7.12271C12.9568 6.89669 12.9132 6.59983 12.9132 6.23213V6.09551C12.9132 5.74468 12.9487 5.45119 13.0197 5.21505C13.0938 4.97892 13.2083 4.80013 13.3632 4.67868C13.5212 4.55387 13.726 4.49146 13.9776 4.49146C14.0712 4.49146 14.1712 4.51339 14.2776 4.55724C14.384 4.6011 14.4695 4.65676 14.534 4.72423L14.7275 5.71094H15.8887L15.9081 4.06641C15.6984 3.8775 15.4194 3.70546 15.0711 3.55028C14.7227 3.39511 14.3066 3.31752 13.8228 3.31752C13.3261 3.31752 12.8939 3.43559 12.5262 3.67173C12.1585 3.90786 11.873 4.23508 11.6698 4.65338C11.4666 5.07168 11.365 5.55239 11.365 6.09551V6.23213C11.365 6.7685 11.4634 7.24584 11.6601 7.66414C11.8601 8.07906 12.1439 8.40628 12.5116 8.64579ZM16 15H0V16H16V15Z"/>
<path fill-rule="evenodd" clip-rule="evenodd" d="M7 10H10V11H9V13H10V14H7V13H8V11H7V10Z" class="error"/>
</svg>
