<svg width="16" height="16" viewBox="0 0 16 16" xmlns="http://www.w3.org/2000/svg"><style>@import '../colors.css';</style>
<path fill-rule="evenodd" clip-rule="evenodd" d="M12.8412 3.14696C13.4019 2.87911 14.0938 2.9774 14.5582 3.44181C15.0226 3.90622 15.1209 4.59811 14.853 5.15881L10.6117 10.8726C10.5202 11.0108 10.4135 11.1419 10.2917 11.2637C9.89429 11.6611 9.39688 11.8977 8.88044 11.9733L6.02669 9.11957C6.10235 8.60313 6.3389 8.10572 6.73635 7.70827C6.85811 7.58651 6.98925 7.47985 7.12745 7.38829L12.8412 3.14696ZM3.73223 10.7322C4.21859 10.2459 4.85549 10.0018 5.49294 10L7.99999 12.5071C7.9982 13.1445 7.75413 13.7814 7.26777 14.2678C6.77781 14.7577 6.13509 15.0018 5.49294 15L2 15C1.44772 15 1 14.5523 1 14C1 13.4477 1.44772 13 2 13C2.8 13 3.03349 12.3333 3.05023 12C3.1446 11.5354 3.37193 11.0925 3.73223 10.7322Z"/>
<path d="M2.95555 5C1.1667 5.89443 0.455551 8 1.45555 10C1.45555 8.5 1.4787 7.3 3.95555 6.5C6.4324 5.7 7.39336 3.81344 6.95555 2.5C6.51774 1.18656 5.15475 1 3.95555 1C2.75636 1 1.45555 2 1.45555 2C4.45555 2 4.95555 4 2.95555 5Z" class="success"/>
</svg>
