<svg width="16" height="16" viewBox="0 0 16 16" xmlns="http://www.w3.org/2000/svg"><style>@import '../colors.css';</style>
<path fill-rule="evenodd" clip-rule="evenodd" d="M1 1H14V7.04924C13.6133 7.13352 13.2454 7.32599 12.9447 7.62665L7.50446 13.0669L7.28913 14H1V1ZM3 3H12V4H3V3ZM10 5H3V6H10V5ZM3 7H12V8H3V7ZM10 9H3V10H10V9ZM3 11H7V12H3V11ZM13.6518 8.33376C14.0968 7.88875 14.8183 7.88875 15.2634 8.33376L15.6662 8.73664C16.1113 9.18165 16.1113 9.90316 15.6662 10.3482L15.2634 10.7511L13.2489 8.73664L13.6518 8.33376ZM12.5414 9.44423L14.5558 11.4586L10.4288 15.5856L8.69831 15.985C8.28804 16.0797 7.92035 15.712 8.01503 15.3017L8.41436 13.5712L12.5414 9.44423Z"/>
</svg>
