<svg width="16" height="16" viewBox="0 0 16 16" xmlns="http://www.w3.org/2000/svg"><style>@import '../colors.css';</style>
<path d="M13.7109 1.58408C12.9321 0.805308 11.6695 0.805308 10.8907 1.58408L10.1857 2.28912L13.7109 5.81434L14.4159 5.1093C15.1947 4.33053 15.1947 3.06789 14.4159 2.28912L13.7109 1.58408Z"/>
<path d="M13.0058 6.51938L9.48062 2.99417L1.72513 10.7496L1.02629 13.778C0.860609 14.4959 1.50407 15.1394 2.22205 14.9737L5.25035 14.2749L13.0058 6.51938Z"/>
<path fill-rule="evenodd" clip-rule="evenodd" d="M3.5 2C2.67157 2 2 2.67157 2 3.5C2 3.77614 1.77614 4 1.5 4C1.22386 4 1 3.77614 1 3.5C1 2.11929 2.11929 1 3.5 1C4.88071 1 6 2.11929 6 3.5C6 4.88071 4.88071 6 3.5 6C2.94772 6 2.5 6.44772 2.5 7C2.5 7.25644 2.59587 7.48929 2.75451 7.66654C2.93868 7.87231 2.92117 8.1884 2.7154 8.37257C2.50964 8.55673 2.19354 8.53922 2.00938 8.33346C1.69298 7.97995 1.5 7.51192 1.5 7C1.5 5.89543 2.39543 5 3.5 5C4.32843 5 5 4.32843 5 3.5C5 2.67157 4.32843 2 3.5 2Z" class="success"/>
</svg>
