<svg width="16" height="16" viewBox="0 0 16 16" xmlns="http://www.w3.org/2000/svg"><style>@import '../colors.css';</style>
<g clip-path="url(#clip0_933_3120)">
<path fill-rule="evenodd" clip-rule="evenodd" d="M3.75736 8.70712L2.34315 10.1213L4.11091 11.8891L3.40381 12.5962L1.63604 10.8284L1.28249 11.182C0.891961 11.5725 0.891961 12.2057 1.28249 12.5962L3.40381 14.7175C3.79433 15.1081 4.42749 15.1081 4.81802 14.7175L14.7175 4.81803C15.108 4.42751 15.108 3.79434 14.7175 3.40382L12.5962 1.2825C12.2057 0.891973 11.5725 0.891973 11.182 1.2825L10.8284 1.63605L12.5962 3.40382L11.8891 4.11092L10.1213 2.34316L8.70711 3.75737L9.76777 4.81803L9.06066 5.52514L8 4.46448L6.58579 5.87869L8.35355 7.64646L7.64645 8.35357L5.87868 6.5858L4.46447 8.00001L5.52513 9.06067L4.81802 9.76778L3.75736 8.70712Z"/>
</g>
<defs>
<clipPath id="clip0_933_3120">
<rect width="16" height="16" fill="white"/>
</clipPath>
</defs>
</svg>
