<svg width="16" height="16" viewBox="0 0 16 16" xmlns="http://www.w3.org/2000/svg"><style>@import '../colors.css';</style>
<g clip-path="url(#clip0_933_2503)">
<path fill-rule="evenodd" clip-rule="evenodd" d="M3 0H0V3H1V13H0V16H3V15H13V16H16V13H15V3H16V0H13V1H3V0ZM2 3H3V2H13V3H14V13H13V14H3V13H2V3ZM11.5712 5.98442H12L11.8954 4H4V5.98442H4.38693C4.3939 5.61732 4.44967 5.32987 4.55425 5.12208C4.65882 4.91429 4.79477 4.7619 4.96209 4.66494C5.13638 4.56104 5.33856 4.4987 5.56863 4.47792C5.80566 4.45714 6.06013 4.44675 6.33203 4.44675C6.55512 4.44675 6.7329 4.45368 6.86536 4.46753C6.99782 4.47446 7.09891 4.49178 7.16863 4.51948C7.24532 4.54719 7.29412 4.58182 7.31503 4.62338C7.34292 4.65801 7.35686 4.70649 7.35686 4.76883V10.3273C7.35686 10.5489 7.33943 10.7394 7.30457 10.8987C7.27669 11.058 7.21394 11.1896 7.11634 11.2935C7.02571 11.3905 6.88976 11.4667 6.7085 11.5221C6.52723 11.5706 6.2902 11.5983 5.99739 11.6052V12H9.95033V11.6052C9.65752 11.5983 9.42048 11.5706 9.23922 11.5221C9.06492 11.4667 8.92898 11.3905 8.83137 11.2935C8.74074 11.1896 8.678 11.058 8.64314 10.8987C8.61525 10.7394 8.60131 10.5489 8.60131 10.3273V4.76883C8.60131 4.70649 8.61176 4.65801 8.63268 4.62338C8.66057 4.58182 8.71634 4.54719 8.8 4.51948C8.88366 4.49178 9.00218 4.47446 9.15555 4.46753C9.3159 4.45368 9.52505 4.44675 9.78301 4.44675C10.0828 4.44675 10.3407 4.471 10.5569 4.51948C10.773 4.56797 10.9508 4.65108 11.0902 4.76883C11.2366 4.87965 11.3481 5.0355 11.4248 5.23636C11.5015 5.43723 11.5503 5.68658 11.5712 5.98442Z"/>
</g>
<defs>
<clipPath id="clip0_933_2503">
<rect width="16" height="16" fill="white"/>
</clipPath>
</defs>
</svg>
