<svg width="16" height="16" viewBox="0 0 16 16" xmlns="http://www.w3.org/2000/svg"><style>@import '../colors.css';</style>
<g clip-path="url(#clip0_933_2669)">
<path fill-rule="evenodd" clip-rule="evenodd" d="M0 0H3V1H12V0H15V3H14V7.04924C13.6367 7.12842 13.29 7.3031 13 7.57329V3H12V2H3V3H2V12H3V13H7.57137L7.50446 13.0669L7.28913 14H3V15H0V12H1V3H0V0ZM13.6518 8.33376C14.0968 7.88875 14.8183 7.88875 15.2634 8.33376L15.6662 8.73664C16.1113 9.18165 16.1113 9.90316 15.6662 10.3482L15.2634 10.7511L13.249 8.73664L13.6518 8.33376ZM12.5414 9.44423L14.5558 11.4586L10.4288 15.5856L8.69831 15.985C8.28804 16.0797 7.92035 15.712 8.01503 15.3017L8.41436 13.5712L12.5414 9.44423Z"/>
</g>
<defs>
<clipPath id="clip0_933_2669">
<rect width="16" height="16" fill="white"/>
</clipPath>
</defs>
</svg>
