<svg width="16" height="16" viewBox="0 0 16 16" xmlns="http://www.w3.org/2000/svg"><style>@import '../colors.css';</style>
<path fill-rule="evenodd" clip-rule="evenodd" d="M10.7387 1.73112C11.7136 0.756294 13.2941 0.756295 14.2689 1.73112C15.2437 2.70594 15.2437 4.28644 14.2689 5.26127L12.118 7.41214L12.824 8.11817C13.019 8.31313 13.019 8.62923 12.824 8.82419C12.6291 9.01916 12.313 9.01916 12.118 8.82419L11.412 8.11817L6.23466 13.2955C5.50544 14.0247 4.43729 14.2084 3.53728 13.8467C3.50099 13.9014 3.45875 13.9533 3.41054 14.0015L2.70451 14.7075C2.31458 15.0975 1.68238 15.0975 1.29245 14.7075C0.902517 14.3176 0.902518 13.6854 1.29245 13.2955L1.99848 12.5894C2.04669 12.5412 2.09861 12.499 2.15332 12.4627C1.79157 11.5627 1.9753 10.4946 2.70451 9.76534L7.88183 4.58802L7.1758 3.88199C6.98084 3.68702 6.98084 3.37092 7.1758 3.17596C7.37077 2.98099 7.68687 2.98099 7.88183 3.17596L8.58786 3.88199L10.7387 1.73112ZM8.58789 5.29407L10.706 7.41216L5.52862 12.5895C4.94581 13.1723 4.0022 13.1744 3.41682 12.5958L3.41054 12.5894L3.40423 12.5832C2.82564 11.9978 2.82774 11.0542 3.41053 10.4714L8.58789 5.29407Z"/>
</svg>
