<svg width="16" height="16" viewBox="0 0 16 16" xmlns="http://www.w3.org/2000/svg"><style>@import '../colors.css';</style>
<path fill-rule="evenodd" clip-rule="evenodd" d="M4.59872 4.36187C5.40951 3.69054 6.44664 3.36147 7.48199 3.47167C8.42629 3.57219 9.29707 4.03649 9.88379 4.78137C10.4172 5.45863 10.6666 6.31412 10.5606 7.15546C10.4645 7.91781 10.0801 8.60352 9.49057 9.05042C8.95413 9.45701 8.29874 9.62316 7.67976 9.52422C7.11046 9.43322 6.62557 9.12471 6.32642 8.68992C6.05291 8.29237 5.96084 7.82443 6.04935 7.4036C6.12953 7.02234 6.34919 6.72409 6.62322 6.56001C6.8695 6.41254 7.12966 6.39076 7.33275 6.45576C7.51547 6.51425 7.62004 6.63102 7.65952 6.72918C7.67672 6.77198 7.67978 6.80645 7.67839 6.82836C7.67754 6.84174 7.67523 6.84896 7.67443 6.85112C7.45519 7.20109 7.56014 7.66274 7.90962 7.88341C8.25986 8.10455 8.72306 7.9999 8.9442 7.64966C8.95327 7.63529 8.96207 7.62081 8.9706 7.60622C9.2257 7.1697 9.2382 6.635 9.05137 6.16994C8.87151 5.72237 8.52295 5.3623 8.08491 5.14622C7.9905 5.09966 7.89193 5.05978 7.79001 5.02715C7.66467 4.98703 7.53706 4.95852 7.4085 4.9412C6.87523 4.86934 6.32547 4.98996 5.85264 5.27307C5.19708 5.6656 4.74199 6.3316 4.58146 7.09487C4.40399 7.93865 4.59695 8.82255 5.09066 9.54015C5.63138 10.3261 6.4842 10.8522 7.443 11.0054C8.48518 11.172 9.55004 10.8875 10.3967 10.2458C11.3263 9.54112 11.9052 8.48258 12.0488 7.34302C12.2073 6.08522 11.8326 4.83131 11.0622 3.85321C10.2144 2.77699 8.96908 2.12149 7.64076 1.98009C6.18458 1.8251 4.74923 2.2898 3.64208 3.20652C2.43397 4.20683 1.71135 5.652 1.57379 7.18208C1.42389 8.84922 1.96881 10.4797 3.01626 11.7292C4.15161 13.0835 5.77847 13.8906 7.50177 14.028C9.36676 14.1767 11.1766 13.5404 12.5525 12.347C13.594 11.4437 14.333 10.2769 14.7293 9H13.1391C12.8017 9.84326 12.2707 10.6058 11.5697 11.2139C10.4841 12.1555 9.06734 12.6481 7.62099 12.5328C6.28509 12.4263 5.0343 11.8016 4.16576 10.7656C3.36444 9.80968 2.95496 8.57093 3.06776 7.3164C3.17126 6.16527 3.7134 5.09492 4.59872 4.36187Z"/>
<path fill-rule="evenodd" clip-rule="evenodd" d="M16 5H12V9H16V5ZM15 6H13V8H15V6Z" class="info"/>
</svg>
