<svg width="16" height="16" viewBox="0 0 16 16" xmlns="http://www.w3.org/2000/svg"><style>@import '../colors.css';</style>
<g clip-path="url(#clip0_933_2478)">
<path fill-rule="evenodd" clip-rule="evenodd" d="M0 0H3V1H12V0H15V3H14V9H13V3H12V2H3V3H2V12H3V13H9V14H3V15H0V12H1V3H0V0ZM15.2651 12.783C15.9743 13.4922 16.4035 14.4814 15.4424 15.4424C14.4814 16.4035 13.4813 15.9635 12.783 15.2651L11.3646 13.8468L10.8327 14.3787C10.6931 14.5183 10.3389 14.594 10.1235 14.3787C9.90816 14.1633 9.98386 13.8091 10.1235 13.6695L10.6554 13.1376L7.10949 9.59165C6.58709 9.06924 6.50766 8.54882 6.76683 7.90407C6.74978 7.89276 6.76406 7.87614 6.77747 7.86054C6.79487 7.84029 6.81081 7.82174 6.7549 7.81868L6.19691 7.26069C5.91757 6.98135 5.94367 6.50235 6.22301 6.22301C6.50235 5.94367 6.98135 5.91757 7.26069 6.19691L7.81868 6.7549C8.46342 6.49575 9.06925 6.5871 9.59164 7.10949L13.1376 10.6554L13.6695 10.1235C13.8091 9.98386 14.1633 9.90816 14.3786 10.1235C14.594 10.3389 14.5183 10.6931 14.3786 10.8327L13.8468 11.3646L15.2651 12.783ZM11.3646 12.4284L12.4284 11.3646L8.88246 7.81868C8.70516 7.64138 8.2735 7.43965 7.85414 7.85414C7.43961 8.2735 7.64138 8.70516 7.81868 8.88246L11.3646 12.4284Z"/>
</g>
<defs>
<clipPath id="clip0_933_2478">
<rect width="16" height="16" fill="white"/>
</clipPath>
</defs>
</svg>
