<svg width="16" height="16" viewBox="0 0 16 16" xmlns="http://www.w3.org/2000/svg"><style>@import '../colors.css';</style>
<rect x="8.24265" y="5" width="8" height="6" transform="rotate(45 8.24265 5)" fill-opacity="0.4"/>
<path fill-rule="evenodd" clip-rule="evenodd" d="M10 2H2V8H10V2ZM10.75 4C10.75 3.58579 11.0858 3.25 11.5 3.25C13.1621 3.25 14.25 4.63536 14.25 6H16L13.5 8.5L11 6H12.75C12.75 5.36464 12.2379 4.75 11.5 4.75C11.0858 4.75 10.75 4.41421 10.75 4ZM4.5 14.75C4.91421 14.75 5.25 14.4142 5.25 14C5.25 13.5858 4.91421 13.25 4.5 13.25C3.76211 13.25 3.25 12.6354 3.25 12H5L2.5 9.5L0 12H1.75C1.75 13.3646 2.83789 14.75 4.5 14.75Z"/>
</svg>
