<svg width="16" height="16" viewBox="0 0 16 16" xmlns="http://www.w3.org/2000/svg"><style>@import '../colors.css';</style>
<g clip-path="url(#clip0_933_2366)">
<path fill-rule="evenodd" clip-rule="evenodd" d="M14.8615 4.62092C14.0804 3.83987 12.8141 3.83987 12.033 4.62092L11.3259 5.32803L14.6876 8.68973L15.3948 7.98262C16.1758 7.20157 16.1758 5.93525 15.3948 5.1542L14.8615 4.62092ZM13.9936 9.40989L10.592 6.00834L7.47195 7.06475L5.0076 12.9534L5.66744 13.6133L8.64222 10.6385C8.38077 10.0824 8.47981 9.39887 8.93934 8.93934C9.52513 8.35355 10.4749 8.35355 11.0607 8.93934C11.6464 9.52512 11.6464 10.4749 11.0607 11.0607C10.5966 11.5248 9.90403 11.6212 9.34502 11.3499L6.37455 14.3204L7.04853 14.9943L12.9379 12.5307L13.9936 9.40989Z"/>
<path fill-rule="evenodd" clip-rule="evenodd" d="M2.80743 8.5C3.79455 5.35673 7.0509 3 11 3C11.2761 3 11.5 2.77614 11.5 2.5C11.5 2.22386 11.2761 2 11 2C6.56508 2 2.77237 4.73988 1.76297 8.5H2.80743Z" fill-opacity="0.4"/>
<path fill-rule="evenodd" clip-rule="evenodd" d="M2.5 3.41465C3.0826 3.20873 3.5 2.65311 3.5 2C3.5 1.17157 2.82843 0.5 2 0.5C1.17157 0.5 0.5 1.17157 0.5 2C0.5 2.65311 0.917404 3.20873 1.5 3.41465V8H0V12H4V8H2.5V3.41465ZM3 11V9H1V11H3Z" class="success"/>
</g>
<defs>
<clipPath id="clip0_933_2366">
<rect width="16" height="16" fill="white"/>
</clipPath>
</defs>
</svg>
