<svg width="100" height="32" viewBox="0 0 100 32" xmlns="http://www.w3.org/2000/svg"><style>@import '../colors.css';</style>
<path d="M16.8522 22C16.8229 22 16.8082 21.956 16.8082 21.868C16.8082 21.78 16.8229 21.736 16.8522 21.736C17.5269 21.736 18.0329 21.6993 18.3702 21.626C18.7076 21.538 18.9422 21.3913 19.0742 21.186C19.2209 20.966 19.2942 20.6433 19.2942 20.218V11.572C19.2942 10.692 19.0816 10.252 18.6562 10.252C18.2749 10.252 17.6589 10.5673 16.8082 11.198L16.7642 11.22C16.7056 11.22 16.6616 11.1833 16.6322 11.11C16.6029 11.0367 16.6102 10.9853 16.6542 10.956L20.5922 8.096C20.6656 8.052 20.7169 8.03 20.7462 8.03C20.7756 8.03 20.8049 8.04466 20.8342 8.074C20.8636 8.10333 20.8782 8.14 20.8782 8.184V20.218C20.8782 20.658 20.9369 20.988 21.0542 21.208C21.1862 21.4133 21.4136 21.5527 21.7362 21.626C22.0736 21.6993 22.5942 21.736 23.2982 21.736C23.3276 21.736 23.3422 21.78 23.3422 21.868C23.3422 21.956 23.3276 22 23.2982 22C22.7409 22 22.2936 21.9927 21.9562 21.978L20.0862 21.956L18.2382 21.978C17.9009 21.9927 17.4389 22 16.8522 22Z"/>
<path d="M25.556 25.608C25.5413 25.6667 25.38 25.652 25.072 25.564C24.7786 25.476 24.6393 25.4027 24.654 25.344L30.198 5.94C30.2273 5.86667 30.3886 5.88133 30.682 5.984C30.9753 6.072 31.1073 6.15266 31.078 6.226L25.556 25.608Z"/>
<path d="M39.1685 20.218C39.1685 20.6727 39.2051 21.0027 39.2785 21.208C39.3518 21.4133 39.4911 21.5527 39.6965 21.626C39.9018 21.6993 40.2318 21.736 40.6865 21.736C40.7158 21.736 40.7305 21.78 40.7305 21.868C40.7305 21.956 40.7158 22 40.6865 22C40.2905 22 39.9751 21.9927 39.7405 21.978L38.3325 21.956L36.6605 21.978C36.3671 21.9927 35.9711 22 35.4725 22C35.4285 22 35.4065 21.956 35.4065 21.868C35.4065 21.78 35.4285 21.736 35.4725 21.736C36.1325 21.736 36.5945 21.7067 36.8585 21.648C37.1371 21.5747 37.3205 21.4427 37.4085 21.252C37.4965 21.0467 37.5405 20.702 37.5405 20.218V10.384L38.2225 9.878L33.1405 17.16C33.0818 17.2627 33.1185 17.314 33.2505 17.314C35.8465 17.314 38.3765 17.27 40.8405 17.182C40.8991 17.182 40.9285 17.336 40.9285 17.644C40.9285 17.952 40.8991 18.106 40.8405 18.106C38.6845 18.0033 35.7805 17.952 32.1285 17.952C32.0551 17.952 31.9965 17.93 31.9525 17.886C31.9231 17.8273 31.9305 17.7687 31.9745 17.71L38.8385 8.14C38.8678 8.11066 38.9118 8.096 38.9705 8.096C39.0145 8.096 39.0585 8.11066 39.1025 8.14C39.1465 8.15467 39.1685 8.184 39.1685 8.228V20.218Z"/>
<path d="M55 16.5L50 13V15H47V18H50V20L55 16.5Z" class="error"/>
<path fill-rule="evenodd" clip-rule="evenodd" d="M61.9196 13.04C61.9196 13.1133 61.9343 13.15 61.9636 13.15C62.3303 13.15 62.6163 13.1427 62.8216 13.128L64.0316 13.106L65.1756 13.128C65.3663 13.1427 65.6303 13.15 65.9676 13.15C66.0116 13.15 66.0336 13.1133 66.0336 13.04C66.0336 12.952 66.0116 12.908 65.9676 12.908C65.5129 12.908 65.1976 12.8787 65.0216 12.82C64.8456 12.7613 64.7283 12.6367 64.6696 12.446C64.6256 12.2407 64.6036 11.8887 64.6036 11.39V6.154C64.6036 6.12467 64.5816 6.09533 64.5376 6.066C64.5083 6.022 64.4716 6 64.4276 6H64.3836L61.6996 7.254C61.6409 7.26867 61.6263 7.31267 61.6556 7.386C61.6996 7.45933 61.7509 7.496 61.8096 7.496H61.8316C62.4329 7.21733 62.8289 7.078 63.0196 7.078C63.2103 7.078 63.3203 7.188 63.3496 7.408C63.3936 7.61333 63.4156 8.068 63.4156 8.772V11.39C63.4156 11.874 63.3863 12.2187 63.3276 12.424C63.2689 12.6147 63.1443 12.7467 62.9536 12.82C62.7629 12.8787 62.4329 12.908 61.9636 12.908C61.9343 12.908 61.9196 12.952 61.9196 13.04ZM65.0216 23.464C64.9923 23.376 64.9776 23.2293 64.9776 23.024V21.9451C65.2893 21.9586 65.6047 21.9735 65.9236 21.99C65.9529 21.99 65.9676 21.8873 65.9676 21.682C65.9676 21.4913 65.9529 21.396 65.9236 21.396L65.1316 21.44L64.9776 21.4469V16.864C64.9776 16.8347 64.9483 16.8127 64.8896 16.798C64.8456 16.7833 64.7943 16.776 64.7356 16.776C64.6329 16.776 64.5669 16.798 64.5376 16.842L61.0396 21.682C60.9956 21.7113 60.9883 21.748 61.0176 21.792C61.0469 21.836 61.0836 21.858 61.1276 21.858C62.0087 21.858 62.9253 21.8733 63.8776 21.9038V23.024C63.8776 23.2293 63.8483 23.376 63.7896 23.464C63.7456 23.552 63.6429 23.6107 63.4816 23.64C63.3349 23.6693 63.0783 23.684 62.7116 23.684C62.6969 23.684 62.6896 23.728 62.6896 23.816C62.6896 23.904 62.6969 23.948 62.7116 23.948L64.5156 23.926L65.9236 23.948C65.9383 23.9187 65.9456 23.8747 65.9456 23.816C65.9456 23.7573 65.9383 23.7133 65.9236 23.684C65.6156 23.684 65.3956 23.6693 65.2636 23.64C65.1316 23.596 65.0509 23.5373 65.0216 23.464ZM63.8776 21.49V18.3461L61.8316 21.462C61.8169 21.506 61.8316 21.528 61.8756 21.528C62.4542 21.528 63.1215 21.5153 63.8776 21.49ZM70 15H58V15.8H70V15Z"/>
</svg>
