<svg width="100" height="32" viewBox="0 0 100 32" xmlns="http://www.w3.org/2000/svg"><style>@import '../colors.css';</style>
<path d="M11.747 24.784C11.131 24.784 10.559 24.7107 10.031 24.564C9.31229 24.344 8.65229 23.9993 8.05095 23.53C7.46429 23.0607 7.03162 22.452 6.75295 21.704C6.70895 21.572 6.68695 21.462 6.68695 21.374C6.68695 21.2713 6.70895 21.198 6.75295 21.154C6.79695 21.11 6.83362 21.088 6.86295 21.088H6.88495C6.94362 21.088 7.00962 21.1247 7.08295 21.198C7.15629 21.2713 7.21495 21.3887 7.25895 21.55C7.50829 22.254 7.88962 22.8113 8.40295 23.222C8.91629 23.6327 9.53229 23.904 10.251 24.036C10.4563 24.0653 10.6543 24.0873 10.845 24.102C11.0356 24.1313 11.2263 24.146 11.417 24.146C12.1063 24.146 12.7663 24.036 13.397 23.816C14.0276 23.6107 14.6143 23.3613 15.157 23.068C15.729 22.7453 16.3523 22.2833 17.027 21.682C17.7163 21.0953 18.435 20.406 19.183 19.614C19.931 18.822 20.6716 17.9787 21.405 17.084C22.1383 16.1893 22.8276 15.28 23.473 14.356C24.133 13.4173 24.7196 12.508 25.233 11.628C25.7463 10.748 26.157 9.94133 26.465 9.208C25.717 9.164 24.8956 9.142 24.001 9.142C22.901 9.142 21.7496 9.17867 20.547 9.252C19.3443 9.32533 18.149 9.44267 16.961 9.604C15.7876 9.75067 14.6803 9.94867 13.639 10.198C12.5976 10.4327 11.6736 10.7187 10.867 11.056C10.0603 11.3933 9.42229 11.782 8.95295 12.222C8.49829 12.662 8.27095 13.1533 8.27095 13.696C8.27095 14.048 8.43962 14.3707 8.77695 14.664C9.11429 14.9427 9.55429 15.1847 10.097 15.39C10.6543 15.5953 11.2556 15.764 11.901 15.896C12.5463 16.028 13.1843 16.116 13.815 16.16C14.079 16.1893 14.255 16.248 14.343 16.336C14.4456 16.4093 14.453 16.49 14.365 16.578C14.321 16.622 14.2256 16.6587 14.079 16.688C14.0203 16.7027 13.947 16.71 13.859 16.71C13.7856 16.71 13.705 16.71 13.617 16.71C13.485 16.71 13.3456 16.71 13.199 16.71C13.0523 16.6953 12.8983 16.6807 12.737 16.666C12.5023 16.6367 12.275 16.6147 12.055 16.6C11.8496 16.5853 11.703 16.5707 11.615 16.556C10.9843 16.4827 10.3463 16.3213 9.70095 16.072C9.05562 15.808 8.51295 15.478 8.07295 15.082C7.64762 14.6713 7.42762 14.2093 7.41295 13.696C7.38362 12.8893 7.66229 12.1927 8.24895 11.606C8.85029 11.0047 9.65695 10.506 10.669 10.11C11.681 9.714 12.825 9.39867 14.101 9.164C15.3916 8.92933 16.7263 8.76067 18.105 8.658C19.4983 8.55533 20.8476 8.504 22.153 8.504C22.9743 8.504 23.7663 8.51867 24.529 8.548C25.2916 8.57733 26.003 8.62133 26.663 8.68C26.751 8.43067 26.817 8.262 26.861 8.174C26.905 8.07133 26.949 8.00533 26.993 7.976C27.037 7.932 27.0736 7.91 27.103 7.91C27.1763 7.91 27.235 7.94667 27.279 8.02C27.3376 8.09333 27.367 8.20333 27.367 8.35C27.367 8.46733 27.3376 8.59933 27.279 8.746C27.323 8.746 27.367 8.75333 27.411 8.768C27.455 8.768 27.499 8.768 27.543 8.768C28.9803 8.91467 30.2856 9.142 31.459 9.45C32.647 9.758 33.6076 10.1173 34.341 10.528C35.089 10.9387 35.5143 11.4007 35.617 11.914C35.661 12.1047 35.683 12.2807 35.683 12.442C35.683 12.6033 35.661 12.75 35.617 12.882C35.5876 12.9993 35.5436 13.0947 35.485 13.168C35.4263 13.256 35.353 13.3 35.265 13.3C35.089 13.3 34.957 13.124 34.869 12.772C34.7516 12.1853 34.4583 11.6867 33.989 11.276C33.5343 10.8507 32.9696 10.506 32.295 10.242C31.6203 9.978 30.9016 9.77267 30.139 9.626C29.391 9.47933 28.665 9.37667 27.961 9.318L27.081 9.252C26.641 10.2933 26.0983 11.4007 25.453 12.574C24.8223 13.7327 24.1183 14.8987 23.341 16.072C22.5783 17.2307 21.779 18.3233 20.943 19.35C20.107 20.3767 19.2636 21.2787 18.413 22.056C17.577 22.8333 16.7703 23.4127 15.993 23.794C15.4063 24.0873 14.739 24.322 13.991 24.498C13.243 24.6887 12.495 24.784 11.747 24.784ZM35.3023 21.374C34.6716 21.374 34.1656 21.2273 33.7843 20.934C33.4176 20.626 33.1463 20.23 32.9703 19.746C32.8089 19.262 32.7283 18.7413 32.7283 18.184C32.7283 17.612 32.8089 17.0033 32.9703 16.358C32.6183 16.6807 32.1929 17.062 31.6943 17.502C31.2103 17.9273 30.7116 18.3527 30.1983 18.778C29.6996 19.2033 29.2523 19.5773 28.8563 19.9C28.4603 20.2227 28.1816 20.4427 28.0203 20.56C28.0643 20.648 28.0863 20.7287 28.0863 20.802C28.0863 20.934 28.0423 21.0367 27.9543 21.11C27.8663 21.1833 27.7636 21.22 27.6463 21.22C27.5143 21.22 27.3749 21.176 27.2283 21.088C27.0963 21.0147 26.9863 20.89 26.8983 20.714C26.8543 20.5967 26.8323 20.4573 26.8323 20.296C26.8323 19.8853 26.9569 19.3793 27.2063 18.778C27.4556 18.162 27.7563 17.5387 28.1083 16.908C27.9323 16.908 27.8443 16.8493 27.8443 16.732C27.8443 16.644 27.9103 16.5487 28.0423 16.446C28.3649 16.2553 28.5483 16.1013 28.5923 15.984C28.9003 15.3533 29.2743 14.7007 29.7142 14.026C30.1542 13.3367 30.6309 12.6693 31.1443 12.024C31.6723 11.3787 32.2076 10.7993 32.7503 10.286C33.3076 9.758 33.8576 9.34 34.4003 9.032C34.9429 8.724 35.4636 8.57 35.9623 8.57C36.2996 8.57 36.5416 8.65067 36.6883 8.812C36.8349 8.95867 36.9083 9.142 36.9083 9.362C36.9083 9.538 36.8716 9.72133 36.7983 9.912C36.7249 10.088 36.6443 10.2493 36.5563 10.396C36.1163 11.1733 35.5003 11.9433 34.7083 12.706C33.9163 13.454 33.0363 14.158 32.0683 14.818C31.1149 15.4633 30.1543 16.0353 29.1863 16.534C28.8196 17.2233 28.5116 17.8833 28.2623 18.514C28.0276 19.13 27.9029 19.5847 27.8883 19.878C28.0789 19.7167 28.3869 19.46 28.8123 19.108C29.2376 18.7413 29.6996 18.3307 30.1983 17.876C30.7849 17.3627 31.3716 16.8493 31.9583 16.336C32.5449 15.8227 33.0216 15.4047 33.3883 15.082C33.4616 14.8767 33.5496 14.708 33.6523 14.576C33.7549 14.444 33.8723 14.378 34.0043 14.378C34.1216 14.378 34.2389 14.444 34.3563 14.576C34.4883 14.708 34.6203 14.8767 34.7523 15.082C34.7816 15.1407 34.7963 15.214 34.7963 15.302C34.7963 15.5367 34.7523 15.7127 34.6643 15.83C34.3709 16.2847 34.1436 16.7613 33.9823 17.26C33.8356 17.7587 33.7623 18.228 33.7623 18.668C33.7623 19.2547 33.9016 19.746 34.1803 20.142C34.4736 20.538 34.9283 20.736 35.5443 20.736C36.1456 20.736 36.9449 20.4867 37.9423 19.988C38.5729 19.6653 39.2109 19.2913 39.8563 18.866C40.5016 18.4407 41.0956 18.0153 41.6383 17.59C41.7116 17.5167 41.7849 17.458 41.8583 17.414C41.9463 17.37 42.0196 17.3187 42.0783 17.26C42.1809 17.1867 42.3276 17.0693 42.5183 16.908C42.5623 16.8933 42.6136 16.886 42.6723 16.886C42.7896 16.886 42.8483 16.9447 42.8483 17.062C42.8483 17.1353 42.8116 17.2087 42.7383 17.282C42.6503 17.3993 42.4523 17.5973 42.1443 17.876C41.8363 18.14 41.4549 18.448 41.0003 18.8C40.5603 19.1373 40.0763 19.4747 39.5483 19.812C39.0349 20.1493 38.5216 20.4427 38.0083 20.692C37.7149 20.8387 37.3116 20.9853 36.7983 21.132C36.2996 21.2933 35.8009 21.374 35.3023 21.374ZM29.6703 15.654C30.4476 15.1847 31.2469 14.6493 32.0683 14.048C32.9043 13.432 33.6816 12.7647 34.4003 12.046C35.1189 11.3127 35.6909 10.5353 36.1163 9.714C36.1456 9.64067 36.1749 9.56733 36.2043 9.494C36.2483 9.42067 36.2703 9.362 36.2703 9.318C36.2703 9.20067 36.1749 9.164 35.9843 9.208C35.7056 9.31067 35.3683 9.494 34.9723 9.758C34.5616 10.0367 34.1436 10.3667 33.7183 10.748C33.2929 11.1147 32.9409 11.4447 32.6623 11.738C32.4863 11.9287 32.3103 12.1193 32.1343 12.31C31.9583 12.5007 31.7749 12.6987 31.5843 12.904C31.4083 13.1093 31.2249 13.3293 31.0343 13.564C30.8583 13.7987 30.6749 14.048 30.4843 14.312C30.3523 14.5027 30.2129 14.7153 30.0663 14.95C29.9343 15.17 29.8023 15.4047 29.6703 15.654Z"/>
<path d="M60.74 25.18C59.74 25.18 58.9466 24.8666 58.36 24.24C57.7733 23.6266 57.48 22.8466 57.48 21.9C57.48 21.2333 57.6333 20.52 57.94 19.76C58.2466 19 58.7333 18.2333 59.4 17.46C59.5733 17.2466 59.72 17.1066 59.84 17.04C59.9733 16.9733 60.0666 16.94 60.12 16.94C60.1866 16.94 60.22 16.9933 60.22 17.1C60.22 17.2466 60.1466 17.4133 60 17.6C59.3733 18.36 58.9133 19.08 58.62 19.76C58.3266 20.4266 58.18 21.0333 58.18 21.58C58.18 22.2866 58.4066 22.8533 58.86 23.28C59.3266 23.7066 59.9666 23.92 60.78 23.92C61.6466 23.92 62.5133 23.74 63.38 23.38C64.26 23.0333 65.1266 22.5533 65.98 21.94C66.8333 21.3266 67.66 20.6266 68.46 19.84C69.2733 19.0533 70.0466 18.2266 70.78 17.36C71.5133 16.48 72.1933 15.6133 72.82 14.76C73.2866 14.1466 73.7266 13.4933 74.14 12.8C74.5533 12.0933 74.9333 11.3866 75.28 10.68C73.4133 10.2133 71.5333 9.77998 69.64 9.37998C67.76 8.97998 65.8466 8.77998 63.9 8.77998C63.6866 8.77998 63.46 8.77998 63.22 8.77998C62.9933 8.77998 62.7666 8.79331 62.54 8.81998C61.4333 8.89998 60.5266 9.09998 59.82 9.41998C59.1133 9.73998 58.6933 10.2 58.56 10.8C58.5466 10.84 58.54 10.9066 58.54 11C58.54 11.2933 58.6666 11.5933 58.92 11.9C59.1733 12.2066 59.5133 12.5 59.94 12.78C60.3666 13.06 60.8333 13.32 61.34 13.56C61.86 13.8 62.3733 14.0066 62.88 14.18C63.1066 14.2466 63.2533 14.3333 63.32 14.44C63.3733 14.5466 63.36 14.6266 63.28 14.68C63.2266 14.7066 63.18 14.72 63.14 14.72C63.0066 14.72 62.8133 14.6866 62.56 14.62C62.3066 14.54 62.06 14.46 61.82 14.38C61.6066 14.3133 61.4066 14.2466 61.22 14.18C61.0466 14.1 60.92 14.0466 60.84 14.02C60.3466 13.8333 59.84 13.5733 59.32 13.24C58.8133 12.8933 58.3866 12.5066 58.04 12.08C57.7066 11.64 57.54 11.1866 57.54 10.72C57.54 10.6666 57.5466 10.6133 57.56 10.56C57.56 10.5066 57.5666 10.4533 57.58 10.4C57.7666 9.51998 58.2666 8.86664 59.08 8.43998C59.9066 8.01331 60.92 7.76664 62.12 7.69998C62.2666 7.68664 62.42 7.67998 62.58 7.67998C62.74 7.67998 62.8933 7.67998 63.04 7.67998C63.9466 7.67998 64.8733 7.74664 65.82 7.87998C66.7666 8.01331 67.7133 8.18664 68.66 8.39998C69.6066 8.61331 70.5466 8.84664 71.48 9.09998C72.4133 9.33998 73.3266 9.57998 74.22 9.81998C74.4466 9.87331 74.6666 9.92664 74.88 9.97998C75.0933 10.0333 75.3133 10.0866 75.54 10.14C75.6466 9.91331 75.74 9.69331 75.82 9.47998C75.9133 9.26664 76 9.05331 76.08 8.83998C76.1466 8.63998 76.2066 8.51331 76.26 8.45998C76.3666 8.35331 76.46 8.34664 76.54 8.43998C76.5933 8.49331 76.6333 8.56664 76.66 8.65998C76.6866 8.73998 76.6866 8.80664 76.66 8.85998C76.6066 9.08664 76.54 9.31998 76.46 9.55998C76.3933 9.78664 76.3133 10.02 76.22 10.26C76.7666 10.3666 77.4066 10.5066 78.14 10.68C78.8733 10.8533 79.68 11.0333 80.56 11.22C81.68 9.92664 83.06 8.64664 84.7 7.37998C85.9266 6.43331 87.2266 5.73331 88.6 5.27998C89.9866 4.82664 91.3866 4.59998 92.8 4.59998C93.2133 4.59998 93.6733 4.64664 94.18 4.73998C94.7 4.81998 95.22 4.95331 95.74 5.13998C96.26 5.31331 96.74 5.54664 97.18 5.83998C97.62 6.11998 97.9733 6.45998 98.24 6.85998C98.5066 7.25998 98.64 7.71998 98.64 8.23998C98.64 9.14664 98.3866 9.90664 97.88 10.52C97.3866 11.1333 96.6933 11.6266 95.8 12C94.9067 12.36 93.8666 12.62 92.68 12.78C91.4933 12.94 90.2133 13.02 88.84 13.02C87.4266 13.02 86.0466 12.9266 84.7 12.74C83.3533 12.54 82.1 12.3133 80.94 12.06C80.2866 12.86 79.6533 13.7333 79.04 14.68C78.44 15.6133 77.9066 16.54 77.44 17.46C76.9866 18.3666 76.66 19.1933 76.46 19.94C76.6466 19.7933 76.9266 19.56 77.3 19.24C77.6733 18.9066 78.0733 18.5533 78.5 18.18C79.0466 17.7133 79.5866 17.2466 80.12 16.78C80.6533 16.3 81.0866 15.9133 81.42 15.62C81.5 15.4333 81.58 15.28 81.66 15.16C81.7533 15.04 81.86 14.98 81.98 14.98C82.0866 14.98 82.1933 15.04 82.3 15.16C82.42 15.28 82.5466 15.4333 82.68 15.62C82.7066 15.6733 82.72 15.74 82.72 15.82C82.72 16.0333 82.68 16.1933 82.6 16.3C82.3333 16.7133 82.1266 17.1533 81.98 17.62C81.8333 18.0733 81.76 18.5 81.76 18.9C81.76 19.4333 81.8933 19.88 82.16 20.24C82.4266 20.6 82.84 20.78 83.4 20.78C83.96 20.78 84.6933 20.5533 85.6 20.1C86.1866 19.8066 86.7733 19.4666 87.36 19.08C87.96 18.6933 88.5 18.3066 88.98 17.92C89.06 17.8533 89.1333 17.8 89.2 17.76C89.2666 17.7066 89.3333 17.6533 89.4 17.6C89.52 17.52 89.6467 17.4133 89.78 17.28C89.82 17.2666 89.8733 17.26 89.94 17.26C90.0466 17.26 90.1 17.3133 90.1 17.42C90.1 17.4733 90.0666 17.5466 90 17.64C89.92 17.7333 89.7333 17.9066 89.44 18.16C89.16 18.4133 88.8133 18.7 88.4 19.02C88 19.3266 87.56 19.64 87.08 19.96C86.6133 20.2666 86.14 20.5333 85.66 20.76C85.3933 20.8933 85.0266 21.0266 84.56 21.16C84.1066 21.3066 83.6466 21.38 83.18 21.38C82.6066 21.38 82.1466 21.2466 81.8 20.98C81.4533 20.7 81.2 20.34 81.04 19.9C80.8933 19.4466 80.82 18.9666 80.82 18.46C80.82 17.9266 80.8933 17.3666 81.04 16.78C80.72 17.0866 80.3333 17.44 79.88 17.84C79.4266 18.2266 78.9666 18.6133 78.5 19C78.0333 19.3866 77.62 19.7333 77.26 20.04C76.9 20.3333 76.6466 20.5333 76.5 20.64C76.54 20.72 76.56 20.7933 76.56 20.86C76.56 20.98 76.52 21.0733 76.44 21.14C76.36 21.2066 76.2666 21.24 76.16 21.24C76.0266 21.24 75.8933 21.2 75.76 21.12C75.64 21.0533 75.5466 20.9333 75.48 20.76C75.4666 20.7066 75.4466 20.6466 75.42 20.58C75.4066 20.5133 75.4 20.4466 75.4 20.38C75.4 20.1533 75.4466 19.8933 75.54 19.6C75.6466 19.2933 75.7733 18.9733 75.92 18.64C76.5333 17.3066 77.1666 16.0866 77.82 14.98C78.4733 13.8733 79.2066 12.8266 80.02 11.84C79.1666 11.64 78.3933 11.4533 77.7 11.28C77.02 11.1066 76.4533 10.9733 76 10.88C75.68 11.64 75.3 12.4066 74.86 13.18C74.4333 13.94 73.9866 14.6466 73.52 15.3C72.6133 16.58 71.6533 17.8133 70.64 19C69.6266 20.1733 68.5733 21.2266 67.48 22.16C66.4 23.0933 65.2933 23.8266 64.16 24.36C63.0266 24.9066 61.8866 25.18 60.74 25.18ZM89.46 12.26C91.1133 12.26 92.58 12.12 93.86 11.84C95.1533 11.5466 96.1666 11.1066 96.9 10.52C97.6467 9.93331 98.02 9.19998 98.02 8.31998C98.02 7.78664 97.8333 7.33331 97.46 6.95998C97.1 6.58664 96.64 6.28664 96.08 6.05998C95.5333 5.81998 94.9733 5.64664 94.4 5.53998C93.8266 5.41998 93.3266 5.35998 92.9 5.35998C90.7666 5.35998 88.7933 5.84664 86.98 6.81998C85.1666 7.79331 83.4866 9.15331 81.94 10.9L81.5 11.4C82.6733 11.6266 83.9333 11.8266 85.28 12C86.64 12.1733 88.0333 12.26 89.46 12.26Z"/>
<path d="M55 16.5L50 13V15H47V18H50V20L55 16.5Z" class="error"/>
</svg>
