<svg width="80" height="32" viewBox="0 0 80 32" xmlns="http://www.w3.org/2000/svg"><style>@import '../colors.css';</style>
<path d="M11.6065 15.774H17.5905L17.7445 16.258H11.3425L11.6065 15.774ZM22.7165 21.736C22.7899 21.736 22.8265 21.78 22.8265 21.868C22.8265 21.956 22.7899 22 22.7165 22C22.4379 22 22.0052 21.9853 21.4185 21.956C20.8025 21.9266 20.3625 21.912 20.0985 21.912C19.7612 21.912 19.3432 21.9266 18.8445 21.956C18.3459 21.9853 17.9719 22 17.7225 22C17.6639 22 17.6345 21.956 17.6345 21.868C17.6345 21.78 17.6639 21.736 17.7225 21.736C18.2212 21.736 18.5805 21.692 18.8005 21.604C19.0205 21.5013 19.1305 21.3253 19.1305 21.076C19.1305 20.8266 19.0205 20.482 18.8005 20.042L14.0705 10.208L14.7745 9.15197L10.4845 19.096C10.2792 19.5946 10.1765 20.0053 10.1765 20.328C10.1765 20.7973 10.3599 21.1493 10.7265 21.384C11.0932 21.6186 11.6212 21.736 12.3105 21.736C12.3839 21.736 12.4205 21.78 12.4205 21.868C12.4205 21.956 12.3839 22 12.3105 22C12.0465 22 11.6652 21.9853 11.1665 21.956C10.6092 21.9266 10.1252 21.912 9.71453 21.912C9.3332 21.912 8.87853 21.9266 8.35053 21.956C7.8812 21.9853 7.49986 22 7.20653 22C7.14786 22 7.11853 21.956 7.11853 21.868C7.11853 21.78 7.14786 21.736 7.20653 21.736C7.6172 21.736 7.96186 21.6553 8.24053 21.494C8.53386 21.3326 8.81253 21.054 9.07653 20.658C9.34053 20.262 9.6412 19.6753 9.97853 18.898L14.6645 8.09597C14.6792 8.05197 14.7305 8.02997 14.8185 8.02997C14.9065 8.01531 14.9579 8.03731 14.9725 8.09597L20.2525 18.986C20.7659 20.0566 21.1912 20.7826 21.5285 21.164C21.8805 21.5453 22.2765 21.736 22.7165 21.736Z"/>
<path d="M29.7137 22.132C29.6551 22.1613 29.5891 22.176 29.5157 22.176C29.2811 22.176 29.0684 22.0073 28.8777 21.67C28.6871 21.318 28.5917 20.8486 28.5917 20.262V16.236C28.5917 15.356 28.4817 14.718 28.2617 14.322C28.0564 13.9113 27.7411 13.706 27.3157 13.706C26.8171 13.706 26.4504 13.8746 26.2157 14.212C25.9811 14.5493 25.8271 14.938 25.7537 15.378C25.6804 16.0526 25.3651 16.39 24.8077 16.39C24.5291 16.39 24.3164 16.324 24.1697 16.192C24.0377 16.06 23.9717 15.8913 23.9717 15.686C23.9717 15.3046 24.2064 14.9306 24.6757 14.564C25.1451 14.1826 25.7097 13.8746 26.3697 13.64C27.0444 13.4053 27.6384 13.288 28.1517 13.288C28.7677 13.288 29.2444 13.486 29.5817 13.882C29.9191 14.278 30.0877 14.8426 30.0877 15.576V19.624C30.0877 20.5773 30.3664 21.054 30.9237 21.054C31.2024 21.054 31.5251 20.9733 31.8917 20.812H31.9137C31.9724 20.812 32.0091 20.8486 32.0237 20.922C32.0531 20.9806 32.0384 21.0246 31.9797 21.054L29.7137 22.132ZM25.6657 22.154C25.0937 22.154 24.6537 22.0146 24.3457 21.736C24.0377 21.4426 23.8837 21.0686 23.8837 20.614C23.8837 20.1153 24.0744 19.7193 24.4557 19.426C24.8371 19.1326 25.4531 18.8246 26.3037 18.502L28.8117 17.578L28.8777 17.864L26.8757 18.678C26.4944 18.8246 26.1937 19.008 25.9737 19.228C25.7537 19.4333 25.6437 19.6973 25.6437 20.02C25.6437 20.372 25.7537 20.6653 25.9737 20.9C26.2084 21.12 26.5017 21.23 26.8537 21.23C27.1324 21.23 27.4477 21.1273 27.7997 20.922L29.0977 20.108L29.1417 20.416L27.5357 21.472C27.1984 21.7213 26.8831 21.8973 26.5897 22C26.2964 22.1026 25.9884 22.154 25.6657 22.154Z"/>
<path d="M52.092 16.61H56.118L56.272 17.05H51.762L52.092 16.61ZM60.232 21.736C60.3054 21.736 60.342 21.78 60.342 21.868C60.342 21.956 60.3054 22 60.232 22C59.9387 22 59.4987 21.9853 58.912 21.956C58.3253 21.9266 57.9 21.912 57.636 21.912C57.4014 21.912 57.064 21.9266 56.624 21.956C56.2133 21.9853 55.9053 22 55.7 22C55.6413 22 55.612 21.956 55.612 21.868C55.612 21.78 55.6413 21.736 55.7 21.736C56.0667 21.736 56.3307 21.692 56.492 21.604C56.668 21.5013 56.756 21.3473 56.756 21.142C56.756 20.922 56.6533 20.592 56.448 20.152L53.28 13.31L53.984 12.452L51.19 19.294C50.9407 19.91 50.816 20.3793 50.816 20.702C50.816 21.0686 50.9407 21.3326 51.19 21.494C51.454 21.6553 51.8573 21.736 52.4 21.736C52.4733 21.736 52.51 21.78 52.51 21.868C52.51 21.956 52.4733 22 52.4 22C52.1947 22 51.9013 21.9853 51.52 21.956C51.1093 21.9266 50.728 21.912 50.376 21.912C50.0093 21.912 49.5767 21.9266 49.078 21.956C48.638 21.9853 48.2787 22 48 22C47.9267 22 47.89 21.956 47.89 21.868C47.89 21.78 47.9267 21.736 48 21.736C48.4547 21.736 48.814 21.6773 49.078 21.56C49.3567 21.428 49.606 21.1786 49.826 20.812C50.0607 20.4453 50.3393 19.8733 50.662 19.096L53.874 11.374C53.9033 11.3153 53.9473 11.286 54.006 11.286C54.0647 11.286 54.1087 11.3153 54.138 11.374L57.658 18.986C58.0393 19.7926 58.3473 20.3866 58.582 20.768C58.8167 21.1346 59.0513 21.3913 59.286 21.538C59.5353 21.67 59.8507 21.736 60.232 21.736Z"/>
<path d="M64.3596 16.61H68.3856L68.5396 17.05H64.0296L64.3596 16.61ZM72.4996 21.736C72.5729 21.736 72.6096 21.78 72.6096 21.868C72.6096 21.956 72.5729 22 72.4996 22C72.2063 22 71.7663 21.9853 71.1796 21.956C70.5929 21.9266 70.1676 21.912 69.9036 21.912C69.6689 21.912 69.3316 21.9266 68.8916 21.956C68.4809 21.9853 68.1729 22 67.9676 22C67.9089 22 67.8796 21.956 67.8796 21.868C67.8796 21.78 67.9089 21.736 67.9676 21.736C68.3343 21.736 68.5983 21.692 68.7596 21.604C68.9356 21.5013 69.0236 21.3473 69.0236 21.142C69.0236 20.922 68.9209 20.592 68.7156 20.152L65.5476 13.31L66.2516 12.452L63.4576 19.294C63.2083 19.91 63.0836 20.3793 63.0836 20.702C63.0836 21.0686 63.2083 21.3326 63.4576 21.494C63.7216 21.6553 64.1249 21.736 64.6676 21.736C64.7409 21.736 64.7776 21.78 64.7776 21.868C64.7776 21.956 64.7409 22 64.6676 22C64.4623 22 64.1689 21.9853 63.7876 21.956C63.3769 21.9266 62.9956 21.912 62.6436 21.912C62.2769 21.912 61.8443 21.9266 61.3456 21.956C60.9056 21.9853 60.5463 22 60.2676 22C60.1943 22 60.1576 21.956 60.1576 21.868C60.1576 21.78 60.1943 21.736 60.2676 21.736C60.7223 21.736 61.0816 21.6773 61.3456 21.56C61.6243 21.428 61.8736 21.1786 62.0936 20.812C62.3283 20.4453 62.6069 19.8733 62.9296 19.096L66.1416 11.374C66.1709 11.3153 66.2149 11.286 66.2736 11.286C66.3323 11.286 66.3763 11.3153 66.4056 11.374L69.9256 18.986C70.3069 19.7926 70.6149 20.3866 70.8496 20.768C71.0843 21.1346 71.3189 21.3913 71.5536 21.538C71.8029 21.67 72.1183 21.736 72.4996 21.736Z"/>
<path d="M45 16.5L40 13V15H37V18H40V20L45 16.5Z" class="error"/>
</svg>
