<svg width="52" height="32" viewBox="0 0 52 32" xmlns="http://www.w3.org/2000/svg"><style>@import '../colors.css';</style>
<path d="M5.46484 14.762C5.46484 15.246 5.62617 15.642 5.94884 15.95C6.2715 16.258 6.74817 16.5807 7.37884 16.918C7.89217 17.182 8.2955 17.4167 8.58884 17.622C8.88217 17.8127 9.1315 18.062 9.33684 18.37C9.54217 18.678 9.64484 19.0593 9.64484 19.514C9.64484 20.262 9.35884 20.9073 8.78684 21.45C8.2295 21.978 7.4595 22.242 6.47684 22.242C5.71417 22.242 4.9955 22.0293 4.32084 21.604C4.23284 21.516 4.18884 21.428 4.18884 21.34L4.14484 19.492C4.14484 19.448 4.1815 19.426 4.25484 19.426C4.34284 19.4113 4.39417 19.4187 4.40884 19.448C4.67284 20.1813 5.0395 20.7607 5.50884 21.186C5.99284 21.6113 6.52817 21.824 7.11484 21.824C7.5255 21.824 7.84084 21.7213 8.06084 21.516C8.2955 21.3107 8.41284 21.01 8.41284 20.614C8.41284 20.2033 8.32484 19.8587 8.14884 19.58C7.97284 19.2867 7.75284 19.0593 7.48884 18.898C7.2395 18.722 6.89484 18.5167 6.45484 18.282C5.95617 18.0327 5.5675 17.8127 5.28884 17.622C5.01017 17.4313 4.76817 17.182 4.56284 16.874C4.37217 16.566 4.27684 16.1847 4.27684 15.73C4.27684 14.9087 4.5775 14.2927 5.17884 13.882C5.78017 13.4567 6.49884 13.244 7.33484 13.244C7.90684 13.244 8.46417 13.354 9.00684 13.574C9.13884 13.618 9.20484 13.6987 9.20484 13.816C9.20484 14.1387 9.1975 14.388 9.18284 14.564L9.16084 15.532C9.16084 15.576 9.11684 15.598 9.02884 15.598C8.94084 15.598 8.89684 15.576 8.89684 15.532C8.89684 15.2387 8.7795 14.9453 8.54484 14.652C8.31017 14.3587 8.0095 14.124 7.64284 13.948C7.29084 13.772 6.9315 13.684 6.56484 13.684C6.2275 13.684 5.95617 13.772 5.75084 13.948C5.56017 14.1093 5.46484 14.3807 5.46484 14.762Z"/>
<path d="M14.6804 22.264C14.0644 22.264 13.5438 22.1247 13.1184 21.846C12.7078 21.5527 12.5024 21.0687 12.5024 20.394V15.312C12.5024 14.7987 12.4291 14.4687 12.2824 14.322C12.1504 14.1753 11.8424 14.102 11.3584 14.102C11.3144 14.102 11.2924 14.0433 11.2924 13.926C11.2924 13.8233 11.3144 13.772 11.3584 13.772C12.0038 13.7573 12.5244 13.6033 12.9204 13.31C13.3164 13.002 13.5731 12.584 13.6904 12.056C13.7051 12.012 13.7638 11.99 13.8664 11.99C13.9691 11.99 14.0204 12.012 14.0204 12.056V19.646C14.0204 20.8047 14.5851 21.384 15.7144 21.384C16.3451 21.384 16.9244 21.1787 17.4524 20.768C17.4671 20.7533 17.4891 20.746 17.5184 20.746C17.5624 20.746 17.5991 20.7753 17.6284 20.834C17.6578 20.8927 17.6504 20.9367 17.6064 20.966C17.0638 21.4207 16.5651 21.7507 16.1104 21.956C15.6558 22.1613 15.1791 22.264 14.6804 22.264ZM16.9464 14.586C15.9638 14.366 14.8271 14.256 13.5364 14.256V13.75C14.4604 13.75 15.6191 13.6767 17.0124 13.53C17.0564 13.53 17.0931 13.5813 17.1224 13.684C17.1518 13.7867 17.1664 13.904 17.1664 14.036C17.1664 14.168 17.1444 14.3 17.1004 14.432C17.0564 14.5493 17.0051 14.6007 16.9464 14.586Z"/>
<path d="M45.418 22.264C44.802 22.264 44.296 22.1247 43.9 21.846C43.5187 21.5527 43.328 21.0687 43.328 20.394V15.268C43.328 14.916 43.2987 14.6667 43.24 14.52C43.1814 14.3587 43.0714 14.256 42.91 14.212C42.7634 14.1533 42.5214 14.124 42.184 14.124C42.14 14.124 42.118 14.0653 42.118 13.948C42.118 13.8453 42.14 13.794 42.184 13.794C42.9174 13.794 43.4894 13.5813 43.9 13.156C44.3254 12.716 44.538 12.1147 44.538 11.352C44.538 10.3693 44.2667 9.62134 43.724 9.108C43.1814 8.58 42.5287 8.316 41.766 8.316C40.842 8.316 40.0647 8.602 39.434 9.174C38.8034 9.73134 38.488 10.5527 38.488 11.638C38.488 12.4153 38.7007 13.134 39.126 13.794C39.1407 13.8527 39.0967 13.9187 38.994 13.992C38.906 14.0507 38.8474 14.0507 38.818 13.992C38.378 13.2587 38.158 12.4887 38.158 11.682C38.158 10.89 38.3267 10.2227 38.664 9.68C39.016 9.13734 39.4634 8.734 40.006 8.47C40.5634 8.19134 41.15 8.052 41.766 8.052C42.6314 8.052 43.3574 8.34534 43.944 8.932C44.5454 9.504 44.846 10.2593 44.846 11.198V19.646C44.846 20.8047 45.396 21.384 46.496 21.384C47.1707 21.384 47.7647 21.1787 48.278 20.768L48.322 20.746C48.366 20.746 48.4027 20.7753 48.432 20.834C48.4614 20.8927 48.454 20.9367 48.41 20.966C47.8234 21.4353 47.3027 21.7727 46.848 21.978C46.3934 22.1687 45.9167 22.264 45.418 22.264ZM37.388 22.242C36.6107 22.242 35.892 22.0293 35.232 21.604C35.144 21.516 35.1 21.428 35.1 21.34L35.056 19.492C35.056 19.448 35.0927 19.426 35.166 19.426C35.254 19.4113 35.3054 19.4187 35.32 19.448C35.5694 20.1813 35.936 20.7607 36.42 21.186C36.904 21.6113 37.432 21.824 38.004 21.824C38.884 21.824 39.324 21.3987 39.324 20.548C39.324 20.02 39.1627 19.6093 38.84 19.316C38.5174 19.0227 38.026 18.7073 37.366 18.37C36.882 18.106 36.4934 17.8787 36.2 17.688C35.9214 17.4827 35.6794 17.226 35.474 16.918C35.2834 16.5953 35.188 16.2067 35.188 15.752C35.188 14.916 35.474 14.3 36.046 13.904C36.6327 13.4933 37.344 13.288 38.18 13.288C38.708 13.288 39.192 13.3833 39.632 13.574C40.0867 13.75 40.314 13.9847 40.314 14.278C40.314 14.454 40.248 14.608 40.116 14.74C39.984 14.8573 39.808 14.916 39.588 14.916C39.412 14.916 39.258 14.872 39.126 14.784C39.0087 14.696 38.8767 14.564 38.73 14.388C38.5394 14.1827 38.3487 14.0213 38.158 13.904C37.982 13.7867 37.7474 13.728 37.454 13.728C36.7354 13.728 36.376 14.058 36.376 14.718C36.376 15.2167 36.53 15.6127 36.838 15.906C37.1607 16.1847 37.652 16.5 38.312 16.852C38.8107 17.116 39.2067 17.3507 39.5 17.556C39.808 17.7467 40.0647 18.0033 40.27 18.326C40.4754 18.6487 40.578 19.0447 40.578 19.514C40.578 19.998 40.4534 20.4527 40.204 20.878C39.9547 21.2887 39.588 21.6187 39.104 21.868C38.62 22.1173 38.048 22.242 37.388 22.242ZM47.75 14.586C46.7967 14.366 45.6674 14.256 44.362 14.256V13.75C45.286 13.75 46.4447 13.6767 47.838 13.53C47.8674 13.53 47.8967 13.5813 47.926 13.684C47.97 13.7867 47.992 13.904 47.992 14.036C47.992 14.168 47.9627 14.3 47.904 14.432C47.86 14.5493 47.8087 14.6007 47.75 14.586Z"/>
<path d="M31 16.5L26 13V15H23V18H26V20L31 16.5Z" class="error"/>
</svg>
