<svg width="100" height="32" viewBox="0 0 100 32" xmlns="http://www.w3.org/2000/svg"><style>@import '../colors.css';</style>
<path d="M16.8522 22C16.8229 22 16.8082 21.956 16.8082 21.868C16.8082 21.78 16.8229 21.736 16.8522 21.736C17.5269 21.736 18.0329 21.6993 18.3702 21.626C18.7076 21.538 18.9422 21.3913 19.0742 21.186C19.2209 20.966 19.2942 20.6433 19.2942 20.218V11.572C19.2942 10.692 19.0816 10.252 18.6562 10.252C18.2749 10.252 17.6589 10.5673 16.8082 11.198L16.7642 11.22C16.7056 11.22 16.6616 11.1833 16.6322 11.11C16.6029 11.0367 16.6102 10.9853 16.6542 10.956L20.5922 8.096C20.6656 8.052 20.7169 8.03 20.7462 8.03C20.7756 8.03 20.8049 8.04466 20.8342 8.074C20.8636 8.10333 20.8782 8.14 20.8782 8.184V20.218C20.8782 20.658 20.9369 20.988 21.0542 21.208C21.1862 21.4133 21.4136 21.5527 21.7362 21.626C22.0736 21.6993 22.5942 21.736 23.2982 21.736C23.3276 21.736 23.3422 21.78 23.3422 21.868C23.3422 21.956 23.3276 22 23.2982 22C22.7409 22 22.2936 21.9927 21.9562 21.978L20.0862 21.956L18.2382 21.978C17.9009 21.9927 17.4389 22 16.8522 22Z"/>
<path d="M25.556 25.608C25.5413 25.6667 25.38 25.652 25.072 25.564C24.7786 25.476 24.6393 25.4027 24.654 25.344L30.198 5.94C30.2273 5.86667 30.3886 5.88133 30.682 5.984C30.9753 6.072 31.1073 6.15266 31.078 6.226L25.556 25.608Z"/>
<path d="M39.1685 20.218C39.1685 20.6727 39.2051 21.0027 39.2785 21.208C39.3518 21.4133 39.4911 21.5527 39.6965 21.626C39.9018 21.6993 40.2318 21.736 40.6865 21.736C40.7158 21.736 40.7305 21.78 40.7305 21.868C40.7305 21.956 40.7158 22 40.6865 22C40.2905 22 39.9751 21.9927 39.7405 21.978L38.3325 21.956L36.6605 21.978C36.3671 21.9927 35.9711 22 35.4725 22C35.4285 22 35.4065 21.956 35.4065 21.868C35.4065 21.78 35.4285 21.736 35.4725 21.736C36.1325 21.736 36.5945 21.7067 36.8585 21.648C37.1371 21.5747 37.3205 21.4427 37.4085 21.252C37.4965 21.0467 37.5405 20.702 37.5405 20.218V10.384L38.2225 9.878L33.1405 17.16C33.0818 17.2627 33.1185 17.314 33.2505 17.314C35.8465 17.314 38.3765 17.27 40.8405 17.182C40.8991 17.182 40.9285 17.336 40.9285 17.644C40.9285 17.952 40.8991 18.106 40.8405 18.106C38.6845 18.0033 35.7805 17.952 32.1285 17.952C32.0551 17.952 31.9965 17.93 31.9525 17.886C31.9231 17.8273 31.9305 17.7687 31.9745 17.71L38.8385 8.14C38.8678 8.11066 38.9118 8.096 38.9705 8.096C39.0145 8.096 39.0585 8.11066 39.1025 8.14C39.1465 8.15467 39.1685 8.184 39.1685 8.228V20.218Z"/>
<path d="M58.9679 15.202C58.9386 15.202 58.9239 15.1653 58.9239 15.092C58.9239 15.004 58.9386 14.96 58.9679 14.96C59.4373 14.96 59.7673 14.9307 59.9579 14.872C60.1486 14.7987 60.2733 14.6667 60.3319 14.476C60.3906 14.2707 60.4199 13.926 60.4199 13.442V10.824C60.4199 10.12 60.3979 9.66533 60.3539 9.46C60.3246 9.24 60.2146 9.13 60.0239 9.13C59.8333 9.13 59.4373 9.26933 58.8359 9.548H58.8139C58.7553 9.548 58.7039 9.51133 58.6599 9.438C58.6306 9.36466 58.6453 9.32066 58.7039 9.306L61.3879 8.052H61.4319C61.4759 8.052 61.5126 8.074 61.5419 8.118C61.5859 8.14733 61.6079 8.17667 61.6079 8.206V13.442C61.6079 13.9407 61.6299 14.2927 61.6739 14.498C61.7326 14.6887 61.8499 14.8133 62.0259 14.872C62.2019 14.9307 62.5173 14.96 62.9719 14.96C63.0159 14.96 63.0379 15.004 63.0379 15.092C63.0379 15.1653 63.0159 15.202 62.9719 15.202C62.6346 15.202 62.3706 15.1947 62.1799 15.18L61.0359 15.158L59.8259 15.18C59.6206 15.1947 59.3346 15.202 58.9679 15.202Z"/>
<path d="M62.0638 22C62.0638 22.0147 62.0491 22.022 62.0198 22.022C61.9464 22.022 61.8364 21.9853 61.6898 21.912C61.5431 21.8387 61.4771 21.7873 61.4918 21.758L67.6298 8.184C67.6298 8.16933 67.6518 8.162 67.6958 8.162C67.7691 8.162 67.8791 8.19867 68.0258 8.272C68.1724 8.34533 68.2384 8.39667 68.2238 8.426L62.0638 22Z"/>
<path d="M69.7251 21.098C69.7251 21.3033 69.7398 21.45 69.7691 21.538C69.7984 21.6113 69.8791 21.67 70.0111 21.714C70.1431 21.7433 70.3631 21.758 70.6711 21.758C70.6858 21.7873 70.6931 21.8313 70.6931 21.89C70.6931 21.9487 70.6858 21.9927 70.6711 22.022L69.2631 22L67.4591 22.022C67.4444 22.022 67.4371 21.978 67.4371 21.89C67.4371 21.802 67.4444 21.758 67.4591 21.758C67.8258 21.758 68.0824 21.7433 68.2291 21.714C68.3904 21.6847 68.4931 21.626 68.5371 21.538C68.5957 21.45 68.6251 21.3033 68.6251 21.098V16.148L68.9771 15.884L66.5791 19.536C66.5644 19.58 66.5791 19.602 66.6231 19.602C67.5031 19.602 68.5884 19.5727 69.8791 19.514L70.6711 19.47C70.7004 19.47 70.7151 19.5653 70.7151 19.756C70.7151 19.9613 70.7004 20.064 70.6711 20.064C68.9698 19.976 67.3711 19.932 65.8751 19.932C65.8311 19.932 65.7944 19.91 65.7651 19.866C65.7357 19.822 65.7431 19.7853 65.7871 19.756L69.2851 14.916C69.3144 14.872 69.3804 14.85 69.4831 14.85C69.5417 14.85 69.5931 14.8573 69.6371 14.872C69.6958 14.8867 69.7251 14.9087 69.7251 14.938V21.098Z"/>
<path d="M55 16.5L50 13V15H47V18H50V20L55 16.5Z" class="error"/>
</svg>
