<svg width="52" height="32" viewBox="0 0 52 32" xmlns="http://www.w3.org/2000/svg"><style>@import '../colors.css';</style>
<path d="M5.7644 22.264C5.1484 22.264 4.62774 22.1247 4.2024 21.846C3.79174 21.5527 3.5864 21.0687 3.5864 20.394V15.312C3.5864 14.7987 3.51307 14.4687 3.3664 14.322C3.2344 14.1753 2.9264 14.102 2.4424 14.102C2.3984 14.102 2.3764 14.0433 2.3764 13.926C2.3764 13.8233 2.3984 13.772 2.4424 13.772C3.08774 13.7573 3.6084 13.6033 4.0044 13.31C4.4004 13.002 4.65707 12.584 4.7744 12.056C4.78907 12.012 4.84774 11.99 4.9504 11.99C5.05307 11.99 5.1044 12.012 5.1044 12.056V19.646C5.1044 20.8047 5.66907 21.384 6.7984 21.384C7.42907 21.384 8.0084 21.1787 8.5364 20.768C8.55107 20.7533 8.57307 20.746 8.6024 20.746C8.6464 20.746 8.68307 20.7753 8.7124 20.834C8.74174 20.8927 8.7344 20.9367 8.6904 20.966C8.14774 21.4207 7.64907 21.7507 7.1944 21.956C6.73974 22.1613 6.26307 22.264 5.7644 22.264ZM8.0304 14.586C7.04774 14.366 5.91107 14.256 4.6204 14.256V13.75C5.5444 13.75 6.70307 13.6767 8.0964 13.53C8.1404 13.53 8.17707 13.5813 8.2064 13.684C8.23574 13.7867 8.2504 13.904 8.2504 14.036C8.2504 14.168 8.2284 14.3 8.1844 14.432C8.1404 14.5493 8.08907 14.6007 8.0304 14.586Z"/>
<path d="M15.112 13.948C15.1707 13.8453 15.134 13.794 15.002 13.794C13.4767 13.794 12.3547 13.9407 11.636 14.234C10.932 14.5273 10.448 15.0773 10.184 15.884C10.184 15.8987 10.1547 15.906 10.096 15.906C9.97866 15.906 9.92733 15.8767 9.942 15.818L10.734 12.804C10.7487 12.7747 10.8 12.7673 10.888 12.782C10.976 12.782 11.0127 12.7967 10.998 12.826C10.9833 12.8847 10.976 12.958 10.976 13.046C10.976 13.222 11.0567 13.3467 11.218 13.42C11.3793 13.4787 11.658 13.508 12.054 13.508H16.828C16.9013 13.508 16.9527 13.5373 16.982 13.596C17.026 13.6547 17.0333 13.7133 17.004 13.772L11.878 21.494C11.8193 21.5967 11.856 21.648 11.988 21.648C13.2493 21.648 14.1953 21.5893 14.826 21.472C15.4713 21.3547 15.948 21.142 16.256 20.834C16.5787 20.526 16.8353 20.042 17.026 19.382C17.0407 19.338 17.0847 19.316 17.158 19.316C17.2313 19.316 17.268 19.338 17.268 19.382L17.224 21.758C17.224 21.8167 17.202 21.8753 17.158 21.934C17.1287 21.978 17.0847 22 17.026 22H10.096C10.0373 22 9.986 21.9707 9.942 21.912C9.91266 21.8533 9.91266 21.7947 9.942 21.736L15.112 13.948Z"/>
<path d="M39.808 28.05C39.764 28.05 39.7273 28.0133 39.698 27.94C39.6687 27.8813 39.6833 27.8373 39.742 27.808C41.37 26.9133 42.5067 26.026 43.152 25.146C43.7973 24.2807 44.12 23.3713 44.12 22.418C44.12 21.802 43.988 21.2227 43.724 20.68C43.46 20.1373 43.064 19.7047 42.536 19.382C42.008 19.0447 41.3773 18.876 40.644 18.876C40.5707 18.876 40.512 18.8467 40.468 18.788C40.4387 18.7293 40.446 18.678 40.49 18.634L43.416 14.344C43.4747 14.2413 43.438 14.19 43.306 14.19L36.904 14.168V13.772L45.242 13.662C45.3153 13.662 45.374 13.706 45.418 13.794C45.462 13.8673 45.462 13.9333 45.418 13.992L42.382 18.414C42.294 18.5167 42.3233 18.568 42.47 18.568C43.5113 18.6267 44.3327 18.986 44.934 19.646C45.5353 20.2913 45.836 21.1273 45.836 22.154C45.836 23.2247 45.352 24.2293 44.384 25.168C43.4307 26.1213 41.9127 27.082 39.83 28.05H39.808ZM38.114 22.264C37.498 22.264 36.9773 22.1247 36.552 21.846C36.1413 21.5527 35.936 21.0687 35.936 20.394V15.312C35.936 14.7987 35.8627 14.4687 35.716 14.322C35.584 14.1753 35.276 14.102 34.792 14.102C34.748 14.102 34.726 14.0433 34.726 13.926C34.726 13.8233 34.748 13.772 34.792 13.772C35.4373 13.7573 35.958 13.6033 36.354 13.31C36.75 13.002 37.0067 12.584 37.124 12.056C37.1387 12.012 37.1973 11.99 37.3 11.99C37.4027 11.99 37.454 12.012 37.454 12.056V19.646C37.454 20.8047 38.0187 21.384 39.148 21.384C39.5733 21.384 39.9767 21.2667 40.358 21.032C40.3727 21.0173 40.3947 21.01 40.424 21.01C40.468 21.01 40.4973 21.0393 40.512 21.098C40.5413 21.1567 40.534 21.2007 40.49 21.23C40.0647 21.5967 39.6613 21.8607 39.28 22.022C38.9133 22.1833 38.5247 22.264 38.114 22.264Z"/>
<path d="M31 16.5L26 13V15H23V18H26V20L31 16.5Z" class="error"/>
</svg>
