<svg width="52" height="32" viewBox="0 0 52 32" xmlns="http://www.w3.org/2000/svg"><style>@import '../colors.css';</style>
<path d="M6.02717 22C5.98317 22 5.96117 21.956 5.96117 21.868C5.96117 21.78 5.98317 21.736 6.02717 21.736C6.4525 21.736 6.7605 21.6993 6.95117 21.626C7.1565 21.5527 7.29584 21.4133 7.36917 21.208C7.4425 20.988 7.47917 20.658 7.47917 20.218V15.268C7.47917 14.916 7.4425 14.6593 7.36917 14.498C7.29584 14.3367 7.1565 14.234 6.95117 14.19C6.74584 14.1313 6.4085 14.102 5.93917 14.102C5.89517 14.102 5.87317 14.0507 5.87317 13.948C5.87317 13.8453 5.89517 13.794 5.93917 13.794C6.51117 13.794 6.89984 13.728 7.10517 13.596C7.32517 13.4493 7.4425 13.1853 7.45717 12.804C7.5305 10.4133 7.9705 8.69001 8.77717 7.63401C9.58384 6.56335 10.7865 6.02802 12.3852 6.02802C13.1625 6.02802 13.7858 6.14535 14.2552 6.38001C14.7245 6.60001 14.9592 6.88601 14.9592 7.23802C14.9592 7.48735 14.8712 7.68535 14.6952 7.83201C14.5192 7.97868 14.3138 8.05202 14.0792 8.05202C13.8445 8.05202 13.6538 8.00068 13.5072 7.89801C13.3752 7.78068 13.2358 7.60468 13.0892 7.37001C12.8985 7.06201 12.6858 6.83468 12.4512 6.68801C12.2312 6.52668 11.9452 6.44602 11.5932 6.44602C10.8012 6.44602 10.1705 6.93001 9.70117 7.89801C9.23184 8.86601 8.99717 10.3473 8.99717 12.342V20.218C8.99717 20.6727 9.04117 21.0027 9.12917 21.208C9.23184 21.4133 9.42984 21.5527 9.72317 21.626C10.0165 21.6993 10.4785 21.736 11.1092 21.736C11.1532 21.736 11.1752 21.78 11.1752 21.868C11.1752 21.956 11.1532 22 11.1092 22L9.63517 21.978C9.32717 21.9633 8.85784 21.956 8.22717 21.956L6.95117 21.978C6.73117 21.9927 6.42317 22 6.02717 22ZM11.6372 14.586C10.6838 14.366 9.58384 14.256 8.33717 14.256V13.75C9.23184 13.75 10.3538 13.6767 11.7032 13.53C11.7472 13.53 11.7838 13.5813 11.8132 13.684C11.8425 13.7867 11.8572 13.904 11.8572 14.036C11.8572 14.1533 11.8278 14.278 11.7692 14.41C11.7252 14.542 11.6812 14.6007 11.6372 14.586Z"/>
<path d="M13.1483 22C13.1043 22 13.0823 21.956 13.0823 21.868C13.0823 21.78 13.1043 21.736 13.1483 21.736C13.691 21.736 14.043 21.6407 14.2043 21.45C14.3803 21.2447 14.4683 20.834 14.4683 20.218V16.148C14.4683 15.6347 14.417 15.268 14.3143 15.048C14.2116 14.8133 14.0283 14.696 13.7643 14.696C13.5296 14.696 13.2143 14.7913 12.8183 14.982H12.7963C12.7376 14.982 12.6936 14.9453 12.6643 14.872C12.635 14.784 12.6496 14.7327 12.7083 14.718L15.7003 13.332L15.7883 13.31C15.8323 13.31 15.8763 13.332 15.9203 13.376C15.979 13.42 16.0083 13.4713 16.0083 13.53C16.0083 13.6327 16.001 13.926 15.9863 14.41C15.9716 14.894 15.9643 15.466 15.9643 16.126V20.218C15.9643 20.834 16.045 21.2447 16.2063 21.45C16.3823 21.6407 16.7416 21.736 17.2843 21.736C17.3283 21.736 17.3503 21.78 17.3503 21.868C17.3503 21.956 17.3283 22 17.2843 22C16.9323 22 16.6463 21.9927 16.4263 21.978L15.2163 21.956L14.0063 21.978C13.7863 21.9927 13.5003 22 13.1483 22ZM15.0843 10.846C14.747 10.846 14.4756 10.758 14.2703 10.582C14.0796 10.3913 13.9843 10.1273 13.9843 9.79002C13.9843 9.46735 14.0796 9.21801 14.2703 9.04201C14.4756 8.86601 14.747 8.77802 15.0843 8.77802C15.407 8.77802 15.6563 8.86601 15.8323 9.04201C16.023 9.21801 16.1183 9.46735 16.1183 9.79002C16.1183 10.1273 16.0303 10.3913 15.8543 10.582C15.6783 10.758 15.4216 10.846 15.0843 10.846Z"/>
<path d="M34.66 22C34.616 22 34.594 21.956 34.594 21.868C34.594 21.78 34.616 21.736 34.66 21.736C35.0853 21.736 35.3933 21.6993 35.584 21.626C35.7893 21.5527 35.9286 21.4133 36.002 21.208C36.0753 20.988 36.112 20.658 36.112 20.218V15.268C36.112 14.916 36.0753 14.6593 36.002 14.498C35.9286 14.3367 35.7893 14.234 35.584 14.19C35.3786 14.1313 35.0413 14.102 34.572 14.102C34.528 14.102 34.506 14.0507 34.506 13.948C34.506 13.8453 34.528 13.794 34.572 13.794C35.144 13.794 35.5326 13.728 35.738 13.596C35.958 13.4493 36.0753 13.1853 36.09 12.804C36.178 10.4427 36.6766 8.72668 37.586 7.65602C38.4953 6.57068 39.7713 6.02802 41.414 6.02802C42.2793 6.02802 42.9833 6.18935 43.526 6.51201C44.0686 6.83468 44.34 7.23068 44.34 7.70001C44.34 7.93468 44.2666 8.12535 44.12 8.27202C43.9733 8.40402 43.7753 8.47002 43.526 8.47002C43.2766 8.47002 43.0786 8.40402 42.932 8.27202C42.7853 8.12535 42.6313 7.90535 42.47 7.61201C42.2646 7.23068 42.0373 6.93735 41.788 6.73202C41.5386 6.52668 41.172 6.42402 40.688 6.42402C39.7786 6.42402 39.038 6.91535 38.466 7.89801C37.9086 8.88068 37.63 10.362 37.63 12.342V20.218C37.63 20.6727 37.674 21.0027 37.762 21.208C37.8646 21.4133 38.0626 21.5527 38.356 21.626C38.6493 21.6993 39.1113 21.736 39.742 21.736C39.786 21.736 39.808 21.78 39.808 21.868C39.808 21.956 39.786 22 39.742 22L38.268 21.978C37.96 21.9633 37.4906 21.956 36.86 21.956L35.584 21.978C35.364 21.9927 35.056 22 34.66 22ZM40.27 14.63C39.2286 14.3367 38.1726 14.19 37.102 14.19V13.75C37.9673 13.75 39.0453 13.6767 40.336 13.53C40.38 13.53 40.4166 13.5887 40.446 13.706C40.4753 13.8087 40.49 13.926 40.49 14.058C40.49 14.19 40.4606 14.3293 40.402 14.476C40.3433 14.608 40.2993 14.6593 40.27 14.63ZM41.656 22C41.6266 22 41.612 21.956 41.612 21.868C41.612 21.78 41.6266 21.736 41.656 21.736C42.1986 21.736 42.5506 21.6407 42.712 21.45C42.888 21.2447 42.976 20.834 42.976 20.218V16.148C42.976 15.6347 42.9246 15.268 42.822 15.048C42.734 14.8133 42.5653 14.696 42.316 14.696C42.0666 14.696 41.744 14.7913 41.348 14.982H41.326C41.2673 14.982 41.2233 14.9453 41.194 14.872C41.1646 14.7987 41.172 14.7473 41.216 14.718L44.23 13.31L44.296 13.288C44.3546 13.288 44.406 13.3173 44.45 13.376C44.5086 13.4347 44.538 13.486 44.538 13.53C44.538 13.6327 44.5233 13.926 44.494 14.41C44.4793 14.894 44.472 15.466 44.472 16.126V20.218C44.472 20.834 44.56 21.2447 44.736 21.45C44.912 21.6407 45.2713 21.736 45.814 21.736C45.858 21.736 45.88 21.78 45.88 21.868C45.88 21.956 45.858 22 45.814 22C45.4473 22 45.1613 21.9927 44.956 21.978L43.746 21.956L42.492 21.978C42.2866 21.9927 42.008 22 41.656 22Z"/>
<path d="M31 16.5L26 13V15H23V18H26V20L31 16.5Z" class="error"/>
</svg>
