<svg width="104" height="32" viewBox="0 0 104 32" xmlns="http://www.w3.org/2000/svg"><style>@import '../colors.css';</style>
<path d="M10.0153 15.29C10.0153 14.8353 9.97129 14.5053 9.88329 14.3C9.80996 14.0947 9.64862 13.9553 9.39929 13.882C9.14996 13.8087 8.74662 13.772 8.18929 13.772C8.14529 13.772 8.12329 13.728 8.12329 13.64C8.12329 13.552 8.14529 13.508 8.18929 13.508C8.62929 13.508 8.98129 13.5153 9.24529 13.53L10.7633 13.552L12.2813 13.53C12.5306 13.5153 12.8826 13.508 13.3373 13.508C13.3813 13.508 13.4033 13.552 13.4033 13.64C13.4033 13.728 13.3813 13.772 13.3373 13.772C12.8093 13.772 12.4206 13.816 12.1713 13.904C11.922 13.9773 11.746 14.1167 11.6433 14.322C11.5553 14.5273 11.5113 14.85 11.5113 15.29V20.218C11.5113 20.6727 11.548 21.0027 11.6213 21.208C11.7093 21.4133 11.878 21.5527 12.1273 21.626C12.3766 21.6993 12.78 21.736 13.3373 21.736C13.3813 21.736 13.4033 21.78 13.4033 21.868C13.4033 21.956 13.3813 22 13.3373 22C12.8973 22 12.5453 21.9927 12.2813 21.978L10.7633 21.956L9.24529 21.978C8.99596 21.9927 8.64396 22 8.18929 22C8.14529 22 8.12329 21.956 8.12329 21.868C8.12329 21.78 8.14529 21.736 8.18929 21.736C8.71729 21.736 9.10596 21.6993 9.35529 21.626C9.60462 21.538 9.77329 21.3913 9.86129 21.186C9.96396 20.9807 10.0153 20.658 10.0153 20.218V15.29Z"/>
<path d="M15.67 28.05C15.6113 28.0647 15.56 28.028 15.516 27.94C15.4866 27.8667 15.5013 27.8227 15.56 27.808C17.2613 27.236 18.486 26.4513 19.234 25.454C19.982 24.4713 20.356 23.4813 20.356 22.484C20.356 21.6627 20.1433 20.988 19.718 20.46C19.3073 19.9173 18.6986 19.646 17.892 19.646C17.496 19.646 17.1513 19.69 16.858 19.778C16.814 19.7927 16.7773 19.756 16.748 19.668C16.7186 19.58 16.7333 19.5287 16.792 19.514C17.892 19.2353 18.6766 18.832 19.146 18.304C19.63 17.7613 19.872 17.028 19.872 16.104C19.872 15.3707 19.7253 14.7987 19.432 14.388C19.1533 13.9627 18.728 13.75 18.156 13.75C16.8506 13.75 15.9193 14.608 15.362 16.324C15.362 16.3387 15.3326 16.346 15.274 16.346C15.142 16.346 15.0833 16.3167 15.098 16.258L15.912 13.046C15.9413 13.0167 15.9706 13.002 16 13.002C16.044 13.002 16.088 13.0167 16.132 13.046C16.176 13.0607 16.1906 13.0753 16.176 13.09C16.1466 13.2073 16.132 13.288 16.132 13.332C16.132 13.5813 16.2566 13.706 16.506 13.706C16.6673 13.706 16.902 13.6473 17.21 13.53C17.5473 13.4273 17.8333 13.354 18.068 13.31C18.3173 13.2513 18.5886 13.222 18.882 13.222C19.7033 13.222 20.3486 13.4713 20.818 13.97C21.302 14.454 21.544 15.0407 21.544 15.73C21.544 16.5807 21.2506 17.358 20.664 18.062C20.0773 18.7513 19.3 19.1913 18.332 19.382L18.552 19.074C19.74 19.0887 20.642 19.404 21.258 20.02C21.874 20.6213 22.182 21.3547 22.182 22.22C22.182 22.9387 21.94 23.6647 21.456 24.398C20.9866 25.1313 20.2606 25.8207 19.278 26.466C18.31 27.1113 17.1073 27.6393 15.67 28.05Z"/>
<path d="M29.6537 15.73C30.6217 15.73 31.3404 16.0013 31.8097 16.544C32.2937 17.0867 32.5357 17.7393 32.5357 18.502C32.5357 19.1913 32.3304 19.8293 31.9197 20.416C31.5237 20.988 30.9811 21.4427 30.2917 21.78C29.6171 22.1173 28.8764 22.286 28.0697 22.286C26.8084 22.286 25.8111 21.8607 25.0777 21.01C24.3444 20.1593 23.9777 18.964 23.9777 17.424C23.9777 16.06 24.2931 14.718 24.9237 13.398C25.5544 12.078 26.4564 10.8973 27.6297 9.85601C28.8177 8.81468 30.2111 8.01535 31.8097 7.45801C31.8684 7.44335 31.9124 7.47268 31.9417 7.54601C31.9711 7.61935 31.9637 7.67068 31.9197 7.70001C30.5704 8.33068 29.4191 9.15935 28.4657 10.186C27.5271 11.198 26.8231 12.3053 26.3537 13.508C25.8844 14.696 25.6497 15.884 25.6497 17.072C25.6497 18.4213 25.9211 19.5507 26.4637 20.46C27.0211 21.3693 27.7617 21.824 28.6857 21.824C29.3457 21.824 29.8737 21.582 30.2697 21.098C30.6657 20.614 30.8637 19.9467 30.8637 19.096C30.8637 18.304 30.6877 17.666 30.3357 17.182C29.9837 16.698 29.4631 16.456 28.7737 16.456C28.4217 16.456 28.0917 16.5293 27.7837 16.676C27.4904 16.808 27.1531 17.0353 26.7717 17.358C26.7571 17.3727 26.7351 17.38 26.7057 17.38C26.6617 17.38 26.6177 17.358 26.5737 17.314C26.5297 17.27 26.5151 17.2333 26.5297 17.204C27.3511 16.2213 28.3924 15.73 29.6537 15.73Z"/>
<path d="M39.4623 14.432C39.8143 14.036 40.0783 13.6473 40.2543 13.266C40.4303 12.8847 40.5183 12.474 40.5183 12.034C40.5183 11.3593 40.3276 10.8167 39.9463 10.406C39.5796 9.98068 39.1103 9.76801 38.5383 9.76801C38.0543 9.76801 37.6583 9.90735 37.3503 10.186C37.057 10.4647 36.9103 10.846 36.9103 11.33C36.9103 11.77 37.035 12.166 37.2843 12.518C37.5483 12.8553 37.8636 13.156 38.2303 13.42C38.6116 13.684 39.1396 14.0067 39.8143 14.388C40.5623 14.7987 41.1636 15.1727 41.6183 15.51C42.0876 15.8473 42.4763 16.258 42.7843 16.742C43.107 17.226 43.2683 17.7907 43.2683 18.436C43.2683 19.1547 43.0556 19.8073 42.6303 20.394C42.205 20.9807 41.633 21.4427 40.9143 21.78C40.1956 22.1173 39.411 22.286 38.5603 22.286C37.695 22.286 36.9323 22.1247 36.2723 21.802C35.6123 21.4647 35.099 21.0247 34.7323 20.482C34.3803 19.9247 34.2043 19.3233 34.2043 18.678C34.2043 17.6953 34.571 16.7933 35.3043 15.972C36.0523 15.136 36.9616 14.542 38.0323 14.19L38.1643 14.366C37.4456 14.718 36.8883 15.224 36.4923 15.884C36.0963 16.544 35.8983 17.2847 35.8983 18.106C35.8983 18.766 36.0376 19.382 36.3163 19.954C36.595 20.526 36.9763 20.988 37.4603 21.34C37.959 21.692 38.5236 21.868 39.1543 21.868C39.917 21.868 40.5403 21.6187 41.0243 21.12C41.523 20.6067 41.7723 19.9613 41.7723 19.184C41.7723 18.5387 41.6183 17.9887 41.3103 17.534C41.0023 17.0793 40.6356 16.7053 40.2103 16.412C39.785 16.1187 39.1763 15.752 38.3843 15.312C37.739 14.9453 37.2183 14.6227 36.8223 14.344C36.441 14.0653 36.1183 13.7353 35.8543 13.354C35.5903 12.9727 35.4583 12.54 35.4583 12.056C35.4583 11.4693 35.6343 10.978 35.9863 10.582C36.3383 10.1713 36.7783 9.87068 37.3063 9.68001C37.849 9.47468 38.3916 9.37201 38.9343 9.37201C39.5356 9.37201 40.0636 9.48935 40.5183 9.72401C40.9876 9.94401 41.347 10.23 41.5963 10.582C41.8456 10.934 41.9703 11.3007 41.9703 11.682C41.9703 12.1807 41.7576 12.6867 41.3323 13.2C40.9216 13.7133 40.3423 14.168 39.5943 14.564L39.4623 14.432Z"/>
<path d="M61.364 22C61.3346 22 61.32 21.956 61.32 21.868C61.32 21.78 61.3346 21.736 61.364 21.736C62.0386 21.736 62.5446 21.6993 62.882 21.626C63.2193 21.538 63.454 21.3913 63.586 21.186C63.7326 20.966 63.806 20.6433 63.806 20.218V11.572C63.806 10.692 63.5933 10.252 63.168 10.252C62.7866 10.252 62.1706 10.5673 61.32 11.198L61.276 11.22C61.2173 11.22 61.1733 11.1833 61.144 11.11C61.1146 11.0367 61.122 10.9853 61.166 10.956L65.104 8.09601C65.1773 8.05201 65.2286 8.03001 65.258 8.03001C65.2873 8.03001 65.3166 8.04468 65.346 8.07401C65.3753 8.10335 65.39 8.14001 65.39 8.18401V20.218C65.39 20.658 65.4486 20.988 65.566 21.208C65.698 21.4133 65.9253 21.5527 66.248 21.626C66.5853 21.6993 67.106 21.736 67.81 21.736C67.8393 21.736 67.854 21.78 67.854 21.868C67.854 21.956 67.8393 22 67.81 22C67.2526 22 66.8053 21.9927 66.468 21.978L64.598 21.956L62.75 21.978C62.4126 21.9927 61.9506 22 61.364 22Z"/>
<path d="M72.9937 22.264C71.615 22.264 70.4197 21.714 69.4077 20.614L69.3857 20.57C69.3857 20.5113 69.415 20.4673 69.4737 20.438C69.547 20.394 69.5984 20.394 69.6277 20.438C69.9797 20.8047 70.4124 21.0833 70.9257 21.274C71.439 21.4647 71.945 21.56 72.4437 21.56C73.441 21.56 74.1744 21.2593 74.6437 20.658C75.1277 20.0567 75.3697 19.2793 75.3697 18.326C75.3697 16.0673 74.0937 14.938 71.5417 14.938C71.483 14.938 71.4537 14.8867 71.4537 14.784C71.4537 14.6813 71.483 14.63 71.5417 14.63C72.7737 14.63 73.6464 14.3733 74.1597 13.86C74.673 13.332 74.9297 12.606 74.9297 11.682C74.9297 10.7727 74.717 10.0907 74.2917 9.63601C73.881 9.18135 73.3017 8.95401 72.5537 8.95401C71.9524 8.95401 71.3804 9.10801 70.8377 9.41601C70.295 9.70935 69.899 10.1347 69.6497 10.692C69.6497 10.7067 69.635 10.714 69.6057 10.714C69.5617 10.714 69.5104 10.6993 69.4517 10.67C69.4077 10.6407 69.393 10.6113 69.4077 10.582C69.7304 9.79001 70.229 9.16668 70.9037 8.71201C71.593 8.24268 72.385 8.00801 73.2797 8.00801C74.3064 8.00801 75.1204 8.30135 75.7217 8.88801C76.3377 9.46001 76.6457 10.186 76.6457 11.066C76.6457 11.946 76.345 12.7453 75.7437 13.464C75.1424 14.168 74.3357 14.6227 73.3237 14.828L73.3677 14.652C74.1744 14.5933 74.8637 14.718 75.4357 15.026C76.0224 15.334 76.4624 15.7667 76.7557 16.324C77.049 16.8813 77.1957 17.49 77.1957 18.15C77.1957 18.9567 77.0124 19.6753 76.6457 20.306C76.2937 20.922 75.795 21.406 75.1497 21.758C74.519 22.0953 73.8004 22.264 72.9937 22.264Z"/>
<path d="M84.6883 14.52C85.3629 14.52 85.9496 14.6813 86.4483 15.004C86.9469 15.3267 87.3283 15.7667 87.5923 16.324C87.8709 16.8813 88.0103 17.49 88.0103 18.15C88.0103 18.9273 87.8196 19.6313 87.4383 20.262C87.0716 20.8927 86.5583 21.3913 85.8983 21.758C85.2529 22.11 84.5196 22.286 83.6983 22.286C82.3196 22.286 81.2636 21.8093 80.5303 20.856C79.7969 19.888 79.4303 18.6047 79.4303 17.006C79.4303 15.5687 79.7163 14.1753 80.2883 12.826C80.8603 11.462 81.6816 10.34 82.7523 9.46001C83.8229 8.56535 85.0696 8.08135 86.4923 8.00801C86.5509 8.00801 86.5876 8.04468 86.6023 8.11801C86.6169 8.17668 86.6023 8.21335 86.5583 8.22801C85.4143 8.50668 84.4389 9.07135 83.6323 9.92201C82.8256 10.7727 82.2169 11.7993 81.8063 13.002C81.4103 14.19 81.2123 15.4293 81.2123 16.72C81.2123 18.1867 81.4689 19.4113 81.9823 20.394C82.4956 21.362 83.2436 21.846 84.2263 21.846C84.9009 21.846 85.3996 21.5747 85.7223 21.032C86.0596 20.4747 86.2283 19.712 86.2283 18.744C86.2283 17.644 86.0303 16.786 85.6343 16.17C85.2529 15.5393 84.7029 15.224 83.9843 15.224C83.3683 15.224 82.8183 15.444 82.3343 15.884C82.3196 15.8987 82.2976 15.906 82.2683 15.906C82.2243 15.906 82.1803 15.884 82.1363 15.84C82.0923 15.7813 82.0776 15.7447 82.0923 15.73C82.4149 15.334 82.7963 15.0333 83.2363 14.828C83.6909 14.6227 84.1749 14.52 84.6883 14.52Z"/>
<path d="M94.9884 14.542C95.9124 13.662 96.3744 12.496 96.3744 11.044C96.3744 10.1787 96.1837 9.52601 95.8024 9.08601C95.4211 8.63135 94.9151 8.40401 94.2844 8.40401C93.7564 8.40401 93.3384 8.58001 93.0304 8.93201C92.7224 9.26935 92.5684 9.70935 92.5684 10.252C92.5684 10.824 92.7004 11.33 92.9644 11.77C93.2431 12.1953 93.5804 12.562 93.9764 12.87C94.3871 13.178 94.9444 13.5373 95.6484 13.948C96.3671 14.388 96.9464 14.7913 97.3864 15.158C97.841 15.51 98.2151 15.9573 98.5084 16.5C98.8164 17.0427 98.9704 17.688 98.9704 18.436C98.9704 19.1987 98.7651 19.8733 98.3544 20.46C97.9584 21.0467 97.4084 21.5013 96.7044 21.824C96.0151 22.132 95.2451 22.286 94.3944 22.286C93.4851 22.286 92.6931 22.1173 92.0184 21.78C91.3437 21.4427 90.8304 20.988 90.4784 20.416C90.1264 19.8293 89.9504 19.184 89.9504 18.48C89.9504 17.7467 90.1337 17.0647 90.5004 16.434C90.8817 15.8033 91.3657 15.268 91.9524 14.828C92.5537 14.3733 93.1771 14.036 93.8224 13.816L93.9544 13.992C92.4877 14.7987 91.7544 16.126 91.7544 17.974C91.7544 19.118 92.0404 20.0567 92.6124 20.79C93.1991 21.5087 93.9691 21.868 94.9224 21.868C95.7144 21.868 96.3304 21.626 96.7704 21.142C97.2104 20.6433 97.4304 19.9687 97.4304 19.118C97.4304 18.4287 97.2764 17.842 96.9684 17.358C96.6751 16.8593 96.3157 16.4487 95.8904 16.126C95.4651 15.8033 94.8784 15.4147 94.1304 14.96C93.4704 14.564 92.9424 14.2047 92.5464 13.882C92.1504 13.5593 91.8204 13.178 91.5564 12.738C91.2924 12.2833 91.1604 11.748 91.1604 11.132C91.1604 10.4573 91.329 9.88535 91.6664 9.41601C92.0037 8.94668 92.4437 8.59468 92.9864 8.36001C93.529 8.12535 94.1011 8.00801 94.7024 8.00801C95.6411 8.00801 96.411 8.27201 97.0124 8.80001C97.6284 9.32801 97.9364 9.98801 97.9364 10.78C97.9364 11.5573 97.6724 12.2833 97.1444 12.958C96.6311 13.6327 95.9491 14.2047 95.0984 14.674L94.9884 14.542Z"/>
<path d="M57 16.5L52 13V15H49V18H52V20L57 16.5Z" class="error"/>
</svg>
