<svg width="104" height="32" viewBox="0 0 104 32" xmlns="http://www.w3.org/2000/svg"><style>@import '../colors.css';</style>
<path d="M2.90749 22C2.87815 22 2.86349 21.956 2.86349 21.868C2.86349 21.78 2.87815 21.736 2.90749 21.736C3.71415 21.736 4.31549 21.6993 4.71149 21.626C5.12215 21.538 5.40815 21.3913 5.56949 21.186C5.74549 20.966 5.83349 20.6433 5.83349 20.218V11.572C5.83349 11.132 5.78215 10.8093 5.67949 10.604C5.59149 10.3987 5.43749 10.296 5.21749 10.296C5.02682 10.296 4.71149 10.4133 4.27149 10.648C3.84615 10.8827 3.35482 11.2053 2.79749 11.616L2.75349 11.638C2.69482 11.638 2.65082 11.6087 2.62149 11.55C2.59215 11.4767 2.59215 11.4253 2.62149 11.396L7.15349 8.09601C7.22682 8.05201 7.27815 8.03001 7.30749 8.03001C7.33682 8.03001 7.36615 8.04468 7.39549 8.07401C7.42482 8.10335 7.43949 8.14001 7.43949 8.18401V20.218C7.43949 20.658 7.51282 20.9807 7.65949 21.186C7.82082 21.3913 8.09949 21.538 8.49549 21.626C8.90615 21.6993 9.52949 21.736 10.3655 21.736C10.4095 21.736 10.4315 21.78 10.4315 21.868C10.4315 21.956 10.4095 22 10.3655 22C9.70549 22 9.18482 21.9927 8.80349 21.978L6.64749 21.956L4.49149 21.978C4.11015 21.9927 3.58215 22 2.90749 22Z"/>
<path d="M16.8821 22.264C15.5035 22.264 14.3081 21.714 13.2961 20.614L13.2741 20.57C13.2741 20.5113 13.3035 20.4673 13.3621 20.438C13.4355 20.394 13.4868 20.394 13.5161 20.438C13.8681 20.8047 14.3008 21.0833 14.8141 21.274C15.3275 21.4647 15.8335 21.56 16.3321 21.56C17.3295 21.56 18.0628 21.2593 18.5321 20.658C19.0161 20.0567 19.2581 19.2793 19.2581 18.326C19.2581 16.0673 17.9821 14.938 15.4301 14.938C15.3715 14.938 15.3421 14.8867 15.3421 14.784C15.3421 14.6813 15.3715 14.63 15.4301 14.63C16.6621 14.63 17.5348 14.3733 18.0481 13.86C18.5615 13.332 18.8181 12.606 18.8181 11.682C18.8181 10.7727 18.6055 10.0907 18.1801 9.63601C17.7695 9.18135 17.1901 8.95401 16.4421 8.95401C15.8408 8.95401 15.2688 9.10801 14.7261 9.41601C14.1835 9.70935 13.7875 10.1347 13.5381 10.692C13.5381 10.7067 13.5235 10.714 13.4941 10.714C13.4501 10.714 13.3988 10.6993 13.3401 10.67C13.2961 10.6407 13.2815 10.6113 13.2961 10.582C13.6188 9.79001 14.1175 9.16668 14.7921 8.71201C15.4815 8.24268 16.2735 8.00801 17.1681 8.00801C18.1948 8.00801 19.0088 8.30135 19.6101 8.88801C20.2261 9.46001 20.5341 10.186 20.5341 11.066C20.5341 11.946 20.2335 12.7453 19.6321 13.464C19.0308 14.168 18.2241 14.6227 17.2121 14.828L17.2561 14.652C18.0628 14.5933 18.7521 14.718 19.3241 15.026C19.9108 15.334 20.3508 15.7667 20.6441 16.324C20.9375 16.8813 21.0841 17.49 21.0841 18.15C21.0841 18.9567 20.9008 19.6753 20.5341 20.306C20.1821 20.922 19.6835 21.406 19.0381 21.758C18.4075 22.0953 17.6888 22.264 16.8821 22.264Z"/>
<path d="M28.9208 14.52C29.5954 14.52 30.1821 14.6813 30.6808 15.004C31.1794 15.3267 31.5608 15.7667 31.8248 16.324C32.1034 16.8813 32.2428 17.49 32.2428 18.15C32.2428 18.9273 32.0521 19.6313 31.6708 20.262C31.3041 20.8927 30.7908 21.3913 30.1308 21.758C29.4854 22.11 28.7521 22.286 27.9308 22.286C26.5521 22.286 25.4961 21.8093 24.7628 20.856C24.0294 19.888 23.6628 18.6047 23.6628 17.006C23.6628 15.5687 23.9488 14.1753 24.5208 12.826C25.0928 11.462 25.9141 10.34 26.9848 9.46001C28.0554 8.56535 29.3021 8.08135 30.7248 8.00801C30.7834 8.00801 30.8201 8.04468 30.8348 8.11801C30.8494 8.17668 30.8348 8.21335 30.7908 8.22801C29.6468 8.50668 28.6714 9.07135 27.8648 9.92201C27.0581 10.7727 26.4494 11.7993 26.0388 13.002C25.6428 14.19 25.4448 15.4293 25.4448 16.72C25.4448 18.1867 25.7014 19.4113 26.2148 20.394C26.7281 21.362 27.4761 21.846 28.4588 21.846C29.1334 21.846 29.6321 21.5747 29.9548 21.032C30.2921 20.4747 30.4608 19.712 30.4608 18.744C30.4608 17.644 30.2628 16.786 29.8668 16.17C29.4854 15.5393 28.9354 15.224 28.2168 15.224C27.6008 15.224 27.0508 15.444 26.5668 15.884C26.5521 15.8987 26.5301 15.906 26.5008 15.906C26.4568 15.906 26.4128 15.884 26.3688 15.84C26.3248 15.7813 26.3101 15.7447 26.3248 15.73C26.6474 15.334 27.0288 15.0333 27.4688 14.828C27.9234 14.6227 28.4074 14.52 28.9208 14.52Z"/>
<path d="M39.1994 14.542C40.1234 13.662 40.5854 12.496 40.5854 11.044C40.5854 10.1787 40.3947 9.52601 40.0134 9.08601C39.6321 8.63135 39.1261 8.40401 38.4954 8.40401C37.9674 8.40401 37.5494 8.58001 37.2414 8.93201C36.9334 9.26935 36.7794 9.70935 36.7794 10.252C36.7794 10.824 36.9114 11.33 37.1754 11.77C37.4541 12.1953 37.7914 12.562 38.1874 12.87C38.5981 13.178 39.1554 13.5373 39.8594 13.948C40.5781 14.388 41.1574 14.7913 41.5974 15.158C42.0521 15.51 42.4261 15.9573 42.7194 16.5C43.0274 17.0427 43.1814 17.688 43.1814 18.436C43.1814 19.1987 42.9761 19.8733 42.5654 20.46C42.1694 21.0467 41.6194 21.5013 40.9154 21.824C40.2261 22.132 39.4561 22.286 38.6054 22.286C37.6961 22.286 36.9041 22.1173 36.2294 21.78C35.5547 21.4427 35.0414 20.988 34.6894 20.416C34.3374 19.8293 34.1614 19.184 34.1614 18.48C34.1614 17.7467 34.3447 17.0647 34.7114 16.434C35.0927 15.8033 35.5767 15.268 36.1634 14.828C36.7647 14.3733 37.3881 14.036 38.0334 13.816L38.1654 13.992C36.6987 14.7987 35.9654 16.126 35.9654 17.974C35.9654 19.118 36.2514 20.0567 36.8234 20.79C37.4101 21.5087 38.1801 21.868 39.1334 21.868C39.9254 21.868 40.5414 21.626 40.9814 21.142C41.4214 20.6433 41.6414 19.9687 41.6414 19.118C41.6414 18.4287 41.4874 17.842 41.1794 17.358C40.8861 16.8593 40.5267 16.4487 40.1014 16.126C39.6761 15.8033 39.0894 15.4147 38.3414 14.96C37.6814 14.564 37.1534 14.2047 36.7574 13.882C36.3614 13.5593 36.0314 13.178 35.7674 12.738C35.5034 12.2833 35.3714 11.748 35.3714 11.132C35.3714 10.4573 35.5401 9.88535 35.8774 9.41601C36.2147 8.94668 36.6547 8.59468 37.1974 8.36001C37.7401 8.12535 38.3121 8.00801 38.9134 8.00801C39.8521 8.00801 40.6221 8.27201 41.2234 8.80001C41.8394 9.32801 42.1474 9.98801 42.1474 10.78C42.1474 11.5573 41.8834 12.2833 41.3554 12.958C40.8421 13.6327 40.1601 14.2047 39.3094 14.674L39.1994 14.542Z"/>
<path d="M62.904 15.29C62.904 14.8353 62.86 14.5053 62.772 14.3C62.6987 14.0947 62.5374 13.9553 62.2881 13.882C62.0387 13.8087 61.6354 13.772 61.078 13.772C61.034 13.772 61.0121 13.728 61.0121 13.64C61.0121 13.552 61.034 13.508 61.078 13.508C61.518 13.508 61.87 13.5153 62.134 13.53L63.6521 13.552L65.1701 13.53C65.4194 13.5153 65.7714 13.508 66.2261 13.508C66.2701 13.508 66.292 13.552 66.292 13.64C66.292 13.728 66.2701 13.772 66.2261 13.772C65.6981 13.772 65.3094 13.816 65.0601 13.904C64.8107 13.9773 64.6347 14.1167 64.5321 14.322C64.4441 14.5273 64.4001 14.85 64.4001 15.29V20.218C64.4001 20.6727 64.4367 21.0027 64.5101 21.208C64.5981 21.4133 64.7667 21.5527 65.016 21.626C65.2654 21.6993 65.6687 21.736 66.2261 21.736C66.2701 21.736 66.292 21.78 66.292 21.868C66.292 21.956 66.2701 22 66.2261 22C65.7861 22 65.4341 21.9927 65.1701 21.978L63.6521 21.956L62.134 21.978C61.8847 21.9927 61.5327 22 61.078 22C61.034 22 61.0121 21.956 61.0121 21.868C61.0121 21.78 61.034 21.736 61.078 21.736C61.606 21.736 61.9947 21.6993 62.244 21.626C62.4934 21.538 62.662 21.3913 62.75 21.186C62.8527 20.9807 62.904 20.658 62.904 20.218V15.29Z"/>
<path d="M68.5587 28.05C68.5001 28.0647 68.4487 28.028 68.4047 27.94C68.3754 27.8667 68.3901 27.8227 68.4487 27.808C70.1501 27.236 71.3747 26.4513 72.1227 25.454C72.8707 24.4713 73.2447 23.4813 73.2447 22.484C73.2447 21.6627 73.0321 20.988 72.6067 20.46C72.1961 19.9173 71.5874 19.646 70.7807 19.646C70.3847 19.646 70.0401 19.69 69.7467 19.778C69.7027 19.7927 69.6661 19.756 69.6367 19.668C69.6074 19.58 69.6221 19.5287 69.6807 19.514C70.7807 19.2353 71.5654 18.832 72.0347 18.304C72.5187 17.7613 72.7607 17.028 72.7607 16.104C72.7607 15.3707 72.6141 14.7987 72.3207 14.388C72.0421 13.9627 71.6167 13.75 71.0447 13.75C69.7394 13.75 68.8081 14.608 68.2507 16.324C68.2507 16.3387 68.2214 16.346 68.1627 16.346C68.0307 16.346 67.9721 16.3167 67.9867 16.258L68.8007 13.046C68.8301 13.0167 68.8594 13.002 68.8887 13.002C68.9327 13.002 68.9767 13.0167 69.0207 13.046C69.0647 13.0607 69.0794 13.0753 69.0647 13.09C69.0354 13.2073 69.0207 13.288 69.0207 13.332C69.0207 13.5813 69.1454 13.706 69.3947 13.706C69.5561 13.706 69.7907 13.6473 70.0987 13.53C70.4361 13.4273 70.7221 13.354 70.9567 13.31C71.2061 13.2513 71.4774 13.222 71.7707 13.222C72.5921 13.222 73.2374 13.4713 73.7067 13.97C74.1907 14.454 74.4327 15.0407 74.4327 15.73C74.4327 16.5807 74.1394 17.358 73.5527 18.062C72.9661 18.7513 72.1887 19.1913 71.2207 19.382L71.4407 19.074C72.6287 19.0887 73.5307 19.404 74.1467 20.02C74.7627 20.6213 75.0707 21.3547 75.0707 22.22C75.0707 22.9387 74.8287 23.6647 74.3447 24.398C73.8754 25.1313 73.1494 25.8207 72.1667 26.466C71.1987 27.1113 69.9961 27.6393 68.5587 28.05Z"/>
<path d="M82.5425 15.73C83.5105 15.73 84.2292 16.0013 84.6985 16.544C85.1825 17.0867 85.4245 17.7393 85.4245 18.502C85.4245 19.1913 85.2192 19.8293 84.8085 20.416C84.4125 20.988 83.8698 21.4427 83.1805 21.78C82.5058 22.1173 81.7652 22.286 80.9585 22.286C79.6972 22.286 78.6998 21.8607 77.9665 21.01C77.2332 20.1593 76.8665 18.964 76.8665 17.424C76.8665 16.06 77.1818 14.718 77.8125 13.398C78.4432 12.078 79.3452 10.8973 80.5185 9.85601C81.7065 8.81468 83.0998 8.01535 84.6985 7.45801C84.7572 7.44335 84.8012 7.47268 84.8305 7.54601C84.8598 7.61935 84.8525 7.67068 84.8085 7.70001C83.4592 8.33068 82.3078 9.15935 81.3545 10.186C80.4158 11.198 79.7118 12.3053 79.2425 13.508C78.7732 14.696 78.5385 15.884 78.5385 17.072C78.5385 18.4213 78.8098 19.5507 79.3525 20.46C79.9098 21.3693 80.6505 21.824 81.5745 21.824C82.2345 21.824 82.7625 21.582 83.1585 21.098C83.5545 20.614 83.7525 19.9467 83.7525 19.096C83.7525 18.304 83.5765 17.666 83.2245 17.182C82.8725 16.698 82.3518 16.456 81.6625 16.456C81.3105 16.456 80.9805 16.5293 80.6725 16.676C80.3792 16.808 80.0418 17.0353 79.6605 17.358C79.6458 17.3727 79.6238 17.38 79.5945 17.38C79.5505 17.38 79.5065 17.358 79.4625 17.314C79.4185 17.27 79.4038 17.2333 79.4185 17.204C80.2398 16.2213 81.2812 15.73 82.5425 15.73Z"/>
<path d="M92.3511 14.432C92.7031 14.036 92.9671 13.6473 93.1431 13.266C93.3191 12.8847 93.4071 12.474 93.4071 12.034C93.4071 11.3593 93.2164 10.8167 92.8351 10.406C92.4684 9.98068 91.999 9.76801 91.427 9.76801C90.943 9.76801 90.5471 9.90735 90.2391 10.186C89.9457 10.4647 89.799 10.846 89.799 11.33C89.799 11.77 89.9237 12.166 90.173 12.518C90.437 12.8553 90.7524 13.156 91.119 13.42C91.5004 13.684 92.0284 14.0067 92.703 14.388C93.451 14.7987 94.0524 15.1727 94.507 15.51C94.9764 15.8473 95.365 16.258 95.673 16.742C95.9957 17.226 96.1571 17.7907 96.1571 18.436C96.1571 19.1547 95.9444 19.8073 95.5191 20.394C95.0937 20.9807 94.5217 21.4427 93.803 21.78C93.0844 22.1173 92.2997 22.286 91.4491 22.286C90.5837 22.286 89.821 22.1247 89.161 21.802C88.501 21.4647 87.9877 21.0247 87.621 20.482C87.269 19.9247 87.093 19.3233 87.093 18.678C87.093 17.6953 87.4597 16.7933 88.193 15.972C88.941 15.136 89.8504 14.542 90.9211 14.19L91.053 14.366C90.3344 14.718 89.7771 15.224 89.3811 15.884C88.9851 16.544 88.787 17.2847 88.787 18.106C88.787 18.766 88.9264 19.382 89.205 19.954C89.4837 20.526 89.8651 20.988 90.3491 21.34C90.8477 21.692 91.4124 21.868 92.0431 21.868C92.8057 21.868 93.429 21.6187 93.913 21.12C94.4117 20.6067 94.661 19.9613 94.661 19.184C94.661 18.5387 94.5071 17.9887 94.1991 17.534C93.8911 17.0793 93.5244 16.7053 93.0991 16.412C92.6737 16.1187 92.065 15.752 91.273 15.312C90.6277 14.9453 90.1071 14.6227 89.7111 14.344C89.3297 14.0653 89.007 13.7353 88.743 13.354C88.479 12.9727 88.3471 12.54 88.3471 12.056C88.3471 11.4693 88.5231 10.978 88.8751 10.582C89.2271 10.1713 89.6671 9.87068 90.1951 9.68001C90.7377 9.47468 91.2804 9.37201 91.8231 9.37201C92.4244 9.37201 92.9524 9.48935 93.4071 9.72401C93.8764 9.94401 94.2357 10.23 94.4851 10.582C94.7344 10.934 94.859 11.3007 94.859 11.682C94.859 12.1807 94.6464 12.6867 94.2211 13.2C93.8104 13.7133 93.231 14.168 92.483 14.564L92.3511 14.432Z"/>
<path d="M57 16.5L52 13V15H49V18H52V20L57 16.5Z" class="error"/>
</svg>
