<svg width="80" height="32" viewBox="0 0 80 32" xmlns="http://www.w3.org/2000/svg"><style>@import '../colors.css';</style>
<path d="M3.59606 8.756L4.16806 8.8V19.492C4.16806 20.2547 4.30739 20.8193 4.58606 21.186C4.87939 21.5527 5.31939 21.736 5.90606 21.736C5.9354 21.736 5.95006 21.78 5.95006 21.868C5.95006 21.956 5.9354 22 5.90606 22C5.52473 22 5.2314 21.9927 5.02606 21.978L3.90406 21.956L2.71606 21.978C2.49606 21.9927 2.17339 22 1.74806 22C1.71873 22 1.70406 21.956 1.70406 21.868C1.70406 21.78 1.71873 21.736 1.74806 21.736C2.37873 21.736 2.84073 21.5527 3.13406 21.186C3.44206 20.8193 3.59606 20.2547 3.59606 19.492V8.756ZM14.7281 22.286C14.7281 22.3153 14.6914 22.3373 14.6181 22.352C14.5594 22.3667 14.5154 22.3593 14.4861 22.33L4.12406 10.054C3.64006 9.482 3.20739 9.086 2.82606 8.866C2.44473 8.63133 2.06339 8.514 1.68206 8.514C1.65273 8.514 1.63806 8.47 1.63806 8.382C1.63806 8.294 1.65273 8.25 1.68206 8.25L2.54006 8.272C2.71606 8.28667 2.96539 8.294 3.28806 8.294L4.41006 8.272C4.55673 8.25733 4.7254 8.25 4.91606 8.25C5.0334 8.25 5.1214 8.27933 5.18006 8.338C5.23873 8.39667 5.32673 8.514 5.44406 8.69L5.97206 9.394L14.5521 19.734L14.7281 22.286ZM14.7281 22.286L14.1781 21.604V10.78C14.1781 10.0173 14.0387 9.45267 13.7601 9.086C13.4814 8.70467 13.0487 8.514 12.4621 8.514C12.4327 8.514 12.4181 8.47 12.4181 8.382C12.4181 8.294 12.4327 8.25 12.4621 8.25L13.3421 8.272C13.7821 8.30133 14.1561 8.316 14.4641 8.316C14.7281 8.316 15.1094 8.30133 15.6081 8.272L16.5321 8.25C16.5614 8.25 16.5761 8.294 16.5761 8.382C16.5761 8.47 16.5614 8.514 16.5321 8.514C15.3294 8.514 14.7281 9.26933 14.7281 10.78V22.286Z"/>
<path d="M22.1084 22.286C21.243 22.286 20.4804 22.0807 19.8204 21.67C19.1604 21.2447 18.647 20.68 18.2804 19.976C17.9284 19.2573 17.7524 18.48 17.7524 17.644C17.7524 16.6907 17.987 15.884 18.4564 15.224C18.9257 14.5493 19.527 14.0507 20.2604 13.728C20.9937 13.3907 21.7417 13.222 22.5044 13.222C23.3697 13.222 24.1324 13.4347 24.7924 13.86C25.4524 14.2853 25.9584 14.85 26.3104 15.554C26.6624 16.2433 26.8384 16.9767 26.8384 17.754C26.8384 18.6487 26.6184 19.4407 26.1784 20.13C25.753 20.8193 25.181 21.3547 24.4624 21.736C23.7437 22.1027 22.959 22.286 22.1084 22.286ZM22.7464 21.868C23.4797 21.868 24.0444 21.582 24.4404 21.01C24.8364 20.438 25.0344 19.5727 25.0344 18.414C25.0344 17.4607 24.8877 16.6247 24.5944 15.906C24.3157 15.1873 23.927 14.6373 23.4284 14.256C22.9297 13.86 22.3724 13.662 21.7564 13.662C21.0377 13.662 20.4804 13.9407 20.0844 14.498C19.703 15.0407 19.5124 15.8473 19.5124 16.918C19.5124 17.842 19.6517 18.6853 19.9304 19.448C20.209 20.196 20.5904 20.79 21.0744 21.23C21.573 21.6553 22.1304 21.868 22.7464 21.868Z"/>
<path d="M29.8177 22.242C29.495 22.242 29.231 22.1467 29.0257 21.956C28.835 21.7507 28.7397 21.4867 28.7397 21.164C28.7397 20.856 28.835 20.614 29.0257 20.438C29.231 20.2473 29.495 20.152 29.8177 20.152C30.155 20.152 30.4117 20.2473 30.5877 20.438C30.7783 20.614 30.8737 20.856 30.8737 21.164C30.8737 21.5013 30.7783 21.7653 30.5877 21.956C30.4117 22.1467 30.155 22.242 29.8177 22.242Z"/>
<path d="M50.134 12.188L50.552 12.254V19.492C50.552 20.2987 50.6693 20.878 50.904 21.23C51.1386 21.5673 51.5346 21.736 52.092 21.736C52.136 21.736 52.158 21.78 52.158 21.868C52.158 21.956 52.136 22 52.092 22C51.7693 22 51.52 21.9927 51.344 21.978L50.354 21.956L49.386 21.978C49.1953 21.9927 48.924 22 48.572 22C48.528 22 48.506 21.956 48.506 21.868C48.506 21.78 48.528 21.736 48.572 21.736C49.1293 21.736 49.5253 21.5673 49.76 21.23C50.0093 20.878 50.134 20.2987 50.134 19.492V12.188ZM58.406 22.242C58.406 22.2713 58.3693 22.2933 58.296 22.308C58.2226 22.3227 58.1713 22.3153 58.142 22.286L50.728 13.508C50.2586 12.9507 49.848 12.5547 49.496 12.32C49.1586 12.0853 48.8286 11.968 48.506 11.968C48.4766 11.968 48.462 11.924 48.462 11.836C48.462 11.748 48.4766 11.704 48.506 11.704L49.738 11.726C49.8846 11.726 50.0533 11.726 50.244 11.726C50.4346 11.7113 50.7426 11.704 51.168 11.704C51.2853 11.704 51.3806 11.7407 51.454 11.814C51.542 11.8873 51.652 12.0193 51.784 12.21C51.8426 12.298 51.9966 12.5107 52.246 12.848L58.164 19.932L58.406 22.242ZM58.406 22.242L57.966 21.56V14.234C57.966 13.4127 57.8486 12.8333 57.614 12.496C57.3793 12.144 56.9833 11.968 56.426 11.968C56.3966 11.968 56.382 11.924 56.382 11.836C56.382 11.748 56.3966 11.704 56.426 11.704L57.196 11.726C57.6066 11.7553 57.9293 11.77 58.164 11.77C58.4133 11.77 58.7433 11.7553 59.154 11.726L59.99 11.704C60.0193 11.704 60.034 11.748 60.034 11.836C60.034 11.924 60.0193 11.968 59.99 11.968C59.4326 11.968 59.0293 12.144 58.78 12.496C58.5306 12.848 58.406 13.4273 58.406 14.234V22.242ZM60.848 20.922C60.8186 20.922 60.7893 20.8853 60.76 20.812C60.7453 20.7387 60.738 20.6653 60.738 20.592C60.738 20.5187 60.7453 20.4527 60.76 20.394C60.7893 20.3207 60.8113 20.284 60.826 20.284H66.172C66.2013 20.284 66.2233 20.3207 66.238 20.394C66.2673 20.4527 66.282 20.5187 66.282 20.592C66.282 20.68 66.2673 20.7607 66.238 20.834C66.2233 20.8927 66.2013 20.922 66.172 20.922H60.848ZM63.4 19.316C62.564 19.316 61.8893 19.0227 61.376 18.436C60.8626 17.8347 60.606 17.1087 60.606 16.258C60.606 15.6273 60.76 15.0993 61.068 14.674C61.376 14.234 61.7646 13.904 62.234 13.684C62.7033 13.464 63.18 13.354 63.664 13.354C64.2213 13.354 64.7053 13.4933 65.116 13.772C65.5413 14.0507 65.864 14.4173 66.084 14.872C66.3186 15.3267 66.436 15.8107 66.436 16.324C66.436 16.8667 66.2966 17.3727 66.018 17.842C65.7393 18.2967 65.3653 18.656 64.896 18.92C64.4413 19.184 63.9426 19.316 63.4 19.316ZM63.73 18.986C64.1993 18.986 64.5733 18.788 64.852 18.392C65.1306 17.9813 65.27 17.424 65.27 16.72C65.27 15.8693 65.0793 15.158 64.698 14.586C64.3166 13.9993 63.8326 13.706 63.246 13.706C62.7766 13.706 62.41 13.8893 62.146 14.256C61.8966 14.6227 61.772 15.1507 61.772 15.84C61.772 16.6907 61.9553 17.4313 62.322 18.062C62.7033 18.678 63.1726 18.986 63.73 18.986Z"/>
<path d="M45 16.5L40 13V15H37V18H40V20L45 16.5Z" class="error"/>
</svg>
