<svg width="80" height="32" viewBox="0 0 80 32" xmlns="http://www.w3.org/2000/svg"><style>@import '../colors.css';</style>
<path d="M11.6065 15.774H17.5905L17.7445 16.258H11.3425L11.6065 15.774ZM22.7165 21.736C22.7899 21.736 22.8265 21.78 22.8265 21.868C22.8265 21.956 22.7899 22 22.7165 22C22.4379 22 22.0052 21.9853 21.4185 21.956C20.8025 21.9266 20.3625 21.912 20.0985 21.912C19.7612 21.912 19.3432 21.9266 18.8445 21.956C18.3459 21.9853 17.9719 22 17.7225 22C17.6639 22 17.6345 21.956 17.6345 21.868C17.6345 21.78 17.6639 21.736 17.7225 21.736C18.2212 21.736 18.5805 21.692 18.8005 21.604C19.0205 21.5013 19.1305 21.3253 19.1305 21.076C19.1305 20.8266 19.0205 20.482 18.8005 20.042L14.0705 10.208L14.7745 9.15197L10.4845 19.096C10.2792 19.5946 10.1765 20.0053 10.1765 20.328C10.1765 20.7973 10.3599 21.1493 10.7265 21.384C11.0932 21.6186 11.6212 21.736 12.3105 21.736C12.3839 21.736 12.4205 21.78 12.4205 21.868C12.4205 21.956 12.3839 22 12.3105 22C12.0465 22 11.6652 21.9853 11.1665 21.956C10.6092 21.9266 10.1252 21.912 9.71453 21.912C9.3332 21.912 8.87853 21.9266 8.35053 21.956C7.8812 21.9853 7.49986 22 7.20653 22C7.14786 22 7.11853 21.956 7.11853 21.868C7.11853 21.78 7.14786 21.736 7.20653 21.736C7.6172 21.736 7.96186 21.6553 8.24053 21.494C8.53386 21.3326 8.81253 21.054 9.07653 20.658C9.34053 20.262 9.6412 19.6753 9.97853 18.898L14.6645 8.09597C14.6792 8.05197 14.7305 8.02997 14.8185 8.02997C14.9065 8.01531 14.9579 8.03731 14.9725 8.09597L20.2525 18.986C20.7659 20.0566 21.1912 20.7826 21.5285 21.164C21.8805 21.5453 22.2765 21.736 22.7165 21.736Z"/>
<path d="M29.7137 22.132C29.6551 22.1613 29.5891 22.176 29.5157 22.176C29.2811 22.176 29.0684 22.0073 28.8777 21.67C28.6871 21.318 28.5917 20.8486 28.5917 20.262V16.236C28.5917 15.356 28.4817 14.718 28.2617 14.322C28.0564 13.9113 27.7411 13.706 27.3157 13.706C26.8171 13.706 26.4504 13.8746 26.2157 14.212C25.9811 14.5493 25.8271 14.938 25.7537 15.378C25.6804 16.0526 25.3651 16.39 24.8077 16.39C24.5291 16.39 24.3164 16.324 24.1697 16.192C24.0377 16.06 23.9717 15.8913 23.9717 15.686C23.9717 15.3046 24.2064 14.9306 24.6757 14.564C25.1451 14.1826 25.7097 13.8746 26.3697 13.64C27.0444 13.4053 27.6384 13.288 28.1517 13.288C28.7677 13.288 29.2444 13.486 29.5817 13.882C29.9191 14.278 30.0877 14.8426 30.0877 15.576V19.624C30.0877 20.5773 30.3664 21.054 30.9237 21.054C31.2024 21.054 31.5251 20.9733 31.8917 20.812H31.9137C31.9724 20.812 32.0091 20.8486 32.0237 20.922C32.0531 20.9806 32.0384 21.0246 31.9797 21.054L29.7137 22.132ZM25.6657 22.154C25.0937 22.154 24.6537 22.0146 24.3457 21.736C24.0377 21.4426 23.8837 21.0686 23.8837 20.614C23.8837 20.1153 24.0744 19.7193 24.4557 19.426C24.8371 19.1326 25.4531 18.8246 26.3037 18.502L28.8117 17.578L28.8777 17.864L26.8757 18.678C26.4944 18.8246 26.1937 19.008 25.9737 19.228C25.7537 19.4333 25.6437 19.6973 25.6437 20.02C25.6437 20.372 25.7537 20.6653 25.9737 20.9C26.2084 21.12 26.5017 21.23 26.8537 21.23C27.1324 21.23 27.4477 21.1273 27.7997 20.922L29.0977 20.108L29.1417 20.416L27.5357 21.472C27.1984 21.7213 26.8831 21.8973 26.5897 22C26.2964 22.1026 25.9884 22.154 25.6657 22.154Z"/>
<path d="M51.534 17.345H55.011L55.144 17.725H51.249L51.534 17.345ZM58.564 21.772C58.6273 21.772 58.659 21.81 58.659 21.886C58.659 21.962 58.6273 22 58.564 22C58.3107 22 57.9307 21.9873 57.424 21.962C56.9173 21.9366 56.55 21.924 56.322 21.924C56.1193 21.924 55.828 21.9366 55.448 21.962C55.0933 21.9873 54.8274 22 54.65 22C54.5994 22 54.574 21.962 54.574 21.886C54.574 21.81 54.5994 21.772 54.65 21.772C54.9667 21.772 55.1947 21.734 55.334 21.658C55.486 21.5693 55.562 21.4363 55.562 21.259C55.562 21.069 55.4733 20.784 55.296 20.404L52.56 14.495L53.168 13.754L50.755 19.663C50.5397 20.195 50.432 20.6003 50.432 20.879C50.432 21.1956 50.5397 21.4236 50.755 21.563C50.983 21.7023 51.3313 21.772 51.8 21.772C51.8633 21.772 51.895 21.81 51.895 21.886C51.895 21.962 51.8633 22 51.8 22C51.6227 22 51.3693 21.9873 51.04 21.962C50.6853 21.9366 50.356 21.924 50.052 21.924C49.7353 21.924 49.3617 21.9366 48.931 21.962C48.551 21.9873 48.2407 22 48 22C47.9367 22 47.905 21.962 47.905 21.886C47.905 21.81 47.9367 21.772 48 21.772C48.3927 21.772 48.703 21.7213 48.931 21.62C49.1717 21.506 49.387 21.2906 49.577 20.974C49.7797 20.6573 50.0203 20.1633 50.299 19.492L53.073 12.823C53.0983 12.7723 53.1363 12.747 53.187 12.747C53.2377 12.747 53.2757 12.7723 53.301 12.823L56.341 19.397C56.6703 20.0936 56.9363 20.6066 57.139 20.936C57.3417 21.2526 57.5443 21.4743 57.747 21.601C57.9623 21.715 58.2347 21.772 58.564 21.772Z"/>
<path d="M62.1287 17.345H65.6057L65.7387 17.725H61.8437L62.1287 17.345ZM69.1587 21.772C69.2221 21.772 69.2537 21.81 69.2537 21.886C69.2537 21.962 69.2221 22 69.1587 22C68.9054 22 68.5254 21.9873 68.0187 21.962C67.5121 21.9366 67.1447 21.924 66.9167 21.924C66.7141 21.924 66.4227 21.9366 66.0427 21.962C65.6881 21.9873 65.4221 22 65.2447 22C65.1941 22 65.1687 21.962 65.1687 21.886C65.1687 21.81 65.1941 21.772 65.2447 21.772C65.5614 21.772 65.7894 21.734 65.9287 21.658C66.0807 21.5693 66.1567 21.4363 66.1567 21.259C66.1567 21.069 66.0681 20.784 65.8907 20.404L63.1547 14.495L63.7627 13.754L61.3497 19.663C61.1344 20.195 61.0267 20.6003 61.0267 20.879C61.0267 21.1956 61.1344 21.4236 61.3497 21.563C61.5777 21.7023 61.9261 21.772 62.3947 21.772C62.4581 21.772 62.4897 21.81 62.4897 21.886C62.4897 21.962 62.4581 22 62.3947 22C62.2174 22 61.9641 21.9873 61.6347 21.962C61.2801 21.9366 60.9507 21.924 60.6467 21.924C60.3301 21.924 59.9564 21.9366 59.5257 21.962C59.1457 21.9873 58.8354 22 58.5947 22C58.5314 22 58.4997 21.962 58.4997 21.886C58.4997 21.81 58.5314 21.772 58.5947 21.772C58.9874 21.772 59.2977 21.7213 59.5257 21.62C59.7664 21.506 59.9817 21.2906 60.1717 20.974C60.3744 20.6573 60.6151 20.1633 60.8937 19.492L63.6677 12.823C63.6931 12.7723 63.7311 12.747 63.7817 12.747C63.8324 12.747 63.8704 12.7723 63.8957 12.823L66.9357 19.397C67.2651 20.0936 67.5311 20.6066 67.7337 20.936C67.9364 21.2526 68.1391 21.4743 68.3417 21.601C68.5571 21.715 68.8294 21.772 69.1587 21.772Z"/>
<path d="M45 16.5L40 13V15H37V18H40V20L45 16.5Z" class="error"/>
</svg>
