<svg width="80" height="32" viewBox="0 0 80 32" xmlns="http://www.w3.org/2000/svg"><style>@import '../colors.css';</style>
<path d="M11.6065 15.774H17.5905L17.7445 16.258H11.3425L11.6065 15.774ZM22.7165 21.736C22.7899 21.736 22.8265 21.78 22.8265 21.868C22.8265 21.956 22.7899 22 22.7165 22C22.4379 22 22.0052 21.9853 21.4185 21.956C20.8025 21.9266 20.3625 21.912 20.0985 21.912C19.7612 21.912 19.3432 21.9266 18.8445 21.956C18.3459 21.9853 17.9719 22 17.7225 22C17.6639 22 17.6345 21.956 17.6345 21.868C17.6345 21.78 17.6639 21.736 17.7225 21.736C18.2212 21.736 18.5805 21.692 18.8005 21.604C19.0205 21.5013 19.1305 21.3253 19.1305 21.076C19.1305 20.8266 19.0205 20.482 18.8005 20.042L14.0705 10.208L14.7745 9.15197L10.4845 19.096C10.2792 19.5946 10.1765 20.0053 10.1765 20.328C10.1765 20.7973 10.3599 21.1493 10.7265 21.384C11.0932 21.6186 11.6212 21.736 12.3105 21.736C12.3839 21.736 12.4205 21.78 12.4205 21.868C12.4205 21.956 12.3839 22 12.3105 22C12.0465 22 11.6652 21.9853 11.1665 21.956C10.6092 21.9266 10.1252 21.912 9.71453 21.912C9.3332 21.912 8.87853 21.9266 8.35053 21.956C7.8812 21.9853 7.49986 22 7.20653 22C7.14786 22 7.11853 21.956 7.11853 21.868C7.11853 21.78 7.14786 21.736 7.20653 21.736C7.6172 21.736 7.96186 21.6553 8.24053 21.494C8.53386 21.3326 8.81253 21.054 9.07653 20.658C9.34053 20.262 9.6412 19.6753 9.97853 18.898L14.6645 8.09597C14.6792 8.05197 14.7305 8.02997 14.8185 8.02997C14.9065 8.01531 14.9579 8.03731 14.9725 8.09597L20.2525 18.986C20.7659 20.0566 21.1912 20.7826 21.5285 21.164C21.8805 21.5453 22.2765 21.736 22.7165 21.736Z"/>
<path d="M29.7137 22.132C29.6551 22.1613 29.5891 22.176 29.5157 22.176C29.2811 22.176 29.0684 22.0073 28.8777 21.67C28.6871 21.318 28.5917 20.8486 28.5917 20.262V16.236C28.5917 15.356 28.4817 14.718 28.2617 14.322C28.0564 13.9113 27.7411 13.706 27.3157 13.706C26.8171 13.706 26.4504 13.8746 26.2157 14.212C25.9811 14.5493 25.8271 14.938 25.7537 15.378C25.6804 16.0526 25.3651 16.39 24.8077 16.39C24.5291 16.39 24.3164 16.324 24.1697 16.192C24.0377 16.06 23.9717 15.8913 23.9717 15.686C23.9717 15.3046 24.2064 14.9306 24.6757 14.564C25.1451 14.1826 25.7097 13.8746 26.3697 13.64C27.0444 13.4053 27.6384 13.288 28.1517 13.288C28.7677 13.288 29.2444 13.486 29.5817 13.882C29.9191 14.278 30.0877 14.8426 30.0877 15.576V19.624C30.0877 20.5773 30.3664 21.054 30.9237 21.054C31.2024 21.054 31.5251 20.9733 31.8917 20.812H31.9137C31.9724 20.812 32.0091 20.8486 32.0237 20.922C32.0531 20.9806 32.0384 21.0246 31.9797 21.054L29.7137 22.132ZM25.6657 22.154C25.0937 22.154 24.6537 22.0146 24.3457 21.736C24.0377 21.4426 23.8837 21.0686 23.8837 20.614C23.8837 20.1153 24.0744 19.7193 24.4557 19.426C24.8371 19.1326 25.4531 18.8246 26.3037 18.502L28.8117 17.578L28.8777 17.864L26.8757 18.678C26.4944 18.8246 26.1937 19.008 25.9737 19.228C25.7537 19.4333 25.6437 19.6973 25.6437 20.02C25.6437 20.372 25.7537 20.6653 25.9737 20.9C26.2084 21.12 26.5017 21.23 26.8537 21.23C27.1324 21.23 27.4477 21.1273 27.7997 20.922L29.0977 20.108L29.1417 20.416L27.5357 21.472C27.1984 21.7213 26.8831 21.8973 26.5897 22C26.2964 22.1026 25.9884 22.154 25.6657 22.154Z" fill-opacity="0.4"/>
<path d="M51.534 17.345H55.011L55.144 17.725H51.249L51.534 17.345ZM58.564 21.772C58.6273 21.772 58.659 21.81 58.659 21.886C58.659 21.962 58.6273 22 58.564 22C58.3107 22 57.9307 21.9873 57.424 21.962C56.9173 21.9366 56.55 21.924 56.322 21.924C56.1193 21.924 55.828 21.9366 55.448 21.962C55.0933 21.9873 54.8274 22 54.65 22C54.5994 22 54.574 21.962 54.574 21.886C54.574 21.81 54.5994 21.772 54.65 21.772C54.9667 21.772 55.1947 21.734 55.334 21.658C55.486 21.5693 55.562 21.4363 55.562 21.259C55.562 21.069 55.4733 20.784 55.296 20.404L52.56 14.495L53.168 13.754L50.755 19.663C50.5397 20.195 50.432 20.6003 50.432 20.879C50.432 21.1956 50.5397 21.4236 50.755 21.563C50.983 21.7023 51.3313 21.772 51.8 21.772C51.8633 21.772 51.895 21.81 51.895 21.886C51.895 21.962 51.8633 22 51.8 22C51.6227 22 51.3693 21.9873 51.04 21.962C50.6853 21.9366 50.356 21.924 50.052 21.924C49.7353 21.924 49.3617 21.9366 48.931 21.962C48.551 21.9873 48.2407 22 48 22C47.9367 22 47.905 21.962 47.905 21.886C47.905 21.81 47.9367 21.772 48 21.772C48.3927 21.772 48.703 21.7213 48.931 21.62C49.1717 21.506 49.387 21.2906 49.577 20.974C49.7797 20.6573 50.0203 20.1633 50.299 19.492L53.073 12.823C53.0983 12.7723 53.1363 12.747 53.187 12.747C53.2377 12.747 53.2757 12.7723 53.301 12.823L56.341 19.397C56.6703 20.0936 56.9363 20.6066 57.139 20.936C57.3417 21.2526 57.5443 21.4743 57.747 21.601C57.9623 21.715 58.2347 21.772 58.564 21.772Z"/>
<path d="M65.5467 22.132C65.4881 22.1613 65.4221 22.176 65.3487 22.176C65.1141 22.176 64.9014 22.0073 64.7107 21.67C64.5201 21.318 64.4247 20.8486 64.4247 20.262V16.236C64.4247 15.356 64.3147 14.718 64.0947 14.322C63.8894 13.9113 63.5741 13.706 63.1487 13.706C62.6501 13.706 62.2834 13.8746 62.0487 14.212C61.8141 14.5493 61.6601 14.938 61.5867 15.378C61.5134 16.0526 61.1981 16.39 60.6407 16.39C60.3621 16.39 60.1494 16.324 60.0027 16.192C59.8707 16.06 59.8047 15.8913 59.8047 15.686C59.8047 15.3046 60.0394 14.9306 60.5087 14.564C60.9781 14.1826 61.5427 13.8746 62.2027 13.64C62.8774 13.4053 63.4714 13.288 63.9847 13.288C64.6007 13.288 65.0774 13.486 65.4147 13.882C65.7521 14.278 65.9207 14.8426 65.9207 15.576V19.624C65.9207 20.5773 66.1994 21.054 66.7567 21.054C67.0354 21.054 67.3581 20.9733 67.7247 20.812H67.7467C67.8054 20.812 67.8421 20.8486 67.8567 20.922C67.8861 20.9806 67.8714 21.0246 67.8127 21.054L65.5467 22.132ZM61.4987 22.154C60.9267 22.154 60.4867 22.0146 60.1787 21.736C59.8707 21.4426 59.7167 21.0686 59.7167 20.614C59.7167 20.1153 59.9074 19.7193 60.2887 19.426C60.6701 19.1326 61.2861 18.8246 62.1367 18.502L64.6447 17.578L64.7107 17.864L62.7087 18.678C62.3274 18.8246 62.0267 19.008 61.8067 19.228C61.5867 19.4333 61.4767 19.6973 61.4767 20.02C61.4767 20.372 61.5867 20.6653 61.8067 20.9C62.0414 21.12 62.3347 21.23 62.6867 21.23C62.9654 21.23 63.2807 21.1273 63.6327 20.922L64.9307 20.108L64.9747 20.416L63.3687 21.472C63.0314 21.7213 62.7161 21.8973 62.4227 22C62.1294 22.1026 61.8214 22.154 61.4987 22.154Z" fill-opacity="0.4"/>
<path d="M45 16.5L40 13V15H37V18H40V20L45 16.5Z" class="error"/>
</svg>
