<svg width="104" height="32" viewBox="0 0 104 32" xmlns="http://www.w3.org/2000/svg"><style>@import '../colors.css';</style>
<path d="M2.90749 22C2.87815 22 2.86349 21.956 2.86349 21.868C2.86349 21.78 2.87815 21.736 2.90749 21.736C3.71415 21.736 4.31549 21.6993 4.71149 21.626C5.12215 21.538 5.40815 21.3913 5.56949 21.186C5.74549 20.966 5.83349 20.6433 5.83349 20.218V11.572C5.83349 11.132 5.78215 10.8093 5.67949 10.604C5.59149 10.3987 5.43749 10.296 5.21749 10.296C5.02682 10.296 4.71149 10.4133 4.27149 10.648C3.84615 10.8827 3.35482 11.2053 2.79749 11.616L2.75349 11.638C2.69482 11.638 2.65082 11.6087 2.62149 11.55C2.59215 11.4767 2.59215 11.4253 2.62149 11.396L7.15349 8.096C7.22682 8.052 7.27815 8.03 7.30749 8.03C7.33682 8.03 7.36615 8.04466 7.39549 8.074C7.42482 8.10333 7.43949 8.14 7.43949 8.184V20.218C7.43949 20.658 7.51282 20.9807 7.65949 21.186C7.82082 21.3913 8.09949 21.538 8.49549 21.626C8.90615 21.6993 9.52949 21.736 10.3655 21.736C10.4095 21.736 10.4315 21.78 10.4315 21.868C10.4315 21.956 10.4095 22 10.3655 22C9.70549 22 9.18482 21.9927 8.80349 21.978L6.64749 21.956L4.49149 21.978C4.11015 21.9927 3.58215 22 2.90749 22Z"/>
<path d="M16.8821 22.264C15.5035 22.264 14.3081 21.714 13.2961 20.614L13.2741 20.57C13.2741 20.5113 13.3035 20.4673 13.3621 20.438C13.4355 20.394 13.4868 20.394 13.5161 20.438C13.8681 20.8047 14.3008 21.0833 14.8141 21.274C15.3275 21.4647 15.8335 21.56 16.3321 21.56C17.3295 21.56 18.0628 21.2593 18.5321 20.658C19.0161 20.0567 19.2581 19.2793 19.2581 18.326C19.2581 16.0673 17.9821 14.938 15.4301 14.938C15.3715 14.938 15.3421 14.8867 15.3421 14.784C15.3421 14.6813 15.3715 14.63 15.4301 14.63C16.6621 14.63 17.5348 14.3733 18.0481 13.86C18.5615 13.332 18.8181 12.606 18.8181 11.682C18.8181 10.7727 18.6055 10.0907 18.1801 9.636C17.7695 9.18133 17.1901 8.954 16.4421 8.954C15.8408 8.954 15.2688 9.108 14.7261 9.416C14.1835 9.70933 13.7875 10.1347 13.5381 10.692C13.5381 10.7067 13.5235 10.714 13.4941 10.714C13.4501 10.714 13.3988 10.6993 13.3401 10.67C13.2961 10.6407 13.2815 10.6113 13.2961 10.582C13.6188 9.79 14.1175 9.16666 14.7921 8.712C15.4815 8.24266 16.2735 8.008 17.1681 8.008C18.1948 8.008 19.0088 8.30133 19.6101 8.888C20.2261 9.46 20.5341 10.186 20.5341 11.066C20.5341 11.946 20.2335 12.7453 19.6321 13.464C19.0308 14.168 18.2241 14.6227 17.2121 14.828L17.2561 14.652C18.0628 14.5933 18.7521 14.718 19.3241 15.026C19.9108 15.334 20.3508 15.7667 20.6441 16.324C20.9375 16.8813 21.0841 17.49 21.0841 18.15C21.0841 18.9567 20.9008 19.6753 20.5341 20.306C20.1821 20.922 19.6835 21.406 19.0381 21.758C18.4075 22.0953 17.6888 22.264 16.8821 22.264Z"/>
<path d="M28.9208 14.52C29.5954 14.52 30.1821 14.6813 30.6808 15.004C31.1794 15.3267 31.5608 15.7667 31.8248 16.324C32.1034 16.8813 32.2428 17.49 32.2428 18.15C32.2428 18.9273 32.0521 19.6313 31.6708 20.262C31.3041 20.8927 30.7908 21.3913 30.1308 21.758C29.4854 22.11 28.7521 22.286 27.9308 22.286C26.5521 22.286 25.4961 21.8093 24.7628 20.856C24.0294 19.888 23.6628 18.6047 23.6628 17.006C23.6628 15.5687 23.9488 14.1753 24.5208 12.826C25.0928 11.462 25.9141 10.34 26.9848 9.46C28.0554 8.56533 29.3021 8.08133 30.7248 8.008C30.7834 8.008 30.8201 8.04466 30.8348 8.118C30.8494 8.17666 30.8348 8.21333 30.7908 8.228C29.6468 8.50666 28.6714 9.07133 27.8648 9.922C27.0581 10.7727 26.4494 11.7993 26.0388 13.002C25.6428 14.19 25.4448 15.4293 25.4448 16.72C25.4448 18.1867 25.7014 19.4113 26.2148 20.394C26.7281 21.362 27.4761 21.846 28.4588 21.846C29.1334 21.846 29.6321 21.5747 29.9548 21.032C30.2921 20.4747 30.4608 19.712 30.4608 18.744C30.4608 17.644 30.2628 16.786 29.8668 16.17C29.4854 15.5393 28.9354 15.224 28.2168 15.224C27.6008 15.224 27.0508 15.444 26.5668 15.884C26.5521 15.8987 26.5301 15.906 26.5008 15.906C26.4568 15.906 26.4128 15.884 26.3688 15.84C26.3248 15.7813 26.3101 15.7447 26.3248 15.73C26.6474 15.334 27.0288 15.0333 27.4688 14.828C27.9234 14.6227 28.4074 14.52 28.9208 14.52Z"/>
<path d="M39.1994 14.542C40.1234 13.662 40.5854 12.496 40.5854 11.044C40.5854 10.1787 40.3947 9.526 40.0134 9.086C39.6321 8.63133 39.1261 8.404 38.4954 8.404C37.9674 8.404 37.5494 8.58 37.2414 8.932C36.9334 9.26933 36.7794 9.70933 36.7794 10.252C36.7794 10.824 36.9114 11.33 37.1754 11.77C37.4541 12.1953 37.7914 12.562 38.1874 12.87C38.5981 13.178 39.1554 13.5373 39.8594 13.948C40.5781 14.388 41.1574 14.7913 41.5974 15.158C42.0521 15.51 42.4261 15.9573 42.7194 16.5C43.0274 17.0427 43.1814 17.688 43.1814 18.436C43.1814 19.1987 42.9761 19.8733 42.5654 20.46C42.1694 21.0467 41.6194 21.5013 40.9154 21.824C40.2261 22.132 39.4561 22.286 38.6054 22.286C37.6961 22.286 36.9041 22.1173 36.2294 21.78C35.5547 21.4427 35.0414 20.988 34.6894 20.416C34.3374 19.8293 34.1614 19.184 34.1614 18.48C34.1614 17.7467 34.3447 17.0647 34.7114 16.434C35.0927 15.8033 35.5767 15.268 36.1634 14.828C36.7647 14.3733 37.3881 14.036 38.0334 13.816L38.1654 13.992C36.6987 14.7987 35.9654 16.126 35.9654 17.974C35.9654 19.118 36.2514 20.0567 36.8234 20.79C37.4101 21.5087 38.1801 21.868 39.1334 21.868C39.9254 21.868 40.5414 21.626 40.9814 21.142C41.4214 20.6433 41.6414 19.9687 41.6414 19.118C41.6414 18.4287 41.4874 17.842 41.1794 17.358C40.8861 16.8593 40.5267 16.4487 40.1014 16.126C39.6761 15.8033 39.0894 15.4147 38.3414 14.96C37.6814 14.564 37.1534 14.2047 36.7574 13.882C36.3614 13.5593 36.0314 13.178 35.7674 12.738C35.5034 12.2833 35.3714 11.748 35.3714 11.132C35.3714 10.4573 35.5401 9.88533 35.8774 9.416C36.2147 8.94666 36.6547 8.59466 37.1974 8.36C37.7401 8.12533 38.3121 8.008 38.9134 8.008C39.8521 8.008 40.6221 8.272 41.2234 8.8C41.8394 9.328 42.1474 9.988 42.1474 10.78C42.1474 11.5573 41.8834 12.2833 41.3554 12.958C40.8421 13.6327 40.1601 14.2047 39.3094 14.674L39.1994 14.542Z"/>
<path d="M61.364 22C61.3347 22 61.32 21.956 61.32 21.868C61.32 21.78 61.3347 21.736 61.364 21.736C62.0387 21.736 62.5447 21.6993 62.882 21.626C63.2194 21.538 63.454 21.3913 63.586 21.186C63.7327 20.966 63.806 20.6433 63.806 20.218V11.572C63.806 10.692 63.5934 10.252 63.168 10.252C62.7867 10.252 62.1707 10.5673 61.32 11.198L61.2761 11.22C61.2174 11.22 61.1734 11.1833 61.1441 11.11C61.1147 11.0367 61.122 10.9853 61.166 10.956L65.104 8.096C65.1774 8.052 65.2287 8.03 65.258 8.03C65.2874 8.03 65.3167 8.04466 65.3461 8.074C65.3754 8.10333 65.39 8.14 65.39 8.184V20.218C65.39 20.658 65.4487 20.988 65.5661 21.208C65.6981 21.4133 65.9254 21.5527 66.2481 21.626C66.5854 21.6993 67.1061 21.736 67.8101 21.736C67.8394 21.736 67.854 21.78 67.854 21.868C67.854 21.956 67.8394 22 67.8101 22C67.2527 22 66.8054 21.9927 66.468 21.978L64.598 21.956L62.75 21.978C62.4127 21.9927 61.9507 22 61.364 22Z"/>
<path d="M72.9938 22.264C71.6151 22.264 70.4198 21.714 69.4078 20.614L69.3858 20.57C69.3858 20.5113 69.4151 20.4673 69.4738 20.438C69.5471 20.394 69.5985 20.394 69.6278 20.438C69.9798 20.8047 70.4125 21.0833 70.9258 21.274C71.4391 21.4647 71.9451 21.56 72.4438 21.56C73.4411 21.56 74.1745 21.2593 74.6438 20.658C75.1278 20.0567 75.3698 19.2793 75.3698 18.326C75.3698 16.0673 74.0938 14.938 71.5418 14.938C71.4831 14.938 71.4538 14.8867 71.4538 14.784C71.4538 14.6813 71.4831 14.63 71.5418 14.63C72.7738 14.63 73.6465 14.3733 74.1598 13.86C74.6731 13.332 74.9298 12.606 74.9298 11.682C74.9298 10.7727 74.7171 10.0907 74.2918 9.636C73.8811 9.18133 73.3018 8.954 72.5538 8.954C71.9525 8.954 71.3805 9.108 70.8378 9.416C70.2951 9.70933 69.8991 10.1347 69.6498 10.692C69.6498 10.7067 69.6351 10.714 69.6058 10.714C69.5618 10.714 69.5105 10.6993 69.4518 10.67C69.4078 10.6407 69.3931 10.6113 69.4078 10.582C69.7305 9.79 70.2291 9.16666 70.9038 8.712C71.5931 8.24266 72.3851 8.008 73.2798 8.008C74.3065 8.008 75.1205 8.30133 75.7218 8.888C76.3378 9.46 76.6458 10.186 76.6458 11.066C76.6458 11.946 76.3451 12.7453 75.7438 13.464C75.1425 14.168 74.3358 14.6227 73.3238 14.828L73.3678 14.652C74.1745 14.5933 74.8638 14.718 75.4358 15.026C76.0225 15.334 76.4625 15.7667 76.7558 16.324C77.0491 16.8813 77.1958 17.49 77.1958 18.15C77.1958 18.9567 77.0125 19.6753 76.6458 20.306C76.2938 20.922 75.7951 21.406 75.1498 21.758C74.5191 22.0953 73.8005 22.264 72.9938 22.264Z"/>
<path d="M84.6883 14.52C85.363 14.52 85.9497 14.6813 86.4483 15.004C86.947 15.3267 87.3283 15.7667 87.5923 16.324C87.871 16.8813 88.0103 17.49 88.0103 18.15C88.0103 18.9273 87.8197 19.6313 87.4383 20.262C87.0717 20.8927 86.5583 21.3913 85.8983 21.758C85.253 22.11 84.5197 22.286 83.6983 22.286C82.3197 22.286 81.2637 21.8093 80.5303 20.856C79.797 19.888 79.4303 18.6047 79.4303 17.006C79.4303 15.5687 79.7163 14.1753 80.2883 12.826C80.8603 11.462 81.6817 10.34 82.7523 9.46C83.823 8.56533 85.0697 8.08133 86.4923 8.008C86.551 8.008 86.5877 8.04466 86.6023 8.118C86.617 8.17666 86.6023 8.21333 86.5583 8.228C85.4143 8.50666 84.439 9.07133 83.6323 9.922C82.8257 10.7727 82.217 11.7993 81.8063 13.002C81.4103 14.19 81.2123 15.4293 81.2123 16.72C81.2123 18.1867 81.469 19.4113 81.9823 20.394C82.4957 21.362 83.2437 21.846 84.2263 21.846C84.901 21.846 85.3997 21.5747 85.7223 21.032C86.0597 20.4747 86.2283 19.712 86.2283 18.744C86.2283 17.644 86.0303 16.786 85.6343 16.17C85.253 15.5393 84.703 15.224 83.9843 15.224C83.3683 15.224 82.8184 15.444 82.3344 15.884C82.3197 15.8987 82.2977 15.906 82.2683 15.906C82.2243 15.906 82.1803 15.884 82.1363 15.84C82.0923 15.7813 82.0777 15.7447 82.0923 15.73C82.415 15.334 82.7963 15.0333 83.2363 14.828C83.691 14.6227 84.175 14.52 84.6883 14.52Z"/>
<path d="M94.9885 14.542C95.9125 13.662 96.3745 12.496 96.3745 11.044C96.3745 10.1787 96.1838 9.526 95.8025 9.086C95.4211 8.63133 94.9151 8.404 94.2845 8.404C93.7565 8.404 93.3385 8.58 93.0305 8.932C92.7225 9.26933 92.5685 9.70933 92.5685 10.252C92.5685 10.824 92.7005 11.33 92.9645 11.77C93.2431 12.1953 93.5805 12.562 93.9765 12.87C94.3871 13.178 94.9445 13.5373 95.6485 13.948C96.3671 14.388 96.9465 14.7913 97.3865 15.158C97.8411 15.51 98.2151 15.9573 98.5085 16.5C98.8165 17.0427 98.9705 17.688 98.9705 18.436C98.9705 19.1987 98.7651 19.8733 98.3545 20.46C97.9585 21.0467 97.4085 21.5013 96.7045 21.824C96.0151 22.132 95.2451 22.286 94.3945 22.286C93.4851 22.286 92.6931 22.1173 92.0185 21.78C91.3438 21.4427 90.8305 20.988 90.4785 20.416C90.1265 19.8293 89.9505 19.184 89.9505 18.48C89.9505 17.7467 90.1338 17.0647 90.5005 16.434C90.8818 15.8033 91.3658 15.268 91.9525 14.828C92.5538 14.3733 93.1771 14.036 93.8225 13.816L93.9545 13.992C92.4878 14.7987 91.7545 16.126 91.7545 17.974C91.7545 19.118 92.0405 20.0567 92.6125 20.79C93.1991 21.5087 93.9691 21.868 94.9225 21.868C95.7145 21.868 96.3305 21.626 96.7705 21.142C97.2105 20.6433 97.4305 19.9687 97.4305 19.118C97.4305 18.4287 97.2765 17.842 96.9685 17.358C96.6751 16.8593 96.3158 16.4487 95.8905 16.126C95.4651 15.8033 94.8785 15.4147 94.1305 14.96C93.4705 14.564 92.9425 14.2047 92.5465 13.882C92.1505 13.5593 91.8205 13.178 91.5565 12.738C91.2925 12.2833 91.1605 11.748 91.1605 11.132C91.1605 10.4573 91.3291 9.88533 91.6665 9.416C92.0038 8.94666 92.4438 8.59466 92.9865 8.36C93.5291 8.12533 94.1011 8.008 94.7025 8.008C95.6411 8.008 96.4111 8.272 97.0125 8.8C97.6285 9.328 97.9365 9.988 97.9365 10.78C97.9365 11.5573 97.6725 12.2833 97.1445 12.958C96.6311 13.6327 95.9491 14.2047 95.0985 14.674L94.9885 14.542Z"/>
<path d="M57 16.5L52 13V15H49V18H52V20L57 16.5Z" class="error"/>
</svg>
