<svg width="72" height="32" viewBox="0 0 72 32" xmlns="http://www.w3.org/2000/svg"><style>@import '../colors.css';</style>
<path d="M13.8093 10.076C13.8093 9.63597 13.7653 9.31331 13.6773 9.10798C13.5893 8.88798 13.4133 8.73398 13.1493 8.64597C12.8853 8.55797 12.4747 8.51398 11.9173 8.51398C11.8733 8.51398 11.8513 8.46998 11.8513 8.38198C11.8513 8.29398 11.8733 8.24998 11.9173 8.24998L12.9513 8.27198C13.626 8.30131 14.2053 8.31597 14.6893 8.31597C15.1 8.31597 15.628 8.30131 16.2733 8.27198L17.3953 8.24998C17.4393 8.24998 17.4613 8.29398 17.4613 8.38198C17.4613 8.46998 17.4393 8.51398 17.3953 8.51398C16.8527 8.51398 16.4493 8.55797 16.1853 8.64597C15.936 8.71931 15.7673 8.85864 15.6793 9.06398C15.5913 9.26931 15.5473 9.59198 15.5473 10.032V20.218C15.5473 20.658 15.5913 20.988 15.6793 21.208C15.7673 21.4133 15.936 21.5526 16.1853 21.626C16.4493 21.6993 16.8527 21.736 17.3953 21.736C17.4393 21.736 17.4613 21.78 17.4613 21.868C17.4613 21.956 17.4393 22 17.3953 22C16.926 22 16.552 21.9926 16.2733 21.978L14.6893 21.956L12.9513 21.978C12.702 21.9926 12.3573 22 11.9173 22C11.8733 22 11.8513 21.956 11.8513 21.868C11.8513 21.78 11.8733 21.736 11.9173 21.736C12.4893 21.736 12.9 21.6993 13.1493 21.626C13.4133 21.5526 13.5893 21.4133 13.6773 21.208C13.7653 21.0026 13.8093 20.6726 13.8093 20.218V10.076ZM4.85532 14.586H14.5793V15.092H4.85532V14.586ZM4.04132 10.032C4.04132 9.59198 3.99732 9.26931 3.90932 9.06398C3.82132 8.85864 3.65265 8.71931 3.40332 8.64597C3.15399 8.55797 2.75799 8.51398 2.21532 8.51398C2.17132 8.51398 2.14932 8.46998 2.14932 8.38198C2.14932 8.29398 2.17132 8.24998 2.21532 8.24998L3.33732 8.27198C3.95332 8.30131 4.46665 8.31597 4.87732 8.31597C5.33199 8.31597 5.89665 8.30131 6.57132 8.27198L7.69332 8.24998C7.72265 8.24998 7.73732 8.29398 7.73732 8.38198C7.73732 8.46998 7.72265 8.51398 7.69332 8.51398C7.13599 8.51398 6.72532 8.55797 6.46132 8.64597C6.19732 8.73398 6.01399 8.88798 5.91132 9.10798C5.82332 9.31331 5.77932 9.63597 5.77932 10.076V20.218C5.77932 20.658 5.82332 20.988 5.91132 21.208C6.01399 21.4133 6.18999 21.5526 6.43932 21.626C6.70332 21.6993 7.12132 21.736 7.69332 21.736C7.72265 21.736 7.73732 21.78 7.73732 21.868C7.73732 21.956 7.72265 22 7.69332 22C7.20932 22 6.83532 21.9926 6.57132 21.978L4.87732 21.956L3.31532 21.978C3.03665 21.9926 2.65532 22 2.17132 22C2.14199 22 2.12732 21.956 2.12732 21.868C2.12732 21.78 2.14199 21.736 2.17132 21.736C2.71399 21.736 3.10999 21.6993 3.35932 21.626C3.62332 21.5526 3.79932 21.4133 3.88732 21.208C3.98999 20.988 4.04132 20.658 4.04132 20.218V10.032Z" fill-opacity="0.4"/>
<path d="M19.0616 22C18.9883 22 18.915 21.9486 18.8416 21.846C18.783 21.7433 18.783 21.6626 18.8416 21.604L19.7876 20.438C20.9463 19.0153 21.8336 17.8713 22.4496 17.006C23.0803 16.1406 23.5936 15.2753 23.9896 14.41C24.4003 13.53 24.6056 12.672 24.6056 11.836C24.6056 10.9413 24.3856 10.2593 23.9456 9.78998C23.5056 9.32064 22.897 9.08598 22.1196 9.08598C21.401 9.08598 20.7923 9.28398 20.2936 9.67998C19.8096 10.076 19.4576 10.6333 19.2376 11.352C19.2376 11.3666 19.2083 11.374 19.1496 11.374C19.0323 11.374 18.981 11.3446 18.9956 11.286C19.1863 10.2593 19.6336 9.45998 20.3376 8.88798C21.0416 8.30131 21.907 8.00798 22.9336 8.00798C24.0043 8.00798 24.8403 8.31597 25.4416 8.93197C26.0576 9.53331 26.3656 10.3253 26.3656 11.308C26.3656 12.1293 26.153 12.9653 25.7276 13.816C25.3023 14.6666 24.7963 15.4513 24.2096 16.17C23.6376 16.8886 22.9263 17.7026 22.0756 18.612C21.2983 19.448 20.7776 20.042 20.5136 20.394C20.4403 20.4966 20.4696 20.548 20.6016 20.548C22.391 20.548 23.6743 20.5186 24.4516 20.46C25.229 20.4013 25.7716 20.2693 26.0796 20.064C26.3876 19.8586 26.549 19.514 26.5636 19.03C26.5636 18.986 26.6003 18.964 26.6736 18.964C26.7616 18.964 26.8056 18.986 26.8056 19.03L26.7836 21.758C26.7836 21.8166 26.7616 21.8753 26.7176 21.934C26.6883 21.978 26.6443 22 26.5856 22H19.0616Z"/>
<path d="M56.364 10.076C56.364 9.63597 56.32 9.31331 56.232 9.10798C56.144 8.88798 55.968 8.73398 55.704 8.64597C55.44 8.55797 55.0293 8.51398 54.472 8.51398C54.428 8.51398 54.406 8.46998 54.406 8.38198C54.406 8.29398 54.428 8.24998 54.472 8.24998L55.506 8.27198C56.1807 8.30131 56.76 8.31597 57.244 8.31597C57.6547 8.31597 58.1827 8.30131 58.828 8.27198L59.95 8.24998C59.994 8.24998 60.016 8.29398 60.016 8.38198C60.016 8.46998 59.994 8.51398 59.95 8.51398C59.4073 8.51398 59.004 8.55797 58.74 8.64597C58.4907 8.71931 58.322 8.85864 58.234 9.06398C58.146 9.26931 58.102 9.59198 58.102 10.032V20.218C58.102 20.658 58.146 20.988 58.234 21.208C58.322 21.4133 58.4907 21.5526 58.74 21.626C59.004 21.6993 59.4073 21.736 59.95 21.736C59.994 21.736 60.016 21.78 60.016 21.868C60.016 21.956 59.994 22 59.95 22C59.4807 22 59.1067 21.9926 58.828 21.978L57.244 21.956L55.506 21.978C55.2567 21.9926 54.912 22 54.472 22C54.428 22 54.406 21.956 54.406 21.868C54.406 21.78 54.428 21.736 54.472 21.736C55.044 21.736 55.4547 21.6993 55.704 21.626C55.968 21.5526 56.144 21.4133 56.232 21.208C56.32 21.0026 56.364 20.6726 56.364 20.218V10.076ZM47.41 14.586H57.134V15.092H47.41V14.586ZM46.596 10.032C46.596 9.59198 46.552 9.26931 46.464 9.06398C46.376 8.85864 46.2073 8.71931 45.958 8.64597C45.7087 8.55797 45.3127 8.51398 44.77 8.51398C44.726 8.51398 44.704 8.46998 44.704 8.38198C44.704 8.29398 44.726 8.24998 44.77 8.24998L45.892 8.27198C46.508 8.30131 47.0213 8.31597 47.432 8.31597C47.8867 8.31597 48.4513 8.30131 49.126 8.27198L50.248 8.24998C50.2773 8.24998 50.292 8.29398 50.292 8.38198C50.292 8.46998 50.2773 8.51398 50.248 8.51398C49.6907 8.51398 49.28 8.55797 49.016 8.64597C48.752 8.73398 48.5687 8.88798 48.466 9.10798C48.378 9.31331 48.334 9.63597 48.334 10.076V20.218C48.334 20.658 48.378 20.988 48.466 21.208C48.5687 21.4133 48.7447 21.5526 48.994 21.626C49.258 21.6993 49.676 21.736 50.248 21.736C50.2773 21.736 50.292 21.78 50.292 21.868C50.292 21.956 50.2773 22 50.248 22C49.764 22 49.39 21.9926 49.126 21.978L47.432 21.956L45.87 21.978C45.5913 21.9926 45.21 22 44.726 22C44.6967 22 44.682 21.956 44.682 21.868C44.682 21.78 44.6967 21.736 44.726 21.736C45.2687 21.736 45.6647 21.6993 45.914 21.626C46.178 21.5526 46.354 21.4133 46.442 21.208C46.5447 20.988 46.596 20.658 46.596 20.218V10.032Z" fill-opacity="0.4"/>
<path d="M61.3523 13.024C61.4697 12.584 61.6383 12.1806 61.8583 11.814C62.093 11.4326 62.401 10.9926 62.7823 10.494C63.2223 9.89264 63.545 9.40131 63.7503 9.01998C63.9557 8.63864 64.0583 8.22064 64.0583 7.76598C64.0583 7.34064 63.963 7.01797 63.7723 6.79797C63.5963 6.57798 63.347 6.46798 63.0243 6.46798C62.687 6.46798 62.3863 6.58531 62.1223 6.81997C61.873 7.03998 61.697 7.33331 61.5943 7.69998C61.5943 7.72931 61.565 7.74398 61.5063 7.74398C61.4623 7.74398 61.4183 7.73664 61.3743 7.72197C61.345 7.69264 61.3377 7.66331 61.3523 7.63397C61.675 6.51931 62.3863 5.96198 63.4863 5.96198C64.073 5.96198 64.5203 6.10864 64.8283 6.40197C65.1363 6.69531 65.2903 7.07664 65.2903 7.54598C65.2903 8.00064 65.1437 8.43331 64.8503 8.84397C64.557 9.23997 64.1243 9.72398 63.5523 10.296C63.1417 10.7066 62.8263 11.044 62.6063 11.308C62.3863 11.572 62.2323 11.8286 62.1443 12.078C62.1297 12.122 62.1443 12.144 62.1883 12.144C63.171 12.144 63.853 12.122 64.2343 12.078C64.6303 12.034 64.9017 11.946 65.0483 11.814C65.2097 11.6673 65.327 11.418 65.4003 11.066C65.4003 11.0366 65.4297 11.022 65.4883 11.022C65.547 11.022 65.5763 11.0366 65.5763 11.066L65.5543 13.046C65.5543 13.1046 65.525 13.134 65.4663 13.134H61.4183C61.345 13.134 61.323 13.0973 61.3523 13.024Z"/>
<path d="M41 16.5L36 13V15H33V18H36V20L41 16.5Z" class="error"/>
</svg>
