<svg width="72" height="32" viewBox="0 0 72 32" xmlns="http://www.w3.org/2000/svg"><style>@import '../colors.css';</style>
<path d="M13.8093 10.076C13.8093 9.636 13.7653 9.31333 13.6773 9.108C13.5893 8.888 13.4133 8.734 13.1493 8.646C12.8853 8.558 12.4747 8.514 11.9173 8.514C11.8733 8.514 11.8513 8.47 11.8513 8.382C11.8513 8.294 11.8733 8.25 11.9173 8.25L12.9513 8.272C13.626 8.30133 14.2053 8.316 14.6893 8.316C15.1 8.316 15.628 8.30133 16.2733 8.272L17.3953 8.25C17.4393 8.25 17.4613 8.294 17.4613 8.382C17.4613 8.47 17.4393 8.514 17.3953 8.514C16.8527 8.514 16.4493 8.558 16.1853 8.646C15.936 8.71933 15.7673 8.85866 15.6793 9.064C15.5913 9.26933 15.5473 9.592 15.5473 10.032V20.218C15.5473 20.658 15.5913 20.988 15.6793 21.208C15.7673 21.4133 15.936 21.5527 16.1853 21.626C16.4493 21.6993 16.8527 21.736 17.3953 21.736C17.4393 21.736 17.4613 21.78 17.4613 21.868C17.4613 21.956 17.4393 22 17.3953 22C16.926 22 16.552 21.9927 16.2733 21.978L14.6893 21.956L12.9513 21.978C12.702 21.9927 12.3573 22 11.9173 22C11.8733 22 11.8513 21.956 11.8513 21.868C11.8513 21.78 11.8733 21.736 11.9173 21.736C12.4893 21.736 12.9 21.6993 13.1493 21.626C13.4133 21.5527 13.5893 21.4133 13.6773 21.208C13.7653 21.0027 13.8093 20.6727 13.8093 20.218V10.076ZM4.85532 14.586H14.5793V15.092H4.85532V14.586ZM4.04132 10.032C4.04132 9.592 3.99732 9.26933 3.90932 9.064C3.82132 8.85866 3.65265 8.71933 3.40332 8.646C3.15399 8.558 2.75799 8.514 2.21532 8.514C2.17132 8.514 2.14932 8.47 2.14932 8.382C2.14932 8.294 2.17132 8.25 2.21532 8.25L3.33732 8.272C3.95332 8.30133 4.46665 8.316 4.87732 8.316C5.33199 8.316 5.89665 8.30133 6.57132 8.272L7.69332 8.25C7.72265 8.25 7.73732 8.294 7.73732 8.382C7.73732 8.47 7.72265 8.514 7.69332 8.514C7.13599 8.514 6.72532 8.558 6.46132 8.646C6.19732 8.734 6.01399 8.888 5.91132 9.108C5.82332 9.31333 5.77932 9.636 5.77932 10.076V20.218C5.77932 20.658 5.82332 20.988 5.91132 21.208C6.01399 21.4133 6.18999 21.5527 6.43932 21.626C6.70332 21.6993 7.12132 21.736 7.69332 21.736C7.72265 21.736 7.73732 21.78 7.73732 21.868C7.73732 21.956 7.72265 22 7.69332 22C7.20932 22 6.83532 21.9927 6.57132 21.978L4.87732 21.956L3.31532 21.978C3.03665 21.9927 2.65532 22 2.17132 22C2.14199 22 2.12732 21.956 2.12732 21.868C2.12732 21.78 2.14199 21.736 2.17132 21.736C2.71399 21.736 3.10999 21.6993 3.35932 21.626C3.62332 21.5527 3.79932 21.4133 3.88732 21.208C3.98999 20.988 4.04132 20.658 4.04132 20.218V10.032Z" fill-opacity="0.4"/>
<path d="M19.0616 22C18.9883 22 18.915 21.9487 18.8416 21.846C18.783 21.7433 18.783 21.6627 18.8416 21.604L19.7876 20.438C20.9463 19.0153 21.8336 17.8713 22.4496 17.006C23.0803 16.1407 23.5936 15.2753 23.9896 14.41C24.4003 13.53 24.6056 12.672 24.6056 11.836C24.6056 10.9413 24.3856 10.2593 23.9456 9.79C23.5056 9.32066 22.897 9.086 22.1196 9.086C21.401 9.086 20.7923 9.284 20.2936 9.68C19.8096 10.076 19.4576 10.6333 19.2376 11.352C19.2376 11.3667 19.2083 11.374 19.1496 11.374C19.0323 11.374 18.981 11.3447 18.9956 11.286C19.1863 10.2593 19.6336 9.46 20.3376 8.888C21.0416 8.30133 21.907 8.008 22.9336 8.008C24.0043 8.008 24.8403 8.316 25.4416 8.932C26.0576 9.53333 26.3656 10.3253 26.3656 11.308C26.3656 12.1293 26.153 12.9653 25.7276 13.816C25.3023 14.6667 24.7963 15.4513 24.2096 16.17C23.6376 16.8887 22.9263 17.7027 22.0756 18.612C21.2983 19.448 20.7776 20.042 20.5136 20.394C20.4403 20.4967 20.4696 20.548 20.6016 20.548C22.391 20.548 23.6743 20.5187 24.4516 20.46C25.229 20.4013 25.7716 20.2693 26.0796 20.064C26.3876 19.8587 26.549 19.514 26.5636 19.03C26.5636 18.986 26.6003 18.964 26.6736 18.964C26.7616 18.964 26.8056 18.986 26.8056 19.03L26.7836 21.758C26.7836 21.8167 26.7616 21.8753 26.7176 21.934C26.6883 21.978 26.6443 22 26.5856 22H19.0616Z"/>
<path d="M56.364 10.076C56.364 9.636 56.32 9.31333 56.232 9.108C56.144 8.888 55.968 8.734 55.704 8.646C55.44 8.558 55.0293 8.514 54.472 8.514C54.428 8.514 54.406 8.47 54.406 8.382C54.406 8.294 54.428 8.25 54.472 8.25L55.506 8.272C56.1807 8.30133 56.76 8.316 57.244 8.316C57.6547 8.316 58.1827 8.30133 58.828 8.272L59.95 8.25C59.994 8.25 60.016 8.294 60.016 8.382C60.016 8.47 59.994 8.514 59.95 8.514C59.4073 8.514 59.004 8.558 58.74 8.646C58.4907 8.71933 58.322 8.85866 58.234 9.064C58.146 9.26933 58.102 9.592 58.102 10.032V20.218C58.102 20.658 58.146 20.988 58.234 21.208C58.322 21.4133 58.4907 21.5527 58.74 21.626C59.004 21.6993 59.4073 21.736 59.95 21.736C59.994 21.736 60.016 21.78 60.016 21.868C60.016 21.956 59.994 22 59.95 22C59.4807 22 59.1067 21.9927 58.828 21.978L57.244 21.956L55.506 21.978C55.2567 21.9927 54.912 22 54.472 22C54.428 22 54.406 21.956 54.406 21.868C54.406 21.78 54.428 21.736 54.472 21.736C55.044 21.736 55.4547 21.6993 55.704 21.626C55.968 21.5527 56.144 21.4133 56.232 21.208C56.32 21.0027 56.364 20.6727 56.364 20.218V10.076ZM47.41 14.586H57.134V15.092H47.41V14.586ZM46.596 10.032C46.596 9.592 46.552 9.26933 46.464 9.064C46.376 8.85866 46.2073 8.71933 45.958 8.646C45.7087 8.558 45.3127 8.514 44.77 8.514C44.726 8.514 44.704 8.47 44.704 8.382C44.704 8.294 44.726 8.25 44.77 8.25L45.892 8.272C46.508 8.30133 47.0213 8.316 47.432 8.316C47.8867 8.316 48.4513 8.30133 49.126 8.272L50.248 8.25C50.2773 8.25 50.292 8.294 50.292 8.382C50.292 8.47 50.2773 8.514 50.248 8.514C49.6907 8.514 49.28 8.558 49.016 8.646C48.752 8.734 48.5687 8.888 48.466 9.108C48.378 9.31333 48.334 9.636 48.334 10.076V20.218C48.334 20.658 48.378 20.988 48.466 21.208C48.5687 21.4133 48.7447 21.5527 48.994 21.626C49.258 21.6993 49.676 21.736 50.248 21.736C50.2773 21.736 50.292 21.78 50.292 21.868C50.292 21.956 50.2773 22 50.248 22C49.764 22 49.39 21.9927 49.126 21.978L47.432 21.956L45.87 21.978C45.5913 21.9927 45.21 22 44.726 22C44.6967 22 44.682 21.956 44.682 21.868C44.682 21.78 44.6967 21.736 44.726 21.736C45.2687 21.736 45.6647 21.6993 45.914 21.626C46.178 21.5527 46.354 21.4133 46.442 21.208C46.5447 20.988 46.596 20.658 46.596 20.218V10.032Z" fill-opacity="0.4"/>
<path d="M61.3523 24.948C61.4697 24.508 61.6383 24.0973 61.8583 23.716C62.093 23.3493 62.401 22.9167 62.7823 22.418C63.2077 21.846 63.523 21.362 63.7283 20.966C63.9483 20.57 64.0583 20.1447 64.0583 19.69C64.0583 19.2793 63.963 18.964 63.7723 18.744C63.5963 18.524 63.347 18.414 63.0243 18.414C62.687 18.414 62.3863 18.5313 62.1223 18.766C61.873 18.986 61.697 19.272 61.5943 19.624C61.5943 19.668 61.5577 19.69 61.4843 19.69C61.455 19.69 61.4183 19.6827 61.3743 19.668C61.345 19.6387 61.3377 19.6093 61.3523 19.58C61.675 18.4653 62.3863 17.908 63.4863 17.908C64.073 17.908 64.5203 18.0547 64.8283 18.348C65.1363 18.6413 65.2903 19.0153 65.2903 19.47C65.2903 19.91 65.1437 20.328 64.8503 20.724C64.5717 21.12 64.139 21.6187 63.5523 22.22C63.1417 22.6307 62.8263 22.968 62.6063 23.232C62.3863 23.496 62.2323 23.76 62.1443 24.024C62.1297 24.068 62.1443 24.09 62.1883 24.09C63.1563 24.09 63.8383 24.068 64.2343 24.024C64.6303 23.98 64.9017 23.8847 65.0483 23.738C65.2097 23.606 65.327 23.364 65.4003 23.012C65.4003 22.9827 65.4297 22.968 65.4883 22.968C65.547 22.968 65.5763 22.9827 65.5763 23.012L65.5543 24.992C65.5543 25.0507 65.525 25.08 65.4663 25.08H61.4183C61.3597 25.08 61.3377 25.036 61.3523 24.948Z"/>
<path d="M41 16.5L36 13V15H33V18H36V20L41 16.5Z" class="error"/>
</svg>
