<svg width="80" height="32" viewBox="0 0 80 32" xmlns="http://www.w3.org/2000/svg"><style>@import '../colors.css';</style>
<path d="M11.6065 15.774H17.5905L17.7445 16.258H11.3425L11.6065 15.774ZM22.7165 21.736C22.7899 21.736 22.8265 21.78 22.8265 21.868C22.8265 21.956 22.7899 22 22.7165 22C22.4379 22 22.0052 21.9853 21.4185 21.956C20.8025 21.9266 20.3625 21.912 20.0985 21.912C19.7612 21.912 19.3432 21.9266 18.8445 21.956C18.3459 21.9853 17.9719 22 17.7225 22C17.6639 22 17.6345 21.956 17.6345 21.868C17.6345 21.78 17.6639 21.736 17.7225 21.736C18.2212 21.736 18.5805 21.692 18.8005 21.604C19.0205 21.5013 19.1305 21.3253 19.1305 21.076C19.1305 20.8266 19.0205 20.482 18.8005 20.042L14.0705 10.208L14.7745 9.15197L10.4845 19.096C10.2792 19.5946 10.1765 20.0053 10.1765 20.328C10.1765 20.7973 10.3599 21.1493 10.7265 21.384C11.0932 21.6186 11.6212 21.736 12.3105 21.736C12.3839 21.736 12.4205 21.78 12.4205 21.868C12.4205 21.956 12.3839 22 12.3105 22C12.0465 22 11.6652 21.9853 11.1665 21.956C10.6092 21.9266 10.1252 21.912 9.71453 21.912C9.3332 21.912 8.87853 21.9266 8.35053 21.956C7.8812 21.9853 7.49986 22 7.20653 22C7.14786 22 7.11853 21.956 7.11853 21.868C7.11853 21.78 7.14786 21.736 7.20653 21.736C7.6172 21.736 7.96186 21.6553 8.24053 21.494C8.53386 21.3326 8.81253 21.054 9.07653 20.658C9.34053 20.262 9.6412 19.6753 9.97853 18.898L14.6645 8.09597C14.6792 8.05197 14.7305 8.02997 14.8185 8.02997C14.9065 8.01531 14.9579 8.03731 14.9725 8.09597L20.2525 18.986C20.7659 20.0566 21.1912 20.7826 21.5285 21.164C21.8805 21.5453 22.2765 21.736 22.7165 21.736Z" fill-opacity="0.4"/>
<path d="M29.7137 22.132C29.6551 22.1613 29.5891 22.176 29.5157 22.176C29.2811 22.176 29.0684 22.0073 28.8777 21.67C28.6871 21.318 28.5917 20.8486 28.5917 20.262V16.236C28.5917 15.356 28.4817 14.718 28.2617 14.322C28.0564 13.9113 27.7411 13.706 27.3157 13.706C26.8171 13.706 26.4504 13.8746 26.2157 14.212C25.9811 14.5493 25.8271 14.938 25.7537 15.378C25.6804 16.0526 25.3651 16.39 24.8077 16.39C24.5291 16.39 24.3164 16.324 24.1697 16.192C24.0377 16.06 23.9717 15.8913 23.9717 15.686C23.9717 15.3046 24.2064 14.9306 24.6757 14.564C25.1451 14.1826 25.7097 13.8746 26.3697 13.64C27.0444 13.4053 27.6384 13.288 28.1517 13.288C28.7677 13.288 29.2444 13.486 29.5817 13.882C29.9191 14.278 30.0877 14.8426 30.0877 15.576V19.624C30.0877 20.5773 30.3664 21.054 30.9237 21.054C31.2024 21.054 31.5251 20.9733 31.8917 20.812H31.9137C31.9724 20.812 32.0091 20.8486 32.0237 20.922C32.0531 20.9806 32.0384 21.0246 31.9797 21.054L29.7137 22.132ZM25.6657 22.154C25.0937 22.154 24.6537 22.0146 24.3457 21.736C24.0377 21.4426 23.8837 21.0686 23.8837 20.614C23.8837 20.1153 24.0744 19.7193 24.4557 19.426C24.8371 19.1326 25.4531 18.8246 26.3037 18.502L28.8117 17.578L28.8777 17.864L26.8757 18.678C26.4944 18.8246 26.1937 19.008 25.9737 19.228C25.7537 19.4333 25.6437 19.6973 25.6437 20.02C25.6437 20.372 25.7537 20.6653 25.9737 20.9C26.2084 21.12 26.5017 21.23 26.8537 21.23C27.1324 21.23 27.4477 21.1273 27.7997 20.922L29.0977 20.108L29.1417 20.416L27.5357 21.472C27.1984 21.7213 26.8831 21.8973 26.5897 22C26.2964 22.1026 25.9884 22.154 25.6657 22.154Z"/>
<path d="M52.378 15.774H58.362L58.516 16.258H52.114L52.378 15.774ZM63.488 21.736C63.5613 21.736 63.598 21.78 63.598 21.868C63.598 21.956 63.5613 22 63.488 22C63.2093 22 62.7767 21.9853 62.19 21.956C61.574 21.9266 61.134 21.912 60.87 21.912C60.5327 21.912 60.1147 21.9266 59.616 21.956C59.1174 21.9853 58.7433 22 58.494 22C58.4353 22 58.406 21.956 58.406 21.868C58.406 21.78 58.4353 21.736 58.494 21.736C58.9927 21.736 59.352 21.692 59.572 21.604C59.792 21.5013 59.902 21.3253 59.902 21.076C59.902 20.8266 59.792 20.482 59.572 20.042L54.842 10.208L55.546 9.15197L51.256 19.096C51.0507 19.5946 50.948 20.0053 50.948 20.328C50.948 20.7973 51.1313 21.1493 51.498 21.384C51.8647 21.6186 52.3927 21.736 53.082 21.736C53.1553 21.736 53.192 21.78 53.192 21.868C53.192 21.956 53.1553 22 53.082 22C52.818 22 52.4367 21.9853 51.938 21.956C51.3807 21.9266 50.8967 21.912 50.486 21.912C50.1047 21.912 49.65 21.9266 49.122 21.956C48.6527 21.9853 48.2713 22 47.978 22C47.9193 22 47.89 21.956 47.89 21.868C47.89 21.78 47.9193 21.736 47.978 21.736C48.3887 21.736 48.7333 21.6553 49.012 21.494C49.3053 21.3326 49.584 21.054 49.848 20.658C50.112 20.262 50.4127 19.6753 50.75 18.898L55.436 8.09597C55.4507 8.05197 55.502 8.02997 55.59 8.02997C55.678 8.01531 55.7293 8.03731 55.744 8.09597L61.024 18.986C61.5373 20.0566 61.9627 20.7826 62.3 21.164C62.652 21.5453 63.048 21.736 63.488 21.736Z" fill-opacity="0.4"/>
<path d="M67.6252 16.61H71.6512L71.8052 17.05H67.2952L67.6252 16.61ZM75.7652 21.736C75.8386 21.736 75.8752 21.78 75.8752 21.868C75.8752 21.956 75.8386 22 75.7652 22C75.4719 22 75.0319 21.9853 74.4452 21.956C73.8586 21.9266 73.4332 21.912 73.1692 21.912C72.9346 21.912 72.5972 21.9266 72.1572 21.956C71.7466 21.9853 71.4385 22 71.2332 22C71.1745 22 71.1452 21.956 71.1452 21.868C71.1452 21.78 71.1745 21.736 71.2332 21.736C71.5999 21.736 71.8639 21.692 72.0252 21.604C72.2012 21.5013 72.2892 21.3473 72.2892 21.142C72.2892 20.922 72.1866 20.592 71.9812 20.152L68.8132 13.31L69.5172 12.452L66.7232 19.294C66.4739 19.91 66.3492 20.3793 66.3492 20.702C66.3492 21.0686 66.4739 21.3326 66.7232 21.494C66.9872 21.6553 67.3905 21.736 67.9332 21.736C68.0065 21.736 68.0432 21.78 68.0432 21.868C68.0432 21.956 68.0065 22 67.9332 22C67.7279 22 67.4346 21.9853 67.0532 21.956C66.6426 21.9266 66.2612 21.912 65.9092 21.912C65.5426 21.912 65.1099 21.9266 64.6112 21.956C64.1712 21.9853 63.8119 22 63.5332 22C63.4599 22 63.4232 21.956 63.4232 21.868C63.4232 21.78 63.4599 21.736 63.5332 21.736C63.9879 21.736 64.3472 21.6773 64.6112 21.56C64.8899 21.428 65.1392 21.1786 65.3592 20.812C65.5939 20.4453 65.8726 19.8733 66.1952 19.096L69.4072 11.374C69.4366 11.3153 69.4806 11.286 69.5392 11.286C69.5979 11.286 69.6419 11.3153 69.6712 11.374L73.1912 18.986C73.5725 19.7926 73.8806 20.3866 74.1152 20.768C74.3499 21.1346 74.5846 21.3913 74.8192 21.538C75.0686 21.67 75.3839 21.736 75.7652 21.736Z"/>
<path d="M45 16.5L40 13V15H37V18H40V20L45 16.5Z" class="error"/>
</svg>
