<svg width="104" height="32" viewBox="0 0 104 32" xmlns="http://www.w3.org/2000/svg"><style>@import '../colors.css';</style>
<path d="M5.5534 22C5.52406 22 5.5094 21.956 5.5094 21.868C5.5094 21.78 5.52406 21.736 5.5534 21.736C6.22806 21.736 6.73406 21.6993 7.0714 21.626C7.40873 21.538 7.6434 21.3913 7.7754 21.186C7.92206 20.966 7.9954 20.6433 7.9954 20.218V11.572C7.9954 10.692 7.78273 10.252 7.3574 10.252C6.97606 10.252 6.36006 10.5673 5.5094 11.198L5.4654 11.22C5.40673 11.22 5.36273 11.1833 5.3334 11.11C5.30406 11.0367 5.3114 10.9853 5.3554 10.956L9.2934 8.096C9.36673 8.052 9.41806 8.03 9.4474 8.03C9.47673 8.03 9.50606 8.04466 9.5354 8.074C9.56473 8.10333 9.5794 8.14 9.5794 8.184V20.218C9.5794 20.658 9.63806 20.988 9.7554 21.208C9.8874 21.4133 10.1147 21.5527 10.4374 21.626C10.7747 21.6993 11.2954 21.736 11.9994 21.736C12.0287 21.736 12.0434 21.78 12.0434 21.868C12.0434 21.956 12.0287 22 11.9994 22C11.4421 22 10.9947 21.9927 10.6574 21.978L8.7874 21.956L6.9394 21.978C6.60206 21.9927 6.14006 22 5.5534 22Z"/>
<path d="M17.1831 22.264C15.8045 22.264 14.6091 21.714 13.5971 20.614L13.5751 20.57C13.5751 20.5113 13.6045 20.4673 13.6631 20.438C13.7365 20.394 13.7878 20.394 13.8171 20.438C14.1691 20.8047 14.6018 21.0833 15.1151 21.274C15.6285 21.4647 16.1345 21.56 16.6331 21.56C17.6305 21.56 18.3638 21.2593 18.8331 20.658C19.3171 20.0567 19.5591 19.2793 19.5591 18.326C19.5591 16.0673 18.2831 14.938 15.7311 14.938C15.6725 14.938 15.6431 14.8867 15.6431 14.784C15.6431 14.6813 15.6725 14.63 15.7311 14.63C16.9631 14.63 17.8358 14.3733 18.3491 13.86C18.8625 13.332 19.1191 12.606 19.1191 11.682C19.1191 10.7727 18.9065 10.0907 18.4811 9.636C18.0705 9.18133 17.4911 8.954 16.7431 8.954C16.1418 8.954 15.5698 9.108 15.0271 9.416C14.4845 9.70933 14.0885 10.1347 13.8391 10.692C13.8391 10.7067 13.8245 10.714 13.7951 10.714C13.7511 10.714 13.6998 10.6993 13.6411 10.67C13.5971 10.6407 13.5825 10.6113 13.5971 10.582C13.9198 9.79 14.4185 9.16666 15.0931 8.712C15.7825 8.24266 16.5745 8.008 17.4691 8.008C18.4958 8.008 19.3098 8.30133 19.9111 8.888C20.5271 9.46 20.8351 10.186 20.8351 11.066C20.8351 11.946 20.5345 12.7453 19.9331 13.464C19.3318 14.168 18.5251 14.6227 17.5131 14.828L17.5571 14.652C18.3638 14.5933 19.0531 14.718 19.6251 15.026C20.2118 15.334 20.6518 15.7667 20.9451 16.324C21.2385 16.8813 21.3851 17.49 21.3851 18.15C21.3851 18.9567 21.2018 19.6753 20.8351 20.306C20.4831 20.922 19.9845 21.406 19.3391 21.758C18.7085 22.0953 17.9898 22.264 17.1831 22.264Z"/>
<path d="M28.8777 14.52C29.5524 14.52 30.139 14.6813 30.6377 15.004C31.1364 15.3267 31.5177 15.7667 31.7817 16.324C32.0604 16.8813 32.1997 17.49 32.1997 18.15C32.1997 18.9273 32.009 19.6313 31.6277 20.262C31.261 20.8927 30.7477 21.3913 30.0877 21.758C29.4424 22.11 28.709 22.286 27.8877 22.286C26.509 22.286 25.453 21.8093 24.7197 20.856C23.9864 19.888 23.6197 18.6047 23.6197 17.006C23.6197 15.5687 23.9057 14.1753 24.4777 12.826C25.0497 11.462 25.871 10.34 26.9417 9.46C28.0124 8.56533 29.259 8.08133 30.6817 8.008C30.7404 8.008 30.777 8.04466 30.7917 8.118C30.8064 8.17666 30.7917 8.21333 30.7477 8.228C29.6037 8.50666 28.6284 9.07133 27.8217 9.922C27.015 10.7727 26.4064 11.7993 25.9957 13.002C25.5997 14.19 25.4017 15.4293 25.4017 16.72C25.4017 18.1867 25.6584 19.4113 26.1717 20.394C26.685 21.362 27.433 21.846 28.4157 21.846C29.0904 21.846 29.589 21.5747 29.9117 21.032C30.249 20.4747 30.4177 19.712 30.4177 18.744C30.4177 17.644 30.2197 16.786 29.8237 16.17C29.4424 15.5393 28.8924 15.224 28.1737 15.224C27.5577 15.224 27.0077 15.444 26.5237 15.884C26.509 15.8987 26.487 15.906 26.4577 15.906C26.4137 15.906 26.3697 15.884 26.3257 15.84C26.2817 15.7813 26.267 15.7447 26.2817 15.73C26.6044 15.334 26.9857 15.0333 27.4257 14.828C27.8804 14.6227 28.3644 14.52 28.8777 14.52Z"/>
<path d="M39.1778 14.542C40.1018 13.662 40.5638 12.496 40.5638 11.044C40.5638 10.1787 40.3732 9.526 39.9918 9.086C39.6105 8.63133 39.1045 8.404 38.4738 8.404C37.9458 8.404 37.5278 8.58 37.2198 8.932C36.9118 9.26933 36.7578 9.70933 36.7578 10.252C36.7578 10.824 36.8898 11.33 37.1538 11.77C37.4325 12.1953 37.7698 12.562 38.1658 12.87C38.5765 13.178 39.1338 13.5373 39.8378 13.948C40.5565 14.388 41.1358 14.7913 41.5758 15.158C42.0305 15.51 42.4045 15.9573 42.6978 16.5C43.0058 17.0427 43.1598 17.688 43.1598 18.436C43.1598 19.1987 42.9545 19.8733 42.5438 20.46C42.1478 21.0467 41.5978 21.5013 40.8938 21.824C40.2045 22.132 39.4345 22.286 38.5838 22.286C37.6745 22.286 36.8825 22.1173 36.2078 21.78C35.5332 21.4427 35.0198 20.988 34.6678 20.416C34.3158 19.8293 34.1398 19.184 34.1398 18.48C34.1398 17.7467 34.3232 17.0647 34.6898 16.434C35.0712 15.8033 35.5552 15.268 36.1418 14.828C36.7432 14.3733 37.3665 14.036 38.0118 13.816L38.1438 13.992C36.6772 14.7987 35.9438 16.126 35.9438 17.974C35.9438 19.118 36.2298 20.0567 36.8018 20.79C37.3885 21.5087 38.1585 21.868 39.1118 21.868C39.9038 21.868 40.5198 21.626 40.9598 21.142C41.3998 20.6433 41.6198 19.9687 41.6198 19.118C41.6198 18.4287 41.4658 17.842 41.1578 17.358C40.8645 16.8593 40.5052 16.4487 40.0798 16.126C39.6545 15.8033 39.0678 15.4147 38.3198 14.96C37.6598 14.564 37.1318 14.2047 36.7358 13.882C36.3398 13.5593 36.0098 13.178 35.7458 12.738C35.4818 12.2833 35.3498 11.748 35.3498 11.132C35.3498 10.4573 35.5185 9.88533 35.8558 9.416C36.1932 8.94666 36.6332 8.59466 37.1758 8.36C37.7185 8.12533 38.2905 8.008 38.8918 8.008C39.8305 8.008 40.6005 8.272 41.2018 8.8C41.8178 9.328 42.1258 9.988 42.1258 10.78C42.1258 11.5573 41.8618 12.2833 41.3338 12.958C40.8205 13.6327 40.1385 14.2047 39.2878 14.674L39.1778 14.542Z"/>
<path d="M62.1339 22C62.1046 22 62.0899 21.956 62.0899 21.868C62.0899 21.78 62.1046 21.736 62.1339 21.736C62.9406 21.736 63.5419 21.6993 63.9379 21.626C64.3486 21.538 64.6346 21.3913 64.7959 21.186C64.9719 20.966 65.0599 20.6433 65.0599 20.218V11.572C65.0599 11.132 65.0086 10.8093 64.9059 10.604C64.8179 10.3987 64.6639 10.296 64.4439 10.296C64.2533 10.296 63.9379 10.4133 63.4979 10.648C63.0726 10.8827 62.5813 11.2053 62.0239 11.616L61.9799 11.638C61.9213 11.638 61.8773 11.6087 61.8479 11.55C61.8186 11.4767 61.8186 11.4253 61.8479 11.396L66.3799 8.096C66.4533 8.052 66.5046 8.03 66.5339 8.03C66.5633 8.03 66.5926 8.04466 66.6219 8.074C66.6513 8.10333 66.6659 8.14 66.6659 8.184V20.218C66.6659 20.658 66.7393 20.9807 66.8859 21.186C67.0473 21.3913 67.3259 21.538 67.7219 21.626C68.1326 21.6993 68.7559 21.736 69.5919 21.736C69.6359 21.736 69.6579 21.78 69.6579 21.868C69.6579 21.956 69.6359 22 69.5919 22C68.9319 22 68.4113 21.9927 68.0299 21.978L65.8739 21.956L63.7179 21.978C63.3366 21.9927 62.8086 22 62.1339 22Z"/>
<path d="M76.1086 22.264C74.7299 22.264 73.5346 21.714 72.5226 20.614L72.5006 20.57C72.5006 20.5113 72.5299 20.4673 72.5886 20.438C72.6619 20.394 72.7133 20.394 72.7426 20.438C73.0946 20.8047 73.5272 21.0833 74.0406 21.274C74.5539 21.4647 75.0599 21.56 75.5586 21.56C76.5559 21.56 77.2892 21.2593 77.7586 20.658C78.2426 20.0567 78.4846 19.2793 78.4846 18.326C78.4846 16.0673 77.2086 14.938 74.6566 14.938C74.5979 14.938 74.5686 14.8867 74.5686 14.784C74.5686 14.6813 74.5979 14.63 74.6566 14.63C75.8886 14.63 76.7612 14.3733 77.2746 13.86C77.7879 13.332 78.0446 12.606 78.0446 11.682C78.0446 10.7727 77.8319 10.0907 77.4066 9.636C76.9959 9.18133 76.4166 8.954 75.6686 8.954C75.0673 8.954 74.4952 9.108 73.9526 9.416C73.4099 9.70933 73.0139 10.1347 72.7646 10.692C72.7646 10.7067 72.7499 10.714 72.7206 10.714C72.6766 10.714 72.6252 10.6993 72.5666 10.67C72.5226 10.6407 72.5079 10.6113 72.5226 10.582C72.8452 9.79 73.3439 9.16666 74.0186 8.712C74.7079 8.24266 75.4999 8.008 76.3946 8.008C77.4213 8.008 78.2353 8.30133 78.8366 8.888C79.4526 9.46 79.7606 10.186 79.7606 11.066C79.7606 11.946 79.4599 12.7453 78.8586 13.464C78.2572 14.168 77.4506 14.6227 76.4386 14.828L76.4826 14.652C77.2892 14.5933 77.9786 14.718 78.5506 15.026C79.1372 15.334 79.5772 15.7667 79.8706 16.324C80.1639 16.8813 80.3106 17.49 80.3106 18.15C80.3106 18.9567 80.1272 19.6753 79.7606 20.306C79.4086 20.922 78.9099 21.406 78.2646 21.758C77.6339 22.0953 76.9152 22.264 76.1086 22.264Z"/>
<path d="M88.1472 14.52C88.8219 14.52 89.4086 14.6813 89.9072 15.004C90.4059 15.3267 90.7872 15.7667 91.0512 16.324C91.3299 16.8813 91.4692 17.49 91.4692 18.15C91.4692 18.9273 91.2786 19.6313 90.8972 20.262C90.5306 20.8927 90.0172 21.3913 89.3572 21.758C88.7119 22.11 87.9786 22.286 87.1572 22.286C85.7786 22.286 84.7226 21.8093 83.9892 20.856C83.2559 19.888 82.8892 18.6047 82.8892 17.006C82.8892 15.5687 83.1752 14.1753 83.7472 12.826C84.3192 11.462 85.1406 10.34 86.2112 9.46C87.2819 8.56533 88.5286 8.08133 89.9512 8.008C90.0099 8.008 90.0466 8.04466 90.0612 8.118C90.0759 8.17666 90.0612 8.21333 90.0172 8.228C88.8732 8.50666 87.8979 9.07133 87.0912 9.922C86.2846 10.7727 85.6759 11.7993 85.2652 13.002C84.8692 14.19 84.6712 15.4293 84.6712 16.72C84.6712 18.1867 84.9279 19.4113 85.4412 20.394C85.9546 21.362 86.7026 21.846 87.6852 21.846C88.3599 21.846 88.8586 21.5747 89.1812 21.032C89.5186 20.4747 89.6872 19.712 89.6872 18.744C89.6872 17.644 89.4892 16.786 89.0932 16.17C88.7119 15.5393 88.1619 15.224 87.4432 15.224C86.8272 15.224 86.2772 15.444 85.7932 15.884C85.7786 15.8987 85.7566 15.906 85.7272 15.906C85.6832 15.906 85.6392 15.884 85.5952 15.84C85.5512 15.7813 85.5366 15.7447 85.5512 15.73C85.8739 15.334 86.2552 15.0333 86.6952 14.828C87.1499 14.6227 87.6339 14.52 88.1472 14.52Z"/>
<path d="M98.4259 14.542C99.3499 13.662 99.8119 12.496 99.8119 11.044C99.8119 10.1787 99.6212 9.526 99.2399 9.086C98.8585 8.63133 98.3525 8.404 97.7219 8.404C97.1939 8.404 96.7759 8.58 96.4679 8.932C96.1599 9.26933 96.0059 9.70933 96.0059 10.252C96.0059 10.824 96.1379 11.33 96.4019 11.77C96.6805 12.1953 97.0179 12.562 97.4139 12.87C97.8245 13.178 98.3819 13.5373 99.0859 13.948C99.8045 14.388 100.384 14.7913 100.824 15.158C101.279 15.51 101.653 15.9573 101.946 16.5C102.254 17.0427 102.408 17.688 102.408 18.436C102.408 19.1987 102.203 19.8733 101.792 20.46C101.396 21.0467 100.846 21.5013 100.142 21.824C99.4525 22.132 98.6825 22.286 97.8319 22.286C96.9225 22.286 96.1305 22.1173 95.4559 21.78C94.7812 21.4427 94.2679 20.988 93.9159 20.416C93.5639 19.8293 93.3879 19.184 93.3879 18.48C93.3879 17.7467 93.5712 17.0647 93.9379 16.434C94.3192 15.8033 94.8032 15.268 95.3899 14.828C95.9912 14.3733 96.6145 14.036 97.2599 13.816L97.3919 13.992C95.9252 14.7987 95.1919 16.126 95.1919 17.974C95.1919 19.118 95.4779 20.0567 96.0499 20.79C96.6365 21.5087 97.4065 21.868 98.3599 21.868C99.1519 21.868 99.7679 21.626 100.208 21.142C100.648 20.6433 100.868 19.9687 100.868 19.118C100.868 18.4287 100.714 17.842 100.406 17.358C100.113 16.8593 99.7532 16.4487 99.3279 16.126C98.9025 15.8033 98.3159 15.4147 97.5679 14.96C96.9079 14.564 96.3799 14.2047 95.9839 13.882C95.5879 13.5593 95.2579 13.178 94.9939 12.738C94.7299 12.2833 94.5979 11.748 94.5979 11.132C94.5979 10.4573 94.7665 9.88533 95.1039 9.416C95.4412 8.94666 95.8812 8.59466 96.4239 8.36C96.9665 8.12533 97.5385 8.008 98.1399 8.008C99.0785 8.008 99.8485 8.272 100.45 8.8C101.066 9.328 101.374 9.988 101.374 10.78C101.374 11.5573 101.11 12.2833 100.582 12.958C100.069 13.6327 99.3865 14.2047 98.5359 14.674L98.4259 14.542Z"/>
<path d="M57 16.5L52 13V15H49V18H52V20L57 16.5Z" class="error"/>
</svg>
