<svg width="48" height="32" viewBox="0 0 48 32" xmlns="http://www.w3.org/2000/svg"><style>@import '../colors.css';</style>
<path fill-rule="evenodd" clip-rule="evenodd" d="M8.10253 21.406C8.79187 21.9927 9.5912 22.286 10.5005 22.286C11.4099 22.286 12.2019 21.9927 12.8765 21.406C13.5659 20.8194 14.0939 19.9907 14.4605 18.92C14.8272 17.8494 15.0105 16.6027 15.0105 15.18C15.0105 13.7427 14.8272 12.4814 14.4605 11.396C14.0939 10.3107 13.5732 9.47469 12.8985 8.88802C12.2239 8.28669 11.4392 7.98602 10.5445 7.98602C9.62053 7.98602 8.81387 8.27936 8.12453 8.86602C7.4352 9.45269 6.89987 10.2887 6.51853 11.374C6.1372 12.4447 5.94653 13.6914 5.94653 15.114C5.94653 16.5514 6.12987 17.8127 6.49653 18.898C6.87787 19.9834 7.4132 20.8194 8.10253 21.406ZM13.1405 15.444C13.1405 19.7707 12.3485 21.934 10.7645 21.934C9.8112 21.934 9.07787 21.3327 8.56453 20.13C8.06587 18.9274 7.81653 17.204 7.81653 14.96C7.81653 12.8187 8.02187 11.176 8.43253 10.032C8.85787 8.88802 9.4812 8.31602 10.3025 8.31602C11.1825 8.31602 11.8719 8.91002 12.3705 10.098C12.8839 11.2714 13.1405 13.0534 13.1405 15.444ZM35.124 21.406C35.8134 21.9927 36.6127 22.286 37.522 22.286C38.4314 22.286 39.2234 21.9927 39.898 21.406C40.5874 20.8194 41.1154 19.9907 41.482 18.92C41.8487 17.8494 42.032 16.6027 42.032 15.18C42.032 13.7427 41.8487 12.4814 41.482 11.396C41.1154 10.3107 40.5947 9.47469 39.92 8.88802C39.2453 8.28669 38.4607 7.98602 37.566 7.98602C36.642 7.98602 35.8354 8.27936 35.146 8.86602C34.4567 9.45269 33.9214 10.2887 33.54 11.374C33.1587 12.4447 32.968 13.6914 32.968 15.114C32.968 16.5514 33.1514 17.8127 33.518 18.898C33.8993 19.9834 34.4347 20.8194 35.124 21.406ZM40.162 15.444C40.162 19.7707 39.37 21.934 37.786 21.934C37.087 21.934 36.5063 21.6108 36.0439 20.9642L39.6898 10.9472C40.0046 12.0729 40.162 13.5718 40.162 15.444ZM39.1305 9.56005L35.4325 19.7202C35.0362 18.5473 34.838 16.9606 34.838 14.96C34.838 12.8187 35.0434 11.176 35.454 10.032C35.8794 8.88802 36.5027 8.31602 37.324 8.31602C38.0593 8.31602 38.6614 8.7307 39.1305 9.56005Z"/>
<path d="M29 16.5L24 13V15H21V18H24V20L29 16.5Z" class="error"/>
</svg>
